%TF.GenerationSoftware,KiCad,Pcbnew,7.0.8*%
%TF.CreationDate,2025-02-28T20:23:41-05:00*%
%TF.ProjectId,Hexapod PCB KiCad Project,48657861-706f-4642-9050-4342204b6943,rev?*%
%TF.SameCoordinates,Original*%
%TF.FileFunction,Soldermask,Top*%
%TF.FilePolarity,Negative*%
%FSLAX46Y46*%
G04 Gerber Fmt 4.6, Leading zero omitted, Abs format (unit mm)*
G04 Created by KiCad (PCBNEW 7.0.8) date 2025-02-28 20:23:41*
%MOMM*%
%LPD*%
G01*
G04 APERTURE LIST*
G04 Aperture macros list*
%AMRoundRect*
0 Rectangle with rounded corners*
0 $1 Rounding radius*
0 $2 $3 $4 $5 $6 $7 $8 $9 X,Y pos of 4 corners*
0 Add a 4 corners polygon primitive as box body*
4,1,4,$2,$3,$4,$5,$6,$7,$8,$9,$2,$3,0*
0 Add four circle primitives for the rounded corners*
1,1,$1+$1,$2,$3*
1,1,$1+$1,$4,$5*
1,1,$1+$1,$6,$7*
1,1,$1+$1,$8,$9*
0 Add four rect primitives between the rounded corners*
20,1,$1+$1,$2,$3,$4,$5,0*
20,1,$1+$1,$4,$5,$6,$7,0*
20,1,$1+$1,$6,$7,$8,$9,0*
20,1,$1+$1,$8,$9,$2,$3,0*%
G04 Aperture macros list end*
%ADD10R,1.700000X1.700000*%
%ADD11O,1.700000X1.700000*%
%ADD12R,3.175000X7.088000*%
%ADD13R,3.175000X7.493000*%
%ADD14R,3.048000X7.493000*%
%ADD15C,3.200000*%
%ADD16C,1.904000*%
%ADD17C,1.600000*%
%ADD18O,1.600000X1.600000*%
%ADD19R,2.000000X2.000000*%
%ADD20C,2.000000*%
%ADD21RoundRect,0.102000X-1.200000X-1.200000X1.200000X-1.200000X1.200000X1.200000X-1.200000X1.200000X0*%
%ADD22C,2.604000*%
%ADD23C,1.700000*%
%ADD24R,1.200000X1.200000*%
%ADD25C,1.200000*%
%ADD26R,1.600000X1.600000*%
%ADD27O,2.000000X2.000000*%
G04 APERTURE END LIST*
%TO.C,G\u002A\u002A\u002A*%
G36*
X177915771Y-122329584D02*
G01*
X177915822Y-122334500D01*
X177891283Y-122401335D01*
X177830859Y-122472362D01*
X177754335Y-122529275D01*
X177681500Y-122553767D01*
X177678776Y-122553814D01*
X177640341Y-122551227D01*
X177631590Y-122537043D01*
X177656581Y-122501629D01*
X177719370Y-122435352D01*
X177735680Y-122418708D01*
X177822779Y-122334169D01*
X177877744Y-122293044D01*
X177906699Y-122292471D01*
X177915771Y-122329584D01*
G37*
G36*
X177760440Y-121843695D02*
G01*
X177756677Y-121877563D01*
X177725538Y-121929131D01*
X177662710Y-122004316D01*
X177563882Y-122109038D01*
X177442459Y-122231572D01*
X177301478Y-122368909D01*
X177194642Y-122465148D01*
X177116724Y-122524526D01*
X177062496Y-122551282D01*
X177045096Y-122553814D01*
X177023695Y-122548364D01*
X177023892Y-122528477D01*
X177049930Y-122488850D01*
X177106046Y-122424177D01*
X177196480Y-122329155D01*
X177325472Y-122198480D01*
X177343775Y-122180120D01*
X177465675Y-122060076D01*
X177573681Y-121957774D01*
X177660548Y-121879751D01*
X177719028Y-121832546D01*
X177741138Y-121821608D01*
X177760440Y-121843695D01*
G37*
G36*
X171336221Y-114983271D02*
G01*
X171398182Y-115044813D01*
X171434966Y-115120303D01*
X171438221Y-115146733D01*
X171452742Y-115219720D01*
X171479504Y-115261184D01*
X171506587Y-115316395D01*
X171518929Y-115414374D01*
X171516977Y-115539796D01*
X171501181Y-115677332D01*
X171471988Y-115811659D01*
X171462462Y-115843530D01*
X171405023Y-116023672D01*
X171395351Y-115678400D01*
X171385680Y-115333128D01*
X171295609Y-115323111D01*
X171186900Y-115288367D01*
X171119458Y-115217379D01*
X171102884Y-115145549D01*
X171198698Y-115145549D01*
X171220324Y-115182738D01*
X171273864Y-115218053D01*
X171318416Y-115198901D01*
X171335357Y-115157914D01*
X171321456Y-115108829D01*
X171275036Y-115084040D01*
X171222335Y-115095465D01*
X171213799Y-115102692D01*
X171198698Y-115145549D01*
X171102884Y-115145549D01*
X171100455Y-115135024D01*
X171125272Y-115055305D01*
X171185829Y-114989035D01*
X171261285Y-114958134D01*
X171268940Y-114957833D01*
X171336221Y-114983271D01*
G37*
G36*
X175034674Y-113367367D02*
G01*
X175061389Y-113442697D01*
X175032176Y-113504262D01*
X175018540Y-113516698D01*
X174984960Y-113572976D01*
X174973505Y-113638766D01*
X174946595Y-113729464D01*
X174906777Y-113770197D01*
X174828759Y-113810646D01*
X174762879Y-113803203D01*
X174689093Y-113745410D01*
X174686916Y-113743240D01*
X174636634Y-113680404D01*
X174615739Y-113632023D01*
X174738652Y-113632023D01*
X174743010Y-113648774D01*
X174783605Y-113690239D01*
X174838673Y-113690714D01*
X174870203Y-113663935D01*
X174868862Y-113618434D01*
X174849457Y-113589962D01*
X174797891Y-113567089D01*
X174753421Y-113585272D01*
X174738652Y-113632023D01*
X174615739Y-113632023D01*
X174613406Y-113626621D01*
X174613221Y-113623146D01*
X174638405Y-113558066D01*
X174698988Y-113497022D01*
X174772521Y-113460143D01*
X174798934Y-113456651D01*
X174866789Y-113436727D01*
X174935622Y-113389884D01*
X174987559Y-113347788D01*
X175018159Y-113347459D01*
X175034674Y-113367367D01*
G37*
G36*
X173795416Y-109492859D02*
G01*
X173863309Y-109687342D01*
X173382591Y-110168722D01*
X173213404Y-110340879D01*
X173078072Y-110484381D01*
X172979282Y-110596199D01*
X172919719Y-110673305D01*
X172901874Y-110710645D01*
X172878127Y-110803936D01*
X172817689Y-110870142D01*
X172736766Y-110902007D01*
X172651562Y-110892273D01*
X172591279Y-110849736D01*
X172551702Y-110780116D01*
X172541590Y-110729641D01*
X172543260Y-110724500D01*
X172661685Y-110724500D01*
X172682915Y-110774678D01*
X172721732Y-110784547D01*
X172771911Y-110763317D01*
X172781779Y-110724500D01*
X172760549Y-110674321D01*
X172721732Y-110664452D01*
X172671553Y-110685682D01*
X172661685Y-110724500D01*
X172543260Y-110724500D01*
X172567719Y-110649205D01*
X172631874Y-110580841D01*
X172712708Y-110545586D01*
X172729601Y-110544358D01*
X172772128Y-110527296D01*
X172843885Y-110474552D01*
X172947547Y-110383788D01*
X173085790Y-110252668D01*
X173253679Y-110086497D01*
X173709840Y-109628637D01*
X173718682Y-109463507D01*
X173727524Y-109298377D01*
X173795416Y-109492859D01*
G37*
G36*
X167266339Y-121866988D02*
G01*
X167337250Y-121908768D01*
X167384542Y-121975103D01*
X167393299Y-122055443D01*
X167382426Y-122089677D01*
X167347419Y-122144333D01*
X167318120Y-122163507D01*
X167301681Y-122191288D01*
X167290797Y-122265863D01*
X167287453Y-122358660D01*
X167285581Y-122464274D01*
X167277245Y-122523157D01*
X167258362Y-122548576D01*
X167227406Y-122553814D01*
X167194664Y-122547620D01*
X167176542Y-122520117D01*
X167168843Y-122457928D01*
X167167358Y-122362337D01*
X167160896Y-122234163D01*
X167140517Y-122157178D01*
X167122323Y-122133483D01*
X167086544Y-122070816D01*
X167081986Y-122016125D01*
X167151367Y-122016125D01*
X167154456Y-122053093D01*
X167195716Y-122094563D01*
X167254484Y-122099626D01*
X167301714Y-122067715D01*
X167307513Y-122056096D01*
X167302797Y-121999643D01*
X167276547Y-121959591D01*
X167233999Y-121926903D01*
X167198400Y-121940408D01*
X167181267Y-121956589D01*
X167151367Y-122016125D01*
X167081986Y-122016125D01*
X167079527Y-121986612D01*
X167102496Y-121912692D01*
X167113316Y-121899299D01*
X167186722Y-121860314D01*
X167266339Y-121866988D01*
G37*
G36*
X174305479Y-111083107D02*
G01*
X174357004Y-111256942D01*
X174373698Y-111392317D01*
X174354799Y-111500216D01*
X174299548Y-111591625D01*
X174267949Y-111625209D01*
X174202008Y-111703506D01*
X174165950Y-111775721D01*
X174162867Y-111796228D01*
X174138129Y-111876605D01*
X174077577Y-111946271D01*
X174001703Y-111983697D01*
X173982725Y-111985492D01*
X173917365Y-111965115D01*
X173862630Y-111925445D01*
X173812170Y-111840670D01*
X173812002Y-111805351D01*
X173922678Y-111805351D01*
X173943907Y-111855529D01*
X173982725Y-111865398D01*
X174032904Y-111844168D01*
X174042772Y-111805351D01*
X174021542Y-111755172D01*
X173982725Y-111745303D01*
X173932546Y-111766533D01*
X173922678Y-111805351D01*
X173812002Y-111805351D01*
X173811752Y-111752649D01*
X173854633Y-111677660D01*
X173934074Y-111631978D01*
X173986978Y-111625209D01*
X174059578Y-111603154D01*
X174135389Y-111547982D01*
X174141017Y-111542275D01*
X174178615Y-111498171D01*
X174202743Y-111450922D01*
X174216991Y-111385551D01*
X174224949Y-111287083D01*
X174229199Y-111174486D01*
X174237926Y-110889630D01*
X174305479Y-111083107D01*
G37*
G36*
X175853054Y-115912631D02*
G01*
X175863180Y-115934530D01*
X175874214Y-115963625D01*
X175886745Y-116001230D01*
X175897260Y-116043909D01*
X175905944Y-116097022D01*
X175912985Y-116165933D01*
X175918565Y-116256004D01*
X175922872Y-116372597D01*
X175926091Y-116521073D01*
X175928406Y-116706796D01*
X175930003Y-116935127D01*
X175931068Y-117211429D01*
X175931786Y-117541064D01*
X175931934Y-117633239D01*
X175934261Y-119152735D01*
X176642059Y-119885012D01*
X176860380Y-120112524D01*
X177038447Y-120302039D01*
X177179254Y-120457212D01*
X177285800Y-120581701D01*
X177361080Y-120679160D01*
X177408090Y-120753246D01*
X177429826Y-120807616D01*
X177429368Y-120845682D01*
X177407300Y-120831016D01*
X177348323Y-120777380D01*
X177256961Y-120689266D01*
X177137741Y-120571166D01*
X176995185Y-120427571D01*
X176833819Y-120262974D01*
X176658167Y-120081866D01*
X176617576Y-120039755D01*
X175815001Y-119206178D01*
X175816911Y-117509842D01*
X175817350Y-117148398D01*
X175817892Y-116842801D01*
X175818692Y-116588852D01*
X175819905Y-116382351D01*
X175821688Y-116219099D01*
X175824195Y-116094897D01*
X175827583Y-116005543D01*
X175832008Y-115946840D01*
X175837624Y-115914586D01*
X175844588Y-115904583D01*
X175853054Y-115912631D01*
G37*
G36*
X176186504Y-116945673D02*
G01*
X176196914Y-116997036D01*
X176191370Y-117044868D01*
X176184546Y-117123383D01*
X176204901Y-117161766D01*
X176215954Y-117167370D01*
X176246745Y-117187504D01*
X176271315Y-117225723D01*
X176290315Y-117288025D01*
X176304397Y-117380412D01*
X176314212Y-117508882D01*
X176320411Y-117679436D01*
X176323646Y-117898075D01*
X176324569Y-118167787D01*
X176324569Y-118966890D01*
X176699231Y-119340652D01*
X176850935Y-119494802D01*
X176963219Y-119616007D01*
X177041713Y-119711025D01*
X177092044Y-119786615D01*
X177117739Y-119843098D01*
X177142609Y-119919577D01*
X177155303Y-119965672D01*
X177155550Y-119971781D01*
X177133620Y-119951459D01*
X177075539Y-119894538D01*
X176987410Y-119807084D01*
X176875333Y-119695163D01*
X176745412Y-119564842D01*
X176679871Y-119498909D01*
X176210226Y-119026036D01*
X176197472Y-118148376D01*
X176193392Y-117891579D01*
X176189155Y-117688172D01*
X176184313Y-117531498D01*
X176178416Y-117414900D01*
X176171016Y-117331721D01*
X176161665Y-117275304D01*
X176149912Y-117238993D01*
X176135310Y-117216131D01*
X176134549Y-117215279D01*
X176088499Y-117127297D01*
X176101050Y-117028307D01*
X176115460Y-116997467D01*
X176156645Y-116944125D01*
X176186504Y-116945673D01*
G37*
G36*
X177341310Y-121316582D02*
G01*
X177407800Y-121375520D01*
X177435429Y-121451118D01*
X177435443Y-121452809D01*
X177410002Y-121521095D01*
X177348484Y-121583615D01*
X177273096Y-121620162D01*
X177248308Y-121623081D01*
X177193517Y-121645985D01*
X177102696Y-121714953D01*
X176975375Y-121830369D01*
X176873013Y-121930287D01*
X176564758Y-122237493D01*
X176564758Y-122395653D01*
X176561915Y-122488607D01*
X176549723Y-122536109D01*
X176522687Y-122552630D01*
X176504711Y-122553814D01*
X176471743Y-122547514D01*
X176453618Y-122519628D01*
X176446034Y-122456675D01*
X176444663Y-122365654D01*
X176444663Y-122177494D01*
X176774923Y-121848258D01*
X176911164Y-121709710D01*
X177007325Y-121604893D01*
X177068314Y-121527768D01*
X177099041Y-121472296D01*
X177099582Y-121469621D01*
X177188281Y-121469621D01*
X177223640Y-121513876D01*
X177280799Y-121526699D01*
X177282564Y-121526381D01*
X177321894Y-121493134D01*
X177330361Y-121457951D01*
X177307357Y-121407185D01*
X177256528Y-121385794D01*
X177205143Y-121402021D01*
X177193064Y-121416460D01*
X177188281Y-121469621D01*
X177099582Y-121469621D01*
X177105183Y-121441950D01*
X177126930Y-121351006D01*
X177191680Y-121301928D01*
X177256653Y-121292821D01*
X177341310Y-121316582D01*
G37*
G36*
X168214537Y-121649194D02*
G01*
X168278919Y-121712906D01*
X168308088Y-121792279D01*
X168308257Y-121798359D01*
X168322946Y-121858059D01*
X168371373Y-121932135D01*
X168460074Y-122030025D01*
X168488399Y-122058424D01*
X168576376Y-122147336D01*
X168629735Y-122210768D01*
X168657118Y-122264880D01*
X168667169Y-122325833D01*
X168668540Y-122395250D01*
X168664185Y-122492588D01*
X168648987Y-122541639D01*
X168623505Y-122553814D01*
X168593146Y-122535272D01*
X168579844Y-122472852D01*
X168578469Y-122425274D01*
X168574461Y-122356539D01*
X168556411Y-122300180D01*
X168515284Y-122240559D01*
X168442044Y-122162042D01*
X168404963Y-122125037D01*
X168296064Y-122025431D01*
X168213655Y-121969948D01*
X168151907Y-121953341D01*
X168061225Y-121929867D01*
X167997654Y-121869652D01*
X167977997Y-121801078D01*
X167983317Y-121785192D01*
X168072255Y-121785192D01*
X168079776Y-121850477D01*
X168115596Y-121888341D01*
X168161337Y-121882606D01*
X168196172Y-121841247D01*
X168203174Y-121803223D01*
X168183769Y-121738215D01*
X168150542Y-121718850D01*
X168098742Y-121732918D01*
X168072255Y-121785192D01*
X167983317Y-121785192D01*
X167999617Y-121736520D01*
X168050807Y-121671411D01*
X168111055Y-121628791D01*
X168136446Y-121623081D01*
X168214537Y-121649194D01*
G37*
G36*
X168626752Y-119727063D02*
G01*
X168689226Y-119788787D01*
X168725682Y-119864598D01*
X168728588Y-119889568D01*
X168745401Y-119931266D01*
X168797394Y-120002096D01*
X168886895Y-120104713D01*
X169016235Y-120241772D01*
X169187742Y-120415927D01*
X169208966Y-120437147D01*
X169689344Y-120916822D01*
X169687510Y-121352516D01*
X169684730Y-121548826D01*
X169677462Y-121698084D01*
X169664481Y-121813198D01*
X169644565Y-121907076D01*
X169630543Y-121953341D01*
X169575410Y-122118471D01*
X169572330Y-121547670D01*
X169569250Y-120976869D01*
X169096036Y-120504349D01*
X168929939Y-120340173D01*
X168799863Y-120215771D01*
X168700932Y-120126951D01*
X168628271Y-120069518D01*
X168577003Y-120039280D01*
X168546603Y-120031828D01*
X168456120Y-120009908D01*
X168407281Y-119944806D01*
X168399162Y-119886360D01*
X168492397Y-119886360D01*
X168513547Y-119937417D01*
X168522974Y-119944580D01*
X168573795Y-119948310D01*
X168616613Y-119912717D01*
X168632301Y-119857486D01*
X168627701Y-119836784D01*
X168586657Y-119799406D01*
X168556387Y-119797271D01*
X168508829Y-119830157D01*
X168492397Y-119886360D01*
X168399162Y-119886360D01*
X168398328Y-119880359D01*
X168422089Y-119795701D01*
X168481027Y-119729211D01*
X168556624Y-119701582D01*
X168558316Y-119701568D01*
X168626752Y-119727063D01*
G37*
G36*
X168575201Y-121377025D02*
G01*
X168629244Y-121434219D01*
X168660611Y-121501535D01*
X168659439Y-121543447D01*
X168673900Y-121580569D01*
X168727610Y-121651773D01*
X168815336Y-121750797D01*
X168931850Y-121871383D01*
X168941362Y-121880881D01*
X169238990Y-122177392D01*
X169238990Y-122365603D01*
X169235788Y-122472836D01*
X169224385Y-122531535D01*
X169202088Y-122552959D01*
X169193954Y-122553814D01*
X169165963Y-122538109D01*
X169152078Y-122483518D01*
X169148919Y-122399652D01*
X169147770Y-122335871D01*
X169139851Y-122284954D01*
X169118458Y-122236313D01*
X169076883Y-122179359D01*
X169008419Y-122103505D01*
X168906361Y-121998162D01*
X168873175Y-121964309D01*
X168750204Y-121841858D01*
X168658838Y-121758728D01*
X168591357Y-121708862D01*
X168540044Y-121686198D01*
X168515036Y-121683128D01*
X168417410Y-121657861D01*
X168355776Y-121588095D01*
X168345366Y-121536808D01*
X168414868Y-121536808D01*
X168448866Y-121579923D01*
X168499726Y-121587139D01*
X168553420Y-121556191D01*
X168563458Y-121518410D01*
X168540677Y-121467806D01*
X168490347Y-121445573D01*
X168439487Y-121460361D01*
X168427221Y-121474792D01*
X168414868Y-121536808D01*
X168345366Y-121536808D01*
X168338280Y-121501898D01*
X168363679Y-121416694D01*
X168435019Y-121365404D01*
X168515756Y-121352868D01*
X168575201Y-121377025D01*
G37*
G36*
X173414606Y-108307596D02*
G01*
X173448164Y-108447253D01*
X173466604Y-108613104D01*
X173471915Y-108803221D01*
X173472323Y-109118704D01*
X172751756Y-109838802D01*
X172031188Y-110558900D01*
X172031188Y-110958164D01*
X172031978Y-111122770D01*
X172035432Y-111239233D01*
X172043172Y-111319448D01*
X172056823Y-111375309D01*
X172078008Y-111418712D01*
X172098027Y-111447832D01*
X172140050Y-111511903D01*
X172146807Y-111558317D01*
X172121843Y-111615236D01*
X172119608Y-111619253D01*
X172054605Y-111684439D01*
X171967142Y-111711900D01*
X171879972Y-111697532D01*
X171839800Y-111669721D01*
X171796575Y-111588029D01*
X171798246Y-111558799D01*
X171904321Y-111558799D01*
X171933283Y-111604109D01*
X171979259Y-111617320D01*
X171983153Y-111616215D01*
X172017081Y-111580650D01*
X172025901Y-111555077D01*
X172012771Y-111506320D01*
X171969124Y-111482017D01*
X171921905Y-111493270D01*
X171909781Y-111507238D01*
X171904321Y-111558799D01*
X171798246Y-111558799D01*
X171802053Y-111492206D01*
X171835080Y-111428288D01*
X171853999Y-111387972D01*
X171867124Y-111319529D01*
X171875288Y-111214071D01*
X171879329Y-111062711D01*
X171880115Y-110949447D01*
X171881070Y-110528886D01*
X172616649Y-109793767D01*
X173352228Y-109058647D01*
X173354967Y-108593051D01*
X173357706Y-108127455D01*
X173414606Y-108307596D01*
G37*
G36*
X171614493Y-111469285D02*
G01*
X171673799Y-111530312D01*
X171697066Y-111610709D01*
X171677436Y-111693036D01*
X171640881Y-111737258D01*
X171595395Y-111789591D01*
X171580834Y-111827035D01*
X171600487Y-111875012D01*
X171640881Y-111925445D01*
X171686169Y-111995033D01*
X171700928Y-112055898D01*
X171676144Y-112140142D01*
X171613865Y-112197887D01*
X171532201Y-112223181D01*
X171449262Y-112210073D01*
X171387382Y-112158954D01*
X171344759Y-112063518D01*
X171348953Y-112040536D01*
X171460739Y-112040536D01*
X171477668Y-112108185D01*
X171515586Y-112130813D01*
X171555192Y-112106710D01*
X171575416Y-112050694D01*
X171568892Y-111999147D01*
X171522874Y-111985492D01*
X171470728Y-112006152D01*
X171460739Y-112040536D01*
X171348953Y-112040536D01*
X171360423Y-111977685D01*
X171400692Y-111925445D01*
X171445086Y-111867789D01*
X171460739Y-111825016D01*
X171440160Y-111776022D01*
X171400692Y-111730292D01*
X171350603Y-111652734D01*
X171350196Y-111606514D01*
X171467728Y-111606514D01*
X171480923Y-111659138D01*
X171518445Y-111685186D01*
X171520786Y-111685256D01*
X171557859Y-111661159D01*
X171570751Y-111638202D01*
X171572018Y-111582704D01*
X171542159Y-111546701D01*
X171499139Y-111547538D01*
X171486776Y-111557139D01*
X171467728Y-111606514D01*
X171350196Y-111606514D01*
X171349875Y-111570119D01*
X171391564Y-111498255D01*
X171468724Y-111452949D01*
X171526003Y-111445067D01*
X171614493Y-111469285D01*
G37*
G36*
X175336441Y-114300345D02*
G01*
X175347042Y-114325260D01*
X175350927Y-114340131D01*
X175356014Y-114379974D01*
X175345448Y-114420445D01*
X175312663Y-114471162D01*
X175251094Y-114541747D01*
X175154178Y-114641821D01*
X175125018Y-114671206D01*
X174878268Y-114919244D01*
X174861710Y-116387179D01*
X174845151Y-117855114D01*
X174909328Y-117912309D01*
X174961508Y-117988746D01*
X174967684Y-118070038D01*
X174937195Y-118143483D01*
X174879379Y-118196380D01*
X174803573Y-118216027D01*
X174719115Y-118189723D01*
X174709877Y-118183605D01*
X174658856Y-118117724D01*
X174647106Y-118052040D01*
X174733316Y-118052040D01*
X174756231Y-118096480D01*
X174806825Y-118111562D01*
X174857872Y-118092240D01*
X174870203Y-118077410D01*
X174868105Y-118032716D01*
X174844832Y-117998799D01*
X174789189Y-117970214D01*
X174747122Y-117994448D01*
X174733316Y-118052040D01*
X174647106Y-118052040D01*
X174643676Y-118032864D01*
X174666539Y-117954878D01*
X174688280Y-117930173D01*
X174698533Y-117915296D01*
X174707137Y-117885931D01*
X174714232Y-117837284D01*
X174719956Y-117764562D01*
X174724448Y-117662973D01*
X174727846Y-117527723D01*
X174730288Y-117354019D01*
X174731914Y-117137068D01*
X174732862Y-116872077D01*
X174733271Y-116554252D01*
X174733316Y-116372210D01*
X174733316Y-114851624D01*
X175031701Y-114554358D01*
X175149551Y-114437416D01*
X175231949Y-114358242D01*
X175285896Y-114312138D01*
X175318393Y-114294405D01*
X175336441Y-114300345D01*
G37*
G36*
X170486928Y-114631127D02*
G01*
X170510341Y-114652455D01*
X170556033Y-114737883D01*
X170551266Y-114821825D01*
X170504233Y-114889917D01*
X170423126Y-114927797D01*
X170352626Y-114928961D01*
X170319806Y-114947579D01*
X170251753Y-115003020D01*
X170155223Y-115089183D01*
X170036975Y-115199969D01*
X169903766Y-115329278D01*
X169849730Y-115382901D01*
X169389108Y-115842804D01*
X169389108Y-117504623D01*
X169389108Y-119166442D01*
X169794151Y-119591629D01*
X169950450Y-119758336D01*
X170066005Y-119888263D01*
X170143877Y-119985699D01*
X170187130Y-120054934D01*
X170198823Y-120100258D01*
X170182020Y-120125961D01*
X170177228Y-120128391D01*
X170150625Y-120110807D01*
X170088744Y-120055981D01*
X169997920Y-119969961D01*
X169884485Y-119858798D01*
X169754772Y-119728543D01*
X169696850Y-119669483D01*
X169238990Y-119200539D01*
X169238990Y-117506682D01*
X169238990Y-115812824D01*
X169731711Y-115320782D01*
X169890985Y-115159337D01*
X170022062Y-115021560D01*
X170121231Y-114911597D01*
X170184781Y-114833592D01*
X170209002Y-114791689D01*
X170208788Y-114787972D01*
X170210545Y-114764152D01*
X170325482Y-114764152D01*
X170329924Y-114790685D01*
X170370492Y-114831438D01*
X170425660Y-114831351D01*
X170456728Y-114804834D01*
X170457602Y-114759444D01*
X170423856Y-114717707D01*
X170377008Y-114698183D01*
X170346092Y-114709406D01*
X170325482Y-114764152D01*
X170210545Y-114764152D01*
X170212663Y-114735425D01*
X170242173Y-114672377D01*
X170312561Y-114612797D01*
X170401670Y-114598488D01*
X170486928Y-114631127D01*
G37*
G36*
X175171521Y-119719673D02*
G01*
X175212785Y-119745781D01*
X175259440Y-119816039D01*
X175273741Y-119879209D01*
X175283053Y-119915236D01*
X175313920Y-119966356D01*
X175370741Y-120037680D01*
X175457915Y-120134315D01*
X175579841Y-120261371D01*
X175740918Y-120423958D01*
X175754120Y-120437147D01*
X176234498Y-120916822D01*
X176234498Y-121735318D01*
X176234133Y-121981265D01*
X176232804Y-122173498D01*
X176230165Y-122318347D01*
X176225867Y-122422143D01*
X176219560Y-122491217D01*
X176210898Y-122531897D01*
X176199531Y-122550516D01*
X176189462Y-122553814D01*
X176175682Y-122547097D01*
X176164972Y-122522644D01*
X176156962Y-122474002D01*
X176151284Y-122394717D01*
X176147567Y-122278334D01*
X176145441Y-122118402D01*
X176144537Y-121908465D01*
X176144427Y-121767812D01*
X176144427Y-120981810D01*
X175672776Y-120506819D01*
X175509856Y-120344239D01*
X175382602Y-120221071D01*
X175285761Y-120132787D01*
X175214079Y-120074853D01*
X175162301Y-120042739D01*
X175125173Y-120031914D01*
X175121992Y-120031828D01*
X175030403Y-120008237D01*
X174970089Y-119947537D01*
X174953816Y-119868671D01*
X175041434Y-119868671D01*
X175063893Y-119927128D01*
X175099028Y-119964428D01*
X175127040Y-119961302D01*
X175167550Y-119923565D01*
X175198454Y-119875604D01*
X175181031Y-119833494D01*
X175129430Y-119797130D01*
X175103993Y-119791639D01*
X175057168Y-119815062D01*
X175041434Y-119868671D01*
X174953816Y-119868671D01*
X174953025Y-119864837D01*
X174961058Y-119828794D01*
X175013085Y-119750921D01*
X175089484Y-119712488D01*
X175171521Y-119719673D01*
G37*
G36*
X169786459Y-116967663D02*
G01*
X169812094Y-116986831D01*
X169862268Y-117059635D01*
X169856146Y-117140794D01*
X169809439Y-117217799D01*
X169791725Y-117243260D01*
X169777878Y-117274085D01*
X169767423Y-117317468D01*
X169759888Y-117380604D01*
X169754797Y-117470686D01*
X169751677Y-117594909D01*
X169750055Y-117760467D01*
X169749456Y-117974554D01*
X169749391Y-118129550D01*
X169749391Y-118964964D01*
X170050885Y-119267487D01*
X170179641Y-119399748D01*
X170267183Y-119497446D01*
X170317488Y-119565561D01*
X170334530Y-119609075D01*
X170332897Y-119620777D01*
X170307030Y-119663829D01*
X170293599Y-119671544D01*
X170266607Y-119651366D01*
X170205320Y-119595746D01*
X170117544Y-119512063D01*
X170011084Y-119407691D01*
X169951539Y-119348300D01*
X169629297Y-119025056D01*
X169629297Y-118161151D01*
X169629163Y-117910655D01*
X169628428Y-117713049D01*
X169626590Y-117561172D01*
X169623147Y-117447867D01*
X169617599Y-117365975D01*
X169609443Y-117308337D01*
X169598179Y-117267796D01*
X169583306Y-117237191D01*
X169564320Y-117209366D01*
X169562458Y-117206841D01*
X169520435Y-117142773D01*
X169513678Y-117096365D01*
X169518879Y-117084507D01*
X169629297Y-117084507D01*
X169647375Y-117149875D01*
X169689030Y-117180511D01*
X169735394Y-117169647D01*
X169761288Y-117131837D01*
X169765614Y-117066308D01*
X169719964Y-117032745D01*
X169687572Y-117029464D01*
X169638234Y-117051762D01*
X169629297Y-117084507D01*
X169518879Y-117084507D01*
X169538641Y-117039456D01*
X169540887Y-117035420D01*
X169608551Y-116966818D01*
X169697357Y-116942987D01*
X169786459Y-116967663D01*
G37*
G36*
X171046870Y-115318890D02*
G01*
X171106524Y-115382345D01*
X171130475Y-115473137D01*
X171130479Y-115474429D01*
X171147202Y-115547707D01*
X171175514Y-115588329D01*
X171200025Y-115627622D01*
X171214375Y-115702422D01*
X171220212Y-115823153D01*
X171220550Y-115873554D01*
X171223993Y-116011303D01*
X171235421Y-116099764D01*
X171256478Y-116149359D01*
X171265585Y-116158779D01*
X171305276Y-116226046D01*
X171305952Y-116311149D01*
X171269823Y-116388264D01*
X171243893Y-116412277D01*
X171151712Y-116454794D01*
X171073357Y-116440469D01*
X171030049Y-116404109D01*
X170988951Y-116325013D01*
X170986932Y-116279583D01*
X171070432Y-116279583D01*
X171091172Y-116335425D01*
X171140378Y-116348156D01*
X171187947Y-116321816D01*
X171214570Y-116278982D01*
X171193258Y-116237129D01*
X171140374Y-116207101D01*
X171091448Y-116224455D01*
X171070432Y-116279583D01*
X170986932Y-116279583D01*
X170985026Y-116236693D01*
X171018646Y-116165164D01*
X171026536Y-116157833D01*
X171050463Y-116123365D01*
X171063103Y-116061633D01*
X171066124Y-115960140D01*
X171064065Y-115876438D01*
X171055420Y-115633365D01*
X170969029Y-115631916D01*
X170874700Y-115603113D01*
X170826417Y-115561037D01*
X170779115Y-115486586D01*
X170779090Y-115470007D01*
X170890290Y-115470007D01*
X170913205Y-115514446D01*
X170963799Y-115529529D01*
X171014846Y-115510207D01*
X171027177Y-115495377D01*
X171025627Y-115451399D01*
X170990426Y-115407716D01*
X170943815Y-115386573D01*
X170923195Y-115391395D01*
X170895502Y-115435407D01*
X170890290Y-115470007D01*
X170779090Y-115470007D01*
X170779017Y-115422500D01*
X170816933Y-115354821D01*
X170885749Y-115298901D01*
X170967836Y-115289000D01*
X171046870Y-115318890D01*
G37*
G36*
X170334597Y-115433603D02*
G01*
X170401493Y-115494946D01*
X170438125Y-115569861D01*
X170439935Y-115588329D01*
X170414103Y-115664356D01*
X170351141Y-115730847D01*
X170272851Y-115766745D01*
X170253424Y-115768471D01*
X170194873Y-115789299D01*
X170115406Y-115843937D01*
X170058270Y-115894817D01*
X169985126Y-115971406D01*
X169946549Y-116032241D01*
X169931673Y-116100829D01*
X169929533Y-116173341D01*
X169931397Y-116244918D01*
X169942280Y-116300047D01*
X169970118Y-116352350D01*
X170022848Y-116415449D01*
X170108406Y-116502968D01*
X170139699Y-116534074D01*
X170349864Y-116742629D01*
X170349864Y-117822642D01*
X170349864Y-118902656D01*
X170425790Y-118981905D01*
X170476744Y-119049518D01*
X170483048Y-119108104D01*
X170477463Y-119126718D01*
X170461260Y-119161090D01*
X170439748Y-119166050D01*
X170400865Y-119136845D01*
X170333984Y-119070192D01*
X170214758Y-118948104D01*
X170204213Y-117857363D01*
X170193669Y-116766622D01*
X169986542Y-116561082D01*
X169779415Y-116355543D01*
X169779415Y-116158455D01*
X169781006Y-116054032D01*
X169792002Y-115984309D01*
X169821743Y-115927829D01*
X169879566Y-115863134D01*
X169929533Y-115813507D01*
X170019101Y-115714498D01*
X170070219Y-115633841D01*
X170079652Y-115596964D01*
X170084645Y-115580823D01*
X170205164Y-115580823D01*
X170210718Y-115633518D01*
X170257106Y-115648361D01*
X170259793Y-115648377D01*
X170307943Y-115634663D01*
X170314810Y-115583652D01*
X170314423Y-115580823D01*
X170289884Y-115528007D01*
X170259793Y-115513270D01*
X170220953Y-115538827D01*
X170205164Y-115580823D01*
X170084645Y-115580823D01*
X170104427Y-115516880D01*
X170165027Y-115447360D01*
X170240857Y-115409981D01*
X170259793Y-115408188D01*
X170334597Y-115433603D01*
G37*
G36*
X175515735Y-114829214D02*
G01*
X175483765Y-114916284D01*
X175397176Y-115027931D01*
X175348800Y-115077927D01*
X175183670Y-115241006D01*
X175183670Y-116903608D01*
X175183730Y-117261786D01*
X175184021Y-117564792D01*
X175184711Y-117817505D01*
X175185969Y-118024799D01*
X175187964Y-118191551D01*
X175190863Y-118322638D01*
X175194835Y-118422935D01*
X175200049Y-118497320D01*
X175206673Y-118550669D01*
X175214875Y-118587858D01*
X175224824Y-118613764D01*
X175236688Y-118633262D01*
X175243718Y-118642548D01*
X175291240Y-118712413D01*
X175295855Y-118763829D01*
X175255975Y-118820587D01*
X175230071Y-118847259D01*
X175149796Y-118907882D01*
X175078723Y-118912817D01*
X175005388Y-118862754D01*
X175003529Y-118860906D01*
X174958546Y-118795547D01*
X174943481Y-118740812D01*
X174945624Y-118733938D01*
X175040890Y-118733938D01*
X175055826Y-118776125D01*
X175063155Y-118785340D01*
X175116939Y-118820973D01*
X175161441Y-118800961D01*
X175178980Y-118757652D01*
X175173452Y-118691166D01*
X175136067Y-118661554D01*
X175082948Y-118679451D01*
X175073446Y-118688050D01*
X175040890Y-118733938D01*
X174945624Y-118733938D01*
X174963858Y-118675452D01*
X175003529Y-118620717D01*
X175016310Y-118606428D01*
X175027136Y-118588010D01*
X175036170Y-118560699D01*
X175043573Y-118519729D01*
X175049508Y-118460335D01*
X175054136Y-118377752D01*
X175057620Y-118267216D01*
X175060122Y-118123961D01*
X175061803Y-117943223D01*
X175062828Y-117720237D01*
X175063356Y-117450237D01*
X175063551Y-117128459D01*
X175063576Y-116856023D01*
X175063576Y-115151376D01*
X175267867Y-114948651D01*
X175357311Y-114863919D01*
X175431488Y-114801143D01*
X175480241Y-114768521D01*
X175493044Y-114766812D01*
X175515735Y-114829214D01*
G37*
G36*
X175665778Y-115314536D02*
G01*
X175678874Y-115347551D01*
X175676461Y-115424412D01*
X175640692Y-115478295D01*
X175628868Y-115493095D01*
X175618675Y-115512508D01*
X175609944Y-115540974D01*
X175602509Y-115582932D01*
X175596200Y-115642825D01*
X175590851Y-115725091D01*
X175586294Y-115834172D01*
X175582361Y-115974507D01*
X175578884Y-116150537D01*
X175575696Y-116366701D01*
X175572628Y-116627442D01*
X175569514Y-116937198D01*
X175566185Y-117300410D01*
X175564446Y-117496727D01*
X175547250Y-119450161D01*
X176213873Y-120116290D01*
X176386131Y-120286736D01*
X176543841Y-120439530D01*
X176681888Y-120569948D01*
X176795160Y-120673265D01*
X176878544Y-120744756D01*
X176926926Y-120779698D01*
X176934766Y-120782419D01*
X177033854Y-120804608D01*
X177091218Y-120869355D01*
X177105183Y-120947549D01*
X177081299Y-121038743D01*
X177020904Y-121096830D01*
X176940885Y-121115177D01*
X176858127Y-121087151D01*
X176824612Y-121057774D01*
X176784805Y-120984370D01*
X176778366Y-120948891D01*
X176869308Y-120948891D01*
X176893724Y-120998735D01*
X176950118Y-121022523D01*
X176954123Y-121022608D01*
X177004808Y-121001991D01*
X177015112Y-120961619D01*
X176993562Y-120903740D01*
X176944589Y-120877133D01*
X176891710Y-120893941D01*
X176889013Y-120896509D01*
X176869308Y-120948891D01*
X176778366Y-120948891D01*
X176774923Y-120929923D01*
X176763915Y-120897226D01*
X176728694Y-120844687D01*
X176665971Y-120768661D01*
X176572454Y-120665505D01*
X176444851Y-120531575D01*
X176279872Y-120363225D01*
X176099391Y-120181946D01*
X175423860Y-119506915D01*
X175423860Y-117508680D01*
X175423860Y-115510445D01*
X175540933Y-115396126D01*
X175608417Y-115332139D01*
X175645916Y-115306392D01*
X175665778Y-115314536D01*
G37*
G36*
X168726355Y-120346178D02*
G01*
X168770163Y-120372072D01*
X168835529Y-120442970D01*
X168848682Y-120506055D01*
X168859325Y-120554336D01*
X168895367Y-120615142D01*
X168962977Y-120696606D01*
X169068324Y-120806860D01*
X169103883Y-120842466D01*
X169359084Y-121096342D01*
X169359084Y-121332458D01*
X169362269Y-121463424D01*
X169373967Y-121551297D01*
X169397390Y-121612795D01*
X169419131Y-121644912D01*
X169461711Y-121715018D01*
X169479179Y-121775104D01*
X169452559Y-121850519D01*
X169386256Y-121905797D01*
X169314049Y-121923318D01*
X169237264Y-121903786D01*
X169196099Y-121876138D01*
X169153049Y-121798496D01*
X169160456Y-121755168D01*
X169243177Y-121755168D01*
X169250698Y-121820454D01*
X169286518Y-121858317D01*
X169332259Y-121852582D01*
X169367094Y-121811224D01*
X169374096Y-121773199D01*
X169354691Y-121708191D01*
X169321464Y-121688827D01*
X169269664Y-121702894D01*
X169243177Y-121755168D01*
X169160456Y-121755168D01*
X169168328Y-121709121D01*
X169208966Y-121644912D01*
X169245835Y-121579509D01*
X169264406Y-121491188D01*
X169269013Y-121376790D01*
X169269013Y-121185006D01*
X169007084Y-120923666D01*
X168885392Y-120805602D01*
X168795130Y-120726873D01*
X168728372Y-120681458D01*
X168677191Y-120663340D01*
X168662869Y-120662325D01*
X168583049Y-120638958D01*
X168535367Y-120580292D01*
X168523843Y-120510258D01*
X168611127Y-120510258D01*
X168625915Y-120561118D01*
X168640346Y-120573384D01*
X168702361Y-120585737D01*
X168745477Y-120551739D01*
X168752693Y-120500879D01*
X168721745Y-120447185D01*
X168683963Y-120437147D01*
X168633360Y-120459928D01*
X168611127Y-120510258D01*
X168523843Y-120510258D01*
X168522726Y-120503473D01*
X168548027Y-120425651D01*
X168612539Y-120364878D01*
X168675252Y-120337527D01*
X168726355Y-120346178D01*
G37*
G36*
X170843022Y-113541741D02*
G01*
X170911493Y-113602663D01*
X170948550Y-113678155D01*
X170950337Y-113696840D01*
X170923720Y-113775334D01*
X170857152Y-113840684D01*
X170770560Y-113875227D01*
X170747141Y-113876982D01*
X170688878Y-113898813D01*
X170603006Y-113957773D01*
X170499342Y-114044060D01*
X170387704Y-114147871D01*
X170277907Y-114259406D01*
X170179770Y-114368863D01*
X170103110Y-114466440D01*
X170057743Y-114542335D01*
X170049628Y-114573400D01*
X170025122Y-114667469D01*
X169961268Y-114727555D01*
X169872563Y-114746253D01*
X169773503Y-114716160D01*
X169771909Y-114715239D01*
X169727412Y-114658799D01*
X169717884Y-114582597D01*
X169814190Y-114582597D01*
X169834484Y-114631865D01*
X169881680Y-114653060D01*
X169891568Y-114651965D01*
X169941675Y-114617343D01*
X169953925Y-114589608D01*
X169940190Y-114539065D01*
X169893876Y-114513252D01*
X169841225Y-114524827D01*
X169833458Y-114531497D01*
X169814190Y-114582597D01*
X169717884Y-114582597D01*
X169717216Y-114577257D01*
X169739613Y-114493562D01*
X169792895Y-114430663D01*
X169793107Y-114430523D01*
X169856789Y-114402326D01*
X169901423Y-114403578D01*
X169935508Y-114391278D01*
X170004814Y-114339231D01*
X170103984Y-114251950D01*
X170227660Y-114133950D01*
X170263027Y-114098936D01*
X170397602Y-113962137D01*
X170492418Y-113858873D01*
X170552604Y-113782799D01*
X170583292Y-113727568D01*
X170587395Y-113707502D01*
X170689908Y-113707502D01*
X170721379Y-113746748D01*
X170771967Y-113756887D01*
X170821239Y-113734525D01*
X170830243Y-113700052D01*
X170808974Y-113643108D01*
X170760841Y-113624237D01*
X170709758Y-113652274D01*
X170689908Y-113707502D01*
X170587395Y-113707502D01*
X170590053Y-113694499D01*
X170616434Y-113604970D01*
X170683384Y-113539575D01*
X170765053Y-113516698D01*
X170843022Y-113541741D01*
G37*
G36*
X171939910Y-113771388D02*
G01*
X171980922Y-113795735D01*
X172027361Y-113830842D01*
X172043156Y-113867886D01*
X172033268Y-113929104D01*
X172020717Y-113974091D01*
X171988314Y-114059747D01*
X171947969Y-114101092D01*
X171909899Y-114111798D01*
X171860630Y-114137956D01*
X171771812Y-114208506D01*
X171643891Y-114323050D01*
X171477310Y-114481188D01*
X171273091Y-114681951D01*
X170710148Y-115242465D01*
X170710148Y-116800507D01*
X170709819Y-117172189D01*
X170708677Y-117488546D01*
X170706490Y-117754301D01*
X170703023Y-117974172D01*
X170698045Y-118152881D01*
X170691323Y-118295149D01*
X170682623Y-118405695D01*
X170671712Y-118489240D01*
X170658359Y-118550506D01*
X170642329Y-118594211D01*
X170623390Y-118625078D01*
X170619918Y-118629325D01*
X170615156Y-118605529D01*
X170609850Y-118527788D01*
X170604201Y-118402197D01*
X170598409Y-118234855D01*
X170592675Y-118031859D01*
X170587198Y-117799305D01*
X170582179Y-117543291D01*
X170579984Y-117413368D01*
X170575519Y-117122316D01*
X170571402Y-116829718D01*
X170567748Y-116545623D01*
X170564674Y-116280080D01*
X170562294Y-116043139D01*
X170560724Y-115844848D01*
X170560079Y-115695258D01*
X170560069Y-115680111D01*
X170560030Y-115186432D01*
X171143366Y-114599260D01*
X171325650Y-114414564D01*
X171468602Y-114266666D01*
X171576316Y-114150897D01*
X171652887Y-114062586D01*
X171702410Y-113997063D01*
X171728980Y-113949657D01*
X171730372Y-113944603D01*
X171829195Y-113944603D01*
X171850820Y-113981792D01*
X171904360Y-114017107D01*
X171948912Y-113997955D01*
X171965854Y-113956968D01*
X171951953Y-113907884D01*
X171905532Y-113883094D01*
X171852831Y-113894520D01*
X171844296Y-113901746D01*
X171829195Y-113944603D01*
X171730372Y-113944603D01*
X171736333Y-113922964D01*
X171773445Y-113831722D01*
X171825069Y-113789644D01*
X171888417Y-113762170D01*
X171939910Y-113771388D01*
G37*
G36*
X174188579Y-115127541D02*
G01*
X174254276Y-115179783D01*
X174282375Y-115255142D01*
X174265676Y-115338199D01*
X174222914Y-115393176D01*
X174195523Y-115424727D01*
X174177895Y-115468165D01*
X174167961Y-115536155D01*
X174163653Y-115641361D01*
X174162867Y-115760883D01*
X174164452Y-115907960D01*
X174170604Y-116008629D01*
X174183416Y-116076478D01*
X174204982Y-116125096D01*
X174222914Y-116150586D01*
X174265559Y-116221471D01*
X174282961Y-116282922D01*
X174257920Y-116361022D01*
X174195784Y-116421545D01*
X174116037Y-116452938D01*
X174038164Y-116443647D01*
X174024749Y-116436037D01*
X173986350Y-116394104D01*
X173954212Y-116342825D01*
X173935263Y-116289963D01*
X174041760Y-116289963D01*
X174061166Y-116336136D01*
X174080302Y-116347830D01*
X174129845Y-116342528D01*
X174171739Y-116306761D01*
X174183886Y-116261902D01*
X174179659Y-116251731D01*
X174135647Y-116224038D01*
X174101047Y-116218826D01*
X174056581Y-116241360D01*
X174041760Y-116289963D01*
X173935263Y-116289963D01*
X173933869Y-116286074D01*
X173947985Y-116233857D01*
X173979741Y-116186417D01*
X174008649Y-116139809D01*
X174027221Y-116084854D01*
X174037635Y-116007641D01*
X174042066Y-115894263D01*
X174042772Y-115783483D01*
X174041408Y-115636877D01*
X174035772Y-115536134D01*
X174023545Y-115467099D01*
X174002408Y-115415619D01*
X173975933Y-115375398D01*
X173933910Y-115311328D01*
X173929191Y-115278905D01*
X174047976Y-115278905D01*
X174054181Y-115304543D01*
X174091795Y-115342202D01*
X174141514Y-115342155D01*
X174170954Y-115310611D01*
X174172960Y-115246106D01*
X174139833Y-115203541D01*
X174116391Y-115198022D01*
X174063875Y-115221923D01*
X174047976Y-115278905D01*
X173929191Y-115278905D01*
X173927154Y-115264914D01*
X173952117Y-115207995D01*
X173954352Y-115203978D01*
X174021338Y-115134170D01*
X174092484Y-115113836D01*
X174188579Y-115127541D01*
G37*
G36*
X171026840Y-113032287D02*
G01*
X171093148Y-113095905D01*
X171128770Y-113175621D01*
X171130479Y-113195560D01*
X171152331Y-113260145D01*
X171208947Y-113338754D01*
X171235562Y-113366580D01*
X171340644Y-113468430D01*
X171340644Y-113756526D01*
X171340644Y-114044621D01*
X171205538Y-114177218D01*
X171123436Y-114269602D01*
X171077331Y-114347349D01*
X171070432Y-114378623D01*
X171045666Y-114458782D01*
X170985079Y-114528341D01*
X170909237Y-114565731D01*
X170890290Y-114567526D01*
X170824930Y-114547149D01*
X170770195Y-114507478D01*
X170725213Y-114442119D01*
X170710148Y-114387384D01*
X170830243Y-114387384D01*
X170851472Y-114437562D01*
X170890290Y-114447431D01*
X170940469Y-114426201D01*
X170950337Y-114387384D01*
X170929107Y-114337205D01*
X170890290Y-114327336D01*
X170840111Y-114348566D01*
X170830243Y-114387384D01*
X170710148Y-114387384D01*
X170736127Y-114310915D01*
X170799698Y-114244593D01*
X170879309Y-114208952D01*
X170899208Y-114207242D01*
X170963674Y-114185007D01*
X171044729Y-114126258D01*
X171079350Y-114093387D01*
X171136544Y-114031706D01*
X171169743Y-113979693D01*
X171185463Y-113917647D01*
X171190221Y-113825866D01*
X171190526Y-113757264D01*
X171188311Y-113638469D01*
X171178427Y-113561209D01*
X171156021Y-113507040D01*
X171116235Y-113457516D01*
X171109850Y-113450788D01*
X171039520Y-113395388D01*
X170970225Y-113367405D01*
X170959732Y-113366580D01*
X170879192Y-113341863D01*
X170809445Y-113281338D01*
X170771992Y-113205440D01*
X170770195Y-113186438D01*
X170890290Y-113186438D01*
X170913958Y-113232407D01*
X170966111Y-113249491D01*
X171018324Y-113228538D01*
X171027365Y-113186735D01*
X170997668Y-113144829D01*
X170947125Y-113126391D01*
X170899291Y-113149132D01*
X170890290Y-113186438D01*
X170770195Y-113186438D01*
X170790572Y-113121079D01*
X170830243Y-113066344D01*
X170895602Y-113021361D01*
X170950337Y-113006296D01*
X171026840Y-113032287D01*
G37*
G36*
X171468107Y-110947575D02*
G01*
X171534096Y-111001393D01*
X171569645Y-111069117D01*
X171580834Y-111116254D01*
X171555965Y-111178933D01*
X171496344Y-111240792D01*
X171424444Y-111282828D01*
X171375513Y-111289841D01*
X171309705Y-111306005D01*
X171224942Y-111366992D01*
X171207365Y-111383403D01*
X171100455Y-111486870D01*
X171100455Y-111819411D01*
X171101087Y-111965330D01*
X171104925Y-112065241D01*
X171114883Y-112133185D01*
X171133876Y-112183203D01*
X171164817Y-112229332D01*
X171192712Y-112263876D01*
X171269808Y-112341208D01*
X171341833Y-112373277D01*
X171372854Y-112375800D01*
X171464109Y-112398991D01*
X171539175Y-112457411D01*
X171578742Y-112534335D01*
X171580834Y-112555942D01*
X171554776Y-112632648D01*
X171490871Y-112698873D01*
X171410521Y-112734379D01*
X171390333Y-112736083D01*
X171314842Y-112714448D01*
X171270239Y-112681178D01*
X171230402Y-112607278D01*
X171227548Y-112591360D01*
X171329871Y-112591360D01*
X171380234Y-112614682D01*
X171405696Y-112615989D01*
X171452105Y-112592515D01*
X171460739Y-112555942D01*
X171438748Y-112509613D01*
X171390829Y-112495233D01*
X171344067Y-112516547D01*
X171330913Y-112537995D01*
X171329871Y-112591360D01*
X171227548Y-112591360D01*
X171220550Y-112552323D01*
X171194467Y-112477109D01*
X171118559Y-112379671D01*
X171085443Y-112345776D01*
X170950337Y-112213179D01*
X170950337Y-111835374D01*
X170950337Y-111457569D01*
X171085443Y-111324972D01*
X171177003Y-111221194D01*
X171217708Y-111138200D01*
X171220550Y-111113209D01*
X171221733Y-111108891D01*
X171326825Y-111108891D01*
X171330629Y-111132014D01*
X171369215Y-111170402D01*
X171419726Y-111165010D01*
X171450656Y-111127801D01*
X171449383Y-111069343D01*
X171435974Y-111048009D01*
X171391333Y-111035425D01*
X171347625Y-111061559D01*
X171326825Y-111108891D01*
X171221733Y-111108891D01*
X171244604Y-111025380D01*
X171305324Y-110964417D01*
X171385547Y-110936442D01*
X171468107Y-110947575D01*
G37*
G36*
X172349993Y-111138242D02*
G01*
X172414016Y-111197350D01*
X172448832Y-111275334D01*
X172446510Y-111355398D01*
X172406484Y-111415043D01*
X172388105Y-111441576D01*
X172375270Y-111491577D01*
X172367122Y-111574024D01*
X172362802Y-111697894D01*
X172361453Y-111872161D01*
X172361448Y-111886685D01*
X172361448Y-112320950D01*
X172186713Y-112505999D01*
X172099146Y-112606637D01*
X172036902Y-112694056D01*
X172008918Y-112755488D01*
X172008256Y-112761000D01*
X171990463Y-112835572D01*
X171969150Y-112873589D01*
X171907635Y-112907211D01*
X171819833Y-112912736D01*
X171733110Y-112889026D01*
X171723446Y-112883797D01*
X171685316Y-112831589D01*
X171671197Y-112751155D01*
X171765727Y-112751155D01*
X171786020Y-112800423D01*
X171833217Y-112821618D01*
X171843105Y-112820523D01*
X171893212Y-112785901D01*
X171905462Y-112758166D01*
X171891727Y-112707623D01*
X171845413Y-112681810D01*
X171792761Y-112693385D01*
X171784994Y-112700055D01*
X171765727Y-112751155D01*
X171671197Y-112751155D01*
X171671185Y-112751088D01*
X171682066Y-112669475D01*
X171713541Y-112617980D01*
X171777327Y-112587917D01*
X171826130Y-112579357D01*
X171884850Y-112556637D01*
X171968248Y-112499137D01*
X172053706Y-112424444D01*
X172211330Y-112272768D01*
X172211330Y-111873929D01*
X172210511Y-111709575D01*
X172207095Y-111594244D01*
X172199639Y-111516926D01*
X172186704Y-111466608D01*
X172166848Y-111432278D01*
X172151283Y-111415043D01*
X172106300Y-111349684D01*
X172091235Y-111294949D01*
X172211330Y-111294949D01*
X172225044Y-111343098D01*
X172276054Y-111349965D01*
X172278883Y-111349578D01*
X172331699Y-111325039D01*
X172346436Y-111294949D01*
X172320879Y-111256108D01*
X172278883Y-111240319D01*
X172226189Y-111245873D01*
X172211346Y-111292262D01*
X172211330Y-111294949D01*
X172091235Y-111294949D01*
X172115414Y-111222799D01*
X172173454Y-111156136D01*
X172243611Y-111117542D01*
X172264697Y-111114807D01*
X172349993Y-111138242D01*
G37*
G36*
X175304499Y-120348334D02*
G01*
X175372264Y-120398734D01*
X175394714Y-120439456D01*
X175410544Y-120508773D01*
X175407591Y-120549689D01*
X175422217Y-120584070D01*
X175472651Y-120650670D01*
X175551229Y-120740286D01*
X175650286Y-120843716D01*
X175663635Y-120857066D01*
X175934261Y-121126439D01*
X175934261Y-121374760D01*
X175937072Y-121488364D01*
X175944557Y-121574656D01*
X175955299Y-121619665D01*
X175959466Y-121623081D01*
X175998353Y-121648922D01*
X176022924Y-121710897D01*
X176027267Y-121785685D01*
X176013543Y-121836462D01*
X175961313Y-121889837D01*
X175884848Y-121917876D01*
X175808752Y-121915569D01*
X175763729Y-121887321D01*
X175717591Y-121798352D01*
X175726185Y-121731969D01*
X175801849Y-121731969D01*
X175803193Y-121789563D01*
X175834506Y-121843086D01*
X175874214Y-121863270D01*
X175910563Y-121842979D01*
X175931103Y-121822040D01*
X175951477Y-121761993D01*
X175929284Y-121707299D01*
X175874835Y-121683131D01*
X175874214Y-121683128D01*
X175818902Y-121707112D01*
X175801849Y-121731969D01*
X175726185Y-121731969D01*
X175728218Y-121716261D01*
X175755797Y-121672803D01*
X175788664Y-121615984D01*
X175806869Y-121539211D01*
X175813786Y-121425412D01*
X175814167Y-121377494D01*
X175814167Y-121156389D01*
X175565845Y-120909357D01*
X175445944Y-120793902D01*
X175357036Y-120718224D01*
X175291190Y-120676377D01*
X175240474Y-120662417D01*
X175236277Y-120662325D01*
X175150890Y-120636633D01*
X175095262Y-120571372D01*
X175084611Y-120505552D01*
X175161131Y-120505552D01*
X175176202Y-120547941D01*
X175182420Y-120555735D01*
X175224287Y-120594199D01*
X175243718Y-120602277D01*
X175279398Y-120581861D01*
X175305016Y-120555735D01*
X175327006Y-120511522D01*
X175301794Y-120467578D01*
X175293680Y-120459230D01*
X175251471Y-120425570D01*
X175216763Y-120437533D01*
X175193755Y-120459230D01*
X175161131Y-120505552D01*
X175084611Y-120505552D01*
X175081166Y-120484263D01*
X175091082Y-120443769D01*
X175144738Y-120371123D01*
X175222267Y-120339221D01*
X175304499Y-120348334D01*
G37*
G36*
X172883267Y-106770857D02*
G01*
X172924630Y-106811920D01*
X172958877Y-106886591D01*
X172979370Y-106971255D01*
X172979470Y-107042299D01*
X172966962Y-107068584D01*
X172955133Y-107102087D01*
X172945911Y-107178646D01*
X172939141Y-107301887D01*
X172934668Y-107475437D01*
X172932338Y-107702921D01*
X172931897Y-107889594D01*
X172932359Y-108133032D01*
X172933990Y-108323139D01*
X172937156Y-108466628D01*
X172942225Y-108570209D01*
X172949563Y-108640596D01*
X172959539Y-108684498D01*
X172972519Y-108708629D01*
X172976933Y-108712916D01*
X173014757Y-108778615D01*
X173016989Y-108864661D01*
X172984702Y-108943844D01*
X172967063Y-108963463D01*
X172878812Y-109008358D01*
X172785475Y-108997152D01*
X172721732Y-108953105D01*
X172676749Y-108887745D01*
X172661685Y-108833010D01*
X172781779Y-108833010D01*
X172803009Y-108883189D01*
X172841826Y-108893057D01*
X172892005Y-108871828D01*
X172901874Y-108833010D01*
X172880644Y-108782831D01*
X172841826Y-108772963D01*
X172791648Y-108794193D01*
X172781779Y-108833010D01*
X172661685Y-108833010D01*
X172682062Y-108767651D01*
X172721732Y-108712916D01*
X172740282Y-108691411D01*
X172754567Y-108663634D01*
X172765142Y-108622087D01*
X172772562Y-108559275D01*
X172777380Y-108467700D01*
X172780152Y-108339867D01*
X172781432Y-108168280D01*
X172781774Y-107945441D01*
X172781779Y-107901062D01*
X172781561Y-107668615D01*
X172780513Y-107488452D01*
X172778044Y-107352811D01*
X172773560Y-107253931D01*
X172766471Y-107184047D01*
X172756184Y-107135398D01*
X172742108Y-107100223D01*
X172723652Y-107070757D01*
X172717871Y-107062814D01*
X172672209Y-106973092D01*
X172672820Y-106941521D01*
X172781779Y-106941521D01*
X172803009Y-106991700D01*
X172841826Y-107001568D01*
X172892005Y-106980338D01*
X172901874Y-106941521D01*
X172880644Y-106891342D01*
X172841826Y-106881474D01*
X172791648Y-106902703D01*
X172781779Y-106941521D01*
X172672820Y-106941521D01*
X172673664Y-106897879D01*
X172715802Y-106826396D01*
X172787323Y-106777658D01*
X172864691Y-106765930D01*
X172883267Y-106770857D01*
G37*
G36*
X173910039Y-109867762D02*
G01*
X173924680Y-109886212D01*
X173929517Y-109937526D01*
X173907106Y-109962207D01*
X173866875Y-110016714D01*
X173873997Y-110069236D01*
X173925497Y-110099197D01*
X173926934Y-110099421D01*
X173950327Y-110104906D01*
X173967104Y-110119010D01*
X173978231Y-110150296D01*
X173984673Y-110207330D01*
X173987395Y-110298677D01*
X173987363Y-110432902D01*
X173985541Y-110618569D01*
X173985532Y-110619417D01*
X173979825Y-111129819D01*
X173696050Y-111415580D01*
X173412276Y-111701342D01*
X173412276Y-112090710D01*
X173412276Y-112480078D01*
X173017368Y-112875799D01*
X172622461Y-113271521D01*
X172661861Y-113416628D01*
X172686589Y-113502663D01*
X172706014Y-113561358D01*
X172712318Y-113575064D01*
X172736879Y-113561351D01*
X172793519Y-113513482D01*
X172872262Y-113440165D01*
X172917707Y-113395790D01*
X173020573Y-113288076D01*
X173082311Y-113207778D01*
X173109414Y-113145735D01*
X173111656Y-113125000D01*
X173216736Y-113125000D01*
X173222403Y-113144338D01*
X173260169Y-113182406D01*
X173310914Y-113183146D01*
X173347553Y-113150303D01*
X173352228Y-113126391D01*
X173330711Y-113075763D01*
X173297185Y-113066344D01*
X173231095Y-113080820D01*
X173216736Y-113125000D01*
X173111656Y-113125000D01*
X173112039Y-113121455D01*
X173138773Y-113038716D01*
X173205820Y-112974178D01*
X173293443Y-112946347D01*
X173298861Y-112946249D01*
X173368336Y-112971359D01*
X173432527Y-113031634D01*
X173469690Y-113104493D01*
X173472323Y-113126391D01*
X173446381Y-113202747D01*
X173382966Y-113269113D01*
X173303696Y-113304819D01*
X173283924Y-113306533D01*
X173236063Y-113327101D01*
X173160874Y-113381399D01*
X173070067Y-113458315D01*
X172975355Y-113546736D01*
X172888448Y-113635553D01*
X172821059Y-113713652D01*
X172784899Y-113769922D01*
X172781779Y-113782956D01*
X172789842Y-113827939D01*
X172810598Y-113910164D01*
X172838903Y-114011939D01*
X172869611Y-114115569D01*
X172897575Y-114203363D01*
X172917650Y-114257627D01*
X172922235Y-114265887D01*
X172945717Y-114249246D01*
X173005783Y-114195374D01*
X173096748Y-114109691D01*
X173212931Y-113997619D01*
X173348648Y-113864578D01*
X173488434Y-113725765D01*
X173667544Y-113546061D01*
X173807293Y-113402525D01*
X173911201Y-113289293D01*
X173982789Y-113200498D01*
X174025577Y-113130275D01*
X174043084Y-113072759D01*
X174038832Y-113022084D01*
X174016341Y-112972384D01*
X173979130Y-112917794D01*
X173975933Y-112913460D01*
X173933910Y-112849389D01*
X173929191Y-112816967D01*
X174047976Y-112816967D01*
X174054181Y-112842604D01*
X174091795Y-112880263D01*
X174141514Y-112880217D01*
X174170954Y-112848672D01*
X174172960Y-112784168D01*
X174139833Y-112741603D01*
X174116391Y-112736083D01*
X174063875Y-112759985D01*
X174047976Y-112816967D01*
X173929191Y-112816967D01*
X173927154Y-112802975D01*
X173952117Y-112746056D01*
X173954352Y-112742040D01*
X174019133Y-112674078D01*
X174101075Y-112648915D01*
X174183381Y-112662895D01*
X174249254Y-112712361D01*
X174281898Y-112793655D01*
X174282961Y-112813581D01*
X174260848Y-112889158D01*
X174222914Y-112938203D01*
X174175618Y-113011325D01*
X174162867Y-113110277D01*
X174161369Y-113147039D01*
X174153793Y-113182252D01*
X174135516Y-113221476D01*
X174101915Y-113270267D01*
X174048367Y-113334184D01*
X173970250Y-113418785D01*
X173862940Y-113529627D01*
X173721814Y-113672268D01*
X173562816Y-113831678D01*
X172962765Y-114432419D01*
X172997936Y-114546742D01*
X173033108Y-114661065D01*
X173853188Y-113841391D01*
X174673269Y-113021718D01*
X174673269Y-112697543D01*
X174671853Y-112548451D01*
X174666198Y-112445664D01*
X174654190Y-112375479D01*
X174633717Y-112324189D01*
X174610110Y-112287942D01*
X174575317Y-112216811D01*
X174565493Y-112144618D01*
X174580599Y-112091279D01*
X174610512Y-112075563D01*
X174628703Y-112102327D01*
X174658727Y-112174325D01*
X174695705Y-112279116D01*
X174719425Y-112353282D01*
X174765112Y-112515964D01*
X174790396Y-112650513D01*
X174799363Y-112783626D01*
X174798684Y-112871190D01*
X174792299Y-113111379D01*
X173936691Y-113967710D01*
X173081083Y-114824041D01*
X173156608Y-115076370D01*
X173190459Y-115191193D01*
X173216463Y-115282693D01*
X173230652Y-115336759D01*
X173232134Y-115344900D01*
X173251578Y-115333301D01*
X173303163Y-115288046D01*
X173376770Y-115218136D01*
X173397264Y-115198022D01*
X173495491Y-115092169D01*
X173548676Y-115011435D01*
X173561490Y-114959657D01*
X173661377Y-114959657D01*
X173665696Y-114984975D01*
X173712645Y-115016005D01*
X173766657Y-115003478D01*
X173792888Y-114969815D01*
X173790676Y-114917228D01*
X173752342Y-114889662D01*
X173700493Y-114899606D01*
X173686442Y-114911002D01*
X173661377Y-114959657D01*
X173561490Y-114959657D01*
X173562394Y-114956006D01*
X173585922Y-114866406D01*
X173645297Y-114805799D01*
X173723708Y-114781580D01*
X173804343Y-114801144D01*
X173842965Y-114832597D01*
X173888175Y-114919513D01*
X173883557Y-115010612D01*
X173831015Y-115085977D01*
X173817827Y-115095548D01*
X173751072Y-115126029D01*
X173701757Y-115128751D01*
X173660385Y-115141003D01*
X173591526Y-115190386D01*
X173506856Y-115268515D01*
X173506371Y-115269006D01*
X173425707Y-115353906D01*
X173379388Y-115416551D01*
X173357894Y-115475693D01*
X173351707Y-115550086D01*
X173351431Y-115574262D01*
X173360742Y-115668031D01*
X173388028Y-115809201D01*
X173431243Y-115988562D01*
X173488344Y-116196902D01*
X173494043Y-116216582D01*
X173637453Y-116709728D01*
X173645887Y-116325054D01*
X173648283Y-116159753D01*
X173646344Y-116043788D01*
X173639106Y-115966546D01*
X173625603Y-115917409D01*
X173606107Y-115887104D01*
X173567990Y-115805621D01*
X173570254Y-115783543D01*
X173657216Y-115783543D01*
X173677510Y-115832811D01*
X173724706Y-115854006D01*
X173734594Y-115852910D01*
X173784701Y-115818288D01*
X173796951Y-115790553D01*
X173783216Y-115740011D01*
X173736902Y-115714198D01*
X173684251Y-115725773D01*
X173676484Y-115732443D01*
X173657216Y-115783543D01*
X173570254Y-115783543D01*
X173577205Y-115715740D01*
X173629513Y-115639825D01*
X173656511Y-115621086D01*
X173719251Y-115593783D01*
X173770411Y-115602488D01*
X173814135Y-115628337D01*
X173874937Y-115698866D01*
X173893572Y-115788893D01*
X173867165Y-115875154D01*
X173847618Y-115899288D01*
X173827987Y-115932163D01*
X173814685Y-115990878D01*
X173806718Y-116084953D01*
X173803091Y-116223910D01*
X173802583Y-116330075D01*
X173802583Y-116715826D01*
X174012748Y-116924381D01*
X174222914Y-117132936D01*
X174222914Y-117517759D01*
X174223800Y-117679451D01*
X174227586Y-117793290D01*
X174235964Y-117871456D01*
X174250626Y-117926132D01*
X174273261Y-117969498D01*
X174288709Y-117991573D01*
X174333005Y-118090021D01*
X174322173Y-118180085D01*
X174259645Y-118250070D01*
X174205447Y-118275445D01*
X174114209Y-118305469D01*
X174266138Y-118815871D01*
X174418068Y-119326273D01*
X174425754Y-116926509D01*
X174427123Y-116490816D01*
X174428192Y-116111188D01*
X174428878Y-115783641D01*
X174429094Y-115504195D01*
X174428757Y-115268866D01*
X174427782Y-115073672D01*
X174426082Y-114914630D01*
X174423574Y-114787759D01*
X174420173Y-114689075D01*
X174415793Y-114614597D01*
X174410350Y-114560342D01*
X174403759Y-114522328D01*
X174395934Y-114496572D01*
X174386791Y-114479092D01*
X174376246Y-114465906D01*
X174373213Y-114462635D01*
X174322446Y-114377089D01*
X174320542Y-114337998D01*
X174412840Y-114337998D01*
X174444311Y-114377244D01*
X174494899Y-114387384D01*
X174544171Y-114365021D01*
X174553174Y-114330549D01*
X174531905Y-114273604D01*
X174483773Y-114254734D01*
X174432690Y-114282770D01*
X174412840Y-114337998D01*
X174320542Y-114337998D01*
X174318315Y-114292295D01*
X174350868Y-114218847D01*
X174410149Y-114167336D01*
X174486206Y-114148354D01*
X174569083Y-114172494D01*
X174613221Y-114207242D01*
X174657633Y-114265128D01*
X174673269Y-114308276D01*
X174655844Y-114359227D01*
X174613873Y-114424770D01*
X174613221Y-114425600D01*
X174602794Y-114440008D01*
X174593650Y-114457556D01*
X174585703Y-114482048D01*
X174578871Y-114517291D01*
X174573069Y-114567089D01*
X174568213Y-114635249D01*
X174564219Y-114725574D01*
X174561003Y-114841871D01*
X174558480Y-114987945D01*
X174556567Y-115167602D01*
X174555179Y-115384646D01*
X174554232Y-115642883D01*
X174553642Y-115946118D01*
X174553325Y-116298157D01*
X174553197Y-116702805D01*
X174553174Y-117141703D01*
X174553174Y-119781468D01*
X174673269Y-120181946D01*
X174716663Y-120327481D01*
X174753079Y-120451181D01*
X174779391Y-120542316D01*
X174792478Y-120590156D01*
X174793363Y-120594580D01*
X174812616Y-120620371D01*
X174863833Y-120678306D01*
X174937205Y-120757396D01*
X174963063Y-120784648D01*
X175067945Y-120886611D01*
X175147370Y-120944189D01*
X175209135Y-120962997D01*
X175210758Y-120963021D01*
X175299796Y-120976603D01*
X175360160Y-121025984D01*
X175391475Y-121077163D01*
X175408619Y-121157910D01*
X175380525Y-121225807D01*
X175321763Y-121273394D01*
X175246901Y-121293212D01*
X175170506Y-121277802D01*
X175108622Y-121221992D01*
X175079727Y-121155741D01*
X175078601Y-121108460D01*
X175076963Y-121101473D01*
X175171353Y-121101473D01*
X175172697Y-121159067D01*
X175204009Y-121212589D01*
X175243718Y-121232774D01*
X175280066Y-121212483D01*
X175300607Y-121191544D01*
X175320980Y-121131497D01*
X175298788Y-121076803D01*
X175244338Y-121052634D01*
X175243718Y-121052632D01*
X175188406Y-121076616D01*
X175171353Y-121101473D01*
X175076963Y-121101473D01*
X175067867Y-121062686D01*
X175018944Y-120995783D01*
X174985757Y-120961617D01*
X174934476Y-120913209D01*
X174903996Y-120890549D01*
X174893523Y-120900297D01*
X174902261Y-120949116D01*
X174929415Y-121043669D01*
X174962858Y-121153422D01*
X175002477Y-121262885D01*
X175043678Y-121326793D01*
X175091978Y-121357959D01*
X175173578Y-121405727D01*
X175208865Y-121478633D01*
X175213234Y-121533573D01*
X175227163Y-121580448D01*
X175271549Y-121647378D01*
X175351004Y-121740109D01*
X175470137Y-121864384D01*
X175513930Y-121908306D01*
X175814167Y-122207416D01*
X175814167Y-122380615D01*
X175811798Y-122478854D01*
X175801465Y-122531086D01*
X175778328Y-122551269D01*
X175754120Y-122553814D01*
X175718834Y-122546328D01*
X175700799Y-122514224D01*
X175694523Y-122443033D01*
X175694072Y-122395597D01*
X175694072Y-122237380D01*
X175405791Y-121952748D01*
X175303017Y-121854168D01*
X175218975Y-121779132D01*
X175160660Y-121733442D01*
X175135068Y-121722900D01*
X175135008Y-121728164D01*
X175149976Y-121779314D01*
X175177916Y-121874599D01*
X175214873Y-122000543D01*
X175256894Y-122143668D01*
X175258159Y-122147975D01*
X175298608Y-122288625D01*
X175331902Y-122409947D01*
X175354730Y-122499472D01*
X175363780Y-122544730D01*
X175363812Y-122545788D01*
X175337019Y-122566585D01*
X175268614Y-122579849D01*
X175176563Y-122585557D01*
X175078830Y-122583689D01*
X174993379Y-122574224D01*
X174938176Y-122557139D01*
X174927728Y-122546308D01*
X174916699Y-122510979D01*
X174890248Y-122423661D01*
X174850043Y-122289927D01*
X174797751Y-122115353D01*
X174735039Y-121905514D01*
X174663575Y-121665983D01*
X174605336Y-121470507D01*
X175063576Y-121470507D01*
X175073480Y-121520421D01*
X175082766Y-121548084D01*
X175104442Y-121579156D01*
X175125024Y-121560768D01*
X175136765Y-121501218D01*
X175132645Y-121483191D01*
X175103589Y-121448322D01*
X175072531Y-121447785D01*
X175063576Y-121470507D01*
X174605336Y-121470507D01*
X174585025Y-121402336D01*
X174501058Y-121120147D01*
X174476520Y-121037620D01*
X174381087Y-120716607D01*
X174282259Y-120384196D01*
X174183058Y-120050554D01*
X174086508Y-119725849D01*
X173995632Y-119420248D01*
X173913455Y-119143919D01*
X173842998Y-118907029D01*
X173798019Y-118755823D01*
X173687345Y-118383738D01*
X173605839Y-118109585D01*
X174102819Y-118109585D01*
X174123256Y-118166446D01*
X174172250Y-118179429D01*
X174221842Y-118151751D01*
X174249716Y-118113884D01*
X174231422Y-118076552D01*
X174217217Y-118061727D01*
X174159595Y-118030950D01*
X174116486Y-118053735D01*
X174102819Y-118109585D01*
X173605839Y-118109585D01*
X173589564Y-118054841D01*
X173500414Y-117754774D01*
X173415632Y-117469183D01*
X173330955Y-117183709D01*
X173242121Y-116883997D01*
X173212436Y-116783800D01*
X173664574Y-116783800D01*
X173754424Y-117088062D01*
X173829290Y-117339050D01*
X173890629Y-117541243D01*
X173939903Y-117699120D01*
X173978571Y-117817157D01*
X174008093Y-117899834D01*
X174029928Y-117951629D01*
X174045537Y-117977020D01*
X174054902Y-117981220D01*
X174070543Y-117946262D01*
X174083124Y-117855451D01*
X174092212Y-117712921D01*
X174096243Y-117585557D01*
X174104679Y-117200817D01*
X173877193Y-116967053D01*
X173787807Y-116878134D01*
X173717677Y-116814031D01*
X173674385Y-116781279D01*
X173664574Y-116783800D01*
X173212436Y-116783800D01*
X173191820Y-116714216D01*
X173067810Y-116295897D01*
X172947598Y-115891006D01*
X172832371Y-115503509D01*
X172723317Y-115137368D01*
X172621621Y-114796546D01*
X172528470Y-114485007D01*
X172445052Y-114206715D01*
X172372552Y-113965633D01*
X172312158Y-113765724D01*
X172265057Y-113610951D01*
X172232434Y-113505279D01*
X172215476Y-113452671D01*
X172214415Y-113449754D01*
X172201270Y-113382205D01*
X172211951Y-113295520D01*
X172240261Y-113195651D01*
X172282428Y-113062331D01*
X172327876Y-112915042D01*
X172350181Y-112841166D01*
X172428329Y-112659907D01*
X172532808Y-112522804D01*
X172661685Y-112384584D01*
X172661685Y-111846610D01*
X172661685Y-111308635D01*
X172916886Y-111054760D01*
X173049242Y-110916773D01*
X173133583Y-110813847D01*
X173170292Y-110745501D01*
X173172086Y-110732668D01*
X173174626Y-110724500D01*
X173292181Y-110724500D01*
X173313411Y-110774678D01*
X173352228Y-110784547D01*
X173402407Y-110763317D01*
X173412276Y-110724500D01*
X173391046Y-110674321D01*
X173352228Y-110664452D01*
X173302050Y-110685682D01*
X173292181Y-110724500D01*
X173174626Y-110724500D01*
X173196898Y-110652865D01*
X173257542Y-110583484D01*
X173333330Y-110546150D01*
X173352228Y-110544358D01*
X173424378Y-110568536D01*
X173491041Y-110626576D01*
X173529635Y-110696733D01*
X173532370Y-110717819D01*
X173507333Y-110805943D01*
X173444569Y-110874770D01*
X173362595Y-110904530D01*
X173357369Y-110904641D01*
X173308152Y-110915981D01*
X173245382Y-110954060D01*
X173161003Y-111024964D01*
X173046963Y-111134780D01*
X173028811Y-111152964D01*
X172781779Y-111401286D01*
X172781779Y-111940140D01*
X172781779Y-112478994D01*
X172628293Y-112634411D01*
X172556488Y-112706953D01*
X172512934Y-112759615D01*
X172495070Y-112808581D01*
X172500330Y-112870036D01*
X172526152Y-112960167D01*
X172560154Y-113064606D01*
X172586339Y-113062368D01*
X172651490Y-113014893D01*
X172755338Y-112922407D01*
X172897619Y-112785134D01*
X172933169Y-112749827D01*
X173292181Y-112391750D01*
X173292181Y-112015392D01*
X173292181Y-111639035D01*
X173577406Y-111354996D01*
X173862630Y-111070957D01*
X173862630Y-110647181D01*
X173861938Y-110477742D01*
X173858986Y-110357889D01*
X173852462Y-110277170D01*
X173841053Y-110225130D01*
X173823445Y-110191318D01*
X173802583Y-110169062D01*
X173750279Y-110087490D01*
X173747522Y-109996501D01*
X173793021Y-109916258D01*
X173820157Y-109894410D01*
X173877859Y-109862681D01*
X173910039Y-109867762D01*
G37*
G36*
X172209814Y-104596573D02*
G01*
X172235890Y-104665849D01*
X172271942Y-104771155D01*
X172314166Y-104901795D01*
X172314948Y-104904279D01*
X172422294Y-105245185D01*
X172274990Y-105684822D01*
X172127686Y-106124459D01*
X172274591Y-106269154D01*
X172421495Y-106413850D01*
X172421495Y-107769872D01*
X172421714Y-108095686D01*
X172422480Y-108366536D01*
X172423956Y-108587502D01*
X172426308Y-108763668D01*
X172429700Y-108900113D01*
X172434295Y-109001921D01*
X172440258Y-109074172D01*
X172447754Y-109121948D01*
X172456946Y-109150331D01*
X172466531Y-109163270D01*
X172506222Y-109230538D01*
X172506898Y-109315641D01*
X172470769Y-109392755D01*
X172444839Y-109416769D01*
X172354422Y-109458916D01*
X172277138Y-109444134D01*
X172213509Y-109384399D01*
X172161978Y-109301409D01*
X172161262Y-109278595D01*
X172276713Y-109278595D01*
X172281072Y-109295347D01*
X172321667Y-109336811D01*
X172376735Y-109337286D01*
X172408264Y-109310507D01*
X172406923Y-109265006D01*
X172387518Y-109236534D01*
X172335952Y-109213661D01*
X172291482Y-109231844D01*
X172276713Y-109278595D01*
X172161262Y-109278595D01*
X172159891Y-109234912D01*
X172207077Y-109167575D01*
X172211330Y-109163270D01*
X172225729Y-109147023D01*
X172237623Y-109126092D01*
X172247250Y-109094996D01*
X172254850Y-109048256D01*
X172260661Y-108980390D01*
X172264924Y-108885919D01*
X172267876Y-108759363D01*
X172269759Y-108595240D01*
X172270810Y-108388070D01*
X172271270Y-108132374D01*
X172271377Y-107822670D01*
X172271377Y-107787800D01*
X172271377Y-106472377D01*
X172181620Y-106386384D01*
X172123572Y-106336030D01*
X172085464Y-106312710D01*
X172079700Y-106313213D01*
X172065541Y-106346218D01*
X172039572Y-106421232D01*
X172007141Y-106522723D01*
X172003697Y-106533900D01*
X171939856Y-106741765D01*
X172015546Y-106820768D01*
X172091235Y-106899771D01*
X172091235Y-108384674D01*
X172091235Y-109869577D01*
X171640881Y-110319180D01*
X171483787Y-110477534D01*
X171365815Y-110600439D01*
X171282235Y-110693468D01*
X171228314Y-110762193D01*
X171199322Y-110812185D01*
X171190529Y-110849016D01*
X171190526Y-110849580D01*
X171165063Y-110946175D01*
X171095121Y-111007440D01*
X171009942Y-111024736D01*
X170926449Y-110999255D01*
X170859568Y-110936330D01*
X170833695Y-110865430D01*
X170955541Y-110865430D01*
X170961746Y-110891067D01*
X170996666Y-110931725D01*
X171046952Y-110914651D01*
X171062081Y-110900983D01*
X171082729Y-110849636D01*
X171063844Y-110801579D01*
X171023956Y-110784547D01*
X170971440Y-110808448D01*
X170955541Y-110865430D01*
X170833695Y-110865430D01*
X170830340Y-110856236D01*
X170830243Y-110851561D01*
X170852992Y-110794550D01*
X170907595Y-110734773D01*
X170973582Y-110689647D01*
X171030485Y-110676585D01*
X171034660Y-110677640D01*
X171066130Y-110671441D01*
X171119707Y-110636634D01*
X171199511Y-110569656D01*
X171309663Y-110466940D01*
X171454284Y-110324922D01*
X171529550Y-110249415D01*
X171971141Y-109804273D01*
X171971141Y-108391585D01*
X171971100Y-108021811D01*
X171970422Y-107710064D01*
X171968271Y-107454324D01*
X171963816Y-107252571D01*
X171956220Y-107102784D01*
X171944650Y-107002945D01*
X171928273Y-106951033D01*
X171906254Y-106945028D01*
X171877759Y-106982910D01*
X171841954Y-107062658D01*
X171798005Y-107182254D01*
X171745078Y-107339677D01*
X171682338Y-107532906D01*
X171653500Y-107622277D01*
X171589382Y-107820746D01*
X171530840Y-108001683D01*
X171480566Y-108156787D01*
X171441252Y-108277757D01*
X171415593Y-108356291D01*
X171406823Y-108382656D01*
X171414153Y-108395848D01*
X171454628Y-108369174D01*
X171471222Y-108354642D01*
X171525431Y-108287449D01*
X171535551Y-108231759D01*
X171537941Y-108212458D01*
X171646127Y-108212458D01*
X171651024Y-108252675D01*
X171697239Y-108258591D01*
X171705763Y-108257493D01*
X171759917Y-108233380D01*
X171775987Y-108202514D01*
X171754911Y-108165742D01*
X171708879Y-108159092D01*
X171663684Y-108180588D01*
X171646127Y-108212458D01*
X171537941Y-108212458D01*
X171542971Y-108171840D01*
X171584026Y-108102121D01*
X171641595Y-108044886D01*
X171696427Y-108022372D01*
X171759143Y-108038959D01*
X171814342Y-108069110D01*
X171869919Y-108137829D01*
X171879800Y-108220159D01*
X171850176Y-108299484D01*
X171787237Y-108359188D01*
X171697538Y-108382656D01*
X171623361Y-108409144D01*
X171521534Y-108488676D01*
X171467558Y-108540881D01*
X171393352Y-108620581D01*
X171337864Y-108695334D01*
X171291800Y-108781880D01*
X171245864Y-108896959D01*
X171205877Y-109012146D01*
X171163326Y-109139799D01*
X171129000Y-109245254D01*
X171106823Y-109316291D01*
X171100455Y-109340393D01*
X171119635Y-109329931D01*
X171169185Y-109287070D01*
X171218988Y-109239854D01*
X171306441Y-109134956D01*
X171345712Y-109040985D01*
X171346589Y-109034070D01*
X171350288Y-109024481D01*
X171467728Y-109024481D01*
X171480923Y-109077105D01*
X171518445Y-109103153D01*
X171520786Y-109103223D01*
X171557859Y-109079126D01*
X171570751Y-109056169D01*
X171572018Y-109000671D01*
X171542159Y-108964668D01*
X171499139Y-108965505D01*
X171486776Y-108975106D01*
X171467728Y-109024481D01*
X171350288Y-109024481D01*
X171383388Y-108938676D01*
X171434472Y-108885457D01*
X171497744Y-108847596D01*
X171549674Y-108848694D01*
X171584590Y-108864466D01*
X171663791Y-108920383D01*
X171696937Y-108988601D01*
X171700468Y-109031016D01*
X171674275Y-109109067D01*
X171607428Y-109168893D01*
X171519313Y-109193286D01*
X171517671Y-109193294D01*
X171459758Y-109212287D01*
X171376895Y-109271615D01*
X171264393Y-109374804D01*
X171227903Y-109411069D01*
X171125003Y-109517740D01*
X171054222Y-109602805D01*
X171003468Y-109685291D01*
X170960649Y-109784224D01*
X170923045Y-109890769D01*
X170834509Y-110152694D01*
X170920279Y-110089281D01*
X170989072Y-110051070D01*
X171044416Y-110041111D01*
X171049383Y-110042497D01*
X171097410Y-110032501D01*
X171163143Y-109985387D01*
X171233272Y-109915450D01*
X171294483Y-109836986D01*
X171333464Y-109764290D01*
X171340644Y-109729730D01*
X171344862Y-109715024D01*
X171467728Y-109715024D01*
X171480923Y-109767648D01*
X171518445Y-109793697D01*
X171520786Y-109793767D01*
X171557859Y-109769670D01*
X171570751Y-109746713D01*
X171572018Y-109691214D01*
X171542159Y-109655212D01*
X171499139Y-109656049D01*
X171486776Y-109665649D01*
X171467728Y-109715024D01*
X171344862Y-109715024D01*
X171365781Y-109642093D01*
X171429221Y-109581583D01*
X171513006Y-109555209D01*
X171599180Y-109569981D01*
X171651239Y-109608483D01*
X171694423Y-109690929D01*
X171693430Y-109778485D01*
X171677951Y-109811790D01*
X171628441Y-109857196D01*
X171560797Y-109890973D01*
X171501673Y-109901242D01*
X171487342Y-109896735D01*
X171445643Y-109902729D01*
X171384257Y-109945977D01*
X171315624Y-110013002D01*
X171252188Y-110090330D01*
X171206388Y-110164486D01*
X171190526Y-110218204D01*
X171166858Y-110311011D01*
X171106906Y-110372140D01*
X171027246Y-110396988D01*
X170944454Y-110380954D01*
X170875107Y-110319436D01*
X170867895Y-110307772D01*
X170826092Y-110234934D01*
X170955541Y-110234934D01*
X170961746Y-110260571D01*
X170996666Y-110301228D01*
X171046952Y-110284154D01*
X171062081Y-110270486D01*
X171082729Y-110219139D01*
X171063844Y-110171082D01*
X171023956Y-110154050D01*
X170971440Y-110177952D01*
X170955541Y-110234934D01*
X170826092Y-110234934D01*
X170818269Y-110221304D01*
X170734547Y-110480407D01*
X170709602Y-110558944D01*
X170690178Y-110627534D01*
X170675578Y-110695009D01*
X170665111Y-110770202D01*
X170658080Y-110861945D01*
X170653793Y-110979071D01*
X170651556Y-111130413D01*
X170650674Y-111324802D01*
X170650462Y-111550513D01*
X170650101Y-112361515D01*
X171108313Y-112819012D01*
X171268870Y-112977789D01*
X171393791Y-113097389D01*
X171488518Y-113182437D01*
X171558490Y-113237556D01*
X171609148Y-113267371D01*
X171645933Y-113276506D01*
X171646594Y-113276509D01*
X171741183Y-113301536D01*
X171803655Y-113367708D01*
X171821023Y-113441639D01*
X171796514Y-113528045D01*
X171734734Y-113585101D01*
X171653305Y-113607801D01*
X171569847Y-113591139D01*
X171503165Y-113531942D01*
X171472634Y-113465356D01*
X171471592Y-113447463D01*
X171586037Y-113447463D01*
X171592243Y-113473100D01*
X171629857Y-113510759D01*
X171679575Y-113510713D01*
X171709015Y-113479169D01*
X171711021Y-113414664D01*
X171677894Y-113372099D01*
X171654452Y-113366580D01*
X171601936Y-113390481D01*
X171586037Y-113447463D01*
X171471592Y-113447463D01*
X171469781Y-113416347D01*
X171453969Y-113382252D01*
X171398077Y-113311217D01*
X171305815Y-113207386D01*
X171180894Y-113074903D01*
X171027026Y-112917912D01*
X170992704Y-112883536D01*
X170499982Y-112391494D01*
X170497302Y-111820704D01*
X170494622Y-111249913D01*
X170359688Y-111655232D01*
X170295556Y-111848977D01*
X170223726Y-112067828D01*
X170147964Y-112300143D01*
X170072032Y-112534281D01*
X169999696Y-112758602D01*
X169934718Y-112961465D01*
X169880865Y-113131228D01*
X169841899Y-113256250D01*
X169840293Y-113261497D01*
X169807486Y-113367026D01*
X169762781Y-113508417D01*
X169712916Y-113664448D01*
X169678963Y-113769730D01*
X169572694Y-114097822D01*
X169946267Y-113725145D01*
X170095343Y-113574054D01*
X170203845Y-113456289D01*
X170275446Y-113364579D01*
X170313819Y-113291657D01*
X170322635Y-113230253D01*
X170305568Y-113173097D01*
X170266290Y-113112920D01*
X170259793Y-113104560D01*
X170217600Y-113039027D01*
X170201514Y-112992758D01*
X170325482Y-112992758D01*
X170329924Y-113019290D01*
X170370492Y-113060043D01*
X170425660Y-113059956D01*
X170456728Y-113033439D01*
X170457602Y-112988049D01*
X170423856Y-112946312D01*
X170377008Y-112926788D01*
X170346092Y-112938012D01*
X170325482Y-112992758D01*
X170201514Y-112992758D01*
X170199750Y-112987684D01*
X170199746Y-112987235D01*
X170224996Y-112925519D01*
X170285856Y-112866943D01*
X170359989Y-112830395D01*
X170390246Y-112826154D01*
X170475688Y-112851169D01*
X170533169Y-112914509D01*
X170556706Y-112998619D01*
X170540318Y-113085946D01*
X170498220Y-113142997D01*
X170450281Y-113218168D01*
X170444959Y-113298148D01*
X170445031Y-113332754D01*
X170435675Y-113368478D01*
X170411863Y-113411487D01*
X170368565Y-113467946D01*
X170300755Y-113544023D01*
X170203403Y-113645885D01*
X170071482Y-113779697D01*
X169966012Y-113885529D01*
X169478518Y-114373696D01*
X169401745Y-114623688D01*
X169368424Y-114735977D01*
X169344728Y-114823258D01*
X169334166Y-114872248D01*
X169334522Y-114878227D01*
X169436952Y-114930660D01*
X169495959Y-114973793D01*
X169524229Y-115019708D01*
X169533341Y-115067592D01*
X169518838Y-115168206D01*
X169458189Y-115234698D01*
X169362173Y-115258069D01*
X169280956Y-115277289D01*
X169210313Y-115338745D01*
X169145900Y-115448135D01*
X169083379Y-115611155D01*
X169076188Y-115633365D01*
X168999567Y-115873554D01*
X168999184Y-117674668D01*
X168998800Y-119475782D01*
X169527484Y-120005078D01*
X169693110Y-120171691D01*
X169820193Y-120301844D01*
X169913285Y-120400895D01*
X169976935Y-120474201D01*
X170015692Y-120527122D01*
X170034107Y-120565014D01*
X170036730Y-120593237D01*
X170034612Y-120602289D01*
X170024867Y-120619419D01*
X170006930Y-120622428D01*
X169976006Y-120607254D01*
X169927300Y-120569834D01*
X169856017Y-120506107D01*
X169757359Y-120412011D01*
X169626533Y-120283483D01*
X169458743Y-120116463D01*
X169445881Y-120103617D01*
X168878706Y-119537031D01*
X168875934Y-117915458D01*
X168873163Y-116293885D01*
X168741709Y-116684192D01*
X168610255Y-117074500D01*
X168609374Y-117803789D01*
X168609327Y-118032369D01*
X168610217Y-118208811D01*
X168612652Y-118341025D01*
X168617246Y-118436917D01*
X168624609Y-118504399D01*
X168635351Y-118551377D01*
X168650085Y-118585760D01*
X168669421Y-118615458D01*
X168672401Y-118619518D01*
X168716606Y-118716753D01*
X168709676Y-118807968D01*
X168654105Y-118878924D01*
X168623907Y-118896210D01*
X168538378Y-118909220D01*
X168466138Y-118876659D01*
X168416523Y-118812872D01*
X168400047Y-118737580D01*
X168488399Y-118737580D01*
X168504842Y-118808172D01*
X168546655Y-118827951D01*
X168602564Y-118792570D01*
X168609744Y-118784340D01*
X168632101Y-118739352D01*
X168605778Y-118695281D01*
X168601289Y-118690717D01*
X168544360Y-118661251D01*
X168501390Y-118684760D01*
X168488399Y-118737580D01*
X168400047Y-118737580D01*
X168398871Y-118732205D01*
X168422520Y-118649003D01*
X168444074Y-118619932D01*
X168460788Y-118592263D01*
X168472568Y-118546368D01*
X168479958Y-118473718D01*
X168483503Y-118365786D01*
X168483750Y-118214048D01*
X168481603Y-118033091D01*
X168473387Y-117496800D01*
X168225300Y-118276430D01*
X167977214Y-119056060D01*
X167977605Y-119701078D01*
X167977997Y-120346096D01*
X168297624Y-120666717D01*
X168424708Y-120790520D01*
X168530262Y-120885990D01*
X168608409Y-120948155D01*
X168653270Y-120972043D01*
X168658140Y-120971649D01*
X168710779Y-120975492D01*
X168773855Y-121004987D01*
X168834370Y-121074827D01*
X168845838Y-121160322D01*
X168805914Y-121241062D01*
X168801502Y-121245641D01*
X168723770Y-121288246D01*
X168639065Y-121284893D01*
X168565953Y-121243001D01*
X168523003Y-121169988D01*
X168519427Y-121140754D01*
X168611127Y-121140754D01*
X168625915Y-121191615D01*
X168640346Y-121203881D01*
X168702361Y-121216233D01*
X168745477Y-121182236D01*
X168752693Y-121131376D01*
X168721745Y-121077681D01*
X168683963Y-121067644D01*
X168633360Y-121090425D01*
X168611127Y-121140754D01*
X168519427Y-121140754D01*
X168518422Y-121132540D01*
X168494957Y-121078684D01*
X168424593Y-120987440D01*
X168307373Y-120858860D01*
X168188876Y-120738095D01*
X167859329Y-120409571D01*
X167851110Y-119935274D01*
X167842890Y-119460977D01*
X167615261Y-120174240D01*
X167544103Y-120399011D01*
X167490578Y-120573040D01*
X167453153Y-120702490D01*
X167430294Y-120793523D01*
X167420467Y-120852303D01*
X167422139Y-120884993D01*
X167433774Y-120897756D01*
X167435119Y-120898107D01*
X167521358Y-120943803D01*
X167576735Y-121023758D01*
X167587689Y-121081419D01*
X167615344Y-121167753D01*
X167692772Y-121262797D01*
X167797855Y-121364648D01*
X167797855Y-121959231D01*
X167797614Y-122162062D01*
X167796370Y-122312621D01*
X167793336Y-122418685D01*
X167787728Y-122488028D01*
X167778760Y-122528426D01*
X167765646Y-122547653D01*
X167747603Y-122553487D01*
X167737808Y-122553814D01*
X167717099Y-122551389D01*
X167701794Y-122538864D01*
X167691077Y-122508367D01*
X167684132Y-122452026D01*
X167680145Y-122361966D01*
X167678299Y-122230317D01*
X167677779Y-122049204D01*
X167677760Y-121973970D01*
X167677760Y-121394126D01*
X167595195Y-121316091D01*
X167481017Y-121246634D01*
X167397567Y-121227909D01*
X167282504Y-121217762D01*
X167065320Y-121893294D01*
X166848136Y-122568826D01*
X166632452Y-122577647D01*
X166514398Y-122579645D01*
X166446335Y-122572753D01*
X166418679Y-122555583D01*
X166416767Y-122546448D01*
X166425780Y-122513057D01*
X166452031Y-122426229D01*
X166494343Y-122289675D01*
X166551536Y-122107112D01*
X166622434Y-121882253D01*
X166705856Y-121618812D01*
X166800624Y-121320505D01*
X166877003Y-121080707D01*
X167350134Y-121080707D01*
X167364922Y-121131567D01*
X167379353Y-121143833D01*
X167441368Y-121156186D01*
X167484484Y-121122188D01*
X167491700Y-121071328D01*
X167460752Y-121017634D01*
X167422970Y-121007596D01*
X167372367Y-121030377D01*
X167350134Y-121080707D01*
X166877003Y-121080707D01*
X166905561Y-120991045D01*
X167019487Y-120634146D01*
X167141223Y-120253523D01*
X167269593Y-119852891D01*
X167403416Y-119435963D01*
X167424567Y-119370132D01*
X167565130Y-118932682D01*
X167721637Y-118445593D01*
X167891667Y-117916394D01*
X168072801Y-117352618D01*
X168262620Y-116761795D01*
X168458704Y-116151456D01*
X168658633Y-115529133D01*
X168801069Y-115085762D01*
X169306742Y-115085762D01*
X169326523Y-115119906D01*
X169377316Y-115148700D01*
X169426800Y-115136215D01*
X169449155Y-115089001D01*
X169449155Y-115088785D01*
X169425252Y-115042297D01*
X169373014Y-115023601D01*
X169322310Y-115042645D01*
X169306742Y-115085762D01*
X168801069Y-115085762D01*
X168859990Y-114902355D01*
X169060352Y-114278655D01*
X169257303Y-113665563D01*
X169448421Y-113070610D01*
X169631288Y-112501327D01*
X169739117Y-112165634D01*
X169972906Y-111437802D01*
X170189085Y-110764809D01*
X170388406Y-110144320D01*
X170571620Y-109574004D01*
X170739478Y-109051528D01*
X170892733Y-108574559D01*
X171032136Y-108140763D01*
X171158439Y-107747809D01*
X171272393Y-107393363D01*
X171374749Y-107075093D01*
X171466260Y-106790665D01*
X171547677Y-106537747D01*
X171619752Y-106314006D01*
X171683235Y-106117110D01*
X171738880Y-105944724D01*
X171787436Y-105794517D01*
X171829657Y-105664156D01*
X171866293Y-105551307D01*
X171898097Y-105453638D01*
X171925819Y-105368817D01*
X171950211Y-105294509D01*
X171972026Y-105228383D01*
X171992014Y-105168106D01*
X172010927Y-105111344D01*
X172029517Y-105055766D01*
X172036468Y-105035020D01*
X172088466Y-104881064D01*
X172134021Y-104748386D01*
X172169674Y-104646885D01*
X172191966Y-104586464D01*
X172197515Y-104574019D01*
X172209814Y-104596573D01*
G37*
%TD*%
D10*
%TO.C,B2*%
X151130000Y-64770000D03*
D11*
X151130000Y-67310000D03*
%TD*%
D12*
%TO.C,U5*%
X156862500Y-108787500D03*
X166006500Y-108787500D03*
D13*
X156862500Y-93345000D03*
D14*
X166070000Y-93345000D03*
%TD*%
D15*
%TO.C,H3*%
X167640000Y-137202000D03*
%TD*%
%TO.C,H2*%
X119640000Y-66040000D03*
%TD*%
%TO.C,H4*%
X167640000Y-66039999D03*
%TD*%
D10*
%TO.C,B4*%
X161290000Y-64770000D03*
D11*
X161290000Y-67310000D03*
%TD*%
D16*
%TO.C,U4*%
X137034000Y-94007000D03*
X137034000Y-96547000D03*
X137034000Y-99087000D03*
X137034000Y-101627000D03*
X137034000Y-104167000D03*
X137034000Y-106707000D03*
X137034000Y-109247000D03*
X137034000Y-111787000D03*
%TD*%
D17*
%TO.C,R2*%
X143510000Y-115570000D03*
D18*
X143510000Y-123190000D03*
%TD*%
D19*
%TO.C,C4*%
X113030000Y-127080000D03*
D20*
X113030000Y-132080000D03*
%TD*%
D21*
%TO.C,T1*%
X128270000Y-132212500D03*
D22*
X135890000Y-132212500D03*
%TD*%
D15*
%TO.C,H1*%
X119640001Y-137202000D03*
%TD*%
D23*
%TO.C,B1*%
X125095000Y-66040000D03*
D11*
X127635000Y-66040000D03*
X130175000Y-66040000D03*
X132715000Y-66040000D03*
X135255000Y-66040000D03*
X137795000Y-66040000D03*
X140335000Y-66040000D03*
%TD*%
D21*
%TO.C,T2*%
X151130000Y-132212500D03*
D22*
X158750000Y-132212500D03*
%TD*%
D24*
%TO.C,C2*%
X112097600Y-119380001D03*
D25*
X110097600Y-119380001D03*
%TD*%
D26*
%TO.C,C1*%
X112395000Y-113125000D03*
D17*
X110395000Y-113125000D03*
%TD*%
%TO.C,R1*%
X138430000Y-123190000D03*
D18*
X138430000Y-115570000D03*
%TD*%
D19*
%TO.C,D1*%
X151130000Y-115570000D03*
D27*
X151130000Y-120650000D03*
%TD*%
D10*
%TO.C,B3*%
X156210000Y-64765000D03*
D11*
X156210000Y-67305000D03*
%TD*%
D19*
%TO.C,C3*%
X173990000Y-127080000D03*
D20*
X173990000Y-132080000D03*
%TD*%
D10*
%TO.C,U3*%
X117565000Y-119680000D03*
D23*
X117565000Y-117140000D03*
X120105000Y-119680000D03*
X120105000Y-117140000D03*
X122645000Y-119680000D03*
X122645000Y-117140000D03*
X125185000Y-119680000D03*
X125185000Y-117140000D03*
%TD*%
D16*
%TO.C,U1*%
X170815000Y-71880000D03*
X168275000Y-71880000D03*
X165735000Y-71880000D03*
X163195000Y-71880000D03*
X137795000Y-71880000D03*
X168275000Y-87120000D03*
X127635000Y-76960000D03*
X160655000Y-71880000D03*
X158115000Y-71880000D03*
X167005000Y-74930000D03*
X155575000Y-71880000D03*
X153035000Y-71880000D03*
X150495000Y-71880000D03*
X147955000Y-71880000D03*
X145415000Y-71880000D03*
X142875000Y-71880000D03*
X140335000Y-71880000D03*
X140335000Y-87120000D03*
X142875000Y-87120000D03*
X145415000Y-87120000D03*
X147955000Y-87120000D03*
X150495000Y-87120000D03*
X153035000Y-87120000D03*
X155575000Y-87120000D03*
X158115000Y-87120000D03*
X160655000Y-87120000D03*
X163195000Y-87120000D03*
X165735000Y-87120000D03*
X135255000Y-71880000D03*
X132715000Y-71880000D03*
X130175000Y-71880000D03*
X127635000Y-71880000D03*
X125095000Y-71880000D03*
X122555000Y-71880000D03*
X120015000Y-71880000D03*
X117475000Y-71880000D03*
X114935000Y-71880000D03*
X114935000Y-87120000D03*
X117475000Y-87120000D03*
X120015000Y-87120000D03*
X122555000Y-87120000D03*
X125095000Y-87120000D03*
X127635000Y-87120000D03*
X130175000Y-87120000D03*
X132715000Y-87120000D03*
X135255000Y-87120000D03*
X161925000Y-74930000D03*
X164465000Y-74930000D03*
X173355000Y-71880000D03*
X137795000Y-87120000D03*
X170815000Y-87120000D03*
X127635000Y-79500000D03*
X158385000Y-82670000D03*
X160385000Y-82670000D03*
X127635000Y-84580000D03*
X127635000Y-82040000D03*
X160385000Y-84670000D03*
X158385000Y-84670000D03*
X158385000Y-80670000D03*
X160385000Y-80670000D03*
X159385000Y-74930000D03*
X156845000Y-74930000D03*
X127635000Y-74420000D03*
X173355000Y-87120000D03*
X170815000Y-84580000D03*
%TD*%
D10*
%TO.C,Cox2*%
X97790000Y-96745001D03*
D11*
X100330000Y-96745001D03*
X102870000Y-96745001D03*
%TD*%
D10*
%TO.C,Cox6*%
X189214980Y-121490001D03*
D11*
X186674980Y-121490001D03*
X184134980Y-121490001D03*
%TD*%
D10*
%TO.C,Tib2*%
X97790000Y-106045001D03*
D11*
X100330000Y-106045001D03*
X102870000Y-106045001D03*
%TD*%
D10*
%TO.C,FS4*%
X175900000Y-91235000D03*
D11*
X173360000Y-91235000D03*
%TD*%
D10*
%TO.C,Cox5*%
X189230001Y-106250000D03*
D11*
X186690001Y-106250000D03*
X184150001Y-106250000D03*
%TD*%
D10*
%TO.C,Tib1*%
X97790001Y-91010000D03*
D11*
X100330001Y-91010000D03*
X102870001Y-91010000D03*
%TD*%
D10*
%TO.C,Fem4*%
X189230000Y-86360000D03*
D11*
X186690000Y-86360000D03*
X184150000Y-86360000D03*
%TD*%
D10*
%TO.C,Fem3*%
X97789999Y-116635000D03*
D11*
X100329999Y-116635000D03*
X102869999Y-116635000D03*
%TD*%
D10*
%TO.C,Tib6*%
X189214997Y-112189999D03*
D11*
X186674997Y-112189999D03*
X184134997Y-112189999D03*
%TD*%
D10*
%TO.C,Fem5*%
X189230000Y-101600000D03*
D11*
X186690000Y-101600000D03*
X184150000Y-101600000D03*
%TD*%
D10*
%TO.C,Cox1*%
X97790001Y-81710000D03*
D11*
X100330001Y-81710000D03*
X102870001Y-81710000D03*
%TD*%
D10*
%TO.C,FS2*%
X110495000Y-95250000D03*
D11*
X113035000Y-95250000D03*
%TD*%
D10*
%TO.C,FS5*%
X175900001Y-95885000D03*
D11*
X173360001Y-95885000D03*
%TD*%
D10*
%TO.C,Cox4*%
X189229992Y-91010010D03*
D11*
X186689992Y-91010010D03*
X184149992Y-91010010D03*
%TD*%
D10*
%TO.C,Fem2*%
X97790001Y-101395000D03*
D11*
X100330001Y-101395000D03*
X102870001Y-101395000D03*
%TD*%
D10*
%TO.C,Tib5*%
X189230001Y-96950000D03*
D11*
X186690001Y-96950000D03*
X184150001Y-96950000D03*
%TD*%
D10*
%TO.C,Fem1*%
X97790000Y-86360000D03*
D11*
X100330000Y-86360000D03*
X102870000Y-86360000D03*
%TD*%
D10*
%TO.C,Cox3*%
X97790000Y-111985000D03*
D11*
X100330000Y-111985000D03*
X102870000Y-111985000D03*
%TD*%
D10*
%TO.C,FS1*%
X110490000Y-90805000D03*
D11*
X113030000Y-90805000D03*
%TD*%
D10*
%TO.C,Tib3*%
X97790000Y-121285000D03*
D11*
X100330000Y-121285000D03*
X102870000Y-121285000D03*
%TD*%
D10*
%TO.C,FS3*%
X110490000Y-99695000D03*
D11*
X113030000Y-99695000D03*
%TD*%
D10*
%TO.C,FS6*%
X175900000Y-100535000D03*
D11*
X173360000Y-100535000D03*
%TD*%
D10*
%TO.C,Fem6*%
X189215000Y-116840000D03*
D11*
X186675000Y-116840000D03*
X184135000Y-116840000D03*
%TD*%
D10*
%TO.C,Tib4*%
X189230008Y-81710011D03*
D11*
X186690008Y-81710011D03*
X184150008Y-81710011D03*
%TD*%
M02*
