%TF.GenerationSoftware,KiCad,Pcbnew,7.0.8*%
%TF.CreationDate,2025-02-28T20:23:41-05:00*%
%TF.ProjectId,Hexapod PCB KiCad Project,48657861-706f-4642-9050-4342204b6943,rev?*%
%TF.SameCoordinates,Original*%
%TF.FileFunction,Copper,L2,Inr*%
%TF.FilePolarity,Positive*%
%FSLAX46Y46*%
G04 Gerber Fmt 4.6, Leading zero omitted, Abs format (unit mm)*
G04 Created by KiCad (PCBNEW 7.0.8) date 2025-02-28 20:23:41*
%MOMM*%
%LPD*%
G01*
G04 APERTURE LIST*
%TA.AperFunction,ComponentPad*%
%ADD10R,1.700000X1.700000*%
%TD*%
%TA.AperFunction,ComponentPad*%
%ADD11O,1.700000X1.700000*%
%TD*%
%TA.AperFunction,ComponentPad*%
%ADD12C,1.700000*%
%TD*%
%TA.AperFunction,ComponentPad*%
%ADD13C,1.600000*%
%TD*%
%TA.AperFunction,ComponentPad*%
%ADD14O,1.600000X1.600000*%
%TD*%
%TA.AperFunction,ComponentPad*%
%ADD15R,2.000000X2.000000*%
%TD*%
%TA.AperFunction,ComponentPad*%
%ADD16C,2.000000*%
%TD*%
%TA.AperFunction,ComponentPad*%
%ADD17R,2.400000X2.400000*%
%TD*%
%TA.AperFunction,ComponentPad*%
%ADD18C,2.400000*%
%TD*%
%TA.AperFunction,ComponentPad*%
%ADD19R,1.200000X1.200000*%
%TD*%
%TA.AperFunction,ComponentPad*%
%ADD20C,1.200000*%
%TD*%
%TA.AperFunction,ComponentPad*%
%ADD21R,1.600000X1.600000*%
%TD*%
%TA.AperFunction,ComponentPad*%
%ADD22O,2.000000X2.000000*%
%TD*%
%TA.AperFunction,ViaPad*%
%ADD23C,0.800000*%
%TD*%
%TA.AperFunction,Conductor*%
%ADD24C,0.250000*%
%TD*%
%TA.AperFunction,Conductor*%
%ADD25C,2.500000*%
%TD*%
%TA.AperFunction,Conductor*%
%ADD26C,2.000000*%
%TD*%
%TA.AperFunction,Conductor*%
%ADD27C,5.000000*%
%TD*%
G04 APERTURE END LIST*
D10*
%TO.N,GND*%
%TO.C,B2*%
X151130000Y-64770000D03*
D11*
X151130000Y-67310000D03*
%TD*%
D10*
%TO.N,Teensy VIN*%
%TO.C,B4*%
X161290000Y-64770000D03*
D11*
X161290000Y-67310000D03*
%TD*%
D12*
%TO.N,+3.3V*%
%TO.C,U4*%
X137034000Y-94007000D03*
%TO.N,GND*%
X137034000Y-96547000D03*
%TO.N,Gyro SCL*%
X137034000Y-99087000D03*
%TO.N,Gyro SDA*%
X137034000Y-101627000D03*
%TO.N,unconnected-(U4-XDA-Pad5)*%
X137034000Y-104167000D03*
%TO.N,unconnected-(U4-XCL-Pad6)*%
X137034000Y-106707000D03*
%TO.N,unconnected-(U4-ADO-Pad7)*%
X137034000Y-109247000D03*
%TO.N,unconnected-(U4-INT-Pad8)*%
X137034000Y-111787000D03*
%TD*%
D13*
%TO.N,Battery Voltage Divider*%
%TO.C,R2*%
X143510000Y-115570000D03*
D14*
%TO.N,GND*%
X143510000Y-123190000D03*
%TD*%
D15*
%TO.N,+BATT*%
%TO.C,C4*%
X113030000Y-127080000D03*
D16*
%TO.N,GND*%
X113030000Y-132080000D03*
%TD*%
D17*
%TO.N,GND*%
%TO.C,T1*%
X128270000Y-132212500D03*
D18*
%TO.N,Net-(T1-Pad2)*%
X135890000Y-132212500D03*
%TD*%
D12*
%TO.N,B1*%
%TO.C,B1*%
X125095000Y-66040000D03*
D11*
%TO.N,B2*%
X127635000Y-66040000D03*
%TO.N,B3*%
X130175000Y-66040000D03*
%TO.N,B4*%
X132715000Y-66040000D03*
%TO.N,B5*%
X135255000Y-66040000D03*
%TO.N,B6*%
X137795000Y-66040000D03*
%TO.N,B7*%
X140335000Y-66040000D03*
%TD*%
D17*
%TO.N,Net-(T1-Pad2)*%
%TO.C,T2*%
X151130000Y-132212500D03*
D18*
%TO.N,+BATT*%
X158750000Y-132212500D03*
%TD*%
D19*
%TO.N,+3.3V*%
%TO.C,C2*%
X112097600Y-119380001D03*
D20*
%TO.N,GND*%
X110097600Y-119380001D03*
%TD*%
D21*
%TO.N,+3.3V*%
%TO.C,C1*%
X112395000Y-113125000D03*
D13*
%TO.N,GND*%
X110395000Y-113125000D03*
%TD*%
%TO.N,+BATT*%
%TO.C,R1*%
X138430000Y-123190000D03*
D14*
%TO.N,Battery Voltage Divider*%
X138430000Y-115570000D03*
%TD*%
D15*
%TO.N,Battery Voltage Divider*%
%TO.C,D1*%
X151130000Y-115570000D03*
D22*
%TO.N,GND*%
X151130000Y-120650000D03*
%TD*%
D10*
%TO.N,+3.3V*%
%TO.C,B3*%
X156210000Y-64765000D03*
D11*
X156210000Y-67305000D03*
%TD*%
D15*
%TO.N,+BATT*%
%TO.C,C3*%
X173990000Y-127080000D03*
D16*
%TO.N,GND*%
X173990000Y-132080000D03*
%TD*%
D10*
%TO.N,GND*%
%TO.C,U3*%
X117565000Y-119680000D03*
D12*
%TO.N,+3.3V*%
X117565000Y-117140000D03*
%TO.N,CE*%
X120105000Y-119680000D03*
%TO.N,CSN*%
X120105000Y-117140000D03*
%TO.N,SCK*%
X122645000Y-119680000D03*
%TO.N,MOSI*%
X122645000Y-117140000D03*
%TO.N,MISO*%
X125185000Y-119680000D03*
%TO.N,unconnected-(U3-IRQ-Pad8)*%
X125185000Y-117140000D03*
%TD*%
%TO.N,unconnected-(U1-RX1-Pad0)*%
%TO.C,U1*%
X170815000Y-71880000D03*
%TO.N,unconnected-(U1-TX1-Pad1)*%
X168275000Y-71880000D03*
%TO.N,Leg3 Tibia*%
X165735000Y-71880000D03*
%TO.N,Leg3 Femur*%
X163195000Y-71880000D03*
%TO.N,+3.3V*%
X137795000Y-71880000D03*
X168275000Y-87120000D03*
X127635000Y-76960000D03*
%TO.N,Leg3 Coxa*%
X160655000Y-71880000D03*
%TO.N,Leg2 Tibia*%
X158115000Y-71880000D03*
%TO.N,+5V*%
X167005000Y-74930000D03*
%TO.N,Leg2 Femur*%
X155575000Y-71880000D03*
%TO.N,Leg2 Coxa*%
X153035000Y-71880000D03*
%TO.N,Leg1 Tibia*%
X150495000Y-71880000D03*
%TO.N,Leg1 Femur*%
X147955000Y-71880000D03*
%TO.N,Leg1 Coxa*%
X145415000Y-71880000D03*
%TO.N,MOSI*%
X142875000Y-71880000D03*
%TO.N,MISO*%
X140335000Y-71880000D03*
%TO.N,SCK*%
X140335000Y-87120000D03*
%TO.N,Leg6 Femur*%
X142875000Y-87120000D03*
%TO.N,Leg6 Coxa*%
X145415000Y-87120000D03*
%TO.N,Battery Voltage Divider*%
X147955000Y-87120000D03*
%TO.N,B6*%
X150495000Y-87120000D03*
%TO.N,Gyro SDA*%
X153035000Y-87120000D03*
%TO.N,Gyro SCL*%
X155575000Y-87120000D03*
%TO.N,B7*%
X158115000Y-87120000D03*
%TO.N,FS6*%
X160655000Y-87120000D03*
%TO.N,FS5*%
X163195000Y-87120000D03*
%TO.N,FS4*%
X165735000Y-87120000D03*
%TO.N,Leg4 Tibia*%
X135255000Y-71880000D03*
%TO.N,Leg5 Femur*%
X132715000Y-71880000D03*
%TO.N,CE*%
X130175000Y-71880000D03*
%TO.N,CSN*%
X127635000Y-71880000D03*
%TO.N,Leg5 Coxa*%
X125095000Y-71880000D03*
%TO.N,Leg6 Tibia*%
X122555000Y-71880000D03*
%TO.N,B2*%
X120015000Y-71880000D03*
%TO.N,B1*%
X117475000Y-71880000D03*
%TO.N,unconnected-(U1-OUT1B-Pad32)*%
X114935000Y-71880000D03*
%TO.N,Leg4 Femur*%
X114935000Y-87120000D03*
%TO.N,FS1*%
X117475000Y-87120000D03*
%TO.N,FS2*%
X120015000Y-87120000D03*
%TO.N,Leg4 Coxa*%
X122555000Y-87120000D03*
%TO.N,Leg5 Tibia*%
X125095000Y-87120000D03*
%TO.N,FS3*%
X127635000Y-87120000D03*
%TO.N,B3*%
X130175000Y-87120000D03*
%TO.N,B4*%
X132715000Y-87120000D03*
%TO.N,B5*%
X135255000Y-87120000D03*
%TO.N,unconnected-(U1-PadD+)*%
X161925000Y-74930000D03*
%TO.N,unconnected-(U1-PadD-)*%
X164465000Y-74930000D03*
%TO.N,GND*%
X173355000Y-71880000D03*
X137795000Y-87120000D03*
X170815000Y-87120000D03*
X127635000Y-79500000D03*
X158385000Y-82670000D03*
%TO.N,unconnected-(U1-PadLED)*%
X160385000Y-82670000D03*
%TO.N,unconnected-(U1-PadON{slash}OFF)*%
X127635000Y-84580000D03*
%TO.N,unconnected-(U1-PadPROGRAM)*%
X127635000Y-82040000D03*
%TO.N,unconnected-(U1-PadR+)*%
X160385000Y-84670000D03*
%TO.N,unconnected-(U1-PadR-)*%
X158385000Y-84670000D03*
%TO.N,unconnected-(U1-PadT+)*%
X158385000Y-80670000D03*
%TO.N,unconnected-(U1-PadT-)*%
X160385000Y-80670000D03*
%TO.N,Net-(U1-USB_GND-PadUSB_GND1)*%
X159385000Y-74930000D03*
X156845000Y-74930000D03*
%TO.N,unconnected-(U1-PadVBAT)*%
X127635000Y-74420000D03*
%TO.N,Teensy VIN*%
X173355000Y-87120000D03*
%TO.N,unconnected-(U1-PadVUSB)*%
X170815000Y-84580000D03*
%TD*%
D10*
%TO.N,GND*%
%TO.C,Cox2*%
X97790000Y-96745001D03*
D11*
%TO.N,+BATT*%
X100330000Y-96745001D03*
%TO.N,Leg5 Coxa*%
X102870000Y-96745001D03*
%TD*%
D10*
%TO.N,GND*%
%TO.C,Cox6*%
X189214980Y-121490001D03*
D11*
%TO.N,+BATT*%
X186674980Y-121490001D03*
%TO.N,Leg1 Coxa*%
X184134980Y-121490001D03*
%TD*%
D10*
%TO.N,GND*%
%TO.C,Tib2*%
X97790000Y-106045001D03*
D11*
%TO.N,+BATT*%
X100330000Y-106045001D03*
%TO.N,Leg5 Tibia*%
X102870000Y-106045001D03*
%TD*%
D10*
%TO.N,GND*%
%TO.C,FS4*%
X175900000Y-91235000D03*
D11*
%TO.N,FS4*%
X173360000Y-91235000D03*
%TD*%
D10*
%TO.N,GND*%
%TO.C,Cox5*%
X189230001Y-106250000D03*
D11*
%TO.N,+BATT*%
X186690001Y-106250000D03*
%TO.N,Leg2 Coxa*%
X184150001Y-106250000D03*
%TD*%
D10*
%TO.N,GND*%
%TO.C,Tib1*%
X97790001Y-91010000D03*
D11*
%TO.N,+BATT*%
X100330001Y-91010000D03*
%TO.N,Leg6 Tibia*%
X102870001Y-91010000D03*
%TD*%
D10*
%TO.N,GND*%
%TO.C,Fem4*%
X189230000Y-86360000D03*
D11*
%TO.N,+BATT*%
X186690000Y-86360000D03*
%TO.N,Leg3 Femur*%
X184150000Y-86360000D03*
%TD*%
D10*
%TO.N,GND*%
%TO.C,Fem3*%
X97789999Y-116635000D03*
D11*
%TO.N,+BATT*%
X100329999Y-116635000D03*
%TO.N,Leg4 Femur*%
X102869999Y-116635000D03*
%TD*%
D10*
%TO.N,GND*%
%TO.C,Tib6*%
X189214997Y-112189999D03*
D11*
%TO.N,+BATT*%
X186674997Y-112189999D03*
%TO.N,Leg1 Tibia*%
X184134997Y-112189999D03*
%TD*%
D10*
%TO.N,GND*%
%TO.C,Fem5*%
X189230000Y-101600000D03*
D11*
%TO.N,+BATT*%
X186690000Y-101600000D03*
%TO.N,Leg2 Femur*%
X184150000Y-101600000D03*
%TD*%
D10*
%TO.N,GND*%
%TO.C,Cox1*%
X97790001Y-81710000D03*
D11*
%TO.N,+BATT*%
X100330001Y-81710000D03*
%TO.N,Leg6 Coxa*%
X102870001Y-81710000D03*
%TD*%
D10*
%TO.N,GND*%
%TO.C,FS2*%
X110495000Y-95250000D03*
D11*
%TO.N,FS2*%
X113035000Y-95250000D03*
%TD*%
D10*
%TO.N,GND*%
%TO.C,FS5*%
X175900001Y-95885000D03*
D11*
%TO.N,FS5*%
X173360001Y-95885000D03*
%TD*%
D10*
%TO.N,GND*%
%TO.C,Cox4*%
X189229992Y-91010010D03*
D11*
%TO.N,+BATT*%
X186689992Y-91010010D03*
%TO.N,Leg3 Coxa*%
X184149992Y-91010010D03*
%TD*%
D10*
%TO.N,GND*%
%TO.C,Fem2*%
X97790001Y-101395000D03*
D11*
%TO.N,+BATT*%
X100330001Y-101395000D03*
%TO.N,Leg5 Femur*%
X102870001Y-101395000D03*
%TD*%
D10*
%TO.N,GND*%
%TO.C,Tib5*%
X189230001Y-96950000D03*
D11*
%TO.N,+BATT*%
X186690001Y-96950000D03*
%TO.N,Leg2 Tibia*%
X184150001Y-96950000D03*
%TD*%
D10*
%TO.N,GND*%
%TO.C,Fem1*%
X97790000Y-86360000D03*
D11*
%TO.N,+BATT*%
X100330000Y-86360000D03*
%TO.N,Leg6 Femur*%
X102870000Y-86360000D03*
%TD*%
D10*
%TO.N,GND*%
%TO.C,Cox3*%
X97790000Y-111985000D03*
D11*
%TO.N,+BATT*%
X100330000Y-111985000D03*
%TO.N,Leg4 Coxa*%
X102870000Y-111985000D03*
%TD*%
D10*
%TO.N,GND*%
%TO.C,FS1*%
X110490000Y-90805000D03*
D11*
%TO.N,FS1*%
X113030000Y-90805000D03*
%TD*%
D10*
%TO.N,GND*%
%TO.C,Tib3*%
X97790000Y-121285000D03*
D11*
%TO.N,+BATT*%
X100330000Y-121285000D03*
%TO.N,Leg4 Tibia*%
X102870000Y-121285000D03*
%TD*%
D10*
%TO.N,GND*%
%TO.C,FS3*%
X110490000Y-99695000D03*
D11*
%TO.N,FS3*%
X113030000Y-99695000D03*
%TD*%
D10*
%TO.N,GND*%
%TO.C,FS6*%
X175900000Y-100535000D03*
D11*
%TO.N,FS6*%
X173360000Y-100535000D03*
%TD*%
D10*
%TO.N,GND*%
%TO.C,Fem6*%
X189215000Y-116840000D03*
D11*
%TO.N,+BATT*%
X186675000Y-116840000D03*
%TO.N,Leg1 Femur*%
X184135000Y-116840000D03*
%TD*%
D10*
%TO.N,GND*%
%TO.C,Tib4*%
X189230008Y-81710011D03*
D11*
%TO.N,+BATT*%
X186690008Y-81710011D03*
%TO.N,Leg3 Tibia*%
X184150008Y-81710011D03*
%TD*%
D23*
%TO.N,GND*%
X166944000Y-106743500D03*
X166944000Y-95821500D03*
%TD*%
D24*
%TO.N,B5*%
X136232114Y-86142900D02*
G75*
G03*
X136525000Y-85435786I-707114J707100D01*
G01*
X136524990Y-67724214D02*
G75*
G03*
X136232107Y-67017107I-999990J14D01*
G01*
%TO.N,FS3*%
X114645786Y-99694990D02*
G75*
G03*
X115352893Y-99402107I14J999990D01*
G01*
%TO.N,FS1*%
X117129214Y-87120010D02*
G75*
G03*
X116422107Y-87412893I-14J-999990D01*
G01*
%TO.N,FS4*%
X169557100Y-90942114D02*
G75*
G03*
X170264214Y-91235000I707100J707114D01*
G01*
%TO.N,FS5*%
X171667100Y-95592114D02*
G75*
G03*
X172374214Y-95885000I707100J707114D01*
G01*
%TO.N,FS2*%
X119722114Y-88562900D02*
G75*
G03*
X120015000Y-87855786I-707114J707100D01*
G01*
%TO.N,FS6*%
X160655010Y-87415786D02*
G75*
G03*
X160947893Y-88122893I999990J-14D01*
G01*
D25*
%TO.N,+BATT*%
X186412148Y-124737894D02*
G75*
G03*
X186705020Y-124030766I-707148J707094D01*
G01*
X183735786Y-126999990D02*
G75*
G03*
X184442893Y-126707107I14J999990D01*
G01*
X155867900Y-127292886D02*
G75*
G03*
X155160786Y-127000000I-707100J-707114D01*
G01*
X100329969Y-121932842D02*
G75*
G03*
X100622891Y-122639949I1000031J42D01*
G01*
X104690072Y-126707085D02*
G75*
G03*
X105397156Y-127000000I707128J707085D01*
G01*
X162339214Y-127000010D02*
G75*
G03*
X161632107Y-127292893I-14J-999990D01*
G01*
X158750000Y-130175000D02*
X161632107Y-127292893D01*
X104690050Y-126707107D02*
X100622891Y-122639949D01*
X158750000Y-130175000D02*
X155867893Y-127292893D01*
X155160786Y-127000000D02*
X105397156Y-127000000D01*
D24*
X186705020Y-121919971D02*
X186704991Y-121920000D01*
D25*
X186705020Y-124030766D02*
X186705020Y-81740023D01*
D26*
X100329999Y-81724998D02*
X100315000Y-81709999D01*
D27*
X158750000Y-133482500D02*
X158750000Y-130175000D01*
D25*
X184442893Y-126707107D02*
X186412127Y-124737873D01*
X162339214Y-127000000D02*
X183735786Y-127000000D01*
D26*
X186705020Y-81740023D02*
X186674996Y-81709999D01*
D25*
X100329998Y-121932842D02*
X100329999Y-81724998D01*
D27*
%TO.N,Net-(T1-Pad2)*%
X151130000Y-132212500D02*
X135890000Y-132212500D01*
D24*
%TO.N,FS1*%
X113030000Y-90805000D02*
X116422107Y-87412893D01*
X117129214Y-87120000D02*
X117475000Y-87120000D01*
%TO.N,FS2*%
X113035000Y-95250000D02*
X119722107Y-88562893D01*
X120015000Y-87855786D02*
X120015000Y-87120000D01*
%TO.N,FS3*%
X115352893Y-99402107D02*
X127635000Y-87120000D01*
X113030000Y-99695000D02*
X114645786Y-99695000D01*
%TO.N,FS4*%
X173360000Y-91235000D02*
X170264214Y-91235000D01*
X169557107Y-90942107D02*
X165735000Y-87120000D01*
%TO.N,FS5*%
X172374214Y-95885000D02*
X173360001Y-95885000D01*
X163195000Y-87120000D02*
X171667107Y-95592107D01*
%TO.N,FS6*%
X173360000Y-100535000D02*
X160947893Y-88122893D01*
X160655000Y-87415786D02*
X160655000Y-87120000D01*
%TO.N,B5*%
X136525000Y-85435786D02*
X136525000Y-67724214D01*
X136232107Y-67017107D02*
X135255000Y-66040000D01*
X135255000Y-87120000D02*
X136232107Y-86142893D01*
%TD*%
%TA.AperFunction,Conductor*%
%TO.N,FS1*%
G36*
X116882242Y-86527227D02*
G01*
X116882444Y-86527424D01*
X116915836Y-86560737D01*
X117472265Y-87115860D01*
X117475702Y-87124129D01*
X117475702Y-87124153D01*
X117475010Y-87957325D01*
X117471576Y-87965595D01*
X117463300Y-87969015D01*
X117462366Y-87968977D01*
X117286975Y-87954786D01*
X117285194Y-87954502D01*
X117155063Y-87923336D01*
X117121732Y-87915354D01*
X117121056Y-87915148D01*
X116976558Y-87861366D01*
X116976184Y-87861212D01*
X116846414Y-87802397D01*
X116726977Y-87748205D01*
X116613473Y-87708336D01*
X116613472Y-87708335D01*
X116501326Y-87692410D01*
X116385963Y-87710047D01*
X116385958Y-87710049D01*
X116262807Y-87770867D01*
X116135491Y-87877611D01*
X116126950Y-87880300D01*
X116119701Y-87876918D01*
X115958566Y-87715783D01*
X115955139Y-87707510D01*
X115958355Y-87699453D01*
X116091315Y-87559478D01*
X116091323Y-87559469D01*
X116199814Y-87430817D01*
X116284086Y-87316829D01*
X116284086Y-87316828D01*
X116352196Y-87212638D01*
X116412230Y-87113339D01*
X116472264Y-87014039D01*
X116540308Y-86909949D01*
X116540453Y-86909741D01*
X116624550Y-86795990D01*
X116624742Y-86795747D01*
X116733061Y-86667299D01*
X116733236Y-86667104D01*
X116865702Y-86527651D01*
X116873883Y-86524014D01*
X116882242Y-86527227D01*
G37*
%TD.AperFunction*%
%TD*%
%TA.AperFunction,Conductor*%
%TO.N,FS1*%
G36*
X114151548Y-89522385D02*
G01*
X114312614Y-89683451D01*
X114316041Y-89691724D01*
X114313031Y-89699558D01*
X114183176Y-89843603D01*
X114088897Y-89980374D01*
X114088894Y-89980379D01*
X114028719Y-90106760D01*
X114028719Y-90106761D01*
X113993758Y-90227859D01*
X113993757Y-90227866D01*
X113975114Y-90348804D01*
X113963891Y-90474709D01*
X113951211Y-90610515D01*
X113951170Y-90610854D01*
X113928167Y-90761602D01*
X113928065Y-90762112D01*
X113916847Y-90807562D01*
X113885864Y-90933071D01*
X113885692Y-90933641D01*
X113819434Y-91118725D01*
X113813420Y-91125359D01*
X113804476Y-91125797D01*
X113803953Y-91125596D01*
X113033785Y-90807562D01*
X113027447Y-90801238D01*
X112709403Y-90031045D01*
X112709412Y-90022091D01*
X112715751Y-90015766D01*
X112716258Y-90015571D01*
X112901381Y-89949298D01*
X112901910Y-89949138D01*
X113072910Y-89906926D01*
X113073373Y-89906834D01*
X113224186Y-89883822D01*
X113224452Y-89883790D01*
X113360289Y-89871107D01*
X113486195Y-89859885D01*
X113538024Y-89851894D01*
X113607135Y-89841241D01*
X113728238Y-89806279D01*
X113854619Y-89746104D01*
X113991398Y-89651820D01*
X114135442Y-89521967D01*
X114143880Y-89518974D01*
X114151548Y-89522385D01*
G37*
%TD.AperFunction*%
%TD*%
%TA.AperFunction,Conductor*%
%TO.N,FS2*%
G36*
X114156548Y-93967385D02*
G01*
X114317614Y-94128451D01*
X114321041Y-94136724D01*
X114318031Y-94144558D01*
X114188176Y-94288603D01*
X114093897Y-94425374D01*
X114093894Y-94425379D01*
X114033719Y-94551760D01*
X114033719Y-94551761D01*
X113998758Y-94672859D01*
X113998757Y-94672866D01*
X113980114Y-94793804D01*
X113968891Y-94919709D01*
X113956211Y-95055515D01*
X113956170Y-95055854D01*
X113933167Y-95206602D01*
X113933065Y-95207112D01*
X113921847Y-95252562D01*
X113890864Y-95378071D01*
X113890692Y-95378641D01*
X113824434Y-95563725D01*
X113818420Y-95570359D01*
X113809476Y-95570797D01*
X113808953Y-95570596D01*
X113038785Y-95252562D01*
X113032447Y-95246238D01*
X112714403Y-94476045D01*
X112714412Y-94467091D01*
X112720751Y-94460766D01*
X112721258Y-94460571D01*
X112906381Y-94394298D01*
X112906910Y-94394138D01*
X113077910Y-94351926D01*
X113078373Y-94351834D01*
X113229186Y-94328822D01*
X113229452Y-94328790D01*
X113365289Y-94316107D01*
X113491195Y-94304885D01*
X113543024Y-94296894D01*
X113612135Y-94286241D01*
X113733238Y-94251279D01*
X113859619Y-94191104D01*
X113996398Y-94096820D01*
X114140442Y-93966967D01*
X114148880Y-93963974D01*
X114156548Y-93967385D01*
G37*
%TD.AperFunction*%
%TD*%
%TA.AperFunction,Conductor*%
%TO.N,FS2*%
G36*
X120021238Y-87124837D02*
G01*
X120607896Y-87712877D01*
X120611313Y-87721154D01*
X120607995Y-87729302D01*
X120486477Y-87854095D01*
X120383185Y-87966864D01*
X120299597Y-88064418D01*
X120229144Y-88151829D01*
X120165260Y-88234168D01*
X120101375Y-88316508D01*
X120030923Y-88403919D01*
X119947335Y-88501473D01*
X119844043Y-88614242D01*
X119722751Y-88738802D01*
X119714525Y-88742339D01*
X119706207Y-88739022D01*
X119706096Y-88738913D01*
X119545257Y-88578074D01*
X119541830Y-88569801D01*
X119544541Y-88562312D01*
X119635335Y-88453334D01*
X119685487Y-88346843D01*
X119695261Y-88247425D01*
X119671760Y-88151457D01*
X119671759Y-88151455D01*
X119671758Y-88151452D01*
X119622091Y-88055326D01*
X119622079Y-88055308D01*
X119553341Y-87955385D01*
X119472628Y-87848037D01*
X119387150Y-87729791D01*
X119386954Y-87729499D01*
X119303862Y-87596855D01*
X119303577Y-87596343D01*
X119235169Y-87456460D01*
X119234612Y-87447522D01*
X119240539Y-87440810D01*
X119241181Y-87440519D01*
X120008473Y-87122292D01*
X120017428Y-87122289D01*
X120021238Y-87124837D01*
G37*
%TD.AperFunction*%
%TD*%
%TA.AperFunction,Conductor*%
%TO.N,FS3*%
G36*
X126861031Y-86799397D02*
G01*
X127631215Y-87117438D01*
X127637552Y-87123761D01*
X127637562Y-87123785D01*
X127955596Y-87893953D01*
X127955587Y-87902908D01*
X127949248Y-87909233D01*
X127948725Y-87909434D01*
X127763641Y-87975692D01*
X127763071Y-87975864D01*
X127687082Y-87994622D01*
X127592112Y-88018065D01*
X127591602Y-88018167D01*
X127527495Y-88027949D01*
X127440848Y-88041170D01*
X127440515Y-88041211D01*
X127304709Y-88053891D01*
X127178804Y-88065114D01*
X127057866Y-88083757D01*
X127057859Y-88083758D01*
X126960980Y-88111726D01*
X126936760Y-88118719D01*
X126810379Y-88178894D01*
X126810376Y-88178896D01*
X126810374Y-88178897D01*
X126673603Y-88273176D01*
X126529558Y-88403031D01*
X126521119Y-88406025D01*
X126513451Y-88402614D01*
X126352385Y-88241548D01*
X126348958Y-88233275D01*
X126351967Y-88225442D01*
X126481820Y-88081398D01*
X126576104Y-87944619D01*
X126636279Y-87818238D01*
X126671241Y-87697135D01*
X126689885Y-87576192D01*
X126701107Y-87450289D01*
X126713790Y-87314452D01*
X126713822Y-87314186D01*
X126736834Y-87163373D01*
X126736926Y-87162910D01*
X126779138Y-86991910D01*
X126779298Y-86991381D01*
X126845565Y-86806273D01*
X126851579Y-86799639D01*
X126860523Y-86799202D01*
X126861031Y-86799397D01*
G37*
%TD.AperFunction*%
%TD*%
%TA.AperFunction,Conductor*%
%TO.N,FS3*%
G36*
X113365865Y-98914720D02*
G01*
X113366377Y-98914948D01*
X113544102Y-98998970D01*
X113544626Y-98999251D01*
X113695345Y-99090290D01*
X113695786Y-99090585D01*
X113818648Y-99180917D01*
X113818917Y-99181127D01*
X113923911Y-99268188D01*
X114020873Y-99349279D01*
X114073849Y-99388104D01*
X114119568Y-99421611D01*
X114119576Y-99421616D01*
X114229931Y-99482527D01*
X114361846Y-99529342D01*
X114525232Y-99559390D01*
X114525237Y-99559390D01*
X114525242Y-99559391D01*
X114681460Y-99567484D01*
X114718905Y-99569425D01*
X114726990Y-99573275D01*
X114730000Y-99581109D01*
X114730000Y-99808890D01*
X114726573Y-99817163D01*
X114718905Y-99820574D01*
X114525242Y-99830607D01*
X114525229Y-99830609D01*
X114361849Y-99860656D01*
X114361843Y-99860657D01*
X114229932Y-99907471D01*
X114119576Y-99968382D01*
X114119568Y-99968387D01*
X114055345Y-100015455D01*
X114020873Y-100040720D01*
X113923911Y-100121811D01*
X113818917Y-100208871D01*
X113818648Y-100209081D01*
X113695786Y-100299412D01*
X113695345Y-100299707D01*
X113544626Y-100390746D01*
X113544102Y-100391027D01*
X113366377Y-100475051D01*
X113357433Y-100475489D01*
X113350799Y-100469475D01*
X113350571Y-100468963D01*
X113318136Y-100390899D01*
X113030864Y-99699488D01*
X113030856Y-99690534D01*
X113030865Y-99690511D01*
X113085344Y-99559390D01*
X113350572Y-98921034D01*
X113356910Y-98914711D01*
X113365865Y-98914720D01*
G37*
%TD.AperFunction*%
%TD*%
%TA.AperFunction,Conductor*%
%TO.N,FS4*%
G36*
X173039201Y-90460524D02*
G01*
X173039428Y-90461036D01*
X173359134Y-91230511D01*
X173359143Y-91239466D01*
X173359134Y-91239489D01*
X173039428Y-92008963D01*
X173033089Y-92015288D01*
X173024134Y-92015279D01*
X173023622Y-92015051D01*
X172845895Y-91931027D01*
X172845371Y-91930746D01*
X172694652Y-91839707D01*
X172694211Y-91839412D01*
X172571350Y-91749081D01*
X172571081Y-91748871D01*
X172466087Y-91661811D01*
X172369126Y-91580720D01*
X172322791Y-91546762D01*
X172270429Y-91508387D01*
X172270421Y-91508382D01*
X172160066Y-91447471D01*
X172028155Y-91400657D01*
X172028149Y-91400656D01*
X171864769Y-91370609D01*
X171864756Y-91370607D01*
X171671095Y-91360574D01*
X171663010Y-91356724D01*
X171660000Y-91348890D01*
X171660000Y-91121109D01*
X171663427Y-91112836D01*
X171671094Y-91109425D01*
X171711305Y-91107341D01*
X171864756Y-91099391D01*
X171864760Y-91099390D01*
X171864767Y-91099390D01*
X172028153Y-91069342D01*
X172160068Y-91022527D01*
X172270422Y-90961616D01*
X172369126Y-90889279D01*
X172466087Y-90808188D01*
X172571093Y-90721117D01*
X172571350Y-90720917D01*
X172694211Y-90630585D01*
X172694644Y-90630295D01*
X172845378Y-90539246D01*
X172845887Y-90538974D01*
X173023624Y-90454946D01*
X173032566Y-90454510D01*
X173039201Y-90460524D01*
G37*
%TD.AperFunction*%
%TD*%
%TA.AperFunction,Conductor*%
%TO.N,FS4*%
G36*
X166517908Y-86799412D02*
G01*
X166524233Y-86805751D01*
X166524434Y-86806274D01*
X166590692Y-86991357D01*
X166590864Y-86991927D01*
X166633066Y-87162890D01*
X166633167Y-87163396D01*
X166656170Y-87314144D01*
X166656211Y-87314483D01*
X166668891Y-87450289D01*
X166680114Y-87576195D01*
X166698757Y-87697131D01*
X166698758Y-87697138D01*
X166719734Y-87769796D01*
X166733719Y-87818238D01*
X166793894Y-87944619D01*
X166793897Y-87944623D01*
X166888176Y-88081395D01*
X167018031Y-88225441D01*
X167021025Y-88233880D01*
X167017614Y-88241548D01*
X166856548Y-88402614D01*
X166848275Y-88406041D01*
X166840441Y-88403031D01*
X166696395Y-88273176D01*
X166559623Y-88178897D01*
X166559624Y-88178897D01*
X166559619Y-88178894D01*
X166433238Y-88118719D01*
X166384796Y-88104734D01*
X166312138Y-88083758D01*
X166312131Y-88083757D01*
X166191195Y-88065114D01*
X166065289Y-88053891D01*
X165929483Y-88041211D01*
X165929154Y-88041171D01*
X165778395Y-88018166D01*
X165777890Y-88018066D01*
X165606927Y-87975864D01*
X165606363Y-87975694D01*
X165519559Y-87944619D01*
X165421274Y-87909434D01*
X165414640Y-87903420D01*
X165414202Y-87894476D01*
X165414391Y-87893981D01*
X165732438Y-87123783D01*
X165738759Y-87117448D01*
X166508954Y-86799403D01*
X166517908Y-86799412D01*
G37*
%TD.AperFunction*%
%TD*%
%TA.AperFunction,Conductor*%
%TO.N,FS5*%
G36*
X173039181Y-95110566D02*
G01*
X173039596Y-95111459D01*
X173305662Y-95752984D01*
X173358847Y-95881219D01*
X173358851Y-95890174D01*
X173358845Y-95890190D01*
X173039209Y-96659492D01*
X173032870Y-96665817D01*
X173023915Y-96665808D01*
X173008718Y-96659492D01*
X172826900Y-96583931D01*
X172655224Y-96510584D01*
X172512114Y-96445049D01*
X172511871Y-96444931D01*
X172418109Y-96396635D01*
X172389685Y-96381993D01*
X172389356Y-96381809D01*
X172280279Y-96316166D01*
X172279909Y-96315923D01*
X172176200Y-96242300D01*
X172175879Y-96242055D01*
X172069754Y-96155121D01*
X172069529Y-96154927D01*
X171953210Y-96049327D01*
X171819057Y-95919824D01*
X171667806Y-95769530D01*
X171664353Y-95761268D01*
X171667753Y-95752985D01*
X171828805Y-95591933D01*
X171837077Y-95588507D01*
X171844444Y-95591117D01*
X171964759Y-95688654D01*
X172079082Y-95733326D01*
X172183824Y-95728089D01*
X172283579Y-95682535D01*
X172382942Y-95606255D01*
X172486509Y-95508842D01*
X172598784Y-95399975D01*
X172598964Y-95399809D01*
X172724433Y-95289163D01*
X172724854Y-95288828D01*
X172867695Y-95186220D01*
X172869136Y-95185337D01*
X173023414Y-95105548D01*
X173032337Y-95104792D01*
X173039181Y-95110566D01*
G37*
%TD.AperFunction*%
%TD*%
%TA.AperFunction,Conductor*%
%TO.N,FS5*%
G36*
X163977908Y-86799412D02*
G01*
X163984233Y-86805751D01*
X163984434Y-86806274D01*
X164050692Y-86991357D01*
X164050864Y-86991927D01*
X164093066Y-87162890D01*
X164093167Y-87163396D01*
X164116170Y-87314144D01*
X164116211Y-87314483D01*
X164128891Y-87450289D01*
X164140114Y-87576195D01*
X164158757Y-87697131D01*
X164158758Y-87697138D01*
X164179734Y-87769796D01*
X164193719Y-87818238D01*
X164253894Y-87944619D01*
X164253897Y-87944623D01*
X164348176Y-88081395D01*
X164478031Y-88225441D01*
X164481025Y-88233880D01*
X164477614Y-88241548D01*
X164316548Y-88402614D01*
X164308275Y-88406041D01*
X164300441Y-88403031D01*
X164156395Y-88273176D01*
X164019623Y-88178897D01*
X164019624Y-88178897D01*
X164019619Y-88178894D01*
X163893238Y-88118719D01*
X163844796Y-88104734D01*
X163772138Y-88083758D01*
X163772131Y-88083757D01*
X163651195Y-88065114D01*
X163525289Y-88053891D01*
X163389483Y-88041211D01*
X163389154Y-88041171D01*
X163238395Y-88018166D01*
X163237890Y-88018066D01*
X163066927Y-87975864D01*
X163066363Y-87975694D01*
X162979559Y-87944619D01*
X162881274Y-87909434D01*
X162874640Y-87903420D01*
X162874202Y-87894476D01*
X162874391Y-87893981D01*
X163192438Y-87123783D01*
X163198759Y-87117448D01*
X163968954Y-86799403D01*
X163977908Y-86799412D01*
G37*
%TD.AperFunction*%
%TD*%
%TA.AperFunction,Conductor*%
%TO.N,FS6*%
G36*
X161492404Y-87119989D02*
G01*
X161500673Y-87123423D01*
X161504093Y-87131699D01*
X161504060Y-87132561D01*
X161491042Y-87306704D01*
X161490801Y-87308348D01*
X161455029Y-87470802D01*
X161454854Y-87471426D01*
X161406046Y-87615095D01*
X161405921Y-87615428D01*
X161353125Y-87744489D01*
X161305423Y-87863302D01*
X161305419Y-87863315D01*
X161271932Y-87976237D01*
X161271930Y-87976246D01*
X161261710Y-88087794D01*
X161261711Y-88087800D01*
X161261711Y-88087801D01*
X161283813Y-88202507D01*
X161347292Y-88324876D01*
X161454244Y-88451206D01*
X161456974Y-88459735D01*
X161453587Y-88467039D01*
X161292453Y-88628173D01*
X161284180Y-88631600D01*
X161276159Y-88628418D01*
X161132863Y-88493469D01*
X161132857Y-88493463D01*
X161000313Y-88384880D01*
X161000312Y-88384880D01*
X160882017Y-88301900D01*
X160773228Y-88235992D01*
X160669191Y-88178621D01*
X160565154Y-88121249D01*
X160456530Y-88055440D01*
X160456202Y-88055226D01*
X160400396Y-88016080D01*
X160338238Y-87972478D01*
X160337913Y-87972231D01*
X160205668Y-87863894D01*
X160205375Y-87863636D01*
X160078857Y-87744489D01*
X160062724Y-87729295D01*
X160059051Y-87721130D01*
X160062228Y-87712758D01*
X160062427Y-87712552D01*
X160650860Y-87122733D01*
X160659128Y-87119297D01*
X161492404Y-87119989D01*
G37*
%TD.AperFunction*%
%TD*%
%TA.AperFunction,Conductor*%
%TO.N,FS6*%
G36*
X172254557Y-99251967D02*
G01*
X172306685Y-99298960D01*
X172398603Y-99381822D01*
X172444488Y-99413451D01*
X172535379Y-99476104D01*
X172661760Y-99536279D01*
X172769873Y-99567491D01*
X172782859Y-99571240D01*
X172782860Y-99571240D01*
X172782863Y-99571241D01*
X172843335Y-99580563D01*
X172903804Y-99589885D01*
X173029709Y-99601107D01*
X173165542Y-99613790D01*
X173165816Y-99613823D01*
X173316621Y-99636833D01*
X173317092Y-99636927D01*
X173488082Y-99679137D01*
X173488622Y-99679300D01*
X173673725Y-99745565D01*
X173680359Y-99751579D01*
X173680797Y-99760523D01*
X173680596Y-99761046D01*
X173362562Y-100531214D01*
X173356237Y-100537553D01*
X173356214Y-100537562D01*
X172586046Y-100855596D01*
X172577091Y-100855587D01*
X172570766Y-100849248D01*
X172570565Y-100848725D01*
X172504300Y-100663622D01*
X172504137Y-100663082D01*
X172461927Y-100492092D01*
X172461833Y-100491621D01*
X172438823Y-100340816D01*
X172438790Y-100340542D01*
X172426107Y-100204709D01*
X172414885Y-100078807D01*
X172396241Y-99957863D01*
X172361279Y-99836760D01*
X172301104Y-99710379D01*
X172250405Y-99636830D01*
X172206822Y-99573603D01*
X172076968Y-99429558D01*
X172073974Y-99421119D01*
X172077384Y-99413452D01*
X172238452Y-99252384D01*
X172246724Y-99248958D01*
X172254557Y-99251967D01*
G37*
%TD.AperFunction*%
%TD*%
%TA.AperFunction,Conductor*%
%TO.N,B5*%
G36*
X136037908Y-65719412D02*
G01*
X136044233Y-65725751D01*
X136044434Y-65726274D01*
X136110692Y-65911357D01*
X136110864Y-65911927D01*
X136153066Y-66082890D01*
X136153167Y-66083396D01*
X136176170Y-66234144D01*
X136176211Y-66234483D01*
X136188891Y-66370289D01*
X136200114Y-66496195D01*
X136218757Y-66617131D01*
X136218758Y-66617138D01*
X136239734Y-66689796D01*
X136253719Y-66738238D01*
X136313894Y-66864619D01*
X136313897Y-66864623D01*
X136408176Y-67001395D01*
X136538031Y-67145441D01*
X136541025Y-67153880D01*
X136537614Y-67161548D01*
X136376548Y-67322614D01*
X136368275Y-67326041D01*
X136360441Y-67323031D01*
X136216395Y-67193176D01*
X136079623Y-67098897D01*
X136079624Y-67098897D01*
X136079619Y-67098894D01*
X135953238Y-67038719D01*
X135904796Y-67024734D01*
X135832138Y-67003758D01*
X135832131Y-67003757D01*
X135711195Y-66985114D01*
X135585289Y-66973891D01*
X135449483Y-66961211D01*
X135449154Y-66961171D01*
X135298395Y-66938166D01*
X135297890Y-66938066D01*
X135126927Y-66895864D01*
X135126363Y-66895694D01*
X135039559Y-66864619D01*
X134941274Y-66829434D01*
X134934640Y-66823420D01*
X134934202Y-66814476D01*
X134934391Y-66813981D01*
X135252438Y-66043783D01*
X135258759Y-66037448D01*
X136028954Y-65719403D01*
X136037908Y-65719412D01*
G37*
%TD.AperFunction*%
%TD*%
%TA.AperFunction,Conductor*%
%TO.N,B5*%
G36*
X136376548Y-85837385D02*
G01*
X136537614Y-85998451D01*
X136541041Y-86006724D01*
X136538031Y-86014558D01*
X136408176Y-86158603D01*
X136313897Y-86295374D01*
X136313894Y-86295379D01*
X136253719Y-86421760D01*
X136253719Y-86421761D01*
X136218758Y-86542859D01*
X136218757Y-86542866D01*
X136200114Y-86663804D01*
X136188891Y-86789709D01*
X136176211Y-86925515D01*
X136176170Y-86925854D01*
X136153167Y-87076602D01*
X136153065Y-87077112D01*
X136141847Y-87122562D01*
X136110864Y-87248071D01*
X136110692Y-87248641D01*
X136044434Y-87433725D01*
X136038420Y-87440359D01*
X136029476Y-87440797D01*
X136028953Y-87440596D01*
X135258785Y-87122562D01*
X135252447Y-87116238D01*
X134934403Y-86346045D01*
X134934412Y-86337091D01*
X134940751Y-86330766D01*
X134941258Y-86330571D01*
X135126381Y-86264298D01*
X135126910Y-86264138D01*
X135297910Y-86221926D01*
X135298373Y-86221834D01*
X135449186Y-86198822D01*
X135449452Y-86198790D01*
X135585289Y-86186107D01*
X135711195Y-86174885D01*
X135763024Y-86166894D01*
X135832135Y-86156241D01*
X135953238Y-86121279D01*
X136079619Y-86061104D01*
X136216398Y-85966820D01*
X136360442Y-85836967D01*
X136368880Y-85833974D01*
X136376548Y-85837385D01*
G37*
%TD.AperFunction*%
%TD*%
%TA.AperFunction,Conductor*%
%TO.N,+BATT*%
G36*
X160339583Y-126834198D02*
G01*
X160339694Y-126834308D01*
X162090691Y-128585305D01*
X162094118Y-128593578D01*
X162090691Y-128601851D01*
X162090580Y-128601961D01*
X161746358Y-128937141D01*
X161722032Y-128960828D01*
X161340066Y-129315910D01*
X161163246Y-129474082D01*
X160964422Y-129651937D01*
X160606343Y-129961913D01*
X160277074Y-130238840D01*
X159987857Y-130475720D01*
X159749938Y-130665554D01*
X159574559Y-130801347D01*
X159474144Y-130875231D01*
X159471605Y-130876650D01*
X159463585Y-130879901D01*
X159454631Y-130879833D01*
X159450917Y-130877331D01*
X158047668Y-129474082D01*
X158044241Y-129465809D01*
X158045098Y-129461414D01*
X158048349Y-129453393D01*
X158049768Y-129450854D01*
X158123652Y-129350439D01*
X158259444Y-129175061D01*
X158449279Y-128937141D01*
X158686158Y-128647924D01*
X158963085Y-128318655D01*
X159273061Y-127960576D01*
X159609089Y-127584932D01*
X159964171Y-127202967D01*
X160323038Y-126834419D01*
X160331265Y-126830882D01*
X160339583Y-126834198D01*
G37*
%TD.AperFunction*%
%TD*%
%TA.AperFunction,Conductor*%
%TO.N,+BATT*%
G36*
X157176851Y-126834308D02*
G01*
X157176961Y-126834419D01*
X157535828Y-127202967D01*
X157890910Y-127584932D01*
X158226937Y-127960576D01*
X158536913Y-128318655D01*
X158813840Y-128647924D01*
X159050720Y-128937141D01*
X159240554Y-129175061D01*
X159376347Y-129350439D01*
X159450230Y-129450854D01*
X159451649Y-129453392D01*
X159454901Y-129461413D01*
X159454833Y-129470368D01*
X159452331Y-129474082D01*
X158750707Y-130175707D01*
X158049082Y-130877331D01*
X158040809Y-130880758D01*
X158036414Y-130879901D01*
X158033687Y-130878796D01*
X158028392Y-130876649D01*
X158025854Y-130875230D01*
X157925439Y-130801347D01*
X157750061Y-130665554D01*
X157512141Y-130475720D01*
X157222924Y-130238840D01*
X156893655Y-129961913D01*
X156535576Y-129651937D01*
X156159932Y-129315910D01*
X155777967Y-128960828D01*
X155409419Y-128601961D01*
X155405882Y-128593734D01*
X155409198Y-128585416D01*
X157160306Y-126834307D01*
X157168578Y-126830881D01*
X157176851Y-126834308D01*
G37*
%TD.AperFunction*%
%TD*%
M02*
