%TF.GenerationSoftware,KiCad,Pcbnew,7.0.8*%
%TF.CreationDate,2025-02-28T20:23:41-05:00*%
%TF.ProjectId,Hexapod PCB KiCad Project,48657861-706f-4642-9050-4342204b6943,rev?*%
%TF.SameCoordinates,Original*%
%TF.FileFunction,Legend,Top*%
%TF.FilePolarity,Positive*%
%FSLAX46Y46*%
G04 Gerber Fmt 4.6, Leading zero omitted, Abs format (unit mm)*
G04 Created by KiCad (PCBNEW 7.0.8) date 2025-02-28 20:23:41*
%MOMM*%
%LPD*%
G01*
G04 APERTURE LIST*
%ADD10C,0.150000*%
%ADD11C,0.300000*%
%ADD12C,0.100000*%
%ADD13C,0.120000*%
%ADD14C,0.127000*%
%ADD15C,0.200000*%
G04 APERTURE END LIST*
D10*
X153324160Y-141730446D02*
X153467017Y-141778065D01*
X153467017Y-141778065D02*
X153705112Y-141778065D01*
X153705112Y-141778065D02*
X153800350Y-141730446D01*
X153800350Y-141730446D02*
X153847969Y-141682826D01*
X153847969Y-141682826D02*
X153895588Y-141587588D01*
X153895588Y-141587588D02*
X153895588Y-141492350D01*
X153895588Y-141492350D02*
X153847969Y-141397112D01*
X153847969Y-141397112D02*
X153800350Y-141349493D01*
X153800350Y-141349493D02*
X153705112Y-141301874D01*
X153705112Y-141301874D02*
X153514636Y-141254255D01*
X153514636Y-141254255D02*
X153419398Y-141206636D01*
X153419398Y-141206636D02*
X153371779Y-141159017D01*
X153371779Y-141159017D02*
X153324160Y-141063779D01*
X153324160Y-141063779D02*
X153324160Y-140968541D01*
X153324160Y-140968541D02*
X153371779Y-140873303D01*
X153371779Y-140873303D02*
X153419398Y-140825684D01*
X153419398Y-140825684D02*
X153514636Y-140778065D01*
X153514636Y-140778065D02*
X153752731Y-140778065D01*
X153752731Y-140778065D02*
X153895588Y-140825684D01*
X154228922Y-141111398D02*
X154419398Y-141778065D01*
X154419398Y-141778065D02*
X154609874Y-141301874D01*
X154609874Y-141301874D02*
X154800350Y-141778065D01*
X154800350Y-141778065D02*
X154990826Y-141111398D01*
X155371779Y-141778065D02*
X155371779Y-141111398D01*
X155371779Y-140778065D02*
X155324160Y-140825684D01*
X155324160Y-140825684D02*
X155371779Y-140873303D01*
X155371779Y-140873303D02*
X155419398Y-140825684D01*
X155419398Y-140825684D02*
X155371779Y-140778065D01*
X155371779Y-140778065D02*
X155371779Y-140873303D01*
X155705112Y-141111398D02*
X156086064Y-141111398D01*
X155847969Y-140778065D02*
X155847969Y-141635207D01*
X155847969Y-141635207D02*
X155895588Y-141730446D01*
X155895588Y-141730446D02*
X155990826Y-141778065D01*
X155990826Y-141778065D02*
X156086064Y-141778065D01*
X156847969Y-141730446D02*
X156752731Y-141778065D01*
X156752731Y-141778065D02*
X156562255Y-141778065D01*
X156562255Y-141778065D02*
X156467017Y-141730446D01*
X156467017Y-141730446D02*
X156419398Y-141682826D01*
X156419398Y-141682826D02*
X156371779Y-141587588D01*
X156371779Y-141587588D02*
X156371779Y-141301874D01*
X156371779Y-141301874D02*
X156419398Y-141206636D01*
X156419398Y-141206636D02*
X156467017Y-141159017D01*
X156467017Y-141159017D02*
X156562255Y-141111398D01*
X156562255Y-141111398D02*
X156752731Y-141111398D01*
X156752731Y-141111398D02*
X156847969Y-141159017D01*
X157276541Y-141778065D02*
X157276541Y-140778065D01*
X157705112Y-141778065D02*
X157705112Y-141254255D01*
X157705112Y-141254255D02*
X157657493Y-141159017D01*
X157657493Y-141159017D02*
X157562255Y-141111398D01*
X157562255Y-141111398D02*
X157419398Y-141111398D01*
X157419398Y-141111398D02*
X157324160Y-141159017D01*
X157324160Y-141159017D02*
X157276541Y-141206636D01*
X139763571Y-63160592D02*
X139799285Y-63124878D01*
X139799285Y-63124878D02*
X139870714Y-63089164D01*
X139870714Y-63089164D02*
X140049285Y-63089164D01*
X140049285Y-63089164D02*
X140120714Y-63124878D01*
X140120714Y-63124878D02*
X140156428Y-63160592D01*
X140156428Y-63160592D02*
X140192142Y-63232021D01*
X140192142Y-63232021D02*
X140192142Y-63303450D01*
X140192142Y-63303450D02*
X140156428Y-63410592D01*
X140156428Y-63410592D02*
X139727856Y-63839164D01*
X139727856Y-63839164D02*
X140192142Y-63839164D01*
X140656428Y-63089164D02*
X140727857Y-63089164D01*
X140727857Y-63089164D02*
X140799285Y-63124878D01*
X140799285Y-63124878D02*
X140835000Y-63160592D01*
X140835000Y-63160592D02*
X140870714Y-63232021D01*
X140870714Y-63232021D02*
X140906428Y-63374878D01*
X140906428Y-63374878D02*
X140906428Y-63553450D01*
X140906428Y-63553450D02*
X140870714Y-63696307D01*
X140870714Y-63696307D02*
X140835000Y-63767735D01*
X140835000Y-63767735D02*
X140799285Y-63803450D01*
X140799285Y-63803450D02*
X140727857Y-63839164D01*
X140727857Y-63839164D02*
X140656428Y-63839164D01*
X140656428Y-63839164D02*
X140585000Y-63803450D01*
X140585000Y-63803450D02*
X140549285Y-63767735D01*
X140549285Y-63767735D02*
X140513571Y-63696307D01*
X140513571Y-63696307D02*
X140477857Y-63553450D01*
X140477857Y-63553450D02*
X140477857Y-63374878D01*
X140477857Y-63374878D02*
X140513571Y-63232021D01*
X140513571Y-63232021D02*
X140549285Y-63160592D01*
X140549285Y-63160592D02*
X140585000Y-63124878D01*
X140585000Y-63124878D02*
X140656428Y-63089164D01*
D11*
X105670361Y-98742856D02*
X105670361Y-97790475D01*
X105670361Y-97790475D02*
X107670361Y-97790475D01*
X105765600Y-100171428D02*
X105670361Y-99980952D01*
X105670361Y-99980952D02*
X105670361Y-99599999D01*
X105670361Y-99599999D02*
X105765600Y-99409523D01*
X105765600Y-99409523D02*
X105956076Y-99314285D01*
X105956076Y-99314285D02*
X106717980Y-99314285D01*
X106717980Y-99314285D02*
X106908457Y-99409523D01*
X106908457Y-99409523D02*
X107003695Y-99599999D01*
X107003695Y-99599999D02*
X107003695Y-99980952D01*
X107003695Y-99980952D02*
X106908457Y-100171428D01*
X106908457Y-100171428D02*
X106717980Y-100266666D01*
X106717980Y-100266666D02*
X106527504Y-100266666D01*
X106527504Y-100266666D02*
X106337028Y-99314285D01*
X107003695Y-101980952D02*
X105384647Y-101980952D01*
X105384647Y-101980952D02*
X105194171Y-101885714D01*
X105194171Y-101885714D02*
X105098933Y-101790476D01*
X105098933Y-101790476D02*
X105003695Y-101599999D01*
X105003695Y-101599999D02*
X105003695Y-101314285D01*
X105003695Y-101314285D02*
X105098933Y-101123809D01*
X105765600Y-101980952D02*
X105670361Y-101790476D01*
X105670361Y-101790476D02*
X105670361Y-101409523D01*
X105670361Y-101409523D02*
X105765600Y-101219047D01*
X105765600Y-101219047D02*
X105860838Y-101123809D01*
X105860838Y-101123809D02*
X106051314Y-101028571D01*
X106051314Y-101028571D02*
X106622742Y-101028571D01*
X106622742Y-101028571D02*
X106813219Y-101123809D01*
X106813219Y-101123809D02*
X106908457Y-101219047D01*
X106908457Y-101219047D02*
X107003695Y-101409523D01*
X107003695Y-101409523D02*
X107003695Y-101790476D01*
X107003695Y-101790476D02*
X106908457Y-101980952D01*
X107479885Y-104361905D02*
X107575123Y-104457143D01*
X107575123Y-104457143D02*
X107670361Y-104647619D01*
X107670361Y-104647619D02*
X107670361Y-105123810D01*
X107670361Y-105123810D02*
X107575123Y-105314286D01*
X107575123Y-105314286D02*
X107479885Y-105409524D01*
X107479885Y-105409524D02*
X107289409Y-105504762D01*
X107289409Y-105504762D02*
X107098933Y-105504762D01*
X107098933Y-105504762D02*
X106813219Y-105409524D01*
X106813219Y-105409524D02*
X105670361Y-104266667D01*
X105670361Y-104266667D02*
X105670361Y-105504762D01*
D10*
X127027856Y-63089164D02*
X127492142Y-63089164D01*
X127492142Y-63089164D02*
X127242142Y-63374878D01*
X127242142Y-63374878D02*
X127349285Y-63374878D01*
X127349285Y-63374878D02*
X127420714Y-63410592D01*
X127420714Y-63410592D02*
X127456428Y-63446307D01*
X127456428Y-63446307D02*
X127492142Y-63517735D01*
X127492142Y-63517735D02*
X127492142Y-63696307D01*
X127492142Y-63696307D02*
X127456428Y-63767735D01*
X127456428Y-63767735D02*
X127420714Y-63803450D01*
X127420714Y-63803450D02*
X127349285Y-63839164D01*
X127349285Y-63839164D02*
X127134999Y-63839164D01*
X127134999Y-63839164D02*
X127063571Y-63803450D01*
X127063571Y-63803450D02*
X127027856Y-63767735D01*
X127956428Y-63089164D02*
X128027857Y-63089164D01*
X128027857Y-63089164D02*
X128099285Y-63124878D01*
X128099285Y-63124878D02*
X128135000Y-63160592D01*
X128135000Y-63160592D02*
X128170714Y-63232021D01*
X128170714Y-63232021D02*
X128206428Y-63374878D01*
X128206428Y-63374878D02*
X128206428Y-63553450D01*
X128206428Y-63553450D02*
X128170714Y-63696307D01*
X128170714Y-63696307D02*
X128135000Y-63767735D01*
X128135000Y-63767735D02*
X128099285Y-63803450D01*
X128099285Y-63803450D02*
X128027857Y-63839164D01*
X128027857Y-63839164D02*
X127956428Y-63839164D01*
X127956428Y-63839164D02*
X127885000Y-63803450D01*
X127885000Y-63803450D02*
X127849285Y-63767735D01*
X127849285Y-63767735D02*
X127813571Y-63696307D01*
X127813571Y-63696307D02*
X127777857Y-63553450D01*
X127777857Y-63553450D02*
X127777857Y-63374878D01*
X127777857Y-63374878D02*
X127813571Y-63232021D01*
X127813571Y-63232021D02*
X127849285Y-63160592D01*
X127849285Y-63160592D02*
X127885000Y-63124878D01*
X127885000Y-63124878D02*
X127956428Y-63089164D01*
D11*
X105670361Y-113982856D02*
X105670361Y-113030475D01*
X105670361Y-113030475D02*
X107670361Y-113030475D01*
X105765600Y-115411428D02*
X105670361Y-115220952D01*
X105670361Y-115220952D02*
X105670361Y-114839999D01*
X105670361Y-114839999D02*
X105765600Y-114649523D01*
X105765600Y-114649523D02*
X105956076Y-114554285D01*
X105956076Y-114554285D02*
X106717980Y-114554285D01*
X106717980Y-114554285D02*
X106908457Y-114649523D01*
X106908457Y-114649523D02*
X107003695Y-114839999D01*
X107003695Y-114839999D02*
X107003695Y-115220952D01*
X107003695Y-115220952D02*
X106908457Y-115411428D01*
X106908457Y-115411428D02*
X106717980Y-115506666D01*
X106717980Y-115506666D02*
X106527504Y-115506666D01*
X106527504Y-115506666D02*
X106337028Y-114554285D01*
X107003695Y-117220952D02*
X105384647Y-117220952D01*
X105384647Y-117220952D02*
X105194171Y-117125714D01*
X105194171Y-117125714D02*
X105098933Y-117030476D01*
X105098933Y-117030476D02*
X105003695Y-116839999D01*
X105003695Y-116839999D02*
X105003695Y-116554285D01*
X105003695Y-116554285D02*
X105098933Y-116363809D01*
X105765600Y-117220952D02*
X105670361Y-117030476D01*
X105670361Y-117030476D02*
X105670361Y-116649523D01*
X105670361Y-116649523D02*
X105765600Y-116459047D01*
X105765600Y-116459047D02*
X105860838Y-116363809D01*
X105860838Y-116363809D02*
X106051314Y-116268571D01*
X106051314Y-116268571D02*
X106622742Y-116268571D01*
X106622742Y-116268571D02*
X106813219Y-116363809D01*
X106813219Y-116363809D02*
X106908457Y-116459047D01*
X106908457Y-116459047D02*
X107003695Y-116649523D01*
X107003695Y-116649523D02*
X107003695Y-117030476D01*
X107003695Y-117030476D02*
X106908457Y-117220952D01*
X107670361Y-119506667D02*
X107670361Y-120744762D01*
X107670361Y-120744762D02*
X106908457Y-120078095D01*
X106908457Y-120078095D02*
X106908457Y-120363810D01*
X106908457Y-120363810D02*
X106813219Y-120554286D01*
X106813219Y-120554286D02*
X106717980Y-120649524D01*
X106717980Y-120649524D02*
X106527504Y-120744762D01*
X106527504Y-120744762D02*
X106051314Y-120744762D01*
X106051314Y-120744762D02*
X105860838Y-120649524D01*
X105860838Y-120649524D02*
X105765600Y-120554286D01*
X105765600Y-120554286D02*
X105670361Y-120363810D01*
X105670361Y-120363810D02*
X105670361Y-119792381D01*
X105670361Y-119792381D02*
X105765600Y-119601905D01*
X105765600Y-119601905D02*
X105860838Y-119506667D01*
D10*
X130054291Y-141171640D02*
X130197148Y-141219259D01*
X130197148Y-141219259D02*
X130244767Y-141266878D01*
X130244767Y-141266878D02*
X130292386Y-141362116D01*
X130292386Y-141362116D02*
X130292386Y-141504973D01*
X130292386Y-141504973D02*
X130244767Y-141600211D01*
X130244767Y-141600211D02*
X130197148Y-141647831D01*
X130197148Y-141647831D02*
X130101910Y-141695450D01*
X130101910Y-141695450D02*
X129720958Y-141695450D01*
X129720958Y-141695450D02*
X129720958Y-140695450D01*
X129720958Y-140695450D02*
X130054291Y-140695450D01*
X130054291Y-140695450D02*
X130149529Y-140743069D01*
X130149529Y-140743069D02*
X130197148Y-140790688D01*
X130197148Y-140790688D02*
X130244767Y-140885926D01*
X130244767Y-140885926D02*
X130244767Y-140981164D01*
X130244767Y-140981164D02*
X130197148Y-141076402D01*
X130197148Y-141076402D02*
X130149529Y-141124021D01*
X130149529Y-141124021D02*
X130054291Y-141171640D01*
X130054291Y-141171640D02*
X129720958Y-141171640D01*
X131149529Y-141695450D02*
X131149529Y-141171640D01*
X131149529Y-141171640D02*
X131101910Y-141076402D01*
X131101910Y-141076402D02*
X131006672Y-141028783D01*
X131006672Y-141028783D02*
X130816196Y-141028783D01*
X130816196Y-141028783D02*
X130720958Y-141076402D01*
X131149529Y-141647831D02*
X131054291Y-141695450D01*
X131054291Y-141695450D02*
X130816196Y-141695450D01*
X130816196Y-141695450D02*
X130720958Y-141647831D01*
X130720958Y-141647831D02*
X130673339Y-141552592D01*
X130673339Y-141552592D02*
X130673339Y-141457354D01*
X130673339Y-141457354D02*
X130720958Y-141362116D01*
X130720958Y-141362116D02*
X130816196Y-141314497D01*
X130816196Y-141314497D02*
X131054291Y-141314497D01*
X131054291Y-141314497D02*
X131149529Y-141266878D01*
X131482863Y-141028783D02*
X131863815Y-141028783D01*
X131625720Y-140695450D02*
X131625720Y-141552592D01*
X131625720Y-141552592D02*
X131673339Y-141647831D01*
X131673339Y-141647831D02*
X131768577Y-141695450D01*
X131768577Y-141695450D02*
X131863815Y-141695450D01*
X132054292Y-141028783D02*
X132435244Y-141028783D01*
X132197149Y-140695450D02*
X132197149Y-141552592D01*
X132197149Y-141552592D02*
X132244768Y-141647831D01*
X132244768Y-141647831D02*
X132340006Y-141695450D01*
X132340006Y-141695450D02*
X132435244Y-141695450D01*
X133149530Y-141647831D02*
X133054292Y-141695450D01*
X133054292Y-141695450D02*
X132863816Y-141695450D01*
X132863816Y-141695450D02*
X132768578Y-141647831D01*
X132768578Y-141647831D02*
X132720959Y-141552592D01*
X132720959Y-141552592D02*
X132720959Y-141171640D01*
X132720959Y-141171640D02*
X132768578Y-141076402D01*
X132768578Y-141076402D02*
X132863816Y-141028783D01*
X132863816Y-141028783D02*
X133054292Y-141028783D01*
X133054292Y-141028783D02*
X133149530Y-141076402D01*
X133149530Y-141076402D02*
X133197149Y-141171640D01*
X133197149Y-141171640D02*
X133197149Y-141266878D01*
X133197149Y-141266878D02*
X132720959Y-141362116D01*
X133625721Y-141695450D02*
X133625721Y-141028783D01*
X133625721Y-141219259D02*
X133673340Y-141124021D01*
X133673340Y-141124021D02*
X133720959Y-141076402D01*
X133720959Y-141076402D02*
X133816197Y-141028783D01*
X133816197Y-141028783D02*
X133911435Y-141028783D01*
X134149531Y-141028783D02*
X134387626Y-141695450D01*
X134625721Y-141028783D02*
X134387626Y-141695450D01*
X134387626Y-141695450D02*
X134292388Y-141933545D01*
X134292388Y-141933545D02*
X134244769Y-141981164D01*
X134244769Y-141981164D02*
X134149531Y-142028783D01*
X124487856Y-63089164D02*
X124952142Y-63089164D01*
X124952142Y-63089164D02*
X124702142Y-63374878D01*
X124702142Y-63374878D02*
X124809285Y-63374878D01*
X124809285Y-63374878D02*
X124880714Y-63410592D01*
X124880714Y-63410592D02*
X124916428Y-63446307D01*
X124916428Y-63446307D02*
X124952142Y-63517735D01*
X124952142Y-63517735D02*
X124952142Y-63696307D01*
X124952142Y-63696307D02*
X124916428Y-63767735D01*
X124916428Y-63767735D02*
X124880714Y-63803450D01*
X124880714Y-63803450D02*
X124809285Y-63839164D01*
X124809285Y-63839164D02*
X124594999Y-63839164D01*
X124594999Y-63839164D02*
X124523571Y-63803450D01*
X124523571Y-63803450D02*
X124487856Y-63767735D01*
X125666428Y-63839164D02*
X125237857Y-63839164D01*
X125452142Y-63839164D02*
X125452142Y-63089164D01*
X125452142Y-63089164D02*
X125380714Y-63196307D01*
X125380714Y-63196307D02*
X125309285Y-63267735D01*
X125309285Y-63267735D02*
X125237857Y-63303450D01*
X135040714Y-63339164D02*
X135040714Y-63839164D01*
X134862142Y-63053450D02*
X134683571Y-63589164D01*
X134683571Y-63589164D02*
X135147856Y-63589164D01*
X135826428Y-63839164D02*
X135397857Y-63839164D01*
X135612142Y-63839164D02*
X135612142Y-63089164D01*
X135612142Y-63089164D02*
X135540714Y-63196307D01*
X135540714Y-63196307D02*
X135469285Y-63267735D01*
X135469285Y-63267735D02*
X135397857Y-63303450D01*
X137658464Y-63813666D02*
X137229893Y-63813666D01*
X137444178Y-63813666D02*
X137444178Y-63063666D01*
X137444178Y-63063666D02*
X137372750Y-63170809D01*
X137372750Y-63170809D02*
X137301321Y-63242237D01*
X137301321Y-63242237D02*
X137229893Y-63277952D01*
X137908464Y-63063666D02*
X138408464Y-63063666D01*
X138408464Y-63063666D02*
X138087036Y-63813666D01*
D11*
X142100046Y-139077225D02*
X140957189Y-139077225D01*
X141528617Y-139648653D02*
X141528617Y-138505796D01*
X181349638Y-119697143D02*
X181349638Y-120649524D01*
X181349638Y-120649524D02*
X179349638Y-120649524D01*
X181254400Y-118268571D02*
X181349638Y-118459047D01*
X181349638Y-118459047D02*
X181349638Y-118840000D01*
X181349638Y-118840000D02*
X181254400Y-119030476D01*
X181254400Y-119030476D02*
X181063923Y-119125714D01*
X181063923Y-119125714D02*
X180302019Y-119125714D01*
X180302019Y-119125714D02*
X180111542Y-119030476D01*
X180111542Y-119030476D02*
X180016304Y-118840000D01*
X180016304Y-118840000D02*
X180016304Y-118459047D01*
X180016304Y-118459047D02*
X180111542Y-118268571D01*
X180111542Y-118268571D02*
X180302019Y-118173333D01*
X180302019Y-118173333D02*
X180492495Y-118173333D01*
X180492495Y-118173333D02*
X180682971Y-119125714D01*
X180016304Y-116459047D02*
X181635352Y-116459047D01*
X181635352Y-116459047D02*
X181825828Y-116554285D01*
X181825828Y-116554285D02*
X181921066Y-116649523D01*
X181921066Y-116649523D02*
X182016304Y-116840000D01*
X182016304Y-116840000D02*
X182016304Y-117125714D01*
X182016304Y-117125714D02*
X181921066Y-117316190D01*
X181254400Y-116459047D02*
X181349638Y-116649523D01*
X181349638Y-116649523D02*
X181349638Y-117030476D01*
X181349638Y-117030476D02*
X181254400Y-117220952D01*
X181254400Y-117220952D02*
X181159161Y-117316190D01*
X181159161Y-117316190D02*
X180968685Y-117411428D01*
X180968685Y-117411428D02*
X180397257Y-117411428D01*
X180397257Y-117411428D02*
X180206780Y-117316190D01*
X180206780Y-117316190D02*
X180111542Y-117220952D01*
X180111542Y-117220952D02*
X180016304Y-117030476D01*
X180016304Y-117030476D02*
X180016304Y-116649523D01*
X180016304Y-116649523D02*
X180111542Y-116459047D01*
X179349638Y-113125713D02*
X179349638Y-113506666D01*
X179349638Y-113506666D02*
X179444876Y-113697142D01*
X179444876Y-113697142D02*
X179540114Y-113792380D01*
X179540114Y-113792380D02*
X179825828Y-113982856D01*
X179825828Y-113982856D02*
X180206780Y-114078094D01*
X180206780Y-114078094D02*
X180968685Y-114078094D01*
X180968685Y-114078094D02*
X181159161Y-113982856D01*
X181159161Y-113982856D02*
X181254400Y-113887618D01*
X181254400Y-113887618D02*
X181349638Y-113697142D01*
X181349638Y-113697142D02*
X181349638Y-113316189D01*
X181349638Y-113316189D02*
X181254400Y-113125713D01*
X181254400Y-113125713D02*
X181159161Y-113030475D01*
X181159161Y-113030475D02*
X180968685Y-112935237D01*
X180968685Y-112935237D02*
X180492495Y-112935237D01*
X180492495Y-112935237D02*
X180302019Y-113030475D01*
X180302019Y-113030475D02*
X180206780Y-113125713D01*
X180206780Y-113125713D02*
X180111542Y-113316189D01*
X180111542Y-113316189D02*
X180111542Y-113697142D01*
X180111542Y-113697142D02*
X180206780Y-113887618D01*
X180206780Y-113887618D02*
X180302019Y-113982856D01*
X180302019Y-113982856D02*
X180492495Y-114078094D01*
X105670361Y-83502856D02*
X105670361Y-82550475D01*
X105670361Y-82550475D02*
X107670361Y-82550475D01*
X105765600Y-84931428D02*
X105670361Y-84740952D01*
X105670361Y-84740952D02*
X105670361Y-84359999D01*
X105670361Y-84359999D02*
X105765600Y-84169523D01*
X105765600Y-84169523D02*
X105956076Y-84074285D01*
X105956076Y-84074285D02*
X106717980Y-84074285D01*
X106717980Y-84074285D02*
X106908457Y-84169523D01*
X106908457Y-84169523D02*
X107003695Y-84359999D01*
X107003695Y-84359999D02*
X107003695Y-84740952D01*
X107003695Y-84740952D02*
X106908457Y-84931428D01*
X106908457Y-84931428D02*
X106717980Y-85026666D01*
X106717980Y-85026666D02*
X106527504Y-85026666D01*
X106527504Y-85026666D02*
X106337028Y-84074285D01*
X107003695Y-86740952D02*
X105384647Y-86740952D01*
X105384647Y-86740952D02*
X105194171Y-86645714D01*
X105194171Y-86645714D02*
X105098933Y-86550476D01*
X105098933Y-86550476D02*
X105003695Y-86359999D01*
X105003695Y-86359999D02*
X105003695Y-86074285D01*
X105003695Y-86074285D02*
X105098933Y-85883809D01*
X105765600Y-86740952D02*
X105670361Y-86550476D01*
X105670361Y-86550476D02*
X105670361Y-86169523D01*
X105670361Y-86169523D02*
X105765600Y-85979047D01*
X105765600Y-85979047D02*
X105860838Y-85883809D01*
X105860838Y-85883809D02*
X106051314Y-85788571D01*
X106051314Y-85788571D02*
X106622742Y-85788571D01*
X106622742Y-85788571D02*
X106813219Y-85883809D01*
X106813219Y-85883809D02*
X106908457Y-85979047D01*
X106908457Y-85979047D02*
X107003695Y-86169523D01*
X107003695Y-86169523D02*
X107003695Y-86550476D01*
X107003695Y-86550476D02*
X106908457Y-86740952D01*
X105670361Y-90264762D02*
X105670361Y-89121905D01*
X105670361Y-89693333D02*
X107670361Y-89693333D01*
X107670361Y-89693333D02*
X107384647Y-89502857D01*
X107384647Y-89502857D02*
X107194171Y-89312381D01*
X107194171Y-89312381D02*
X107098933Y-89121905D01*
D10*
X132500714Y-63339164D02*
X132500714Y-63839164D01*
X132322142Y-63053450D02*
X132143571Y-63589164D01*
X132143571Y-63589164D02*
X132607856Y-63589164D01*
X133036428Y-63089164D02*
X133107857Y-63089164D01*
X133107857Y-63089164D02*
X133179285Y-63124878D01*
X133179285Y-63124878D02*
X133215000Y-63160592D01*
X133215000Y-63160592D02*
X133250714Y-63232021D01*
X133250714Y-63232021D02*
X133286428Y-63374878D01*
X133286428Y-63374878D02*
X133286428Y-63553450D01*
X133286428Y-63553450D02*
X133250714Y-63696307D01*
X133250714Y-63696307D02*
X133215000Y-63767735D01*
X133215000Y-63767735D02*
X133179285Y-63803450D01*
X133179285Y-63803450D02*
X133107857Y-63839164D01*
X133107857Y-63839164D02*
X133036428Y-63839164D01*
X133036428Y-63839164D02*
X132965000Y-63803450D01*
X132965000Y-63803450D02*
X132929285Y-63767735D01*
X132929285Y-63767735D02*
X132893571Y-63696307D01*
X132893571Y-63696307D02*
X132857857Y-63553450D01*
X132857857Y-63553450D02*
X132857857Y-63374878D01*
X132857857Y-63374878D02*
X132893571Y-63232021D01*
X132893571Y-63232021D02*
X132929285Y-63160592D01*
X132929285Y-63160592D02*
X132965000Y-63124878D01*
X132965000Y-63124878D02*
X133036428Y-63089164D01*
D11*
X181349638Y-104457143D02*
X181349638Y-105409524D01*
X181349638Y-105409524D02*
X179349638Y-105409524D01*
X181254400Y-103028571D02*
X181349638Y-103219047D01*
X181349638Y-103219047D02*
X181349638Y-103600000D01*
X181349638Y-103600000D02*
X181254400Y-103790476D01*
X181254400Y-103790476D02*
X181063923Y-103885714D01*
X181063923Y-103885714D02*
X180302019Y-103885714D01*
X180302019Y-103885714D02*
X180111542Y-103790476D01*
X180111542Y-103790476D02*
X180016304Y-103600000D01*
X180016304Y-103600000D02*
X180016304Y-103219047D01*
X180016304Y-103219047D02*
X180111542Y-103028571D01*
X180111542Y-103028571D02*
X180302019Y-102933333D01*
X180302019Y-102933333D02*
X180492495Y-102933333D01*
X180492495Y-102933333D02*
X180682971Y-103885714D01*
X180016304Y-101219047D02*
X181635352Y-101219047D01*
X181635352Y-101219047D02*
X181825828Y-101314285D01*
X181825828Y-101314285D02*
X181921066Y-101409523D01*
X181921066Y-101409523D02*
X182016304Y-101600000D01*
X182016304Y-101600000D02*
X182016304Y-101885714D01*
X182016304Y-101885714D02*
X181921066Y-102076190D01*
X181254400Y-101219047D02*
X181349638Y-101409523D01*
X181349638Y-101409523D02*
X181349638Y-101790476D01*
X181349638Y-101790476D02*
X181254400Y-101980952D01*
X181254400Y-101980952D02*
X181159161Y-102076190D01*
X181159161Y-102076190D02*
X180968685Y-102171428D01*
X180968685Y-102171428D02*
X180397257Y-102171428D01*
X180397257Y-102171428D02*
X180206780Y-102076190D01*
X180206780Y-102076190D02*
X180111542Y-101980952D01*
X180111542Y-101980952D02*
X180016304Y-101790476D01*
X180016304Y-101790476D02*
X180016304Y-101409523D01*
X180016304Y-101409523D02*
X180111542Y-101219047D01*
X179349638Y-97790475D02*
X179349638Y-98742856D01*
X179349638Y-98742856D02*
X180302019Y-98838094D01*
X180302019Y-98838094D02*
X180206780Y-98742856D01*
X180206780Y-98742856D02*
X180111542Y-98552380D01*
X180111542Y-98552380D02*
X180111542Y-98076189D01*
X180111542Y-98076189D02*
X180206780Y-97885713D01*
X180206780Y-97885713D02*
X180302019Y-97790475D01*
X180302019Y-97790475D02*
X180492495Y-97695237D01*
X180492495Y-97695237D02*
X180968685Y-97695237D01*
X180968685Y-97695237D02*
X181159161Y-97790475D01*
X181159161Y-97790475D02*
X181254400Y-97885713D01*
X181254400Y-97885713D02*
X181349638Y-98076189D01*
X181349638Y-98076189D02*
X181349638Y-98552380D01*
X181349638Y-98552380D02*
X181254400Y-98742856D01*
X181254400Y-98742856D02*
X181159161Y-98838094D01*
D10*
X129567856Y-63089164D02*
X130032142Y-63089164D01*
X130032142Y-63089164D02*
X129782142Y-63374878D01*
X129782142Y-63374878D02*
X129889285Y-63374878D01*
X129889285Y-63374878D02*
X129960714Y-63410592D01*
X129960714Y-63410592D02*
X129996428Y-63446307D01*
X129996428Y-63446307D02*
X130032142Y-63517735D01*
X130032142Y-63517735D02*
X130032142Y-63696307D01*
X130032142Y-63696307D02*
X129996428Y-63767735D01*
X129996428Y-63767735D02*
X129960714Y-63803450D01*
X129960714Y-63803450D02*
X129889285Y-63839164D01*
X129889285Y-63839164D02*
X129674999Y-63839164D01*
X129674999Y-63839164D02*
X129603571Y-63803450D01*
X129603571Y-63803450D02*
X129567856Y-63767735D01*
X130389285Y-63839164D02*
X130532142Y-63839164D01*
X130532142Y-63839164D02*
X130603571Y-63803450D01*
X130603571Y-63803450D02*
X130639285Y-63767735D01*
X130639285Y-63767735D02*
X130710714Y-63660592D01*
X130710714Y-63660592D02*
X130746428Y-63517735D01*
X130746428Y-63517735D02*
X130746428Y-63232021D01*
X130746428Y-63232021D02*
X130710714Y-63160592D01*
X130710714Y-63160592D02*
X130675000Y-63124878D01*
X130675000Y-63124878D02*
X130603571Y-63089164D01*
X130603571Y-63089164D02*
X130460714Y-63089164D01*
X130460714Y-63089164D02*
X130389285Y-63124878D01*
X130389285Y-63124878D02*
X130353571Y-63160592D01*
X130353571Y-63160592D02*
X130317857Y-63232021D01*
X130317857Y-63232021D02*
X130317857Y-63410592D01*
X130317857Y-63410592D02*
X130353571Y-63482021D01*
X130353571Y-63482021D02*
X130389285Y-63517735D01*
X130389285Y-63517735D02*
X130460714Y-63553450D01*
X130460714Y-63553450D02*
X130603571Y-63553450D01*
X130603571Y-63553450D02*
X130675000Y-63517735D01*
X130675000Y-63517735D02*
X130710714Y-63482021D01*
X130710714Y-63482021D02*
X130746428Y-63410592D01*
D11*
X176870225Y-73865828D02*
X177370225Y-75365828D01*
X177370225Y-75365828D02*
X177870225Y-73865828D01*
X180298796Y-75365828D02*
X179441653Y-75365828D01*
X179870224Y-75365828D02*
X179870224Y-73865828D01*
X179870224Y-73865828D02*
X179727367Y-74080114D01*
X179727367Y-74080114D02*
X179584510Y-74222971D01*
X179584510Y-74222971D02*
X179441653Y-74294400D01*
X180941652Y-75222971D02*
X181013081Y-75294400D01*
X181013081Y-75294400D02*
X180941652Y-75365828D01*
X180941652Y-75365828D02*
X180870224Y-75294400D01*
X180870224Y-75294400D02*
X180941652Y-75222971D01*
X180941652Y-75222971D02*
X180941652Y-75365828D01*
X181941653Y-73865828D02*
X182084510Y-73865828D01*
X182084510Y-73865828D02*
X182227367Y-73937257D01*
X182227367Y-73937257D02*
X182298796Y-74008685D01*
X182298796Y-74008685D02*
X182370224Y-74151542D01*
X182370224Y-74151542D02*
X182441653Y-74437257D01*
X182441653Y-74437257D02*
X182441653Y-74794400D01*
X182441653Y-74794400D02*
X182370224Y-75080114D01*
X182370224Y-75080114D02*
X182298796Y-75222971D01*
X182298796Y-75222971D02*
X182227367Y-75294400D01*
X182227367Y-75294400D02*
X182084510Y-75365828D01*
X182084510Y-75365828D02*
X181941653Y-75365828D01*
X181941653Y-75365828D02*
X181798796Y-75294400D01*
X181798796Y-75294400D02*
X181727367Y-75222971D01*
X181727367Y-75222971D02*
X181655938Y-75080114D01*
X181655938Y-75080114D02*
X181584510Y-74794400D01*
X181584510Y-74794400D02*
X181584510Y-74437257D01*
X181584510Y-74437257D02*
X181655938Y-74151542D01*
X181655938Y-74151542D02*
X181727367Y-74008685D01*
X181727367Y-74008685D02*
X181798796Y-73937257D01*
X181798796Y-73937257D02*
X181941653Y-73865828D01*
X183370224Y-73865828D02*
X183513081Y-73865828D01*
X183513081Y-73865828D02*
X183655938Y-73937257D01*
X183655938Y-73937257D02*
X183727367Y-74008685D01*
X183727367Y-74008685D02*
X183798795Y-74151542D01*
X183798795Y-74151542D02*
X183870224Y-74437257D01*
X183870224Y-74437257D02*
X183870224Y-74794400D01*
X183870224Y-74794400D02*
X183798795Y-75080114D01*
X183798795Y-75080114D02*
X183727367Y-75222971D01*
X183727367Y-75222971D02*
X183655938Y-75294400D01*
X183655938Y-75294400D02*
X183513081Y-75365828D01*
X183513081Y-75365828D02*
X183370224Y-75365828D01*
X183370224Y-75365828D02*
X183227367Y-75294400D01*
X183227367Y-75294400D02*
X183155938Y-75222971D01*
X183155938Y-75222971D02*
X183084509Y-75080114D01*
X183084509Y-75080114D02*
X183013081Y-74794400D01*
X183013081Y-74794400D02*
X183013081Y-74437257D01*
X183013081Y-74437257D02*
X183084509Y-74151542D01*
X183084509Y-74151542D02*
X183155938Y-74008685D01*
X183155938Y-74008685D02*
X183227367Y-73937257D01*
X183227367Y-73937257D02*
X183370224Y-73865828D01*
X123266209Y-139033525D02*
X122123352Y-139033525D01*
X128372931Y-141150928D02*
X127230074Y-141150928D01*
X137220257Y-141217449D02*
X136077400Y-141217449D01*
X136648828Y-141788877D02*
X136648828Y-140646020D01*
X181349638Y-89217143D02*
X181349638Y-90169524D01*
X181349638Y-90169524D02*
X179349638Y-90169524D01*
X181254400Y-87788571D02*
X181349638Y-87979047D01*
X181349638Y-87979047D02*
X181349638Y-88360000D01*
X181349638Y-88360000D02*
X181254400Y-88550476D01*
X181254400Y-88550476D02*
X181063923Y-88645714D01*
X181063923Y-88645714D02*
X180302019Y-88645714D01*
X180302019Y-88645714D02*
X180111542Y-88550476D01*
X180111542Y-88550476D02*
X180016304Y-88360000D01*
X180016304Y-88360000D02*
X180016304Y-87979047D01*
X180016304Y-87979047D02*
X180111542Y-87788571D01*
X180111542Y-87788571D02*
X180302019Y-87693333D01*
X180302019Y-87693333D02*
X180492495Y-87693333D01*
X180492495Y-87693333D02*
X180682971Y-88645714D01*
X180016304Y-85979047D02*
X181635352Y-85979047D01*
X181635352Y-85979047D02*
X181825828Y-86074285D01*
X181825828Y-86074285D02*
X181921066Y-86169523D01*
X181921066Y-86169523D02*
X182016304Y-86360000D01*
X182016304Y-86360000D02*
X182016304Y-86645714D01*
X182016304Y-86645714D02*
X181921066Y-86836190D01*
X181254400Y-85979047D02*
X181349638Y-86169523D01*
X181349638Y-86169523D02*
X181349638Y-86550476D01*
X181349638Y-86550476D02*
X181254400Y-86740952D01*
X181254400Y-86740952D02*
X181159161Y-86836190D01*
X181159161Y-86836190D02*
X180968685Y-86931428D01*
X180968685Y-86931428D02*
X180397257Y-86931428D01*
X180397257Y-86931428D02*
X180206780Y-86836190D01*
X180206780Y-86836190D02*
X180111542Y-86740952D01*
X180111542Y-86740952D02*
X180016304Y-86550476D01*
X180016304Y-86550476D02*
X180016304Y-86169523D01*
X180016304Y-86169523D02*
X180111542Y-85979047D01*
X180016304Y-82645713D02*
X181349638Y-82645713D01*
X179254400Y-83121904D02*
X180682971Y-83598094D01*
X180682971Y-83598094D02*
X180682971Y-82359999D01*
D10*
X150720157Y-69615096D02*
X150863014Y-69662715D01*
X150863014Y-69662715D02*
X150910633Y-69710334D01*
X150910633Y-69710334D02*
X150958252Y-69805572D01*
X150958252Y-69805572D02*
X150958252Y-69948429D01*
X150958252Y-69948429D02*
X150910633Y-70043667D01*
X150910633Y-70043667D02*
X150863014Y-70091287D01*
X150863014Y-70091287D02*
X150767776Y-70138906D01*
X150767776Y-70138906D02*
X150386824Y-70138906D01*
X150386824Y-70138906D02*
X150386824Y-69138906D01*
X150386824Y-69138906D02*
X150720157Y-69138906D01*
X150720157Y-69138906D02*
X150815395Y-69186525D01*
X150815395Y-69186525D02*
X150863014Y-69234144D01*
X150863014Y-69234144D02*
X150910633Y-69329382D01*
X150910633Y-69329382D02*
X150910633Y-69424620D01*
X150910633Y-69424620D02*
X150863014Y-69519858D01*
X150863014Y-69519858D02*
X150815395Y-69567477D01*
X150815395Y-69567477D02*
X150720157Y-69615096D01*
X150720157Y-69615096D02*
X150386824Y-69615096D01*
X151339205Y-69234144D02*
X151386824Y-69186525D01*
X151386824Y-69186525D02*
X151482062Y-69138906D01*
X151482062Y-69138906D02*
X151720157Y-69138906D01*
X151720157Y-69138906D02*
X151815395Y-69186525D01*
X151815395Y-69186525D02*
X151863014Y-69234144D01*
X151863014Y-69234144D02*
X151910633Y-69329382D01*
X151910633Y-69329382D02*
X151910633Y-69424620D01*
X151910633Y-69424620D02*
X151863014Y-69567477D01*
X151863014Y-69567477D02*
X151291586Y-70138906D01*
X151291586Y-70138906D02*
X151910633Y-70138906D01*
X150368095Y-61732438D02*
X150272857Y-61684819D01*
X150272857Y-61684819D02*
X150130000Y-61684819D01*
X150130000Y-61684819D02*
X149987143Y-61732438D01*
X149987143Y-61732438D02*
X149891905Y-61827676D01*
X149891905Y-61827676D02*
X149844286Y-61922914D01*
X149844286Y-61922914D02*
X149796667Y-62113390D01*
X149796667Y-62113390D02*
X149796667Y-62256247D01*
X149796667Y-62256247D02*
X149844286Y-62446723D01*
X149844286Y-62446723D02*
X149891905Y-62541961D01*
X149891905Y-62541961D02*
X149987143Y-62637200D01*
X149987143Y-62637200D02*
X150130000Y-62684819D01*
X150130000Y-62684819D02*
X150225238Y-62684819D01*
X150225238Y-62684819D02*
X150368095Y-62637200D01*
X150368095Y-62637200D02*
X150415714Y-62589580D01*
X150415714Y-62589580D02*
X150415714Y-62256247D01*
X150415714Y-62256247D02*
X150225238Y-62256247D01*
X150844286Y-62684819D02*
X150844286Y-61684819D01*
X150844286Y-61684819D02*
X151415714Y-62684819D01*
X151415714Y-62684819D02*
X151415714Y-61684819D01*
X151891905Y-62684819D02*
X151891905Y-61684819D01*
X151891905Y-61684819D02*
X152130000Y-61684819D01*
X152130000Y-61684819D02*
X152272857Y-61732438D01*
X152272857Y-61732438D02*
X152368095Y-61827676D01*
X152368095Y-61827676D02*
X152415714Y-61922914D01*
X152415714Y-61922914D02*
X152463333Y-62113390D01*
X152463333Y-62113390D02*
X152463333Y-62256247D01*
X152463333Y-62256247D02*
X152415714Y-62446723D01*
X152415714Y-62446723D02*
X152368095Y-62541961D01*
X152368095Y-62541961D02*
X152272857Y-62637200D01*
X152272857Y-62637200D02*
X152130000Y-62684819D01*
X152130000Y-62684819D02*
X151891905Y-62684819D01*
X161046065Y-90826908D02*
X161046065Y-91636431D01*
X161046065Y-91636431D02*
X161093684Y-91731669D01*
X161093684Y-91731669D02*
X161141303Y-91779289D01*
X161141303Y-91779289D02*
X161236541Y-91826908D01*
X161236541Y-91826908D02*
X161427017Y-91826908D01*
X161427017Y-91826908D02*
X161522255Y-91779289D01*
X161522255Y-91779289D02*
X161569874Y-91731669D01*
X161569874Y-91731669D02*
X161617493Y-91636431D01*
X161617493Y-91636431D02*
X161617493Y-90826908D01*
X162569874Y-90826908D02*
X162093684Y-90826908D01*
X162093684Y-90826908D02*
X162046065Y-91303098D01*
X162046065Y-91303098D02*
X162093684Y-91255479D01*
X162093684Y-91255479D02*
X162188922Y-91207860D01*
X162188922Y-91207860D02*
X162427017Y-91207860D01*
X162427017Y-91207860D02*
X162522255Y-91255479D01*
X162522255Y-91255479D02*
X162569874Y-91303098D01*
X162569874Y-91303098D02*
X162617493Y-91398336D01*
X162617493Y-91398336D02*
X162617493Y-91636431D01*
X162617493Y-91636431D02*
X162569874Y-91731669D01*
X162569874Y-91731669D02*
X162522255Y-91779289D01*
X162522255Y-91779289D02*
X162427017Y-91826908D01*
X162427017Y-91826908D02*
X162188922Y-91826908D01*
X162188922Y-91826908D02*
X162093684Y-91779289D01*
X162093684Y-91779289D02*
X162046065Y-91731669D01*
D12*
X163037419Y-95708139D02*
X163037419Y-95517663D01*
X163037419Y-95517663D02*
X163085038Y-95422425D01*
X163085038Y-95422425D02*
X163180276Y-95327187D01*
X163180276Y-95327187D02*
X163370752Y-95279568D01*
X163370752Y-95279568D02*
X163704085Y-95279568D01*
X163704085Y-95279568D02*
X163894561Y-95327187D01*
X163894561Y-95327187D02*
X163989800Y-95422425D01*
X163989800Y-95422425D02*
X164037419Y-95517663D01*
X164037419Y-95517663D02*
X164037419Y-95708139D01*
X164037419Y-95708139D02*
X163989800Y-95803377D01*
X163989800Y-95803377D02*
X163894561Y-95898615D01*
X163894561Y-95898615D02*
X163704085Y-95946234D01*
X163704085Y-95946234D02*
X163370752Y-95946234D01*
X163370752Y-95946234D02*
X163180276Y-95898615D01*
X163180276Y-95898615D02*
X163085038Y-95803377D01*
X163085038Y-95803377D02*
X163037419Y-95708139D01*
X163370752Y-94422425D02*
X164037419Y-94422425D01*
X163370752Y-94850996D02*
X163894561Y-94850996D01*
X163894561Y-94850996D02*
X163989800Y-94803377D01*
X163989800Y-94803377D02*
X164037419Y-94708139D01*
X164037419Y-94708139D02*
X164037419Y-94565282D01*
X164037419Y-94565282D02*
X163989800Y-94470044D01*
X163989800Y-94470044D02*
X163942180Y-94422425D01*
X163370752Y-94089091D02*
X163370752Y-93708139D01*
X163037419Y-93946234D02*
X163894561Y-93946234D01*
X163894561Y-93946234D02*
X163989800Y-93898615D01*
X163989800Y-93898615D02*
X164037419Y-93803377D01*
X164037419Y-93803377D02*
X164037419Y-93708139D01*
X163656466Y-93374805D02*
X163656466Y-92612901D01*
X164037419Y-107836615D02*
X163037419Y-107836615D01*
X163370752Y-107360425D02*
X164037419Y-107360425D01*
X163465990Y-107360425D02*
X163418371Y-107312806D01*
X163418371Y-107312806D02*
X163370752Y-107217568D01*
X163370752Y-107217568D02*
X163370752Y-107074711D01*
X163370752Y-107074711D02*
X163418371Y-106979473D01*
X163418371Y-106979473D02*
X163513609Y-106931854D01*
X163513609Y-106931854D02*
X164037419Y-106931854D01*
X163656466Y-106455663D02*
X163656466Y-105693759D01*
X158719419Y-95835139D02*
X158719419Y-95644663D01*
X158719419Y-95644663D02*
X158767038Y-95549425D01*
X158767038Y-95549425D02*
X158862276Y-95454187D01*
X158862276Y-95454187D02*
X159052752Y-95406568D01*
X159052752Y-95406568D02*
X159386085Y-95406568D01*
X159386085Y-95406568D02*
X159576561Y-95454187D01*
X159576561Y-95454187D02*
X159671800Y-95549425D01*
X159671800Y-95549425D02*
X159719419Y-95644663D01*
X159719419Y-95644663D02*
X159719419Y-95835139D01*
X159719419Y-95835139D02*
X159671800Y-95930377D01*
X159671800Y-95930377D02*
X159576561Y-96025615D01*
X159576561Y-96025615D02*
X159386085Y-96073234D01*
X159386085Y-96073234D02*
X159052752Y-96073234D01*
X159052752Y-96073234D02*
X158862276Y-96025615D01*
X158862276Y-96025615D02*
X158767038Y-95930377D01*
X158767038Y-95930377D02*
X158719419Y-95835139D01*
X159052752Y-94549425D02*
X159719419Y-94549425D01*
X159052752Y-94977996D02*
X159576561Y-94977996D01*
X159576561Y-94977996D02*
X159671800Y-94930377D01*
X159671800Y-94930377D02*
X159719419Y-94835139D01*
X159719419Y-94835139D02*
X159719419Y-94692282D01*
X159719419Y-94692282D02*
X159671800Y-94597044D01*
X159671800Y-94597044D02*
X159624180Y-94549425D01*
X159052752Y-94216091D02*
X159052752Y-93835139D01*
X158719419Y-94073234D02*
X159576561Y-94073234D01*
X159576561Y-94073234D02*
X159671800Y-94025615D01*
X159671800Y-94025615D02*
X159719419Y-93930377D01*
X159719419Y-93930377D02*
X159719419Y-93835139D01*
X159338466Y-93501805D02*
X159338466Y-92739901D01*
X159719419Y-93120853D02*
X158957514Y-93120853D01*
X159719419Y-107963615D02*
X158719419Y-107963615D01*
X159052752Y-107487425D02*
X159719419Y-107487425D01*
X159147990Y-107487425D02*
X159100371Y-107439806D01*
X159100371Y-107439806D02*
X159052752Y-107344568D01*
X159052752Y-107344568D02*
X159052752Y-107201711D01*
X159052752Y-107201711D02*
X159100371Y-107106473D01*
X159100371Y-107106473D02*
X159195609Y-107058854D01*
X159195609Y-107058854D02*
X159719419Y-107058854D01*
X159338466Y-106582663D02*
X159338466Y-105820759D01*
X159719419Y-106201711D02*
X158957514Y-106201711D01*
D10*
X160880157Y-69615096D02*
X161023014Y-69662715D01*
X161023014Y-69662715D02*
X161070633Y-69710334D01*
X161070633Y-69710334D02*
X161118252Y-69805572D01*
X161118252Y-69805572D02*
X161118252Y-69948429D01*
X161118252Y-69948429D02*
X161070633Y-70043667D01*
X161070633Y-70043667D02*
X161023014Y-70091287D01*
X161023014Y-70091287D02*
X160927776Y-70138906D01*
X160927776Y-70138906D02*
X160546824Y-70138906D01*
X160546824Y-70138906D02*
X160546824Y-69138906D01*
X160546824Y-69138906D02*
X160880157Y-69138906D01*
X160880157Y-69138906D02*
X160975395Y-69186525D01*
X160975395Y-69186525D02*
X161023014Y-69234144D01*
X161023014Y-69234144D02*
X161070633Y-69329382D01*
X161070633Y-69329382D02*
X161070633Y-69424620D01*
X161070633Y-69424620D02*
X161023014Y-69519858D01*
X161023014Y-69519858D02*
X160975395Y-69567477D01*
X160975395Y-69567477D02*
X160880157Y-69615096D01*
X160880157Y-69615096D02*
X160546824Y-69615096D01*
X161975395Y-69472239D02*
X161975395Y-70138906D01*
X161737300Y-69091287D02*
X161499205Y-69805572D01*
X161499205Y-69805572D02*
X162118252Y-69805572D01*
X161099523Y-61684819D02*
X160623333Y-61684819D01*
X160623333Y-61684819D02*
X160575714Y-62161009D01*
X160575714Y-62161009D02*
X160623333Y-62113390D01*
X160623333Y-62113390D02*
X160718571Y-62065771D01*
X160718571Y-62065771D02*
X160956666Y-62065771D01*
X160956666Y-62065771D02*
X161051904Y-62113390D01*
X161051904Y-62113390D02*
X161099523Y-62161009D01*
X161099523Y-62161009D02*
X161147142Y-62256247D01*
X161147142Y-62256247D02*
X161147142Y-62494342D01*
X161147142Y-62494342D02*
X161099523Y-62589580D01*
X161099523Y-62589580D02*
X161051904Y-62637200D01*
X161051904Y-62637200D02*
X160956666Y-62684819D01*
X160956666Y-62684819D02*
X160718571Y-62684819D01*
X160718571Y-62684819D02*
X160623333Y-62637200D01*
X160623333Y-62637200D02*
X160575714Y-62589580D01*
X161432857Y-61684819D02*
X161766190Y-62684819D01*
X161766190Y-62684819D02*
X162099523Y-61684819D01*
X149891927Y-91056131D02*
X149891927Y-91865654D01*
X149891927Y-91865654D02*
X149939546Y-91960892D01*
X149939546Y-91960892D02*
X149987165Y-92008512D01*
X149987165Y-92008512D02*
X150082403Y-92056131D01*
X150082403Y-92056131D02*
X150272879Y-92056131D01*
X150272879Y-92056131D02*
X150368117Y-92008512D01*
X150368117Y-92008512D02*
X150415736Y-91960892D01*
X150415736Y-91960892D02*
X150463355Y-91865654D01*
X150463355Y-91865654D02*
X150463355Y-91056131D01*
X151368117Y-91389464D02*
X151368117Y-92056131D01*
X151130022Y-91008512D02*
X150891927Y-91722797D01*
X150891927Y-91722797D02*
X151510974Y-91722797D01*
D12*
X138178265Y-99419800D02*
X138321122Y-99467419D01*
X138321122Y-99467419D02*
X138559217Y-99467419D01*
X138559217Y-99467419D02*
X138654455Y-99419800D01*
X138654455Y-99419800D02*
X138702074Y-99372180D01*
X138702074Y-99372180D02*
X138749693Y-99276942D01*
X138749693Y-99276942D02*
X138749693Y-99181704D01*
X138749693Y-99181704D02*
X138702074Y-99086466D01*
X138702074Y-99086466D02*
X138654455Y-99038847D01*
X138654455Y-99038847D02*
X138559217Y-98991228D01*
X138559217Y-98991228D02*
X138368741Y-98943609D01*
X138368741Y-98943609D02*
X138273503Y-98895990D01*
X138273503Y-98895990D02*
X138225884Y-98848371D01*
X138225884Y-98848371D02*
X138178265Y-98753133D01*
X138178265Y-98753133D02*
X138178265Y-98657895D01*
X138178265Y-98657895D02*
X138225884Y-98562657D01*
X138225884Y-98562657D02*
X138273503Y-98515038D01*
X138273503Y-98515038D02*
X138368741Y-98467419D01*
X138368741Y-98467419D02*
X138606836Y-98467419D01*
X138606836Y-98467419D02*
X138749693Y-98515038D01*
X139749693Y-99372180D02*
X139702074Y-99419800D01*
X139702074Y-99419800D02*
X139559217Y-99467419D01*
X139559217Y-99467419D02*
X139463979Y-99467419D01*
X139463979Y-99467419D02*
X139321122Y-99419800D01*
X139321122Y-99419800D02*
X139225884Y-99324561D01*
X139225884Y-99324561D02*
X139178265Y-99229323D01*
X139178265Y-99229323D02*
X139130646Y-99038847D01*
X139130646Y-99038847D02*
X139130646Y-98895990D01*
X139130646Y-98895990D02*
X139178265Y-98705514D01*
X139178265Y-98705514D02*
X139225884Y-98610276D01*
X139225884Y-98610276D02*
X139321122Y-98515038D01*
X139321122Y-98515038D02*
X139463979Y-98467419D01*
X139463979Y-98467419D02*
X139559217Y-98467419D01*
X139559217Y-98467419D02*
X139702074Y-98515038D01*
X139702074Y-98515038D02*
X139749693Y-98562657D01*
X140654455Y-99467419D02*
X140178265Y-99467419D01*
X140178265Y-99467419D02*
X140178265Y-98467419D01*
X138130646Y-106087419D02*
X138797312Y-107087419D01*
X138797312Y-106087419D02*
X138130646Y-107087419D01*
X139749693Y-106992180D02*
X139702074Y-107039800D01*
X139702074Y-107039800D02*
X139559217Y-107087419D01*
X139559217Y-107087419D02*
X139463979Y-107087419D01*
X139463979Y-107087419D02*
X139321122Y-107039800D01*
X139321122Y-107039800D02*
X139225884Y-106944561D01*
X139225884Y-106944561D02*
X139178265Y-106849323D01*
X139178265Y-106849323D02*
X139130646Y-106658847D01*
X139130646Y-106658847D02*
X139130646Y-106515990D01*
X139130646Y-106515990D02*
X139178265Y-106325514D01*
X139178265Y-106325514D02*
X139225884Y-106230276D01*
X139225884Y-106230276D02*
X139321122Y-106135038D01*
X139321122Y-106135038D02*
X139463979Y-106087419D01*
X139463979Y-106087419D02*
X139559217Y-106087419D01*
X139559217Y-106087419D02*
X139702074Y-106135038D01*
X139702074Y-106135038D02*
X139749693Y-106182657D01*
X140654455Y-107087419D02*
X140178265Y-107087419D01*
X140178265Y-107087419D02*
X140178265Y-106087419D01*
X138225884Y-112167419D02*
X138225884Y-111167419D01*
X138702074Y-112167419D02*
X138702074Y-111167419D01*
X138702074Y-111167419D02*
X139273502Y-112167419D01*
X139273502Y-112167419D02*
X139273502Y-111167419D01*
X139606836Y-111167419D02*
X140178264Y-111167419D01*
X139892550Y-112167419D02*
X139892550Y-111167419D01*
X138178265Y-101959800D02*
X138321122Y-102007419D01*
X138321122Y-102007419D02*
X138559217Y-102007419D01*
X138559217Y-102007419D02*
X138654455Y-101959800D01*
X138654455Y-101959800D02*
X138702074Y-101912180D01*
X138702074Y-101912180D02*
X138749693Y-101816942D01*
X138749693Y-101816942D02*
X138749693Y-101721704D01*
X138749693Y-101721704D02*
X138702074Y-101626466D01*
X138702074Y-101626466D02*
X138654455Y-101578847D01*
X138654455Y-101578847D02*
X138559217Y-101531228D01*
X138559217Y-101531228D02*
X138368741Y-101483609D01*
X138368741Y-101483609D02*
X138273503Y-101435990D01*
X138273503Y-101435990D02*
X138225884Y-101388371D01*
X138225884Y-101388371D02*
X138178265Y-101293133D01*
X138178265Y-101293133D02*
X138178265Y-101197895D01*
X138178265Y-101197895D02*
X138225884Y-101102657D01*
X138225884Y-101102657D02*
X138273503Y-101055038D01*
X138273503Y-101055038D02*
X138368741Y-101007419D01*
X138368741Y-101007419D02*
X138606836Y-101007419D01*
X138606836Y-101007419D02*
X138749693Y-101055038D01*
X139178265Y-102007419D02*
X139178265Y-101007419D01*
X139178265Y-101007419D02*
X139416360Y-101007419D01*
X139416360Y-101007419D02*
X139559217Y-101055038D01*
X139559217Y-101055038D02*
X139654455Y-101150276D01*
X139654455Y-101150276D02*
X139702074Y-101245514D01*
X139702074Y-101245514D02*
X139749693Y-101435990D01*
X139749693Y-101435990D02*
X139749693Y-101578847D01*
X139749693Y-101578847D02*
X139702074Y-101769323D01*
X139702074Y-101769323D02*
X139654455Y-101864561D01*
X139654455Y-101864561D02*
X139559217Y-101959800D01*
X139559217Y-101959800D02*
X139416360Y-102007419D01*
X139416360Y-102007419D02*
X139178265Y-102007419D01*
X140130646Y-101721704D02*
X140606836Y-101721704D01*
X140035408Y-102007419D02*
X140368741Y-101007419D01*
X140368741Y-101007419D02*
X140702074Y-102007419D01*
X138130646Y-103547419D02*
X138797312Y-104547419D01*
X138797312Y-103547419D02*
X138130646Y-104547419D01*
X139178265Y-104547419D02*
X139178265Y-103547419D01*
X139178265Y-103547419D02*
X139416360Y-103547419D01*
X139416360Y-103547419D02*
X139559217Y-103595038D01*
X139559217Y-103595038D02*
X139654455Y-103690276D01*
X139654455Y-103690276D02*
X139702074Y-103785514D01*
X139702074Y-103785514D02*
X139749693Y-103975990D01*
X139749693Y-103975990D02*
X139749693Y-104118847D01*
X139749693Y-104118847D02*
X139702074Y-104309323D01*
X139702074Y-104309323D02*
X139654455Y-104404561D01*
X139654455Y-104404561D02*
X139559217Y-104499800D01*
X139559217Y-104499800D02*
X139416360Y-104547419D01*
X139416360Y-104547419D02*
X139178265Y-104547419D01*
X140130646Y-104261704D02*
X140606836Y-104261704D01*
X140035408Y-104547419D02*
X140368741Y-103547419D01*
X140368741Y-103547419D02*
X140702074Y-104547419D01*
X138178265Y-109341704D02*
X138654455Y-109341704D01*
X138083027Y-109627419D02*
X138416360Y-108627419D01*
X138416360Y-108627419D02*
X138749693Y-109627419D01*
X139083027Y-109627419D02*
X139083027Y-108627419D01*
X139083027Y-108627419D02*
X139321122Y-108627419D01*
X139321122Y-108627419D02*
X139463979Y-108675038D01*
X139463979Y-108675038D02*
X139559217Y-108770276D01*
X139559217Y-108770276D02*
X139606836Y-108865514D01*
X139606836Y-108865514D02*
X139654455Y-109055990D01*
X139654455Y-109055990D02*
X139654455Y-109198847D01*
X139654455Y-109198847D02*
X139606836Y-109389323D01*
X139606836Y-109389323D02*
X139559217Y-109484561D01*
X139559217Y-109484561D02*
X139463979Y-109579800D01*
X139463979Y-109579800D02*
X139321122Y-109627419D01*
X139321122Y-109627419D02*
X139083027Y-109627419D01*
X140083027Y-109627419D02*
X140083027Y-108627419D01*
X140083027Y-108627419D02*
X140321122Y-108627419D01*
X140321122Y-108627419D02*
X140463979Y-108675038D01*
X140463979Y-108675038D02*
X140559217Y-108770276D01*
X140559217Y-108770276D02*
X140606836Y-108865514D01*
X140606836Y-108865514D02*
X140654455Y-109055990D01*
X140654455Y-109055990D02*
X140654455Y-109198847D01*
X140654455Y-109198847D02*
X140606836Y-109389323D01*
X140606836Y-109389323D02*
X140559217Y-109484561D01*
X140559217Y-109484561D02*
X140463979Y-109579800D01*
X140463979Y-109579800D02*
X140321122Y-109627419D01*
X140321122Y-109627419D02*
X140083027Y-109627419D01*
X138749693Y-95975038D02*
X138654455Y-95927419D01*
X138654455Y-95927419D02*
X138511598Y-95927419D01*
X138511598Y-95927419D02*
X138368741Y-95975038D01*
X138368741Y-95975038D02*
X138273503Y-96070276D01*
X138273503Y-96070276D02*
X138225884Y-96165514D01*
X138225884Y-96165514D02*
X138178265Y-96355990D01*
X138178265Y-96355990D02*
X138178265Y-96498847D01*
X138178265Y-96498847D02*
X138225884Y-96689323D01*
X138225884Y-96689323D02*
X138273503Y-96784561D01*
X138273503Y-96784561D02*
X138368741Y-96879800D01*
X138368741Y-96879800D02*
X138511598Y-96927419D01*
X138511598Y-96927419D02*
X138606836Y-96927419D01*
X138606836Y-96927419D02*
X138749693Y-96879800D01*
X138749693Y-96879800D02*
X138797312Y-96832180D01*
X138797312Y-96832180D02*
X138797312Y-96498847D01*
X138797312Y-96498847D02*
X138606836Y-96498847D01*
X139225884Y-96927419D02*
X139225884Y-95927419D01*
X139225884Y-95927419D02*
X139797312Y-96927419D01*
X139797312Y-96927419D02*
X139797312Y-95927419D01*
X140273503Y-96927419D02*
X140273503Y-95927419D01*
X140273503Y-95927419D02*
X140511598Y-95927419D01*
X140511598Y-95927419D02*
X140654455Y-95975038D01*
X140654455Y-95975038D02*
X140749693Y-96070276D01*
X140749693Y-96070276D02*
X140797312Y-96165514D01*
X140797312Y-96165514D02*
X140844931Y-96355990D01*
X140844931Y-96355990D02*
X140844931Y-96498847D01*
X140844931Y-96498847D02*
X140797312Y-96689323D01*
X140797312Y-96689323D02*
X140749693Y-96784561D01*
X140749693Y-96784561D02*
X140654455Y-96879800D01*
X140654455Y-96879800D02*
X140511598Y-96927419D01*
X140511598Y-96927419D02*
X140273503Y-96927419D01*
X138083027Y-93387419D02*
X138416360Y-94387419D01*
X138416360Y-94387419D02*
X138749693Y-93387419D01*
X139654455Y-94292180D02*
X139606836Y-94339800D01*
X139606836Y-94339800D02*
X139463979Y-94387419D01*
X139463979Y-94387419D02*
X139368741Y-94387419D01*
X139368741Y-94387419D02*
X139225884Y-94339800D01*
X139225884Y-94339800D02*
X139130646Y-94244561D01*
X139130646Y-94244561D02*
X139083027Y-94149323D01*
X139083027Y-94149323D02*
X139035408Y-93958847D01*
X139035408Y-93958847D02*
X139035408Y-93815990D01*
X139035408Y-93815990D02*
X139083027Y-93625514D01*
X139083027Y-93625514D02*
X139130646Y-93530276D01*
X139130646Y-93530276D02*
X139225884Y-93435038D01*
X139225884Y-93435038D02*
X139368741Y-93387419D01*
X139368741Y-93387419D02*
X139463979Y-93387419D01*
X139463979Y-93387419D02*
X139606836Y-93435038D01*
X139606836Y-93435038D02*
X139654455Y-93482657D01*
X140654455Y-94292180D02*
X140606836Y-94339800D01*
X140606836Y-94339800D02*
X140463979Y-94387419D01*
X140463979Y-94387419D02*
X140368741Y-94387419D01*
X140368741Y-94387419D02*
X140225884Y-94339800D01*
X140225884Y-94339800D02*
X140130646Y-94244561D01*
X140130646Y-94244561D02*
X140083027Y-94149323D01*
X140083027Y-94149323D02*
X140035408Y-93958847D01*
X140035408Y-93958847D02*
X140035408Y-93815990D01*
X140035408Y-93815990D02*
X140083027Y-93625514D01*
X140083027Y-93625514D02*
X140130646Y-93530276D01*
X140130646Y-93530276D02*
X140225884Y-93435038D01*
X140225884Y-93435038D02*
X140368741Y-93387419D01*
X140368741Y-93387419D02*
X140463979Y-93387419D01*
X140463979Y-93387419D02*
X140606836Y-93435038D01*
X140606836Y-93435038D02*
X140654455Y-93482657D01*
D10*
X145713333Y-119834819D02*
X145380000Y-119358628D01*
X145141905Y-119834819D02*
X145141905Y-118834819D01*
X145141905Y-118834819D02*
X145522857Y-118834819D01*
X145522857Y-118834819D02*
X145618095Y-118882438D01*
X145618095Y-118882438D02*
X145665714Y-118930057D01*
X145665714Y-118930057D02*
X145713333Y-119025295D01*
X145713333Y-119025295D02*
X145713333Y-119168152D01*
X145713333Y-119168152D02*
X145665714Y-119263390D01*
X145665714Y-119263390D02*
X145618095Y-119311009D01*
X145618095Y-119311009D02*
X145522857Y-119358628D01*
X145522857Y-119358628D02*
X145141905Y-119358628D01*
X146094286Y-118930057D02*
X146141905Y-118882438D01*
X146141905Y-118882438D02*
X146237143Y-118834819D01*
X146237143Y-118834819D02*
X146475238Y-118834819D01*
X146475238Y-118834819D02*
X146570476Y-118882438D01*
X146570476Y-118882438D02*
X146618095Y-118930057D01*
X146618095Y-118930057D02*
X146665714Y-119025295D01*
X146665714Y-119025295D02*
X146665714Y-119120533D01*
X146665714Y-119120533D02*
X146618095Y-119263390D01*
X146618095Y-119263390D02*
X146046667Y-119834819D01*
X146046667Y-119834819D02*
X146665714Y-119834819D01*
X119213333Y-129939580D02*
X119165714Y-129987200D01*
X119165714Y-129987200D02*
X119022857Y-130034819D01*
X119022857Y-130034819D02*
X118927619Y-130034819D01*
X118927619Y-130034819D02*
X118784762Y-129987200D01*
X118784762Y-129987200D02*
X118689524Y-129891961D01*
X118689524Y-129891961D02*
X118641905Y-129796723D01*
X118641905Y-129796723D02*
X118594286Y-129606247D01*
X118594286Y-129606247D02*
X118594286Y-129463390D01*
X118594286Y-129463390D02*
X118641905Y-129272914D01*
X118641905Y-129272914D02*
X118689524Y-129177676D01*
X118689524Y-129177676D02*
X118784762Y-129082438D01*
X118784762Y-129082438D02*
X118927619Y-129034819D01*
X118927619Y-129034819D02*
X119022857Y-129034819D01*
X119022857Y-129034819D02*
X119165714Y-129082438D01*
X119165714Y-129082438D02*
X119213333Y-129130057D01*
X120070476Y-129368152D02*
X120070476Y-130034819D01*
X119832381Y-128987200D02*
X119594286Y-129701485D01*
X119594286Y-129701485D02*
X120213333Y-129701485D01*
X131258349Y-124969866D02*
X132058349Y-124969866D01*
X131658349Y-126369866D02*
X131658349Y-124969866D01*
X133258349Y-126369866D02*
X132458349Y-126369866D01*
X132858349Y-126369866D02*
X132858349Y-124969866D01*
X132858349Y-124969866D02*
X132725016Y-125169866D01*
X132725016Y-125169866D02*
X132591683Y-125303200D01*
X132591683Y-125303200D02*
X132458349Y-125369866D01*
X132333037Y-68175177D02*
X132475894Y-68222796D01*
X132475894Y-68222796D02*
X132523513Y-68270415D01*
X132523513Y-68270415D02*
X132571132Y-68365653D01*
X132571132Y-68365653D02*
X132571132Y-68508510D01*
X132571132Y-68508510D02*
X132523513Y-68603748D01*
X132523513Y-68603748D02*
X132475894Y-68651368D01*
X132475894Y-68651368D02*
X132380656Y-68698987D01*
X132380656Y-68698987D02*
X131999704Y-68698987D01*
X131999704Y-68698987D02*
X131999704Y-67698987D01*
X131999704Y-67698987D02*
X132333037Y-67698987D01*
X132333037Y-67698987D02*
X132428275Y-67746606D01*
X132428275Y-67746606D02*
X132475894Y-67794225D01*
X132475894Y-67794225D02*
X132523513Y-67889463D01*
X132523513Y-67889463D02*
X132523513Y-67984701D01*
X132523513Y-67984701D02*
X132475894Y-68079939D01*
X132475894Y-68079939D02*
X132428275Y-68127558D01*
X132428275Y-68127558D02*
X132333037Y-68175177D01*
X132333037Y-68175177D02*
X131999704Y-68175177D01*
X133523513Y-68698987D02*
X132952085Y-68698987D01*
X133237799Y-68698987D02*
X133237799Y-67698987D01*
X133237799Y-67698987D02*
X133142561Y-67841844D01*
X133142561Y-67841844D02*
X133047323Y-67937082D01*
X133047323Y-67937082D02*
X132952085Y-67984701D01*
X153958726Y-124969866D02*
X154758726Y-124969866D01*
X154358726Y-126369866D02*
X154358726Y-124969866D01*
X155158726Y-125103200D02*
X155225393Y-125036533D01*
X155225393Y-125036533D02*
X155358726Y-124969866D01*
X155358726Y-124969866D02*
X155692060Y-124969866D01*
X155692060Y-124969866D02*
X155825393Y-125036533D01*
X155825393Y-125036533D02*
X155892060Y-125103200D01*
X155892060Y-125103200D02*
X155958726Y-125236533D01*
X155958726Y-125236533D02*
X155958726Y-125369866D01*
X155958726Y-125369866D02*
X155892060Y-125569866D01*
X155892060Y-125569866D02*
X155092060Y-126369866D01*
X155092060Y-126369866D02*
X155958726Y-126369866D01*
X110930933Y-122989581D02*
X110883314Y-123037201D01*
X110883314Y-123037201D02*
X110740457Y-123084820D01*
X110740457Y-123084820D02*
X110645219Y-123084820D01*
X110645219Y-123084820D02*
X110502362Y-123037201D01*
X110502362Y-123037201D02*
X110407124Y-122941962D01*
X110407124Y-122941962D02*
X110359505Y-122846724D01*
X110359505Y-122846724D02*
X110311886Y-122656248D01*
X110311886Y-122656248D02*
X110311886Y-122513391D01*
X110311886Y-122513391D02*
X110359505Y-122322915D01*
X110359505Y-122322915D02*
X110407124Y-122227677D01*
X110407124Y-122227677D02*
X110502362Y-122132439D01*
X110502362Y-122132439D02*
X110645219Y-122084820D01*
X110645219Y-122084820D02*
X110740457Y-122084820D01*
X110740457Y-122084820D02*
X110883314Y-122132439D01*
X110883314Y-122132439D02*
X110930933Y-122180058D01*
X111311886Y-122180058D02*
X111359505Y-122132439D01*
X111359505Y-122132439D02*
X111454743Y-122084820D01*
X111454743Y-122084820D02*
X111692838Y-122084820D01*
X111692838Y-122084820D02*
X111788076Y-122132439D01*
X111788076Y-122132439D02*
X111835695Y-122180058D01*
X111835695Y-122180058D02*
X111883314Y-122275296D01*
X111883314Y-122275296D02*
X111883314Y-122370534D01*
X111883314Y-122370534D02*
X111835695Y-122513391D01*
X111835695Y-122513391D02*
X111264267Y-123084820D01*
X111264267Y-123084820D02*
X111883314Y-123084820D01*
X111206666Y-109991168D02*
X111159047Y-110038788D01*
X111159047Y-110038788D02*
X111016190Y-110086407D01*
X111016190Y-110086407D02*
X110920952Y-110086407D01*
X110920952Y-110086407D02*
X110778095Y-110038788D01*
X110778095Y-110038788D02*
X110682857Y-109943549D01*
X110682857Y-109943549D02*
X110635238Y-109848311D01*
X110635238Y-109848311D02*
X110587619Y-109657835D01*
X110587619Y-109657835D02*
X110587619Y-109514978D01*
X110587619Y-109514978D02*
X110635238Y-109324502D01*
X110635238Y-109324502D02*
X110682857Y-109229264D01*
X110682857Y-109229264D02*
X110778095Y-109134026D01*
X110778095Y-109134026D02*
X110920952Y-109086407D01*
X110920952Y-109086407D02*
X111016190Y-109086407D01*
X111016190Y-109086407D02*
X111159047Y-109134026D01*
X111159047Y-109134026D02*
X111206666Y-109181645D01*
X112159047Y-110086407D02*
X111587619Y-110086407D01*
X111873333Y-110086407D02*
X111873333Y-109086407D01*
X111873333Y-109086407D02*
X111778095Y-109229264D01*
X111778095Y-109229264D02*
X111682857Y-109324502D01*
X111682857Y-109324502D02*
X111587619Y-109372121D01*
X135893333Y-119834819D02*
X135560000Y-119358628D01*
X135321905Y-119834819D02*
X135321905Y-118834819D01*
X135321905Y-118834819D02*
X135702857Y-118834819D01*
X135702857Y-118834819D02*
X135798095Y-118882438D01*
X135798095Y-118882438D02*
X135845714Y-118930057D01*
X135845714Y-118930057D02*
X135893333Y-119025295D01*
X135893333Y-119025295D02*
X135893333Y-119168152D01*
X135893333Y-119168152D02*
X135845714Y-119263390D01*
X135845714Y-119263390D02*
X135798095Y-119311009D01*
X135798095Y-119311009D02*
X135702857Y-119358628D01*
X135702857Y-119358628D02*
X135321905Y-119358628D01*
X136845714Y-119834819D02*
X136274286Y-119834819D01*
X136560000Y-119834819D02*
X136560000Y-118834819D01*
X136560000Y-118834819D02*
X136464762Y-118977676D01*
X136464762Y-118977676D02*
X136369524Y-119072914D01*
X136369524Y-119072914D02*
X136274286Y-119120533D01*
X152931905Y-118564819D02*
X152931905Y-117564819D01*
X152931905Y-117564819D02*
X153170000Y-117564819D01*
X153170000Y-117564819D02*
X153312857Y-117612438D01*
X153312857Y-117612438D02*
X153408095Y-117707676D01*
X153408095Y-117707676D02*
X153455714Y-117802914D01*
X153455714Y-117802914D02*
X153503333Y-117993390D01*
X153503333Y-117993390D02*
X153503333Y-118136247D01*
X153503333Y-118136247D02*
X153455714Y-118326723D01*
X153455714Y-118326723D02*
X153408095Y-118421961D01*
X153408095Y-118421961D02*
X153312857Y-118517200D01*
X153312857Y-118517200D02*
X153170000Y-118564819D01*
X153170000Y-118564819D02*
X152931905Y-118564819D01*
X154455714Y-118564819D02*
X153884286Y-118564819D01*
X154170000Y-118564819D02*
X154170000Y-117564819D01*
X154170000Y-117564819D02*
X154074762Y-117707676D01*
X154074762Y-117707676D02*
X153979524Y-117802914D01*
X153979524Y-117802914D02*
X153884286Y-117850533D01*
X153584819Y-115831904D02*
X152584819Y-115831904D01*
X153584819Y-115260476D02*
X153013390Y-115689047D01*
X152584819Y-115260476D02*
X153156247Y-115831904D01*
X155800157Y-69610096D02*
X155943014Y-69657715D01*
X155943014Y-69657715D02*
X155990633Y-69705334D01*
X155990633Y-69705334D02*
X156038252Y-69800572D01*
X156038252Y-69800572D02*
X156038252Y-69943429D01*
X156038252Y-69943429D02*
X155990633Y-70038667D01*
X155990633Y-70038667D02*
X155943014Y-70086287D01*
X155943014Y-70086287D02*
X155847776Y-70133906D01*
X155847776Y-70133906D02*
X155466824Y-70133906D01*
X155466824Y-70133906D02*
X155466824Y-69133906D01*
X155466824Y-69133906D02*
X155800157Y-69133906D01*
X155800157Y-69133906D02*
X155895395Y-69181525D01*
X155895395Y-69181525D02*
X155943014Y-69229144D01*
X155943014Y-69229144D02*
X155990633Y-69324382D01*
X155990633Y-69324382D02*
X155990633Y-69419620D01*
X155990633Y-69419620D02*
X155943014Y-69514858D01*
X155943014Y-69514858D02*
X155895395Y-69562477D01*
X155895395Y-69562477D02*
X155800157Y-69610096D01*
X155800157Y-69610096D02*
X155466824Y-69610096D01*
X156371586Y-69133906D02*
X156990633Y-69133906D01*
X156990633Y-69133906D02*
X156657300Y-69514858D01*
X156657300Y-69514858D02*
X156800157Y-69514858D01*
X156800157Y-69514858D02*
X156895395Y-69562477D01*
X156895395Y-69562477D02*
X156943014Y-69610096D01*
X156943014Y-69610096D02*
X156990633Y-69705334D01*
X156990633Y-69705334D02*
X156990633Y-69943429D01*
X156990633Y-69943429D02*
X156943014Y-70038667D01*
X156943014Y-70038667D02*
X156895395Y-70086287D01*
X156895395Y-70086287D02*
X156800157Y-70133906D01*
X156800157Y-70133906D02*
X156514443Y-70133906D01*
X156514443Y-70133906D02*
X156419205Y-70086287D01*
X156419205Y-70086287D02*
X156371586Y-70038667D01*
X154733810Y-61679819D02*
X155352857Y-61679819D01*
X155352857Y-61679819D02*
X155019524Y-62060771D01*
X155019524Y-62060771D02*
X155162381Y-62060771D01*
X155162381Y-62060771D02*
X155257619Y-62108390D01*
X155257619Y-62108390D02*
X155305238Y-62156009D01*
X155305238Y-62156009D02*
X155352857Y-62251247D01*
X155352857Y-62251247D02*
X155352857Y-62489342D01*
X155352857Y-62489342D02*
X155305238Y-62584580D01*
X155305238Y-62584580D02*
X155257619Y-62632200D01*
X155257619Y-62632200D02*
X155162381Y-62679819D01*
X155162381Y-62679819D02*
X154876667Y-62679819D01*
X154876667Y-62679819D02*
X154781429Y-62632200D01*
X154781429Y-62632200D02*
X154733810Y-62584580D01*
X155781429Y-62584580D02*
X155829048Y-62632200D01*
X155829048Y-62632200D02*
X155781429Y-62679819D01*
X155781429Y-62679819D02*
X155733810Y-62632200D01*
X155733810Y-62632200D02*
X155781429Y-62584580D01*
X155781429Y-62584580D02*
X155781429Y-62679819D01*
X156162381Y-61679819D02*
X156781428Y-61679819D01*
X156781428Y-61679819D02*
X156448095Y-62060771D01*
X156448095Y-62060771D02*
X156590952Y-62060771D01*
X156590952Y-62060771D02*
X156686190Y-62108390D01*
X156686190Y-62108390D02*
X156733809Y-62156009D01*
X156733809Y-62156009D02*
X156781428Y-62251247D01*
X156781428Y-62251247D02*
X156781428Y-62489342D01*
X156781428Y-62489342D02*
X156733809Y-62584580D01*
X156733809Y-62584580D02*
X156686190Y-62632200D01*
X156686190Y-62632200D02*
X156590952Y-62679819D01*
X156590952Y-62679819D02*
X156305238Y-62679819D01*
X156305238Y-62679819D02*
X156210000Y-62632200D01*
X156210000Y-62632200D02*
X156162381Y-62584580D01*
X157067143Y-61679819D02*
X157400476Y-62679819D01*
X157400476Y-62679819D02*
X157733809Y-61679819D01*
X180073333Y-130534580D02*
X180025714Y-130582200D01*
X180025714Y-130582200D02*
X179882857Y-130629819D01*
X179882857Y-130629819D02*
X179787619Y-130629819D01*
X179787619Y-130629819D02*
X179644762Y-130582200D01*
X179644762Y-130582200D02*
X179549524Y-130486961D01*
X179549524Y-130486961D02*
X179501905Y-130391723D01*
X179501905Y-130391723D02*
X179454286Y-130201247D01*
X179454286Y-130201247D02*
X179454286Y-130058390D01*
X179454286Y-130058390D02*
X179501905Y-129867914D01*
X179501905Y-129867914D02*
X179549524Y-129772676D01*
X179549524Y-129772676D02*
X179644762Y-129677438D01*
X179644762Y-129677438D02*
X179787619Y-129629819D01*
X179787619Y-129629819D02*
X179882857Y-129629819D01*
X179882857Y-129629819D02*
X180025714Y-129677438D01*
X180025714Y-129677438D02*
X180073333Y-129725057D01*
X180406667Y-129629819D02*
X181025714Y-129629819D01*
X181025714Y-129629819D02*
X180692381Y-130010771D01*
X180692381Y-130010771D02*
X180835238Y-130010771D01*
X180835238Y-130010771D02*
X180930476Y-130058390D01*
X180930476Y-130058390D02*
X180978095Y-130106009D01*
X180978095Y-130106009D02*
X181025714Y-130201247D01*
X181025714Y-130201247D02*
X181025714Y-130439342D01*
X181025714Y-130439342D02*
X180978095Y-130534580D01*
X180978095Y-130534580D02*
X180930476Y-130582200D01*
X180930476Y-130582200D02*
X180835238Y-130629819D01*
X180835238Y-130629819D02*
X180549524Y-130629819D01*
X180549524Y-130629819D02*
X180454286Y-130582200D01*
X180454286Y-130582200D02*
X180406667Y-130534580D01*
X129305084Y-90539391D02*
X129305084Y-91348914D01*
X129305084Y-91348914D02*
X129352703Y-91444152D01*
X129352703Y-91444152D02*
X129400322Y-91491772D01*
X129400322Y-91491772D02*
X129495560Y-91539391D01*
X129495560Y-91539391D02*
X129686036Y-91539391D01*
X129686036Y-91539391D02*
X129781274Y-91491772D01*
X129781274Y-91491772D02*
X129828893Y-91444152D01*
X129828893Y-91444152D02*
X129876512Y-91348914D01*
X129876512Y-91348914D02*
X129876512Y-90539391D01*
X130257465Y-90539391D02*
X130876512Y-90539391D01*
X130876512Y-90539391D02*
X130543179Y-90920343D01*
X130543179Y-90920343D02*
X130686036Y-90920343D01*
X130686036Y-90920343D02*
X130781274Y-90967962D01*
X130781274Y-90967962D02*
X130828893Y-91015581D01*
X130828893Y-91015581D02*
X130876512Y-91110819D01*
X130876512Y-91110819D02*
X130876512Y-91348914D01*
X130876512Y-91348914D02*
X130828893Y-91444152D01*
X130828893Y-91444152D02*
X130781274Y-91491772D01*
X130781274Y-91491772D02*
X130686036Y-91539391D01*
X130686036Y-91539391D02*
X130400322Y-91539391D01*
X130400322Y-91539391D02*
X130305084Y-91491772D01*
X130305084Y-91491772D02*
X130257465Y-91444152D01*
X173228095Y-88989819D02*
X173228095Y-89799342D01*
X173228095Y-89799342D02*
X173275714Y-89894580D01*
X173275714Y-89894580D02*
X173323333Y-89942200D01*
X173323333Y-89942200D02*
X173418571Y-89989819D01*
X173418571Y-89989819D02*
X173609047Y-89989819D01*
X173609047Y-89989819D02*
X173704285Y-89942200D01*
X173704285Y-89942200D02*
X173751904Y-89894580D01*
X173751904Y-89894580D02*
X173799523Y-89799342D01*
X173799523Y-89799342D02*
X173799523Y-88989819D01*
X174799523Y-89989819D02*
X174228095Y-89989819D01*
X174513809Y-89989819D02*
X174513809Y-88989819D01*
X174513809Y-88989819D02*
X174418571Y-89132676D01*
X174418571Y-89132676D02*
X174323333Y-89227914D01*
X174323333Y-89227914D02*
X174228095Y-89275533D01*
D13*
%TO.C,B2*%
X149800000Y-66040000D02*
X149800000Y-68640000D01*
X149800000Y-66040000D02*
X152460000Y-66040000D01*
X149800000Y-68640000D02*
X152460000Y-68640000D01*
X151130000Y-63440000D02*
X152460000Y-63440000D01*
X152460000Y-63440000D02*
X152460000Y-64770000D01*
X152460000Y-66040000D02*
X152460000Y-68640000D01*
D12*
%TO.C,U5*%
X155294000Y-109651500D02*
X167594000Y-109651500D01*
X167594000Y-109651500D02*
X167594000Y-92151500D01*
X167594000Y-92151500D02*
X155294000Y-92151500D01*
X155294000Y-92151500D02*
X155294000Y-109651500D01*
D13*
%TO.C,B4*%
X159960000Y-66040000D02*
X159960000Y-68640000D01*
X159960000Y-66040000D02*
X162620000Y-66040000D01*
X159960000Y-68640000D02*
X162620000Y-68640000D01*
X161290000Y-63440000D02*
X162620000Y-63440000D01*
X162620000Y-63440000D02*
X162620000Y-64770000D01*
X162620000Y-66040000D02*
X162620000Y-68640000D01*
D12*
%TO.C,U4*%
X135510000Y-113483000D02*
X151510000Y-113483000D01*
X151510000Y-113483000D02*
X151510000Y-92483000D01*
X151510000Y-92483000D02*
X135510000Y-92483000D01*
X135510000Y-92483000D02*
X135510000Y-113483000D01*
D13*
%TO.C,R2*%
X144880000Y-116110000D02*
X144880000Y-122650000D01*
X144550000Y-116110000D02*
X144880000Y-116110000D01*
X142470000Y-116110000D02*
X142140000Y-116110000D01*
X142140000Y-116110000D02*
X142140000Y-122650000D01*
X144880000Y-122650000D02*
X144550000Y-122650000D01*
X142140000Y-122650000D02*
X142470000Y-122650000D01*
%TO.C,C4*%
X115905000Y-124100354D02*
X115905000Y-125100354D01*
X116405000Y-124600354D02*
X115405000Y-124600354D01*
X118110000Y-129580000D02*
X107950000Y-129580000D01*
X118110000Y-129620000D02*
X107950000Y-129620000D01*
X118110000Y-129660000D02*
X107950000Y-129660000D01*
X118109000Y-129700000D02*
X107951000Y-129700000D01*
X118108000Y-129740000D02*
X107952000Y-129740000D01*
X118107000Y-129780000D02*
X107953000Y-129780000D01*
X118105000Y-129820000D02*
X107955000Y-129820000D01*
X118103000Y-129860000D02*
X107957000Y-129860000D01*
X118100000Y-129900000D02*
X107960000Y-129900000D01*
X118098000Y-129940000D02*
X107962000Y-129940000D01*
X118095000Y-129980000D02*
X107965000Y-129980000D01*
X118092000Y-130020000D02*
X107968000Y-130020000D01*
X118088000Y-130060000D02*
X107972000Y-130060000D01*
X118084000Y-130100000D02*
X107976000Y-130100000D01*
X118080000Y-130140000D02*
X107980000Y-130140000D01*
X118075000Y-130180000D02*
X107985000Y-130180000D01*
X118070000Y-130220000D02*
X107990000Y-130220000D01*
X118065000Y-130260000D02*
X107995000Y-130260000D01*
X118060000Y-130301000D02*
X108000000Y-130301000D01*
X118054000Y-130341000D02*
X108006000Y-130341000D01*
X118048000Y-130381000D02*
X108012000Y-130381000D01*
X118041000Y-130421000D02*
X108019000Y-130421000D01*
X118034000Y-130461000D02*
X108026000Y-130461000D01*
X118027000Y-130501000D02*
X108033000Y-130501000D01*
X118020000Y-130541000D02*
X108040000Y-130541000D01*
X118012000Y-130581000D02*
X108048000Y-130581000D01*
X118004000Y-130621000D02*
X108056000Y-130621000D01*
X117995000Y-130661000D02*
X108065000Y-130661000D01*
X117986000Y-130701000D02*
X108074000Y-130701000D01*
X117977000Y-130741000D02*
X108083000Y-130741000D01*
X117968000Y-130781000D02*
X108092000Y-130781000D01*
X117958000Y-130821000D02*
X108102000Y-130821000D01*
X117948000Y-130861000D02*
X114271000Y-130861000D01*
X111789000Y-130861000D02*
X108112000Y-130861000D01*
X117937000Y-130901000D02*
X114271000Y-130901000D01*
X111789000Y-130901000D02*
X108123000Y-130901000D01*
X117927000Y-130941000D02*
X114271000Y-130941000D01*
X111789000Y-130941000D02*
X108133000Y-130941000D01*
X117915000Y-130981000D02*
X114271000Y-130981000D01*
X111789000Y-130981000D02*
X108145000Y-130981000D01*
X117904000Y-131021000D02*
X114271000Y-131021000D01*
X111789000Y-131021000D02*
X108156000Y-131021000D01*
X117892000Y-131061000D02*
X114271000Y-131061000D01*
X111789000Y-131061000D02*
X108168000Y-131061000D01*
X117880000Y-131101000D02*
X114271000Y-131101000D01*
X111789000Y-131101000D02*
X108180000Y-131101000D01*
X117867000Y-131141000D02*
X114271000Y-131141000D01*
X111789000Y-131141000D02*
X108193000Y-131141000D01*
X117854000Y-131181000D02*
X114271000Y-131181000D01*
X111789000Y-131181000D02*
X108206000Y-131181000D01*
X117841000Y-131221000D02*
X114271000Y-131221000D01*
X111789000Y-131221000D02*
X108219000Y-131221000D01*
X117827000Y-131261000D02*
X114271000Y-131261000D01*
X111789000Y-131261000D02*
X108233000Y-131261000D01*
X117813000Y-131301000D02*
X114271000Y-131301000D01*
X111789000Y-131301000D02*
X108247000Y-131301000D01*
X117798000Y-131341000D02*
X114271000Y-131341000D01*
X111789000Y-131341000D02*
X108262000Y-131341000D01*
X117784000Y-131381000D02*
X114271000Y-131381000D01*
X111789000Y-131381000D02*
X108276000Y-131381000D01*
X117768000Y-131421000D02*
X114271000Y-131421000D01*
X111789000Y-131421000D02*
X108292000Y-131421000D01*
X117753000Y-131461000D02*
X114271000Y-131461000D01*
X111789000Y-131461000D02*
X108307000Y-131461000D01*
X117737000Y-131501000D02*
X114271000Y-131501000D01*
X111789000Y-131501000D02*
X108323000Y-131501000D01*
X117720000Y-131541000D02*
X114271000Y-131541000D01*
X111789000Y-131541000D02*
X108340000Y-131541000D01*
X117704000Y-131581000D02*
X114271000Y-131581000D01*
X111789000Y-131581000D02*
X108356000Y-131581000D01*
X117687000Y-131621000D02*
X114271000Y-131621000D01*
X111789000Y-131621000D02*
X108373000Y-131621000D01*
X117669000Y-131661000D02*
X114271000Y-131661000D01*
X111789000Y-131661000D02*
X108391000Y-131661000D01*
X117651000Y-131701000D02*
X114271000Y-131701000D01*
X111789000Y-131701000D02*
X108409000Y-131701000D01*
X117633000Y-131741000D02*
X114271000Y-131741000D01*
X111789000Y-131741000D02*
X108427000Y-131741000D01*
X117614000Y-131781000D02*
X114271000Y-131781000D01*
X111789000Y-131781000D02*
X108446000Y-131781000D01*
X117594000Y-131821000D02*
X114271000Y-131821000D01*
X111789000Y-131821000D02*
X108466000Y-131821000D01*
X117575000Y-131861000D02*
X114271000Y-131861000D01*
X111789000Y-131861000D02*
X108485000Y-131861000D01*
X117555000Y-131901000D02*
X114271000Y-131901000D01*
X111789000Y-131901000D02*
X108505000Y-131901000D01*
X117534000Y-131941000D02*
X114271000Y-131941000D01*
X111789000Y-131941000D02*
X108526000Y-131941000D01*
X117513000Y-131981000D02*
X114271000Y-131981000D01*
X111789000Y-131981000D02*
X108547000Y-131981000D01*
X117492000Y-132021000D02*
X114271000Y-132021000D01*
X111789000Y-132021000D02*
X108568000Y-132021000D01*
X117470000Y-132061000D02*
X114271000Y-132061000D01*
X111789000Y-132061000D02*
X108590000Y-132061000D01*
X117447000Y-132101000D02*
X114271000Y-132101000D01*
X111789000Y-132101000D02*
X108613000Y-132101000D01*
X117425000Y-132141000D02*
X114271000Y-132141000D01*
X111789000Y-132141000D02*
X108635000Y-132141000D01*
X117401000Y-132181000D02*
X114271000Y-132181000D01*
X111789000Y-132181000D02*
X108659000Y-132181000D01*
X117377000Y-132221000D02*
X114271000Y-132221000D01*
X111789000Y-132221000D02*
X108683000Y-132221000D01*
X117353000Y-132261000D02*
X114271000Y-132261000D01*
X111789000Y-132261000D02*
X108707000Y-132261000D01*
X117328000Y-132301000D02*
X114271000Y-132301000D01*
X111789000Y-132301000D02*
X108732000Y-132301000D01*
X117303000Y-132341000D02*
X114271000Y-132341000D01*
X111789000Y-132341000D02*
X108757000Y-132341000D01*
X117277000Y-132381000D02*
X114271000Y-132381000D01*
X111789000Y-132381000D02*
X108783000Y-132381000D01*
X117251000Y-132421000D02*
X114271000Y-132421000D01*
X111789000Y-132421000D02*
X108809000Y-132421000D01*
X117224000Y-132461000D02*
X114271000Y-132461000D01*
X111789000Y-132461000D02*
X108836000Y-132461000D01*
X117196000Y-132501000D02*
X114271000Y-132501000D01*
X111789000Y-132501000D02*
X108864000Y-132501000D01*
X117168000Y-132541000D02*
X114271000Y-132541000D01*
X111789000Y-132541000D02*
X108892000Y-132541000D01*
X117140000Y-132581000D02*
X114271000Y-132581000D01*
X111789000Y-132581000D02*
X108920000Y-132581000D01*
X117110000Y-132621000D02*
X114271000Y-132621000D01*
X111789000Y-132621000D02*
X108950000Y-132621000D01*
X117080000Y-132661000D02*
X114271000Y-132661000D01*
X111789000Y-132661000D02*
X108980000Y-132661000D01*
X117050000Y-132701000D02*
X114271000Y-132701000D01*
X111789000Y-132701000D02*
X109010000Y-132701000D01*
X117019000Y-132741000D02*
X114271000Y-132741000D01*
X111789000Y-132741000D02*
X109041000Y-132741000D01*
X116987000Y-132781000D02*
X114271000Y-132781000D01*
X111789000Y-132781000D02*
X109073000Y-132781000D01*
X116955000Y-132821000D02*
X114271000Y-132821000D01*
X111789000Y-132821000D02*
X109105000Y-132821000D01*
X116922000Y-132861000D02*
X114271000Y-132861000D01*
X111789000Y-132861000D02*
X109138000Y-132861000D01*
X116888000Y-132901000D02*
X114271000Y-132901000D01*
X111789000Y-132901000D02*
X109172000Y-132901000D01*
X116854000Y-132941000D02*
X114271000Y-132941000D01*
X111789000Y-132941000D02*
X109206000Y-132941000D01*
X116819000Y-132981000D02*
X114271000Y-132981000D01*
X111789000Y-132981000D02*
X109241000Y-132981000D01*
X116783000Y-133021000D02*
X114271000Y-133021000D01*
X111789000Y-133021000D02*
X109277000Y-133021000D01*
X116746000Y-133061000D02*
X114271000Y-133061000D01*
X111789000Y-133061000D02*
X109314000Y-133061000D01*
X116709000Y-133101000D02*
X114271000Y-133101000D01*
X111789000Y-133101000D02*
X109351000Y-133101000D01*
X116670000Y-133141000D02*
X114271000Y-133141000D01*
X111789000Y-133141000D02*
X109390000Y-133141000D01*
X116631000Y-133181000D02*
X114271000Y-133181000D01*
X111789000Y-133181000D02*
X109429000Y-133181000D01*
X116591000Y-133221000D02*
X114271000Y-133221000D01*
X111789000Y-133221000D02*
X109469000Y-133221000D01*
X116550000Y-133261000D02*
X114271000Y-133261000D01*
X111789000Y-133261000D02*
X109510000Y-133261000D01*
X116508000Y-133301000D02*
X114271000Y-133301000D01*
X111789000Y-133301000D02*
X109552000Y-133301000D01*
X116466000Y-133341000D02*
X109594000Y-133341000D01*
X116422000Y-133381000D02*
X109638000Y-133381000D01*
X116377000Y-133421000D02*
X109683000Y-133421000D01*
X116331000Y-133461000D02*
X109729000Y-133461000D01*
X116284000Y-133501000D02*
X109776000Y-133501000D01*
X116236000Y-133541000D02*
X109824000Y-133541000D01*
X116186000Y-133581000D02*
X109874000Y-133581000D01*
X116136000Y-133621000D02*
X109924000Y-133621000D01*
X116084000Y-133661000D02*
X109976000Y-133661000D01*
X116030000Y-133701000D02*
X110030000Y-133701000D01*
X115975000Y-133741000D02*
X110085000Y-133741000D01*
X115919000Y-133781000D02*
X110141000Y-133781000D01*
X115860000Y-133821000D02*
X110200000Y-133821000D01*
X115800000Y-133861000D02*
X110260000Y-133861000D01*
X115739000Y-133901000D02*
X110321000Y-133901000D01*
X115675000Y-133941000D02*
X110385000Y-133941000D01*
X115609000Y-133981000D02*
X110451000Y-133981000D01*
X115540000Y-134021000D02*
X110520000Y-134021000D01*
X115469000Y-134061000D02*
X110591000Y-134061000D01*
X115395000Y-134101000D02*
X110665000Y-134101000D01*
X115319000Y-134141000D02*
X110741000Y-134141000D01*
X115239000Y-134181000D02*
X110821000Y-134181000D01*
X115155000Y-134221000D02*
X110905000Y-134221000D01*
X115067000Y-134261000D02*
X110993000Y-134261000D01*
X114974000Y-134301000D02*
X111086000Y-134301000D01*
X114876000Y-134341000D02*
X111184000Y-134341000D01*
X114772000Y-134381000D02*
X111288000Y-134381000D01*
X114660000Y-134421000D02*
X111400000Y-134421000D01*
X114540000Y-134461000D02*
X111520000Y-134461000D01*
X114408000Y-134501000D02*
X111652000Y-134501000D01*
X114260000Y-134541000D02*
X111800000Y-134541000D01*
X114092000Y-134581000D02*
X111968000Y-134581000D01*
X113892000Y-134621000D02*
X112168000Y-134621000D01*
X113629000Y-134661000D02*
X112431000Y-134661000D01*
X118150000Y-129580000D02*
G75*
G03*
X118150000Y-129580000I-5120000J0D01*
G01*
D14*
%TO.C,T1*%
X124460000Y-127512500D02*
X139700000Y-127512500D01*
X124460000Y-140112500D02*
X124460000Y-127512500D01*
X139700000Y-127512500D02*
X139700000Y-140112500D01*
X139700000Y-140112500D02*
X124460000Y-140112500D01*
D13*
%TO.C,B1*%
X123825000Y-67370000D02*
X141665000Y-67370000D01*
X123825000Y-67370000D02*
X123825000Y-64710000D01*
X141665000Y-67370000D02*
X141665000Y-64710000D01*
X123825000Y-64710000D02*
X141665000Y-64710000D01*
D14*
%TO.C,T2*%
X147320000Y-127512500D02*
X162560000Y-127512500D01*
X147320000Y-140112500D02*
X147320000Y-127512500D01*
X162560000Y-127512500D02*
X162560000Y-140112500D01*
X162560000Y-140112500D02*
X147320000Y-140112500D01*
D13*
%TO.C,C2*%
X113367401Y-120575001D02*
X112967401Y-120575001D01*
X113167401Y-120775001D02*
X113167401Y-120375001D01*
X111097600Y-121460001D02*
X111097600Y-117300001D01*
X111057600Y-121460001D02*
X111057600Y-117300001D01*
X111017600Y-121459001D02*
X111017600Y-117301001D01*
X110977600Y-121457001D02*
X110977600Y-117303001D01*
X110937600Y-121454001D02*
X110937600Y-117306001D01*
X110897600Y-121451001D02*
X110897600Y-120220001D01*
X110897600Y-118540001D02*
X110897600Y-117309001D01*
X110857600Y-121447001D02*
X110857600Y-120220001D01*
X110857600Y-118540001D02*
X110857600Y-117313001D01*
X110817600Y-121442001D02*
X110817600Y-120220001D01*
X110817600Y-118540001D02*
X110817600Y-117318001D01*
X110777600Y-121436001D02*
X110777600Y-120220001D01*
X110777600Y-118540001D02*
X110777600Y-117324001D01*
X110737600Y-121430001D02*
X110737600Y-120220001D01*
X110737600Y-118540001D02*
X110737600Y-117330001D01*
X110697600Y-121422001D02*
X110697600Y-120220001D01*
X110697600Y-118540001D02*
X110697600Y-117338001D01*
X110657600Y-121414001D02*
X110657600Y-120220001D01*
X110657600Y-118540001D02*
X110657600Y-117346001D01*
X110617600Y-121405001D02*
X110617600Y-120220001D01*
X110617600Y-118540001D02*
X110617600Y-117355001D01*
X110577600Y-121396001D02*
X110577600Y-120220001D01*
X110577600Y-118540001D02*
X110577600Y-117364001D01*
X110537600Y-121385001D02*
X110537600Y-120220001D01*
X110537600Y-118540001D02*
X110537600Y-117375001D01*
X110497600Y-121374001D02*
X110497600Y-120220001D01*
X110497600Y-118540001D02*
X110497600Y-117386001D01*
X110457600Y-121362001D02*
X110457600Y-120220001D01*
X110457600Y-118540001D02*
X110457600Y-117398001D01*
X110417600Y-121348001D02*
X110417600Y-120220001D01*
X110417600Y-118540001D02*
X110417600Y-117412001D01*
X110376600Y-121334001D02*
X110376600Y-120220001D01*
X110376600Y-118540001D02*
X110376600Y-117426001D01*
X110336600Y-121320001D02*
X110336600Y-120220001D01*
X110336600Y-118540001D02*
X110336600Y-117440001D01*
X110296600Y-121304001D02*
X110296600Y-120220001D01*
X110296600Y-118540001D02*
X110296600Y-117456001D01*
X110256600Y-121287001D02*
X110256600Y-120220001D01*
X110256600Y-118540001D02*
X110256600Y-117473001D01*
X110216600Y-121269001D02*
X110216600Y-120220001D01*
X110216600Y-118540001D02*
X110216600Y-117491001D01*
X110176600Y-121250001D02*
X110176600Y-120220001D01*
X110176600Y-118540001D02*
X110176600Y-117510001D01*
X110136600Y-121231001D02*
X110136600Y-120220001D01*
X110136600Y-118540001D02*
X110136600Y-117529001D01*
X110096600Y-121210001D02*
X110096600Y-120220001D01*
X110096600Y-118540001D02*
X110096600Y-117550001D01*
X110056600Y-121188001D02*
X110056600Y-120220001D01*
X110056600Y-118540001D02*
X110056600Y-117572001D01*
X110016600Y-121165001D02*
X110016600Y-120220001D01*
X110016600Y-118540001D02*
X110016600Y-117595001D01*
X109976600Y-121140001D02*
X109976600Y-120220001D01*
X109976600Y-118540001D02*
X109976600Y-117620001D01*
X109936600Y-121115001D02*
X109936600Y-120220001D01*
X109936600Y-118540001D02*
X109936600Y-117645001D01*
X109896600Y-121088001D02*
X109896600Y-120220001D01*
X109896600Y-118540001D02*
X109896600Y-117672001D01*
X109856600Y-121060001D02*
X109856600Y-120220001D01*
X109856600Y-118540001D02*
X109856600Y-117700001D01*
X109816600Y-121030001D02*
X109816600Y-120220001D01*
X109816600Y-118540001D02*
X109816600Y-117730001D01*
X109776600Y-120999001D02*
X109776600Y-120220001D01*
X109776600Y-118540001D02*
X109776600Y-117761001D01*
X109736600Y-120967001D02*
X109736600Y-120220001D01*
X109736600Y-118540001D02*
X109736600Y-117793001D01*
X109696600Y-120932001D02*
X109696600Y-120220001D01*
X109696600Y-118540001D02*
X109696600Y-117828001D01*
X109656600Y-120896001D02*
X109656600Y-120220001D01*
X109656600Y-118540001D02*
X109656600Y-117864001D01*
X109616600Y-120858001D02*
X109616600Y-120220001D01*
X109616600Y-118540001D02*
X109616600Y-117902001D01*
X109576600Y-120818001D02*
X109576600Y-120220001D01*
X109576600Y-118540001D02*
X109576600Y-117942001D01*
X109536600Y-120776001D02*
X109536600Y-120220001D01*
X109536600Y-118540001D02*
X109536600Y-117984001D01*
X109496600Y-120731001D02*
X109496600Y-120220001D01*
X109496600Y-118540001D02*
X109496600Y-118029001D01*
X109456600Y-120684001D02*
X109456600Y-120220001D01*
X109456600Y-118540001D02*
X109456600Y-118076001D01*
X109416600Y-120634001D02*
X109416600Y-120220001D01*
X109416600Y-118540001D02*
X109416600Y-118126001D01*
X109376600Y-120580001D02*
X109376600Y-120220001D01*
X109376600Y-118540001D02*
X109376600Y-118180001D01*
X109336600Y-120522001D02*
X109336600Y-120220001D01*
X109336600Y-118540001D02*
X109336600Y-118238001D01*
X109296600Y-120460001D02*
X109296600Y-120220001D01*
X109296600Y-118540001D02*
X109296600Y-118300001D01*
X109256600Y-120393001D02*
X109256600Y-118367001D01*
X109216600Y-120320001D02*
X109216600Y-118440001D01*
X109176600Y-120239001D02*
X109176600Y-118521001D01*
X109136600Y-120148001D02*
X109136600Y-118612001D01*
X109096600Y-120044001D02*
X109096600Y-118716001D01*
X109056600Y-119917001D02*
X109056600Y-118843001D01*
X109016600Y-119750001D02*
X109016600Y-119010001D01*
X113217600Y-119380001D02*
G75*
G03*
X113217600Y-119380001I-2120000J0D01*
G01*
%TO.C,C1*%
X114199775Y-114600000D02*
X113699775Y-114600000D01*
X113949775Y-114850000D02*
X113949775Y-114350000D01*
X111395000Y-115705000D02*
X111395000Y-114165000D01*
X111395000Y-112085000D02*
X111395000Y-110545000D01*
X111355000Y-115705000D02*
X111355000Y-114165000D01*
X111355000Y-112085000D02*
X111355000Y-110545000D01*
X111315000Y-115704000D02*
X111315000Y-114165000D01*
X111315000Y-112085000D02*
X111315000Y-110546000D01*
X111275000Y-115703000D02*
X111275000Y-114165000D01*
X111275000Y-112085000D02*
X111275000Y-110547000D01*
X111235000Y-115701000D02*
X111235000Y-114165000D01*
X111235000Y-112085000D02*
X111235000Y-110549000D01*
X111195000Y-115698000D02*
X111195000Y-114165000D01*
X111195000Y-112085000D02*
X111195000Y-110552000D01*
X111155000Y-115694000D02*
X111155000Y-114165000D01*
X111155000Y-112085000D02*
X111155000Y-110556000D01*
X111115000Y-115690000D02*
X111115000Y-114165000D01*
X111115000Y-112085000D02*
X111115000Y-110560000D01*
X111075000Y-115686000D02*
X111075000Y-114165000D01*
X111075000Y-112085000D02*
X111075000Y-110564000D01*
X111035000Y-115681000D02*
X111035000Y-114165000D01*
X111035000Y-112085000D02*
X111035000Y-110569000D01*
X110995000Y-115675000D02*
X110995000Y-114165000D01*
X110995000Y-112085000D02*
X110995000Y-110575000D01*
X110955000Y-115668000D02*
X110955000Y-114165000D01*
X110955000Y-112085000D02*
X110955000Y-110582000D01*
X110915000Y-115661000D02*
X110915000Y-114165000D01*
X110915000Y-112085000D02*
X110915000Y-110589000D01*
X110875000Y-115653000D02*
X110875000Y-114165000D01*
X110875000Y-112085000D02*
X110875000Y-110597000D01*
X110835000Y-115645000D02*
X110835000Y-114165000D01*
X110835000Y-112085000D02*
X110835000Y-110605000D01*
X110795000Y-115636000D02*
X110795000Y-114165000D01*
X110795000Y-112085000D02*
X110795000Y-110614000D01*
X110755000Y-115626000D02*
X110755000Y-114165000D01*
X110755000Y-112085000D02*
X110755000Y-110624000D01*
X110715000Y-115616000D02*
X110715000Y-114165000D01*
X110715000Y-112085000D02*
X110715000Y-110634000D01*
X110674000Y-115605000D02*
X110674000Y-114165000D01*
X110674000Y-112085000D02*
X110674000Y-110645000D01*
X110634000Y-115593000D02*
X110634000Y-114165000D01*
X110634000Y-112085000D02*
X110634000Y-110657000D01*
X110594000Y-115580000D02*
X110594000Y-114165000D01*
X110594000Y-112085000D02*
X110594000Y-110670000D01*
X110554000Y-115567000D02*
X110554000Y-114165000D01*
X110554000Y-112085000D02*
X110554000Y-110683000D01*
X110514000Y-115553000D02*
X110514000Y-114165000D01*
X110514000Y-112085000D02*
X110514000Y-110697000D01*
X110474000Y-115539000D02*
X110474000Y-114165000D01*
X110474000Y-112085000D02*
X110474000Y-110711000D01*
X110434000Y-115523000D02*
X110434000Y-114165000D01*
X110434000Y-112085000D02*
X110434000Y-110727000D01*
X110394000Y-115507000D02*
X110394000Y-114165000D01*
X110394000Y-112085000D02*
X110394000Y-110743000D01*
X110354000Y-115490000D02*
X110354000Y-114165000D01*
X110354000Y-112085000D02*
X110354000Y-110760000D01*
X110314000Y-115473000D02*
X110314000Y-114165000D01*
X110314000Y-112085000D02*
X110314000Y-110777000D01*
X110274000Y-115454000D02*
X110274000Y-114165000D01*
X110274000Y-112085000D02*
X110274000Y-110796000D01*
X110234000Y-115435000D02*
X110234000Y-114165000D01*
X110234000Y-112085000D02*
X110234000Y-110815000D01*
X110194000Y-115415000D02*
X110194000Y-114165000D01*
X110194000Y-112085000D02*
X110194000Y-110835000D01*
X110154000Y-115393000D02*
X110154000Y-114165000D01*
X110154000Y-112085000D02*
X110154000Y-110857000D01*
X110114000Y-115372000D02*
X110114000Y-114165000D01*
X110114000Y-112085000D02*
X110114000Y-110878000D01*
X110074000Y-115349000D02*
X110074000Y-114165000D01*
X110074000Y-112085000D02*
X110074000Y-110901000D01*
X110034000Y-115325000D02*
X110034000Y-114165000D01*
X110034000Y-112085000D02*
X110034000Y-110925000D01*
X109994000Y-115300000D02*
X109994000Y-114165000D01*
X109994000Y-112085000D02*
X109994000Y-110950000D01*
X109954000Y-115274000D02*
X109954000Y-114165000D01*
X109954000Y-112085000D02*
X109954000Y-110976000D01*
X109914000Y-115247000D02*
X109914000Y-114165000D01*
X109914000Y-112085000D02*
X109914000Y-111003000D01*
X109874000Y-115220000D02*
X109874000Y-114165000D01*
X109874000Y-112085000D02*
X109874000Y-111030000D01*
X109834000Y-115190000D02*
X109834000Y-114165000D01*
X109834000Y-112085000D02*
X109834000Y-111060000D01*
X109794000Y-115160000D02*
X109794000Y-114165000D01*
X109794000Y-112085000D02*
X109794000Y-111090000D01*
X109754000Y-115129000D02*
X109754000Y-114165000D01*
X109754000Y-112085000D02*
X109754000Y-111121000D01*
X109714000Y-115096000D02*
X109714000Y-114165000D01*
X109714000Y-112085000D02*
X109714000Y-111154000D01*
X109674000Y-115062000D02*
X109674000Y-114165000D01*
X109674000Y-112085000D02*
X109674000Y-111188000D01*
X109634000Y-115026000D02*
X109634000Y-114165000D01*
X109634000Y-112085000D02*
X109634000Y-111224000D01*
X109594000Y-114989000D02*
X109594000Y-114165000D01*
X109594000Y-112085000D02*
X109594000Y-111261000D01*
X109554000Y-114951000D02*
X109554000Y-114165000D01*
X109554000Y-112085000D02*
X109554000Y-111299000D01*
X109514000Y-114910000D02*
X109514000Y-114165000D01*
X109514000Y-112085000D02*
X109514000Y-111340000D01*
X109474000Y-114868000D02*
X109474000Y-114165000D01*
X109474000Y-112085000D02*
X109474000Y-111382000D01*
X109434000Y-114824000D02*
X109434000Y-114165000D01*
X109434000Y-112085000D02*
X109434000Y-111426000D01*
X109394000Y-114778000D02*
X109394000Y-114165000D01*
X109394000Y-112085000D02*
X109394000Y-111472000D01*
X109354000Y-114730000D02*
X109354000Y-111520000D01*
X109314000Y-114679000D02*
X109314000Y-111571000D01*
X109274000Y-114625000D02*
X109274000Y-111625000D01*
X109234000Y-114568000D02*
X109234000Y-111682000D01*
X109194000Y-114508000D02*
X109194000Y-111742000D01*
X109154000Y-114444000D02*
X109154000Y-111806000D01*
X109114000Y-114376000D02*
X109114000Y-111874000D01*
X109074000Y-114303000D02*
X109074000Y-111947000D01*
X109034000Y-114223000D02*
X109034000Y-112027000D01*
X108994000Y-114136000D02*
X108994000Y-112114000D01*
X108954000Y-114040000D02*
X108954000Y-112210000D01*
X108914000Y-113930000D02*
X108914000Y-112320000D01*
X108874000Y-113802000D02*
X108874000Y-112448000D01*
X108834000Y-113643000D02*
X108834000Y-112607000D01*
X108794000Y-113409000D02*
X108794000Y-112841000D01*
X114015000Y-113125000D02*
G75*
G03*
X114015000Y-113125000I-2620000J0D01*
G01*
%TO.C,R1*%
X137060000Y-122650000D02*
X137060000Y-116110000D01*
X137390000Y-122650000D02*
X137060000Y-122650000D01*
X139470000Y-122650000D02*
X139800000Y-122650000D01*
X139800000Y-122650000D02*
X139800000Y-116110000D01*
X137060000Y-116110000D02*
X137390000Y-116110000D01*
X139800000Y-116110000D02*
X139470000Y-116110000D01*
%TO.C,D1*%
X152550000Y-116390000D02*
X152550000Y-119830000D01*
X152370000Y-116390000D02*
X152550000Y-116390000D01*
X149890000Y-116390000D02*
X149710000Y-116390000D01*
X149710000Y-116390000D02*
X149710000Y-119830000D01*
X152550000Y-116870000D02*
X149710000Y-116870000D01*
X152550000Y-116990000D02*
X149710000Y-116990000D01*
X152550000Y-117110000D02*
X149710000Y-117110000D01*
X152550000Y-119830000D02*
X152370000Y-119830000D01*
X149710000Y-119830000D02*
X149890000Y-119830000D01*
%TO.C,B3*%
X154880000Y-66035000D02*
X154880000Y-68635000D01*
X154880000Y-66035000D02*
X157540000Y-66035000D01*
X154880000Y-68635000D02*
X157540000Y-68635000D01*
X156210000Y-63435000D02*
X157540000Y-63435000D01*
X157540000Y-63435000D02*
X157540000Y-64765000D01*
X157540000Y-66035000D02*
X157540000Y-68635000D01*
%TO.C,C3*%
X176865000Y-124100354D02*
X176865000Y-125100354D01*
X177365000Y-124600354D02*
X176365000Y-124600354D01*
X179070000Y-129580000D02*
X168910000Y-129580000D01*
X179070000Y-129620000D02*
X168910000Y-129620000D01*
X179070000Y-129660000D02*
X168910000Y-129660000D01*
X179069000Y-129700000D02*
X168911000Y-129700000D01*
X179068000Y-129740000D02*
X168912000Y-129740000D01*
X179067000Y-129780000D02*
X168913000Y-129780000D01*
X179065000Y-129820000D02*
X168915000Y-129820000D01*
X179063000Y-129860000D02*
X168917000Y-129860000D01*
X179060000Y-129900000D02*
X168920000Y-129900000D01*
X179058000Y-129940000D02*
X168922000Y-129940000D01*
X179055000Y-129980000D02*
X168925000Y-129980000D01*
X179052000Y-130020000D02*
X168928000Y-130020000D01*
X179048000Y-130060000D02*
X168932000Y-130060000D01*
X179044000Y-130100000D02*
X168936000Y-130100000D01*
X179040000Y-130140000D02*
X168940000Y-130140000D01*
X179035000Y-130180000D02*
X168945000Y-130180000D01*
X179030000Y-130220000D02*
X168950000Y-130220000D01*
X179025000Y-130260000D02*
X168955000Y-130260000D01*
X179020000Y-130301000D02*
X168960000Y-130301000D01*
X179014000Y-130341000D02*
X168966000Y-130341000D01*
X179008000Y-130381000D02*
X168972000Y-130381000D01*
X179001000Y-130421000D02*
X168979000Y-130421000D01*
X178994000Y-130461000D02*
X168986000Y-130461000D01*
X178987000Y-130501000D02*
X168993000Y-130501000D01*
X178980000Y-130541000D02*
X169000000Y-130541000D01*
X178972000Y-130581000D02*
X169008000Y-130581000D01*
X178964000Y-130621000D02*
X169016000Y-130621000D01*
X178955000Y-130661000D02*
X169025000Y-130661000D01*
X178946000Y-130701000D02*
X169034000Y-130701000D01*
X178937000Y-130741000D02*
X169043000Y-130741000D01*
X178928000Y-130781000D02*
X169052000Y-130781000D01*
X178918000Y-130821000D02*
X169062000Y-130821000D01*
X178908000Y-130861000D02*
X175231000Y-130861000D01*
X172749000Y-130861000D02*
X169072000Y-130861000D01*
X178897000Y-130901000D02*
X175231000Y-130901000D01*
X172749000Y-130901000D02*
X169083000Y-130901000D01*
X178887000Y-130941000D02*
X175231000Y-130941000D01*
X172749000Y-130941000D02*
X169093000Y-130941000D01*
X178875000Y-130981000D02*
X175231000Y-130981000D01*
X172749000Y-130981000D02*
X169105000Y-130981000D01*
X178864000Y-131021000D02*
X175231000Y-131021000D01*
X172749000Y-131021000D02*
X169116000Y-131021000D01*
X178852000Y-131061000D02*
X175231000Y-131061000D01*
X172749000Y-131061000D02*
X169128000Y-131061000D01*
X178840000Y-131101000D02*
X175231000Y-131101000D01*
X172749000Y-131101000D02*
X169140000Y-131101000D01*
X178827000Y-131141000D02*
X175231000Y-131141000D01*
X172749000Y-131141000D02*
X169153000Y-131141000D01*
X178814000Y-131181000D02*
X175231000Y-131181000D01*
X172749000Y-131181000D02*
X169166000Y-131181000D01*
X178801000Y-131221000D02*
X175231000Y-131221000D01*
X172749000Y-131221000D02*
X169179000Y-131221000D01*
X178787000Y-131261000D02*
X175231000Y-131261000D01*
X172749000Y-131261000D02*
X169193000Y-131261000D01*
X178773000Y-131301000D02*
X175231000Y-131301000D01*
X172749000Y-131301000D02*
X169207000Y-131301000D01*
X178758000Y-131341000D02*
X175231000Y-131341000D01*
X172749000Y-131341000D02*
X169222000Y-131341000D01*
X178744000Y-131381000D02*
X175231000Y-131381000D01*
X172749000Y-131381000D02*
X169236000Y-131381000D01*
X178728000Y-131421000D02*
X175231000Y-131421000D01*
X172749000Y-131421000D02*
X169252000Y-131421000D01*
X178713000Y-131461000D02*
X175231000Y-131461000D01*
X172749000Y-131461000D02*
X169267000Y-131461000D01*
X178697000Y-131501000D02*
X175231000Y-131501000D01*
X172749000Y-131501000D02*
X169283000Y-131501000D01*
X178680000Y-131541000D02*
X175231000Y-131541000D01*
X172749000Y-131541000D02*
X169300000Y-131541000D01*
X178664000Y-131581000D02*
X175231000Y-131581000D01*
X172749000Y-131581000D02*
X169316000Y-131581000D01*
X178647000Y-131621000D02*
X175231000Y-131621000D01*
X172749000Y-131621000D02*
X169333000Y-131621000D01*
X178629000Y-131661000D02*
X175231000Y-131661000D01*
X172749000Y-131661000D02*
X169351000Y-131661000D01*
X178611000Y-131701000D02*
X175231000Y-131701000D01*
X172749000Y-131701000D02*
X169369000Y-131701000D01*
X178593000Y-131741000D02*
X175231000Y-131741000D01*
X172749000Y-131741000D02*
X169387000Y-131741000D01*
X178574000Y-131781000D02*
X175231000Y-131781000D01*
X172749000Y-131781000D02*
X169406000Y-131781000D01*
X178554000Y-131821000D02*
X175231000Y-131821000D01*
X172749000Y-131821000D02*
X169426000Y-131821000D01*
X178535000Y-131861000D02*
X175231000Y-131861000D01*
X172749000Y-131861000D02*
X169445000Y-131861000D01*
X178515000Y-131901000D02*
X175231000Y-131901000D01*
X172749000Y-131901000D02*
X169465000Y-131901000D01*
X178494000Y-131941000D02*
X175231000Y-131941000D01*
X172749000Y-131941000D02*
X169486000Y-131941000D01*
X178473000Y-131981000D02*
X175231000Y-131981000D01*
X172749000Y-131981000D02*
X169507000Y-131981000D01*
X178452000Y-132021000D02*
X175231000Y-132021000D01*
X172749000Y-132021000D02*
X169528000Y-132021000D01*
X178430000Y-132061000D02*
X175231000Y-132061000D01*
X172749000Y-132061000D02*
X169550000Y-132061000D01*
X178407000Y-132101000D02*
X175231000Y-132101000D01*
X172749000Y-132101000D02*
X169573000Y-132101000D01*
X178385000Y-132141000D02*
X175231000Y-132141000D01*
X172749000Y-132141000D02*
X169595000Y-132141000D01*
X178361000Y-132181000D02*
X175231000Y-132181000D01*
X172749000Y-132181000D02*
X169619000Y-132181000D01*
X178337000Y-132221000D02*
X175231000Y-132221000D01*
X172749000Y-132221000D02*
X169643000Y-132221000D01*
X178313000Y-132261000D02*
X175231000Y-132261000D01*
X172749000Y-132261000D02*
X169667000Y-132261000D01*
X178288000Y-132301000D02*
X175231000Y-132301000D01*
X172749000Y-132301000D02*
X169692000Y-132301000D01*
X178263000Y-132341000D02*
X175231000Y-132341000D01*
X172749000Y-132341000D02*
X169717000Y-132341000D01*
X178237000Y-132381000D02*
X175231000Y-132381000D01*
X172749000Y-132381000D02*
X169743000Y-132381000D01*
X178211000Y-132421000D02*
X175231000Y-132421000D01*
X172749000Y-132421000D02*
X169769000Y-132421000D01*
X178184000Y-132461000D02*
X175231000Y-132461000D01*
X172749000Y-132461000D02*
X169796000Y-132461000D01*
X178156000Y-132501000D02*
X175231000Y-132501000D01*
X172749000Y-132501000D02*
X169824000Y-132501000D01*
X178128000Y-132541000D02*
X175231000Y-132541000D01*
X172749000Y-132541000D02*
X169852000Y-132541000D01*
X178100000Y-132581000D02*
X175231000Y-132581000D01*
X172749000Y-132581000D02*
X169880000Y-132581000D01*
X178070000Y-132621000D02*
X175231000Y-132621000D01*
X172749000Y-132621000D02*
X169910000Y-132621000D01*
X178040000Y-132661000D02*
X175231000Y-132661000D01*
X172749000Y-132661000D02*
X169940000Y-132661000D01*
X178010000Y-132701000D02*
X175231000Y-132701000D01*
X172749000Y-132701000D02*
X169970000Y-132701000D01*
X177979000Y-132741000D02*
X175231000Y-132741000D01*
X172749000Y-132741000D02*
X170001000Y-132741000D01*
X177947000Y-132781000D02*
X175231000Y-132781000D01*
X172749000Y-132781000D02*
X170033000Y-132781000D01*
X177915000Y-132821000D02*
X175231000Y-132821000D01*
X172749000Y-132821000D02*
X170065000Y-132821000D01*
X177882000Y-132861000D02*
X175231000Y-132861000D01*
X172749000Y-132861000D02*
X170098000Y-132861000D01*
X177848000Y-132901000D02*
X175231000Y-132901000D01*
X172749000Y-132901000D02*
X170132000Y-132901000D01*
X177814000Y-132941000D02*
X175231000Y-132941000D01*
X172749000Y-132941000D02*
X170166000Y-132941000D01*
X177779000Y-132981000D02*
X175231000Y-132981000D01*
X172749000Y-132981000D02*
X170201000Y-132981000D01*
X177743000Y-133021000D02*
X175231000Y-133021000D01*
X172749000Y-133021000D02*
X170237000Y-133021000D01*
X177706000Y-133061000D02*
X175231000Y-133061000D01*
X172749000Y-133061000D02*
X170274000Y-133061000D01*
X177669000Y-133101000D02*
X175231000Y-133101000D01*
X172749000Y-133101000D02*
X170311000Y-133101000D01*
X177630000Y-133141000D02*
X175231000Y-133141000D01*
X172749000Y-133141000D02*
X170350000Y-133141000D01*
X177591000Y-133181000D02*
X175231000Y-133181000D01*
X172749000Y-133181000D02*
X170389000Y-133181000D01*
X177551000Y-133221000D02*
X175231000Y-133221000D01*
X172749000Y-133221000D02*
X170429000Y-133221000D01*
X177510000Y-133261000D02*
X175231000Y-133261000D01*
X172749000Y-133261000D02*
X170470000Y-133261000D01*
X177468000Y-133301000D02*
X175231000Y-133301000D01*
X172749000Y-133301000D02*
X170512000Y-133301000D01*
X177426000Y-133341000D02*
X170554000Y-133341000D01*
X177382000Y-133381000D02*
X170598000Y-133381000D01*
X177337000Y-133421000D02*
X170643000Y-133421000D01*
X177291000Y-133461000D02*
X170689000Y-133461000D01*
X177244000Y-133501000D02*
X170736000Y-133501000D01*
X177196000Y-133541000D02*
X170784000Y-133541000D01*
X177146000Y-133581000D02*
X170834000Y-133581000D01*
X177096000Y-133621000D02*
X170884000Y-133621000D01*
X177044000Y-133661000D02*
X170936000Y-133661000D01*
X176990000Y-133701000D02*
X170990000Y-133701000D01*
X176935000Y-133741000D02*
X171045000Y-133741000D01*
X176879000Y-133781000D02*
X171101000Y-133781000D01*
X176820000Y-133821000D02*
X171160000Y-133821000D01*
X176760000Y-133861000D02*
X171220000Y-133861000D01*
X176699000Y-133901000D02*
X171281000Y-133901000D01*
X176635000Y-133941000D02*
X171345000Y-133941000D01*
X176569000Y-133981000D02*
X171411000Y-133981000D01*
X176500000Y-134021000D02*
X171480000Y-134021000D01*
X176429000Y-134061000D02*
X171551000Y-134061000D01*
X176355000Y-134101000D02*
X171625000Y-134101000D01*
X176279000Y-134141000D02*
X171701000Y-134141000D01*
X176199000Y-134181000D02*
X171781000Y-134181000D01*
X176115000Y-134221000D02*
X171865000Y-134221000D01*
X176027000Y-134261000D02*
X171953000Y-134261000D01*
X175934000Y-134301000D02*
X172046000Y-134301000D01*
X175836000Y-134341000D02*
X172144000Y-134341000D01*
X175732000Y-134381000D02*
X172248000Y-134381000D01*
X175620000Y-134421000D02*
X172360000Y-134421000D01*
X175500000Y-134461000D02*
X172480000Y-134461000D01*
X175368000Y-134501000D02*
X172612000Y-134501000D01*
X175220000Y-134541000D02*
X172760000Y-134541000D01*
X175052000Y-134581000D02*
X172928000Y-134581000D01*
X174852000Y-134621000D02*
X173128000Y-134621000D01*
X174589000Y-134661000D02*
X173391000Y-134661000D01*
X179110000Y-129580000D02*
G75*
G03*
X179110000Y-129580000I-5120000J0D01*
G01*
%TO.C,U3*%
X115465000Y-121280000D02*
X115465000Y-121280000D01*
X115465000Y-121280000D02*
X115465000Y-92080000D01*
X130915000Y-121280000D02*
X115465000Y-121280000D01*
X116041000Y-120950000D02*
X116041000Y-120950000D01*
X116041000Y-120950000D02*
X116041000Y-115616000D01*
X126709000Y-120950000D02*
X116041000Y-120950000D01*
X126709000Y-120950000D02*
X126709000Y-120950000D01*
X118835000Y-120696000D02*
X118835000Y-120696000D01*
X116549000Y-118410000D02*
X118835000Y-118410000D01*
X118835000Y-118410000D02*
X118835000Y-120696000D01*
X116041000Y-115616000D02*
X126709000Y-115616000D01*
X126709000Y-115616000D02*
X126709000Y-120950000D01*
X115465000Y-92080000D02*
X130915000Y-92080000D01*
X130915000Y-92080000D02*
X130915000Y-121280000D01*
D14*
%TO.C,U1*%
X175325000Y-75470000D02*
X175325000Y-83530000D01*
X174625000Y-88390000D02*
X174625000Y-83530000D01*
X174625000Y-88390000D02*
X113665000Y-88390000D01*
X174625000Y-83530000D02*
X175325000Y-83530000D01*
X174625000Y-75470000D02*
X175325000Y-75470000D01*
X174625000Y-70610000D02*
X174625000Y-75470000D01*
X113665000Y-88390000D02*
X113665000Y-70610000D01*
X113665000Y-70610000D02*
X174625000Y-70610000D01*
D15*
X168375000Y-70000000D02*
G75*
G03*
X168375000Y-70000000I-100000J0D01*
G01*
%TD*%
M02*
