%TF.GenerationSoftware,KiCad,Pcbnew,7.0.8*%
%TF.CreationDate,2025-03-22T19:36:14-04:00*%
%TF.ProjectId,Hexapod PCB KiCad Project,48657861-706f-4642-9050-4342204b6943,rev?*%
%TF.SameCoordinates,Original*%
%TF.FileFunction,Plated,1,4,PTH,Drill*%
%TF.FilePolarity,Positive*%
%FSLAX46Y46*%
G04 Gerber Fmt 4.6, Leading zero omitted, Abs format (unit mm)*
G04 Created by KiCad (PCBNEW 7.0.8) date 2025-03-22 19:36:14*
%MOMM*%
%LPD*%
G01*
G04 APERTURE LIST*
%TA.AperFunction,ViaDrill*%
%ADD10C,0.400000*%
%TD*%
%TA.AperFunction,ComponentDrill*%
%ADD11C,0.600000*%
%TD*%
%TA.AperFunction,ComponentDrill*%
%ADD12C,0.800000*%
%TD*%
%TA.AperFunction,ComponentDrill*%
%ADD13C,0.900000*%
%TD*%
%TA.AperFunction,ComponentDrill*%
%ADD14C,1.000000*%
%TD*%
%TA.AperFunction,ComponentDrill*%
%ADD15C,1.600000*%
%TD*%
G04 APERTURE END LIST*
D10*
X156845000Y-110490000D03*
X156856159Y-94964401D03*
X156881354Y-91613488D03*
X156926000Y-106680000D03*
D11*
%TO.C,C2*%
X110097600Y-119380001D03*
X112097600Y-119380001D03*
D12*
%TO.C,C1*%
X110395000Y-113125000D03*
X112395000Y-113125000D03*
%TO.C,R1*%
X138430000Y-115570000D03*
X138430000Y-123190000D03*
%TO.C,R2*%
X143510000Y-115570000D03*
X143510000Y-123190000D03*
%TO.C,D1*%
X148590000Y-120650000D03*
%TO.C,R3*%
X154940000Y-115570000D03*
X154940000Y-123190000D03*
D13*
%TO.C,D2*%
X146050000Y-64770000D03*
X146050000Y-67310000D03*
D14*
%TO.C,Fem3*%
X97789999Y-116635000D03*
%TO.C,Fem1*%
X97790000Y-86360000D03*
%TO.C,Cox2*%
X97790000Y-96745001D03*
%TO.C,Tib2*%
X97790000Y-106045001D03*
%TO.C,Cox3*%
X97790000Y-111985000D03*
%TO.C,Tib3*%
X97790000Y-121285000D03*
%TO.C,Cox1*%
X97790001Y-81710000D03*
%TO.C,Tib1*%
X97790001Y-91010000D03*
%TO.C,Fem2*%
X97790001Y-101395000D03*
%TO.C,Fem3*%
X100329999Y-116635000D03*
%TO.C,Fem1*%
X100330000Y-86360000D03*
%TO.C,Cox2*%
X100330000Y-96745001D03*
%TO.C,Tib2*%
X100330000Y-106045001D03*
%TO.C,Cox3*%
X100330000Y-111985000D03*
%TO.C,Tib3*%
X100330000Y-121285000D03*
%TO.C,Cox1*%
X100330001Y-81710000D03*
%TO.C,Tib1*%
X100330001Y-91010000D03*
%TO.C,Fem2*%
X100330001Y-101395000D03*
%TO.C,Fem3*%
X102869999Y-116635000D03*
%TO.C,Fem1*%
X102870000Y-86360000D03*
%TO.C,Cox2*%
X102870000Y-96745001D03*
%TO.C,Tib2*%
X102870000Y-106045001D03*
%TO.C,Cox3*%
X102870000Y-111985000D03*
%TO.C,Tib3*%
X102870000Y-121285000D03*
%TO.C,Cox1*%
X102870001Y-81710000D03*
%TO.C,Tib1*%
X102870001Y-91010000D03*
%TO.C,Fem2*%
X102870001Y-101395000D03*
%TO.C,FS1*%
X110490000Y-90805000D03*
%TO.C,FS3*%
X110490000Y-99695000D03*
%TO.C,FS2*%
X110495000Y-95250000D03*
%TO.C,FS1*%
X113030000Y-90805000D03*
%TO.C,FS3*%
X113030000Y-99695000D03*
%TO.C,C4*%
X113030000Y-127080000D03*
X113030000Y-132080000D03*
%TO.C,FS2*%
X113035000Y-95250000D03*
%TO.C,U1*%
X114935000Y-71880000D03*
X114935000Y-87120000D03*
X117475000Y-71880000D03*
X117475000Y-87120000D03*
%TO.C,U3*%
X117565000Y-117140000D03*
X117565000Y-119680000D03*
%TO.C,U1*%
X120015000Y-71880000D03*
X120015000Y-87120000D03*
%TO.C,U3*%
X120105000Y-117140000D03*
X120105000Y-119680000D03*
%TO.C,U1*%
X122555000Y-71880000D03*
X122555000Y-87120000D03*
%TO.C,U3*%
X122645000Y-117140000D03*
X122645000Y-119680000D03*
%TO.C,B1*%
X125095000Y-66040000D03*
%TO.C,U1*%
X125095000Y-71880000D03*
X125095000Y-87120000D03*
%TO.C,U3*%
X125185000Y-117140000D03*
X125185000Y-119680000D03*
%TO.C,B1*%
X127635000Y-66040000D03*
%TO.C,U1*%
X127635000Y-71880000D03*
X127635000Y-74420000D03*
X127635000Y-76960000D03*
X127635000Y-79500000D03*
X127635000Y-82040000D03*
X127635000Y-84580000D03*
X127635000Y-87120000D03*
%TO.C,B1*%
X130175000Y-66040000D03*
%TO.C,U1*%
X130175000Y-71880000D03*
X130175000Y-87120000D03*
%TO.C,B1*%
X132715000Y-66040000D03*
%TO.C,U1*%
X132715000Y-71880000D03*
X132715000Y-87120000D03*
%TO.C,B1*%
X135255000Y-66040000D03*
%TO.C,U1*%
X135255000Y-71880000D03*
X135255000Y-87120000D03*
%TO.C,U4*%
X137034000Y-94007000D03*
X137034000Y-96547000D03*
X137034000Y-99087000D03*
X137034000Y-101627000D03*
X137034000Y-104167000D03*
X137034000Y-106707000D03*
X137034000Y-109247000D03*
X137034000Y-111787000D03*
%TO.C,B1*%
X137795000Y-66040000D03*
%TO.C,U1*%
X137795000Y-71880000D03*
X137795000Y-87120000D03*
%TO.C,B1*%
X140335000Y-66040000D03*
%TO.C,U1*%
X140335000Y-71880000D03*
X140335000Y-87120000D03*
X142875000Y-71880000D03*
X142875000Y-87120000D03*
X145415000Y-71880000D03*
X145415000Y-87120000D03*
X147955000Y-71880000D03*
X147955000Y-87120000D03*
%TO.C,D1*%
X148590000Y-115570000D03*
%TO.C,U1*%
X150495000Y-71880000D03*
X150495000Y-87120000D03*
%TO.C,B2*%
X152400000Y-64770000D03*
X152400000Y-67310000D03*
%TO.C,U1*%
X153035000Y-71880000D03*
X153035000Y-87120000D03*
X155575000Y-71880000D03*
X155575000Y-87120000D03*
%TO.C,B3*%
X156845000Y-64765000D03*
X156845000Y-67305000D03*
%TO.C,U1*%
X156845000Y-74930000D03*
X158115000Y-71880000D03*
X158115000Y-87120000D03*
X158385000Y-80670000D03*
X158385000Y-82670000D03*
X158385000Y-84670000D03*
X159385000Y-74930000D03*
X160385000Y-80670000D03*
X160385000Y-82670000D03*
X160385000Y-84670000D03*
X160655000Y-71880000D03*
X160655000Y-87120000D03*
%TO.C,B4*%
X161290000Y-64770000D03*
X161290000Y-67310000D03*
%TO.C,U1*%
X161925000Y-74930000D03*
X163195000Y-71880000D03*
X163195000Y-87120000D03*
X164465000Y-74930000D03*
X165735000Y-71880000D03*
X165735000Y-87120000D03*
X167005000Y-74930000D03*
X168275000Y-71880000D03*
X168275000Y-87120000D03*
X170815000Y-71880000D03*
X170815000Y-84580000D03*
X170815000Y-87120000D03*
X173355000Y-71880000D03*
X173355000Y-87120000D03*
%TO.C,FS4*%
X173360000Y-91235000D03*
%TO.C,FS6*%
X173360000Y-100535000D03*
%TO.C,FS5*%
X173360001Y-95885000D03*
%TO.C,C3*%
X173990000Y-127080000D03*
X173990000Y-132080000D03*
%TO.C,FS4*%
X175900000Y-91235000D03*
%TO.C,FS6*%
X175900000Y-100535000D03*
%TO.C,FS5*%
X175900001Y-95885000D03*
%TO.C,Cox6*%
X184134980Y-121490001D03*
%TO.C,Tib6*%
X184134997Y-112189999D03*
%TO.C,Fem6*%
X184135000Y-116840000D03*
%TO.C,Cox4*%
X184149992Y-91010010D03*
%TO.C,Fem4*%
X184150000Y-86360000D03*
%TO.C,Fem5*%
X184150000Y-101600000D03*
%TO.C,Tib5*%
X184150001Y-96950000D03*
%TO.C,Cox5*%
X184150001Y-106250000D03*
%TO.C,Tib4*%
X184150008Y-81710011D03*
%TO.C,Cox6*%
X186674980Y-121490001D03*
%TO.C,Tib6*%
X186674997Y-112189999D03*
%TO.C,Fem6*%
X186675000Y-116840000D03*
%TO.C,Cox4*%
X186689992Y-91010010D03*
%TO.C,Fem4*%
X186690000Y-86360000D03*
%TO.C,Fem5*%
X186690000Y-101600000D03*
%TO.C,Tib5*%
X186690001Y-96950000D03*
%TO.C,Cox5*%
X186690001Y-106250000D03*
%TO.C,Tib4*%
X186690008Y-81710011D03*
%TO.C,Cox6*%
X189214980Y-121490001D03*
%TO.C,Tib6*%
X189214997Y-112189999D03*
%TO.C,Fem6*%
X189215000Y-116840000D03*
%TO.C,Cox4*%
X189229992Y-91010010D03*
%TO.C,Fem4*%
X189230000Y-86360000D03*
%TO.C,Fem5*%
X189230000Y-101600000D03*
%TO.C,Tib5*%
X189230001Y-96950000D03*
%TO.C,Cox5*%
X189230001Y-106250000D03*
%TO.C,Tib4*%
X189230008Y-81710011D03*
D15*
%TO.C,T1*%
X128270000Y-132212500D03*
X135890000Y-132212500D03*
%TO.C,T2*%
X151130000Y-132212500D03*
X158750000Y-132212500D03*
M02*
