%TF.GenerationSoftware,KiCad,Pcbnew,7.0.8*%
%TF.CreationDate,2025-03-22T19:36:18-04:00*%
%TF.ProjectId,Hexapod PCB KiCad Project,48657861-706f-4642-9050-4342204b6943,rev?*%
%TF.SameCoordinates,Original*%
%TF.FileFunction,Copper,L1,Top*%
%TF.FilePolarity,Positive*%
%FSLAX46Y46*%
G04 Gerber Fmt 4.6, Leading zero omitted, Abs format (unit mm)*
G04 Created by KiCad (PCBNEW 7.0.8) date 2025-03-22 19:36:18*
%MOMM*%
%LPD*%
G01*
G04 APERTURE LIST*
%TA.AperFunction,ComponentPad*%
%ADD10O,1.600000X1.600000*%
%TD*%
%TA.AperFunction,ComponentPad*%
%ADD11C,1.600000*%
%TD*%
%TA.AperFunction,ComponentPad*%
%ADD12R,1.800000X1.800000*%
%TD*%
%TA.AperFunction,ComponentPad*%
%ADD13C,1.800000*%
%TD*%
%TA.AperFunction,ConnectorPad*%
%ADD14R,3.000000X5.000000*%
%TD*%
%TA.AperFunction,ComponentPad*%
%ADD15R,1.700000X1.700000*%
%TD*%
%TA.AperFunction,ComponentPad*%
%ADD16O,1.700000X1.700000*%
%TD*%
%TA.AperFunction,ComponentPad*%
%ADD17C,1.700000*%
%TD*%
%TA.AperFunction,ComponentPad*%
%ADD18O,2.000000X2.000000*%
%TD*%
%TA.AperFunction,ComponentPad*%
%ADD19R,3.000000X3.000000*%
%TD*%
%TA.AperFunction,ComponentPad*%
%ADD20C,3.000000*%
%TD*%
%TA.AperFunction,ComponentPad*%
%ADD21R,4.000000X4.000000*%
%TD*%
%TA.AperFunction,ComponentPad*%
%ADD22C,4.000000*%
%TD*%
%TA.AperFunction,ComponentPad*%
%ADD23C,1.200000*%
%TD*%
%TA.AperFunction,ComponentPad*%
%ADD24R,1.200000X1.200000*%
%TD*%
%TA.AperFunction,ComponentPad*%
%ADD25R,1.600000X1.600000*%
%TD*%
%TA.AperFunction,ComponentPad*%
%ADD26C,2.000000*%
%TD*%
%TA.AperFunction,ComponentPad*%
%ADD27R,2.000000X2.000000*%
%TD*%
%TA.AperFunction,ViaPad*%
%ADD28C,0.800000*%
%TD*%
%TA.AperFunction,Conductor*%
%ADD29C,5.000000*%
%TD*%
%TA.AperFunction,Conductor*%
%ADD30C,1.000000*%
%TD*%
%TA.AperFunction,Conductor*%
%ADD31C,0.500000*%
%TD*%
%TA.AperFunction,Conductor*%
%ADD32C,0.250000*%
%TD*%
%TA.AperFunction,Conductor*%
%ADD33C,2.500000*%
%TD*%
%TA.AperFunction,Conductor*%
%ADD34C,2.000000*%
%TD*%
G04 APERTURE END LIST*
D10*
%TO.P,R3,2*%
%TO.N,+3.3V*%
X154940000Y-123190000D03*
D11*
%TO.P,R3,1*%
%TO.N,Net-(D2-A)*%
X154940000Y-115570000D03*
%TD*%
D12*
%TO.P,D2,1,K*%
%TO.N,GND*%
X146050000Y-64770000D03*
D13*
%TO.P,D2,2,A*%
%TO.N,Net-(D2-A)*%
X146050000Y-67310000D03*
%TD*%
D14*
%TO.P,U5,1,In+*%
%TO.N,+BATT*%
X165816000Y-108521500D03*
%TO.P,U5,2,In-*%
%TO.N,GND*%
X156926000Y-108521500D03*
%TO.P,U5,3,Out+*%
%TO.N,Teensy VIN*%
X165816000Y-93281500D03*
%TO.P,U5,4,Out-*%
%TO.N,GND*%
X156926000Y-93281500D03*
%TD*%
D15*
%TO.P,B2,1,Pin_1*%
%TO.N,GND*%
X152400000Y-64770000D03*
D16*
%TO.P,B2,2,Pin_2*%
X152400000Y-67310000D03*
%TD*%
D15*
%TO.P,B4,1,Pin_1*%
%TO.N,Teensy VIN*%
X161290000Y-64770000D03*
D16*
%TO.P,B4,2,Pin_2*%
X161290000Y-67310000D03*
%TD*%
D17*
%TO.P,U4,1,VCC*%
%TO.N,+3.3V*%
X137034000Y-94007000D03*
%TO.P,U4,2,GND*%
%TO.N,GND*%
X137034000Y-96547000D03*
%TO.P,U4,3,SCL*%
%TO.N,Gyro SCL*%
X137034000Y-99087000D03*
%TO.P,U4,4,SDA*%
%TO.N,Gyro SDA*%
X137034000Y-101627000D03*
%TO.P,U4,5,XDA*%
%TO.N,unconnected-(U4-XDA-Pad5)*%
X137034000Y-104167000D03*
%TO.P,U4,6,XCL*%
%TO.N,unconnected-(U4-XCL-Pad6)*%
X137034000Y-106707000D03*
%TO.P,U4,7,ADO*%
%TO.N,unconnected-(U4-ADO-Pad7)*%
X137034000Y-109247000D03*
%TO.P,U4,8,INT*%
%TO.N,unconnected-(U4-INT-Pad8)*%
X137034000Y-111787000D03*
%TD*%
D18*
%TO.P,R2,1*%
%TO.N,Battery Voltage Divider*%
X143510000Y-115570000D03*
%TO.P,R2,2*%
%TO.N,GND*%
X143510000Y-123190000D03*
%TD*%
D19*
%TO.P,C4,1*%
%TO.N,+BATT*%
X113030000Y-127080000D03*
D20*
%TO.P,C4,2*%
%TO.N,GND*%
X113030000Y-132080000D03*
%TD*%
D21*
%TO.P,T1,1,1*%
%TO.N,GND*%
X128270000Y-132212500D03*
D22*
%TO.P,T1,2,2*%
%TO.N,Net-(T1-Pad2)*%
X135890000Y-132212500D03*
%TD*%
D17*
%TO.P,B1,1,Pin_1*%
%TO.N,B1*%
X125095000Y-66040000D03*
D16*
%TO.P,B1,2,Pin_2*%
%TO.N,B2*%
X127635000Y-66040000D03*
%TO.P,B1,3,Pin_3*%
%TO.N,B3*%
X130175000Y-66040000D03*
%TO.P,B1,4,Pin_4*%
%TO.N,B4*%
X132715000Y-66040000D03*
%TO.P,B1,5,Pin_5*%
%TO.N,B5*%
X135255000Y-66040000D03*
%TO.P,B1,6,Pin_6*%
%TO.N,B6*%
X137795000Y-66040000D03*
%TO.P,B1,7,Pin_7*%
%TO.N,B7*%
X140335000Y-66040000D03*
%TD*%
D22*
%TO.P,T2,1,1*%
%TO.N,Net-(T1-Pad2)*%
X151130000Y-132212500D03*
%TO.P,T2,2,2*%
%TO.N,+BATT*%
X158750000Y-132212500D03*
%TD*%
D23*
%TO.P,C2,2*%
%TO.N,GND*%
X110097600Y-119380001D03*
D24*
%TO.P,C2,1*%
%TO.N,+3.3V*%
X112097600Y-119380001D03*
%TD*%
D25*
%TO.P,C1,1*%
%TO.N,+3.3V*%
X112395000Y-113125000D03*
D11*
%TO.P,C1,2*%
%TO.N,GND*%
X110395000Y-113125000D03*
%TD*%
D26*
%TO.P,R1,1*%
%TO.N,+BATT*%
X138430000Y-123190000D03*
D18*
%TO.P,R1,2*%
%TO.N,Battery Voltage Divider*%
X138430000Y-115570000D03*
%TD*%
%TO.P,D1,2,A*%
%TO.N,GND*%
X148590000Y-120650000D03*
D27*
%TO.P,D1,1,K*%
%TO.N,Battery Voltage Divider*%
X148590000Y-115570000D03*
%TD*%
D15*
%TO.P,B3,1,Pin_1*%
%TO.N,+3.3V*%
X156845000Y-64765000D03*
D16*
%TO.P,B3,2,Pin_2*%
X156845000Y-67305000D03*
%TD*%
D20*
%TO.P,C3,2*%
%TO.N,GND*%
X173990000Y-132080000D03*
D19*
%TO.P,C3,1*%
%TO.N,+BATT*%
X173990000Y-127080000D03*
%TD*%
D15*
%TO.P,U3,1,GND*%
%TO.N,GND*%
X117565000Y-119680000D03*
D17*
%TO.P,U3,2,VCC*%
%TO.N,+3.3V*%
X117565000Y-117140000D03*
%TO.P,U3,3,CE*%
%TO.N,CE*%
X120105000Y-119680000D03*
%TO.P,U3,4,~{CSN}*%
%TO.N,CSN*%
X120105000Y-117140000D03*
%TO.P,U3,5,SCK*%
%TO.N,SCK*%
X122645000Y-119680000D03*
%TO.P,U3,6,MOSI*%
%TO.N,MOSI*%
X122645000Y-117140000D03*
%TO.P,U3,7,MISO*%
%TO.N,MISO*%
X125185000Y-119680000D03*
%TO.P,U3,8,IRQ*%
%TO.N,unconnected-(U3-IRQ-Pad8)*%
X125185000Y-117140000D03*
%TD*%
%TO.P,U1,VUSB,VUSB*%
%TO.N,unconnected-(U1-PadVUSB)*%
X170815000Y-84580000D03*
%TO.P,U1,VIN,VIN*%
%TO.N,Teensy VIN*%
X173355000Y-87120000D03*
%TO.P,U1,VBAT,VBAT*%
%TO.N,unconnected-(U1-PadVBAT)*%
X127635000Y-74420000D03*
%TO.P,U1,USB_GND2,USB_GND*%
%TO.N,Net-(U1-USB_GND-PadUSB_GND1)*%
X156845000Y-74930000D03*
%TO.P,U1,USB_GND1,USB_GND*%
X159385000Y-74930000D03*
%TO.P,U1,T-,T-*%
%TO.N,unconnected-(U1-PadT-)*%
X160385000Y-80670000D03*
%TO.P,U1,T+,T+*%
%TO.N,unconnected-(U1-PadT+)*%
X158385000Y-80670000D03*
%TO.P,U1,R-,R-*%
%TO.N,unconnected-(U1-PadR-)*%
X158385000Y-84670000D03*
%TO.P,U1,R+,R+*%
%TO.N,unconnected-(U1-PadR+)*%
X160385000Y-84670000D03*
%TO.P,U1,PROGRAM,PROGRAM*%
%TO.N,unconnected-(U1-PadPROGRAM)*%
X127635000Y-82040000D03*
%TO.P,U1,ON/OFF,ON/OFF*%
%TO.N,unconnected-(U1-PadON{slash}OFF)*%
X127635000Y-84580000D03*
%TO.P,U1,LED,LED*%
%TO.N,unconnected-(U1-PadLED)*%
X160385000Y-82670000D03*
%TO.P,U1,GND5,GND*%
%TO.N,GND*%
X158385000Y-82670000D03*
%TO.P,U1,GND4,GND*%
X127635000Y-79500000D03*
%TO.P,U1,GND3,GND*%
X170815000Y-87120000D03*
%TO.P,U1,GND2,GND*%
X137795000Y-87120000D03*
%TO.P,U1,GND1,GND*%
X173355000Y-71880000D03*
%TO.P,U1,D-,D-*%
%TO.N,unconnected-(U1-PadD-)*%
X164465000Y-74930000D03*
%TO.P,U1,D+,D+*%
%TO.N,unconnected-(U1-PadD+)*%
X161925000Y-74930000D03*
%TO.P,U1,41,A17*%
%TO.N,B5*%
X135255000Y-87120000D03*
%TO.P,U1,40,A16*%
%TO.N,B4*%
X132715000Y-87120000D03*
%TO.P,U1,39,A15*%
%TO.N,B3*%
X130175000Y-87120000D03*
%TO.P,U1,38,A14*%
%TO.N,FS3*%
X127635000Y-87120000D03*
%TO.P,U1,37,CS3*%
%TO.N,Leg5 Tibia*%
X125095000Y-87120000D03*
%TO.P,U1,36,CS2*%
%TO.N,Leg4 Coxa*%
X122555000Y-87120000D03*
%TO.P,U1,35,TX8*%
%TO.N,FS2*%
X120015000Y-87120000D03*
%TO.P,U1,34,RX8*%
%TO.N,FS1*%
X117475000Y-87120000D03*
%TO.P,U1,33,MCLK2*%
%TO.N,Leg4 Femur*%
X114935000Y-87120000D03*
%TO.P,U1,32,OUT1B*%
%TO.N,unconnected-(U1-OUT1B-Pad32)*%
X114935000Y-71880000D03*
%TO.P,U1,31,CTX3*%
%TO.N,B1*%
X117475000Y-71880000D03*
%TO.P,U1,30,CRX3*%
%TO.N,B2*%
X120015000Y-71880000D03*
%TO.P,U1,29,TX7*%
%TO.N,Leg6 Tibia*%
X122555000Y-71880000D03*
%TO.P,U1,28,RX7*%
%TO.N,Leg5 Coxa*%
X125095000Y-71880000D03*
%TO.P,U1,27,A13*%
%TO.N,CSN*%
X127635000Y-71880000D03*
%TO.P,U1,26,A12*%
%TO.N,CE*%
X130175000Y-71880000D03*
%TO.P,U1,25,A11*%
%TO.N,Leg5 Femur*%
X132715000Y-71880000D03*
%TO.P,U1,24,A10*%
%TO.N,Leg4 Tibia*%
X135255000Y-71880000D03*
%TO.P,U1,23,A9*%
%TO.N,FS4*%
X165735000Y-87120000D03*
%TO.P,U1,22,A8*%
%TO.N,FS5*%
X163195000Y-87120000D03*
%TO.P,U1,21,A7*%
%TO.N,FS6*%
X160655000Y-87120000D03*
%TO.P,U1,20,A6*%
%TO.N,B7*%
X158115000Y-87120000D03*
%TO.P,U1,19,A5*%
%TO.N,Gyro SCL*%
X155575000Y-87120000D03*
%TO.P,U1,18,A4*%
%TO.N,Gyro SDA*%
X153035000Y-87120000D03*
%TO.P,U1,17,A3*%
%TO.N,B6*%
X150495000Y-87120000D03*
%TO.P,U1,16,A2*%
%TO.N,Battery Voltage Divider*%
X147955000Y-87120000D03*
%TO.P,U1,15,A1*%
%TO.N,Leg6 Coxa*%
X145415000Y-87120000D03*
%TO.P,U1,14,A0*%
%TO.N,Leg6 Femur*%
X142875000Y-87120000D03*
%TO.P,U1,13,SCK*%
%TO.N,SCK*%
X140335000Y-87120000D03*
%TO.P,U1,12,MISO*%
%TO.N,MISO*%
X140335000Y-71880000D03*
%TO.P,U1,11,MOSI*%
%TO.N,MOSI*%
X142875000Y-71880000D03*
%TO.P,U1,10,CS1*%
%TO.N,Leg1 Coxa*%
X145415000Y-71880000D03*
%TO.P,U1,9,OUT1C*%
%TO.N,Leg1 Femur*%
X147955000Y-71880000D03*
%TO.P,U1,8,TX2*%
%TO.N,Leg1 Tibia*%
X150495000Y-71880000D03*
%TO.P,U1,7,RX2*%
%TO.N,Leg2 Coxa*%
X153035000Y-71880000D03*
%TO.P,U1,6,OUT1D*%
%TO.N,Leg2 Femur*%
X155575000Y-71880000D03*
%TO.P,U1,5V,5V*%
%TO.N,+5V*%
X167005000Y-74930000D03*
%TO.P,U1,5,IN2*%
%TO.N,Leg2 Tibia*%
X158115000Y-71880000D03*
%TO.P,U1,4,BCLK2*%
%TO.N,Leg3 Coxa*%
X160655000Y-71880000D03*
%TO.P,U1,3.3V_3,3.3V*%
%TO.N,+3.3V*%
X127635000Y-76960000D03*
%TO.P,U1,3.3V_2,3.3V*%
X168275000Y-87120000D03*
%TO.P,U1,3.3V_1,3.3V*%
X137795000Y-71880000D03*
%TO.P,U1,3,LRCLK2*%
%TO.N,Leg3 Femur*%
X163195000Y-71880000D03*
%TO.P,U1,2,OUT2*%
%TO.N,Leg3 Tibia*%
X165735000Y-71880000D03*
%TO.P,U1,1,TX1*%
%TO.N,unconnected-(U1-TX1-Pad1)*%
X168275000Y-71880000D03*
%TO.P,U1,0,RX1*%
%TO.N,unconnected-(U1-RX1-Pad0)*%
X170815000Y-71880000D03*
%TD*%
D15*
%TO.P,Cox2,1,Pin_1*%
%TO.N,GND*%
X97790000Y-96745001D03*
D16*
%TO.P,Cox2,2,Pin_2*%
%TO.N,+BATT*%
X100330000Y-96745001D03*
%TO.P,Cox2,3,Pin_3*%
%TO.N,Leg5 Coxa*%
X102870000Y-96745001D03*
%TD*%
D15*
%TO.P,Cox6,1,Pin_1*%
%TO.N,GND*%
X189214980Y-121490001D03*
D16*
%TO.P,Cox6,2,Pin_2*%
%TO.N,+BATT*%
X186674980Y-121490001D03*
%TO.P,Cox6,3,Pin_3*%
%TO.N,Leg1 Coxa*%
X184134980Y-121490001D03*
%TD*%
D15*
%TO.P,Tib2,1,Pin_1*%
%TO.N,GND*%
X97790000Y-106045001D03*
D16*
%TO.P,Tib2,2,Pin_2*%
%TO.N,+BATT*%
X100330000Y-106045001D03*
%TO.P,Tib2,3,Pin_3*%
%TO.N,Leg5 Tibia*%
X102870000Y-106045001D03*
%TD*%
D15*
%TO.P,FS4,1,Pin_1*%
%TO.N,GND*%
X175900000Y-91235000D03*
D16*
%TO.P,FS4,2,Pin_2*%
%TO.N,FS4*%
X173360000Y-91235000D03*
%TD*%
D15*
%TO.P,Cox5,1,Pin_1*%
%TO.N,GND*%
X189230001Y-106250000D03*
D16*
%TO.P,Cox5,2,Pin_2*%
%TO.N,+BATT*%
X186690001Y-106250000D03*
%TO.P,Cox5,3,Pin_3*%
%TO.N,Leg2 Coxa*%
X184150001Y-106250000D03*
%TD*%
D15*
%TO.P,Tib1,1,Pin_1*%
%TO.N,GND*%
X97790001Y-91010000D03*
D16*
%TO.P,Tib1,2,Pin_2*%
%TO.N,+BATT*%
X100330001Y-91010000D03*
%TO.P,Tib1,3,Pin_3*%
%TO.N,Leg6 Tibia*%
X102870001Y-91010000D03*
%TD*%
D15*
%TO.P,Fem4,1,Pin_1*%
%TO.N,GND*%
X189230000Y-86360000D03*
D16*
%TO.P,Fem4,2,Pin_2*%
%TO.N,+BATT*%
X186690000Y-86360000D03*
%TO.P,Fem4,3,Pin_3*%
%TO.N,Leg3 Femur*%
X184150000Y-86360000D03*
%TD*%
D15*
%TO.P,Fem3,1,Pin_1*%
%TO.N,GND*%
X97789999Y-116635000D03*
D16*
%TO.P,Fem3,2,Pin_2*%
%TO.N,+BATT*%
X100329999Y-116635000D03*
%TO.P,Fem3,3,Pin_3*%
%TO.N,Leg4 Femur*%
X102869999Y-116635000D03*
%TD*%
D15*
%TO.P,Tib6,1,Pin_1*%
%TO.N,GND*%
X189214997Y-112189999D03*
D16*
%TO.P,Tib6,2,Pin_2*%
%TO.N,+BATT*%
X186674997Y-112189999D03*
%TO.P,Tib6,3,Pin_3*%
%TO.N,Leg1 Tibia*%
X184134997Y-112189999D03*
%TD*%
D15*
%TO.P,Fem5,1,Pin_1*%
%TO.N,GND*%
X189230000Y-101600000D03*
D16*
%TO.P,Fem5,2,Pin_2*%
%TO.N,+BATT*%
X186690000Y-101600000D03*
%TO.P,Fem5,3,Pin_3*%
%TO.N,Leg2 Femur*%
X184150000Y-101600000D03*
%TD*%
D15*
%TO.P,Cox1,1,Pin_1*%
%TO.N,GND*%
X97790001Y-81710000D03*
D16*
%TO.P,Cox1,2,Pin_2*%
%TO.N,+BATT*%
X100330001Y-81710000D03*
%TO.P,Cox1,3,Pin_3*%
%TO.N,Leg6 Coxa*%
X102870001Y-81710000D03*
%TD*%
D15*
%TO.P,FS2,1,Pin_1*%
%TO.N,GND*%
X110495000Y-95250000D03*
D16*
%TO.P,FS2,2,Pin_2*%
%TO.N,FS2*%
X113035000Y-95250000D03*
%TD*%
D15*
%TO.P,FS5,1,Pin_1*%
%TO.N,GND*%
X175900001Y-95885000D03*
D16*
%TO.P,FS5,2,Pin_2*%
%TO.N,FS5*%
X173360001Y-95885000D03*
%TD*%
D15*
%TO.P,Cox4,1,Pin_1*%
%TO.N,GND*%
X189229992Y-91010010D03*
D16*
%TO.P,Cox4,2,Pin_2*%
%TO.N,+BATT*%
X186689992Y-91010010D03*
%TO.P,Cox4,3,Pin_3*%
%TO.N,Leg3 Coxa*%
X184149992Y-91010010D03*
%TD*%
D15*
%TO.P,Fem2,1,Pin_1*%
%TO.N,GND*%
X97790001Y-101395000D03*
D16*
%TO.P,Fem2,2,Pin_2*%
%TO.N,+BATT*%
X100330001Y-101395000D03*
%TO.P,Fem2,3,Pin_3*%
%TO.N,Leg5 Femur*%
X102870001Y-101395000D03*
%TD*%
D15*
%TO.P,Tib5,1,Pin_1*%
%TO.N,GND*%
X189230001Y-96950000D03*
D16*
%TO.P,Tib5,2,Pin_2*%
%TO.N,+BATT*%
X186690001Y-96950000D03*
%TO.P,Tib5,3,Pin_3*%
%TO.N,Leg2 Tibia*%
X184150001Y-96950000D03*
%TD*%
D15*
%TO.P,Fem1,1,Pin_1*%
%TO.N,GND*%
X97790000Y-86360000D03*
D16*
%TO.P,Fem1,2,Pin_2*%
%TO.N,+BATT*%
X100330000Y-86360000D03*
%TO.P,Fem1,3,Pin_3*%
%TO.N,Leg6 Femur*%
X102870000Y-86360000D03*
%TD*%
D15*
%TO.P,Cox3,1,Pin_1*%
%TO.N,GND*%
X97790000Y-111985000D03*
D16*
%TO.P,Cox3,2,Pin_2*%
%TO.N,+BATT*%
X100330000Y-111985000D03*
%TO.P,Cox3,3,Pin_3*%
%TO.N,Leg4 Coxa*%
X102870000Y-111985000D03*
%TD*%
D15*
%TO.P,FS1,1,Pin_1*%
%TO.N,GND*%
X110490000Y-90805000D03*
D16*
%TO.P,FS1,2,Pin_2*%
%TO.N,FS1*%
X113030000Y-90805000D03*
%TD*%
D15*
%TO.P,Tib3,1,Pin_1*%
%TO.N,GND*%
X97790000Y-121285000D03*
D16*
%TO.P,Tib3,2,Pin_2*%
%TO.N,+BATT*%
X100330000Y-121285000D03*
%TO.P,Tib3,3,Pin_3*%
%TO.N,Leg4 Tibia*%
X102870000Y-121285000D03*
%TD*%
D15*
%TO.P,FS3,1,Pin_1*%
%TO.N,GND*%
X110490000Y-99695000D03*
D16*
%TO.P,FS3,2,Pin_2*%
%TO.N,FS3*%
X113030000Y-99695000D03*
%TD*%
%TO.P,FS6,2,Pin_2*%
%TO.N,FS6*%
X173360000Y-100535000D03*
D15*
%TO.P,FS6,1,Pin_1*%
%TO.N,GND*%
X175900000Y-100535000D03*
%TD*%
%TO.P,Fem6,1,Pin_1*%
%TO.N,GND*%
X189215000Y-116840000D03*
D16*
%TO.P,Fem6,2,Pin_2*%
%TO.N,+BATT*%
X186675000Y-116840000D03*
%TO.P,Fem6,3,Pin_3*%
%TO.N,Leg1 Femur*%
X184135000Y-116840000D03*
%TD*%
D15*
%TO.P,Tib4,1,Pin_1*%
%TO.N,GND*%
X189230008Y-81710011D03*
D16*
%TO.P,Tib4,2,Pin_2*%
%TO.N,+BATT*%
X186690008Y-81710011D03*
%TO.P,Tib4,3,Pin_3*%
%TO.N,Leg3 Tibia*%
X184150008Y-81710011D03*
%TD*%
D28*
%TO.N,GND*%
X156856159Y-94964401D03*
X156926000Y-106680000D03*
X156881354Y-91613488D03*
X156845000Y-110490000D03*
%TD*%
D29*
%TO.N,+BATT*%
X158750000Y-130175000D02*
X158750000Y-132212500D01*
D30*
X165816000Y-112314000D02*
X158750000Y-119380000D01*
X158750000Y-119380000D02*
X158750000Y-130175000D01*
X165816000Y-109791500D02*
X165816000Y-112314000D01*
D31*
%TO.N,+3.3V*%
X143510000Y-120015000D02*
X146685000Y-123190000D01*
X146685000Y-123190000D02*
X154940000Y-123190000D01*
X136525000Y-120015000D02*
X143510000Y-120015000D01*
X133985000Y-117475000D02*
X136525000Y-120015000D01*
D32*
%TO.N,Battery Voltage Divider*%
X148590000Y-115570000D02*
X143510000Y-115570000D01*
X151130000Y-90295000D02*
X151130000Y-113030000D01*
X151130000Y-113030000D02*
X148590000Y-115570000D01*
X147955000Y-87120000D02*
X151130000Y-90295000D01*
D30*
%TO.N,Teensy VIN*%
X167322500Y-89535000D02*
X165816000Y-91041500D01*
X165816000Y-91041500D02*
X165816000Y-92011500D01*
X173355000Y-87120000D02*
X170940000Y-89535000D01*
X170940000Y-89535000D02*
X167322500Y-89535000D01*
D32*
%TO.N,+3.3V*%
X117265000Y-116840000D02*
X117565000Y-117140000D01*
D31*
X112097600Y-119717600D02*
X115570000Y-123190000D01*
X112097600Y-119380001D02*
X112097600Y-119717600D01*
X112097600Y-113422400D02*
X112395000Y-113125000D01*
X141605000Y-88899999D02*
X137034000Y-93470999D01*
X115570000Y-123190000D02*
X128270000Y-123190000D01*
X112395000Y-113125000D02*
X113550000Y-113125000D01*
X113550000Y-113125000D02*
X117565000Y-117140000D01*
X137034000Y-93470999D02*
X137034000Y-94007000D01*
X128270000Y-123190000D02*
X133985000Y-117475000D01*
X133985000Y-96519999D02*
X141605000Y-88899999D01*
X141605000Y-88899999D02*
X141605000Y-75690000D01*
X141605000Y-75690000D02*
X137795000Y-71880000D01*
X112097600Y-119380001D02*
X112097600Y-113422400D01*
X133985000Y-117475000D02*
X133985000Y-96519999D01*
D32*
%TO.N,MOSI*%
X122645000Y-117139999D02*
X122645000Y-116923949D01*
%TO.N,CSN*%
X120105000Y-117140000D02*
X120825344Y-117139999D01*
%TO.N,Leg1 Coxa*%
X179070000Y-85734772D02*
X172369228Y-79034000D01*
X179070000Y-116425021D02*
X179070000Y-85734772D01*
X152569000Y-79034000D02*
X145415000Y-71880000D01*
X184134980Y-121490001D02*
X179070000Y-116425021D01*
X172369228Y-79034000D02*
X152569000Y-79034000D01*
%TO.N,Leg1 Femur*%
X172555624Y-78584000D02*
X154659000Y-78584000D01*
X184135000Y-116840000D02*
X179705000Y-112410000D01*
X179705000Y-85733377D02*
X172555624Y-78584000D01*
X154659000Y-78584000D02*
X147955000Y-71880000D01*
X179705000Y-112410000D02*
X179705000Y-85733377D01*
%TO.N,Leg1 Tibia*%
X150495000Y-72452500D02*
X150494999Y-71880000D01*
X172742020Y-78134000D02*
X156176500Y-78134000D01*
X180260000Y-85651980D02*
X172742020Y-78134000D01*
X184134996Y-112189999D02*
X180260000Y-108315003D01*
X180260000Y-108315003D02*
X180260000Y-85651980D01*
X156176500Y-78134000D02*
X150495000Y-72452500D01*
D33*
%TO.N,+BATT*%
X155575000Y-127000000D02*
X152400000Y-127000000D01*
X158750000Y-130175000D02*
X161925000Y-127000000D01*
X152400000Y-127000000D02*
X138430000Y-127000000D01*
D34*
X100330001Y-81710000D02*
X100315000Y-81709999D01*
D33*
X186705020Y-124444980D02*
X186705020Y-81740023D01*
D34*
X186705020Y-81740023D02*
X186674996Y-81709999D01*
D33*
X100330000Y-122347057D02*
X100330001Y-81710000D01*
X138430000Y-127000000D02*
X104982943Y-127000000D01*
D32*
X138430000Y-123190000D02*
X138430000Y-127000000D01*
D33*
X184150000Y-127000000D02*
X186705020Y-124444980D01*
X104982943Y-127000000D02*
X100330000Y-122347057D01*
X158750000Y-130175000D02*
X155575000Y-127000000D01*
X161925000Y-127000000D02*
X184150000Y-127000000D01*
D32*
%TO.N,Leg2 Coxa*%
X153035001Y-73063769D02*
X153035001Y-71880000D01*
X157655231Y-77684000D02*
X153035001Y-73063769D01*
X172928416Y-77684000D02*
X157655231Y-77684000D01*
X184150001Y-106250000D02*
X180710000Y-102809999D01*
X180710000Y-102809999D02*
X180710000Y-85465584D01*
X180710000Y-85465584D02*
X172928416Y-77684000D01*
%TO.N,Leg2 Femur*%
X158115000Y-74420000D02*
X155575000Y-71880000D01*
X158115000Y-76200000D02*
X158115000Y-74420000D01*
X184150001Y-101600000D02*
X181160000Y-98610000D01*
X173114812Y-77234000D02*
X159149000Y-77234000D01*
X159149000Y-77234000D02*
X158115000Y-76200000D01*
X181160000Y-85279188D02*
X173114812Y-77234000D01*
X181160000Y-98610000D02*
X181160000Y-85279188D01*
%TO.N,Leg2 Tibia*%
X184150001Y-96950000D02*
X181610000Y-94409999D01*
X160655000Y-74420000D02*
X158115000Y-71880000D01*
X173301208Y-76784000D02*
X161835231Y-76784000D01*
X160655000Y-75603769D02*
X160655000Y-74420000D01*
X181610000Y-85092792D02*
X173301208Y-76784000D01*
X161835231Y-76784000D02*
X160655000Y-75603769D01*
X181610000Y-94409999D02*
X181610000Y-85092792D01*
%TO.N,Leg3 Coxa*%
X182245000Y-89105018D02*
X182245000Y-85091396D01*
X184149992Y-91010010D02*
X182245000Y-89105018D01*
X163195000Y-75603769D02*
X163195000Y-74420000D01*
X163925231Y-76334000D02*
X163195000Y-75603769D01*
X173487604Y-76334000D02*
X163925231Y-76334000D01*
X182245000Y-85091396D02*
X173487604Y-76334000D01*
X163195000Y-74420000D02*
X160655000Y-71880000D01*
%TO.N,Leg3 Femur*%
X173673302Y-75884698D02*
X171448604Y-73660000D01*
X184150000Y-86360000D02*
X173674000Y-75884000D01*
X164975001Y-73660000D02*
X163195000Y-71879999D01*
X171448604Y-73660000D02*
X164975001Y-73660000D01*
%TO.N,Leg3 Tibia*%
X165735000Y-71880000D02*
X167065000Y-73210000D01*
X180141951Y-81710011D02*
X184150009Y-81710011D01*
X167065000Y-73210000D02*
X171641940Y-73210000D01*
X171641940Y-73210000D02*
X180141951Y-81710011D01*
%TO.N,Leg4 Coxa*%
X107050000Y-79646980D02*
X110946980Y-75750000D01*
X107050000Y-107805000D02*
X107050000Y-79646980D01*
X118928603Y-75750000D02*
X122554999Y-79376396D01*
X110946980Y-75750000D02*
X118928603Y-75750000D01*
X102869999Y-111985000D02*
X107050000Y-107805000D01*
X122554999Y-79376396D02*
X122555000Y-87120000D01*
%TO.N,Leg4 Femur*%
X102869999Y-116635000D02*
X107500000Y-112004999D01*
X111133376Y-76200000D02*
X118742207Y-76200000D01*
X118742207Y-76200000D02*
X120650000Y-78107793D01*
X107500000Y-79833376D02*
X111133376Y-76200000D01*
X120650000Y-78107793D02*
X120650000Y-81405000D01*
X120650000Y-81405000D02*
X114935000Y-87120000D01*
X107500000Y-112004999D02*
X107500000Y-79833376D01*
%TO.N,Leg4 Tibia*%
X109978482Y-88776518D02*
X132838482Y-88776518D01*
X132838482Y-88776518D02*
X133985000Y-87630000D01*
X107950000Y-90805000D02*
X109978482Y-88776518D01*
X107950000Y-116540000D02*
X107950000Y-90805000D01*
X133985000Y-73150000D02*
X135255000Y-71880000D01*
X103205000Y-121285000D02*
X107950000Y-116540000D01*
X102869999Y-121285000D02*
X103205000Y-121285000D01*
X133985000Y-87630000D02*
X133985000Y-73150000D01*
%TO.N,Leg5 Coxa*%
X110387792Y-74400000D02*
X122575000Y-74400000D01*
X105700000Y-93915000D02*
X105700000Y-79087792D01*
X102870000Y-96745000D02*
X105700000Y-93915000D01*
X122575000Y-74400000D02*
X125095000Y-71880000D01*
X105700000Y-79087792D02*
X110387792Y-74400000D01*
%TO.N,Leg5 Femur*%
X124952717Y-73167283D02*
X131427717Y-73167283D01*
X106150000Y-79274188D02*
X110574188Y-74850000D01*
X123270000Y-74850000D02*
X124952717Y-73167283D01*
X102870001Y-101395000D02*
X106150000Y-98115001D01*
X110574188Y-74850000D02*
X123270000Y-74850000D01*
X131427717Y-73167283D02*
X132715000Y-71880000D01*
X106150000Y-98115001D02*
X106150000Y-79274188D01*
%TO.N,Leg5 Tibia*%
X106600000Y-102315000D02*
X106600000Y-79460584D01*
X110760584Y-75300000D02*
X119114999Y-75300000D01*
X102870000Y-106045000D02*
X106600000Y-102315000D01*
X125095000Y-81280000D02*
X125095000Y-87120000D01*
X119114999Y-75300000D02*
X125095000Y-81280000D01*
X106600000Y-79460584D02*
X110760584Y-75300000D01*
%TO.N,Leg6 Coxa*%
X145415000Y-87120000D02*
X144145000Y-85850000D01*
X112844999Y-69400001D02*
X102870001Y-79374999D01*
X144145000Y-85850000D02*
X144145000Y-70483604D01*
X102870001Y-79374999D02*
X102870001Y-81710000D01*
X143061396Y-69400001D02*
X112844999Y-69400001D01*
X144145000Y-70483604D02*
X143061396Y-69400001D01*
%TO.N,Leg6 Femur*%
X104775000Y-78105000D02*
X104775000Y-84455000D01*
X104775000Y-84455000D02*
X102870000Y-86360000D01*
X141605000Y-70485000D02*
X140970000Y-69850000D01*
X143695000Y-86300000D02*
X143695000Y-74480000D01*
X143695000Y-74480000D02*
X141605001Y-72390000D01*
X141605001Y-72390000D02*
X141605000Y-70485000D01*
X142875000Y-87120000D02*
X143695000Y-86300000D01*
X140970000Y-69850000D02*
X113030000Y-69850000D01*
X113030000Y-69850000D02*
X104775000Y-78105000D01*
%TO.N,Leg6 Tibia*%
X121630000Y-73950000D02*
X110201396Y-73950000D01*
X110201396Y-73950000D02*
X105250000Y-78901396D01*
X122555000Y-71880000D02*
X122555000Y-73025000D01*
X105250000Y-78901396D02*
X105250000Y-88630001D01*
X122555000Y-73025000D02*
X121630000Y-73950000D01*
X105250000Y-88630001D02*
X102870001Y-91010000D01*
D30*
%TO.N,GND*%
X156926000Y-93281500D02*
X157600000Y-93281500D01*
D32*
%TO.N,Battery Voltage Divider*%
X138430000Y-115570000D02*
X143510000Y-115570000D01*
D29*
%TO.N,Net-(T1-Pad2)*%
X135890000Y-132212500D02*
X151130000Y-132212500D01*
D32*
%TO.N,FS3*%
X127000000Y-86993604D02*
X127000000Y-87120000D01*
%TD*%
%TA.AperFunction,NonConductor*%
G36*
X172304205Y-103385817D02*
G01*
X172327937Y-103388268D01*
X172493152Y-103421644D01*
X172515988Y-103428602D01*
X172671735Y-103493016D01*
X172692811Y-103504219D01*
X172831042Y-103595771D01*
X172833330Y-103597286D01*
X172851872Y-103612323D01*
X172971950Y-103730591D01*
X172987267Y-103748903D01*
X173082455Y-103887989D01*
X173093979Y-103908897D01*
X173164315Y-104071911D01*
X173166416Y-104077508D01*
X178955804Y-122092946D01*
X178957462Y-122099213D01*
X178996899Y-122287567D01*
X178999531Y-122313313D01*
X178999039Y-122495996D01*
X178996269Y-122521725D01*
X178957872Y-122700323D01*
X178949822Y-122724919D01*
X178875190Y-122891660D01*
X178862213Y-122914044D01*
X178754596Y-123061665D01*
X178737255Y-123080868D01*
X178601342Y-123202936D01*
X178580390Y-123218125D01*
X178422102Y-123309324D01*
X178398452Y-123319833D01*
X178224683Y-123376190D01*
X178199369Y-123381561D01*
X178007977Y-123401643D01*
X178001503Y-123401982D01*
X166165400Y-123401982D01*
X166158884Y-123401639D01*
X166080374Y-123393344D01*
X165966178Y-123381279D01*
X165940696Y-123375833D01*
X165765857Y-123318708D01*
X165742076Y-123308058D01*
X165583032Y-123215656D01*
X165562001Y-123200271D01*
X165470256Y-123117028D01*
X165425778Y-123076672D01*
X165408428Y-123057233D01*
X165301042Y-122907896D01*
X165288141Y-122885268D01*
X165214328Y-122716776D01*
X165206441Y-122691950D01*
X165169469Y-122511752D01*
X165166945Y-122485836D01*
X165168448Y-122301897D01*
X165171397Y-122276009D01*
X165213437Y-122086852D01*
X165215186Y-122080563D01*
X171260357Y-104077508D01*
X171264520Y-104065108D01*
X171266685Y-104059563D01*
X171339143Y-103897469D01*
X171350938Y-103876716D01*
X171440877Y-103748903D01*
X171447934Y-103738873D01*
X171463477Y-103720775D01*
X171585093Y-103604073D01*
X171603820Y-103589284D01*
X171745554Y-103498046D01*
X171766761Y-103487126D01*
X171923349Y-103424740D01*
X171946258Y-103418084D01*
X172111891Y-103386862D01*
X172135664Y-103384720D01*
X172304205Y-103385817D01*
G37*
%TD.AperFunction*%
%TA.AperFunction,Conductor*%
%TO.N,+BATT*%
G36*
X165826753Y-108547404D02*
G01*
X165826864Y-108547670D01*
X166813550Y-111015373D01*
X166813439Y-111024327D01*
X166812025Y-111026765D01*
X166766001Y-111087746D01*
X166765999Y-111087749D01*
X166715999Y-111161499D01*
X166665999Y-111242749D01*
X166615999Y-111331499D01*
X166566000Y-111427750D01*
X166516000Y-111531500D01*
X166466000Y-111642750D01*
X166416000Y-111761500D01*
X166366000Y-111887750D01*
X166318842Y-112013897D01*
X166312735Y-112020446D01*
X166307883Y-112021500D01*
X165324117Y-112021500D01*
X165315844Y-112018073D01*
X165313158Y-112013897D01*
X165265999Y-111887750D01*
X165215999Y-111761500D01*
X165165999Y-111642750D01*
X165115999Y-111531500D01*
X165066000Y-111427750D01*
X165016000Y-111331499D01*
X164966000Y-111242749D01*
X164916000Y-111161499D01*
X164866000Y-111087749D01*
X164819973Y-111026765D01*
X164817726Y-111018098D01*
X164818449Y-111015374D01*
X164818450Y-111015373D01*
X165805136Y-108547669D01*
X165811390Y-108541261D01*
X165820344Y-108541150D01*
X165826753Y-108547404D01*
G37*
%TD.AperFunction*%
%TD*%
%TA.AperFunction,Conductor*%
%TO.N,+3.3V*%
G36*
X154638340Y-122461707D02*
G01*
X154638480Y-122462030D01*
X154939134Y-123185510D01*
X154939144Y-123194463D01*
X154939135Y-123194485D01*
X154939134Y-123194490D01*
X154638480Y-123917969D01*
X154632141Y-123924294D01*
X154623186Y-123924283D01*
X154622862Y-123924143D01*
X154461188Y-123851165D01*
X154460857Y-123851003D01*
X154320470Y-123776682D01*
X154320208Y-123776535D01*
X154203312Y-123706739D01*
X154101567Y-123642603D01*
X154006673Y-123585304D01*
X154006672Y-123585303D01*
X154006668Y-123585301D01*
X153963022Y-123562971D01*
X153910191Y-123535941D01*
X153803704Y-123495623D01*
X153678803Y-123465459D01*
X153678798Y-123465458D01*
X153678797Y-123465458D01*
X153657194Y-123462766D01*
X153527034Y-123446547D01*
X153351291Y-123440395D01*
X153343142Y-123436681D01*
X153340000Y-123428702D01*
X153340000Y-122951297D01*
X153343427Y-122943024D01*
X153351289Y-122939604D01*
X153527036Y-122933451D01*
X153678797Y-122914541D01*
X153803706Y-122884375D01*
X153910188Y-122844059D01*
X154006668Y-122794697D01*
X154101567Y-122737396D01*
X154203312Y-122673260D01*
X154320231Y-122603449D01*
X154320430Y-122603337D01*
X154460898Y-122528973D01*
X154461168Y-122528841D01*
X154622864Y-122455855D01*
X154631813Y-122455576D01*
X154638340Y-122461707D01*
G37*
%TD.AperFunction*%
%TD*%
%TA.AperFunction,Conductor*%
%TO.N,Battery Voltage Divider*%
G36*
X143903256Y-114651164D02*
G01*
X143903791Y-114651402D01*
X144115823Y-114752227D01*
X144116364Y-114752521D01*
X144294045Y-114861600D01*
X144294492Y-114861905D01*
X144417125Y-114954371D01*
X144438891Y-114970783D01*
X144439175Y-114971012D01*
X144562197Y-115076431D01*
X144675593Y-115174991D01*
X144791053Y-115263198D01*
X144791060Y-115263203D01*
X144920388Y-115337671D01*
X144920396Y-115337675D01*
X145075451Y-115395051D01*
X145268044Y-115431950D01*
X145498932Y-115444403D01*
X145507007Y-115448269D01*
X145510000Y-115456085D01*
X145510000Y-115683914D01*
X145506573Y-115692187D01*
X145498930Y-115695597D01*
X145268047Y-115708048D01*
X145268041Y-115708049D01*
X145075448Y-115744948D01*
X145075447Y-115744949D01*
X144920396Y-115802322D01*
X144920388Y-115802326D01*
X144791060Y-115876795D01*
X144791053Y-115876800D01*
X144675593Y-115965008D01*
X144562197Y-116063567D01*
X144439175Y-116168986D01*
X144438891Y-116169215D01*
X144294498Y-116278089D01*
X144294036Y-116278404D01*
X144116368Y-116387473D01*
X144115819Y-116387771D01*
X143903794Y-116488596D01*
X143894850Y-116489054D01*
X143888203Y-116483055D01*
X143887964Y-116482517D01*
X143673045Y-115965008D01*
X143510862Y-115574485D01*
X143510854Y-115565535D01*
X143887964Y-114657481D01*
X143894302Y-114651155D01*
X143903256Y-114651164D01*
G37*
%TD.AperFunction*%
%TD*%
%TA.AperFunction,Conductor*%
%TO.N,Battery Voltage Divider*%
G36*
X147598288Y-114578437D02*
G01*
X147599504Y-114579495D01*
X148582714Y-115561723D01*
X148586145Y-115569994D01*
X148582722Y-115578269D01*
X148582714Y-115578277D01*
X147599504Y-116560504D01*
X147591229Y-116563927D01*
X147582958Y-116560496D01*
X147581900Y-116559280D01*
X147490000Y-116437654D01*
X147390000Y-116315273D01*
X147290005Y-116202864D01*
X147190003Y-116100413D01*
X147090006Y-116007933D01*
X147090000Y-116007928D01*
X146989999Y-115925410D01*
X146947952Y-115894904D01*
X146889999Y-115852858D01*
X146790004Y-115790277D01*
X146790002Y-115790276D01*
X146789999Y-115790274D01*
X146746218Y-115767236D01*
X146689998Y-115737653D01*
X146689999Y-115737653D01*
X146597110Y-115698032D01*
X146590844Y-115691634D01*
X146590000Y-115687270D01*
X146590000Y-115452729D01*
X146593427Y-115444456D01*
X146597110Y-115441967D01*
X146689999Y-115402346D01*
X146689998Y-115402346D01*
X146746218Y-115372762D01*
X146789999Y-115349725D01*
X146790004Y-115349722D01*
X146889999Y-115287141D01*
X146947952Y-115245094D01*
X146989999Y-115214589D01*
X147090000Y-115132072D01*
X147090000Y-115132071D01*
X147090006Y-115132067D01*
X147143673Y-115082432D01*
X147190000Y-115039589D01*
X147290000Y-114937140D01*
X147290005Y-114937135D01*
X147390000Y-114824726D01*
X147490000Y-114702345D01*
X147581901Y-114580718D01*
X147589622Y-114576184D01*
X147598288Y-114578437D01*
G37*
%TD.AperFunction*%
%TD*%
%TA.AperFunction,Conductor*%
%TO.N,Battery Voltage Divider*%
G36*
X150215572Y-113781359D02*
G01*
X150379274Y-113945061D01*
X150382701Y-113953334D01*
X150381246Y-113958985D01*
X150305945Y-114095512D01*
X150226396Y-114252868D01*
X150146846Y-114423349D01*
X150067297Y-114606954D01*
X149987747Y-114803685D01*
X149908198Y-115013541D01*
X149828648Y-115236521D01*
X149749099Y-115472627D01*
X149669549Y-115721858D01*
X149593742Y-115971869D01*
X149588062Y-115978792D01*
X149579150Y-115979671D01*
X149578077Y-115979287D01*
X148593782Y-115572562D01*
X148587446Y-115566238D01*
X148181790Y-114584529D01*
X148181797Y-114575577D01*
X148188135Y-114569251D01*
X148191426Y-114568423D01*
X148379079Y-114549513D01*
X148379086Y-114549511D01*
X148379094Y-114549511D01*
X148582361Y-114515903D01*
X148582363Y-114515902D01*
X148582372Y-114515901D01*
X148785654Y-114469166D01*
X148785654Y-114469167D01*
X148785661Y-114469164D01*
X148785665Y-114469164D01*
X148988958Y-114409302D01*
X149192252Y-114336315D01*
X149395545Y-114250203D01*
X149598838Y-114150966D01*
X149598842Y-114150964D01*
X149598843Y-114150964D01*
X149802132Y-114038604D01*
X150005426Y-113913116D01*
X150005425Y-113913116D01*
X150200711Y-113779964D01*
X150209474Y-113778136D01*
X150215572Y-113781359D01*
G37*
%TD.AperFunction*%
%TD*%
%TA.AperFunction,Conductor*%
%TO.N,Battery Voltage Divider*%
G36*
X148737908Y-86799412D02*
G01*
X148744233Y-86805751D01*
X148744434Y-86806274D01*
X148810692Y-86991357D01*
X148810864Y-86991927D01*
X148853066Y-87162890D01*
X148853167Y-87163396D01*
X148876170Y-87314144D01*
X148876211Y-87314483D01*
X148888891Y-87450289D01*
X148900114Y-87576195D01*
X148918757Y-87697131D01*
X148918758Y-87697138D01*
X148939734Y-87769796D01*
X148953719Y-87818238D01*
X149013894Y-87944619D01*
X149013897Y-87944623D01*
X149108176Y-88081395D01*
X149238031Y-88225441D01*
X149241025Y-88233880D01*
X149237614Y-88241548D01*
X149076548Y-88402614D01*
X149068275Y-88406041D01*
X149060441Y-88403031D01*
X148916395Y-88273176D01*
X148779623Y-88178897D01*
X148779624Y-88178897D01*
X148779619Y-88178894D01*
X148653238Y-88118719D01*
X148604796Y-88104734D01*
X148532138Y-88083758D01*
X148532131Y-88083757D01*
X148411195Y-88065114D01*
X148285289Y-88053891D01*
X148149483Y-88041211D01*
X148149154Y-88041171D01*
X147998395Y-88018166D01*
X147997890Y-88018066D01*
X147826927Y-87975864D01*
X147826363Y-87975694D01*
X147739559Y-87944619D01*
X147641274Y-87909434D01*
X147634640Y-87903420D01*
X147634202Y-87894476D01*
X147634391Y-87893981D01*
X147952438Y-87123783D01*
X147958759Y-87117448D01*
X148728954Y-86799403D01*
X148737908Y-86799412D01*
G37*
%TD.AperFunction*%
%TD*%
%TA.AperFunction,Conductor*%
%TO.N,Teensy VIN*%
G36*
X173351215Y-87117438D02*
G01*
X173357552Y-87123761D01*
X173357562Y-87123785D01*
X173675822Y-87894500D01*
X173675813Y-87903455D01*
X173669491Y-87909773D01*
X173547790Y-87960255D01*
X173503214Y-87978745D01*
X173356808Y-88040919D01*
X173234537Y-88096344D01*
X173129879Y-88149550D01*
X173129873Y-88149552D01*
X173129870Y-88149555D01*
X173129871Y-88149555D01*
X173036310Y-88205061D01*
X172972494Y-88249761D01*
X172947310Y-88267401D01*
X172856352Y-88341099D01*
X172756900Y-88430694D01*
X172642450Y-88540695D01*
X172514744Y-88667425D01*
X172506458Y-88670820D01*
X172498230Y-88667393D01*
X171807606Y-87976769D01*
X171804179Y-87968496D01*
X171807573Y-87960256D01*
X171934304Y-87832549D01*
X172044304Y-87718099D01*
X172133892Y-87618655D01*
X172133893Y-87618652D01*
X172133899Y-87618647D01*
X172207597Y-87527689D01*
X172225233Y-87502511D01*
X172269938Y-87438689D01*
X172325449Y-87345119D01*
X172378654Y-87240461D01*
X172434080Y-87118191D01*
X172496254Y-86971785D01*
X172565227Y-86805506D01*
X172571561Y-86799179D01*
X172580497Y-86799177D01*
X173351215Y-87117438D01*
G37*
%TD.AperFunction*%
%TD*%
%TA.AperFunction,Conductor*%
%TO.N,+3.3V*%
G36*
X112694275Y-119202370D02*
G01*
X112699948Y-119209298D01*
X112700203Y-119210298D01*
X112723944Y-119324381D01*
X112750288Y-119445726D01*
X112776632Y-119561821D01*
X112802976Y-119672666D01*
X112829320Y-119778262D01*
X112855664Y-119878607D01*
X112882008Y-119973702D01*
X112908352Y-120063547D01*
X112934696Y-120148142D01*
X112958765Y-120220634D01*
X112958120Y-120229566D01*
X112955934Y-120232594D01*
X112615796Y-120572732D01*
X112607523Y-120576159D01*
X112599250Y-120572732D01*
X112599215Y-120572697D01*
X112524470Y-120497311D01*
X112441452Y-120418832D01*
X112358435Y-120345603D01*
X112275417Y-120277624D01*
X112192400Y-120214896D01*
X112109382Y-120157417D01*
X112026375Y-120105195D01*
X112026376Y-120105195D01*
X111943356Y-120058214D01*
X111943354Y-120058213D01*
X111943347Y-120058209D01*
X111902746Y-120037800D01*
X111860328Y-120016479D01*
X111788856Y-119985073D01*
X111782661Y-119978608D01*
X111782852Y-119969655D01*
X111783219Y-119968896D01*
X112094607Y-119383589D01*
X112101515Y-119377897D01*
X112685366Y-119201482D01*
X112694275Y-119202370D01*
G37*
%TD.AperFunction*%
%TD*%
%TA.AperFunction,Conductor*%
%TO.N,+3.3V*%
G36*
X137728209Y-92439321D02*
G01*
X138065864Y-92776976D01*
X138069291Y-92785249D01*
X138066282Y-92793082D01*
X137962150Y-92908610D01*
X137962145Y-92908617D01*
X137886072Y-93020484D01*
X137886072Y-93020485D01*
X137839903Y-93124772D01*
X137839900Y-93124783D01*
X137818035Y-93225831D01*
X137818033Y-93225846D01*
X137814880Y-93327979D01*
X137814880Y-93327987D01*
X137824845Y-93435582D01*
X137842334Y-93552941D01*
X137861752Y-93684406D01*
X137877483Y-93834115D01*
X137877511Y-93834506D01*
X137883543Y-93994870D01*
X137880429Y-94003266D01*
X137872291Y-94007002D01*
X137871861Y-94007010D01*
X137038153Y-94007702D01*
X137029877Y-94004282D01*
X137029860Y-94004265D01*
X136441448Y-93414468D01*
X136438031Y-93406191D01*
X136441468Y-93397922D01*
X136441665Y-93397730D01*
X136592201Y-93255461D01*
X136592404Y-93255281D01*
X136731083Y-93140309D01*
X136731381Y-93140080D01*
X136854710Y-93051672D01*
X136854986Y-93051487D01*
X136968257Y-92980669D01*
X137076562Y-92918618D01*
X137184867Y-92856567D01*
X137298276Y-92785662D01*
X137421893Y-92697048D01*
X137479679Y-92649141D01*
X137560818Y-92581876D01*
X137560817Y-92581876D01*
X137560822Y-92581872D01*
X137711901Y-92439090D01*
X137720266Y-92435899D01*
X137728209Y-92439321D01*
G37*
%TD.AperFunction*%
%TD*%
%TA.AperFunction,Conductor*%
%TO.N,+3.3V*%
G36*
X113201907Y-112487295D02*
G01*
X113202245Y-112487734D01*
X113279643Y-112593465D01*
X113364287Y-112700845D01*
X113448931Y-112799975D01*
X113533575Y-112890855D01*
X113618219Y-112973485D01*
X113618225Y-112973490D01*
X113618225Y-112973491D01*
X113673148Y-113021753D01*
X113702863Y-113047865D01*
X113787507Y-113113995D01*
X113816023Y-113133494D01*
X113872147Y-113171872D01*
X113872146Y-113171872D01*
X113956792Y-113221503D01*
X113956792Y-113221504D01*
X114026717Y-113255688D01*
X114032644Y-113262400D01*
X114032089Y-113271338D01*
X114029851Y-113274472D01*
X113690270Y-113614053D01*
X113684596Y-113617188D01*
X113659945Y-113622804D01*
X113638596Y-113627669D01*
X113589308Y-113643261D01*
X113540019Y-113663214D01*
X113490731Y-113687528D01*
X113441442Y-113716204D01*
X113441436Y-113716207D01*
X113441436Y-113716208D01*
X113392153Y-113749241D01*
X113342862Y-113786640D01*
X113293573Y-113828400D01*
X113244288Y-113874518D01*
X113233079Y-113885998D01*
X113203270Y-113916527D01*
X113195039Y-113920052D01*
X113186725Y-113916724D01*
X113186626Y-113916626D01*
X112403494Y-113133494D01*
X112400067Y-113125221D01*
X112403494Y-113116948D01*
X112404402Y-113116130D01*
X113185456Y-112485541D01*
X113194044Y-112483011D01*
X113201907Y-112487295D01*
G37*
%TD.AperFunction*%
%TD*%
%TA.AperFunction,Conductor*%
%TO.N,+3.3V*%
G36*
X116547956Y-115768815D02*
G01*
X116631536Y-115846436D01*
X116685856Y-115896884D01*
X116685859Y-115896886D01*
X116685862Y-115896889D01*
X116815014Y-115996056D01*
X116815021Y-115996061D01*
X116932639Y-116066018D01*
X117044158Y-116114102D01*
X117155025Y-116147660D01*
X117155030Y-116147661D01*
X117155033Y-116147662D01*
X117270689Y-116174039D01*
X117396599Y-116200586D01*
X117538044Y-116234610D01*
X117538336Y-116234688D01*
X117697099Y-116282414D01*
X117700753Y-116283513D01*
X117701126Y-116283639D01*
X117815121Y-116326465D01*
X117878969Y-116350452D01*
X117885508Y-116356570D01*
X117885807Y-116365520D01*
X117885668Y-116365871D01*
X117567562Y-117136214D01*
X117561237Y-117142553D01*
X117561214Y-117142562D01*
X116790871Y-117460668D01*
X116781916Y-117460659D01*
X116775591Y-117454320D01*
X116775452Y-117453969D01*
X116708639Y-117276126D01*
X116708513Y-117275753D01*
X116707414Y-117272099D01*
X116659688Y-117113336D01*
X116659610Y-117113044D01*
X116625586Y-116971599D01*
X116599039Y-116845689D01*
X116572662Y-116730033D01*
X116572660Y-116730025D01*
X116539102Y-116619158D01*
X116491018Y-116507639D01*
X116421061Y-116390021D01*
X116402518Y-116365871D01*
X116321889Y-116260862D01*
X116321886Y-116260859D01*
X116321884Y-116260856D01*
X116241256Y-116174039D01*
X116193815Y-116122956D01*
X116190696Y-116114562D01*
X116194114Y-116106722D01*
X116531722Y-115769114D01*
X116539994Y-115765688D01*
X116547956Y-115768815D01*
G37*
%TD.AperFunction*%
%TD*%
%TA.AperFunction,Conductor*%
%TO.N,+3.3V*%
G36*
X138578083Y-71559340D02*
G01*
X138584408Y-71565679D01*
X138584547Y-71566030D01*
X138651359Y-71743871D01*
X138651485Y-71744244D01*
X138700303Y-71906636D01*
X138700388Y-71906953D01*
X138734412Y-72048399D01*
X138760959Y-72174309D01*
X138787338Y-72289973D01*
X138820896Y-72400841D01*
X138868981Y-72512359D01*
X138938938Y-72629978D01*
X138938940Y-72629981D01*
X138938941Y-72629982D01*
X138938942Y-72629984D01*
X139038108Y-72759136D01*
X139038111Y-72759139D01*
X139038114Y-72759143D01*
X139084201Y-72808767D01*
X139166184Y-72897043D01*
X139169303Y-72905437D01*
X139165884Y-72913278D01*
X138828278Y-73250884D01*
X138820005Y-73254311D01*
X138812043Y-73251184D01*
X138723767Y-73169201D01*
X138674143Y-73123114D01*
X138674139Y-73123111D01*
X138674136Y-73123108D01*
X138544984Y-73023942D01*
X138544982Y-73023941D01*
X138544981Y-73023940D01*
X138544978Y-73023938D01*
X138427359Y-72953981D01*
X138315841Y-72905896D01*
X138315842Y-72905896D01*
X138315839Y-72905895D01*
X138262225Y-72889667D01*
X138204973Y-72872338D01*
X138204967Y-72872336D01*
X138204965Y-72872336D01*
X138089309Y-72845959D01*
X137963399Y-72819412D01*
X137821953Y-72785388D01*
X137821636Y-72785303D01*
X137659244Y-72736485D01*
X137658871Y-72736359D01*
X137481030Y-72669547D01*
X137474491Y-72663429D01*
X137474192Y-72654479D01*
X137474318Y-72654160D01*
X137792438Y-71883783D01*
X137798759Y-71877448D01*
X138569129Y-71559331D01*
X138578083Y-71559340D01*
G37*
%TD.AperFunction*%
%TD*%
%TA.AperFunction,Conductor*%
%TO.N,+3.3V*%
G36*
X112348093Y-118183428D02*
G01*
X112350609Y-118187175D01*
X112382600Y-118263444D01*
X112417600Y-118341677D01*
X112452600Y-118414702D01*
X112487599Y-118482516D01*
X112522600Y-118545121D01*
X112557599Y-118602516D01*
X112592599Y-118654702D01*
X112627599Y-118701677D01*
X112627607Y-118701686D01*
X112627607Y-118701687D01*
X112662606Y-118743452D01*
X112689689Y-118771739D01*
X112692935Y-118780084D01*
X112689518Y-118788096D01*
X112105880Y-119372707D01*
X112097610Y-119376141D01*
X112089334Y-119372721D01*
X112089320Y-119372707D01*
X111505681Y-118788095D01*
X111502261Y-118779819D01*
X111505509Y-118771739D01*
X111532600Y-118743444D01*
X111567600Y-118701677D01*
X111602600Y-118654702D01*
X111637600Y-118602516D01*
X111672600Y-118545121D01*
X111707599Y-118482516D01*
X111742599Y-118414702D01*
X111777599Y-118341677D01*
X111812599Y-118263444D01*
X111844591Y-118187175D01*
X111850951Y-118180872D01*
X111855380Y-118180001D01*
X112339820Y-118180001D01*
X112348093Y-118183428D01*
G37*
%TD.AperFunction*%
%TD*%
%TA.AperFunction,Conductor*%
%TO.N,+3.3V*%
G36*
X112402468Y-113133078D02*
G01*
X112403203Y-113133883D01*
X113051284Y-113914629D01*
X113053931Y-113923184D01*
X113049754Y-113931105D01*
X113048414Y-113932065D01*
X113006325Y-113957975D01*
X112988663Y-113968848D01*
X112917434Y-114020731D01*
X112846205Y-114080647D01*
X112846200Y-114080652D01*
X112846199Y-114080652D01*
X112827035Y-114098934D01*
X112774975Y-114148597D01*
X112703746Y-114224580D01*
X112632517Y-114308596D01*
X112561287Y-114400647D01*
X112490058Y-114500731D01*
X112418829Y-114608848D01*
X112351024Y-114719416D01*
X112343778Y-114724678D01*
X112341050Y-114725000D01*
X111856885Y-114725000D01*
X111848612Y-114721573D01*
X111845491Y-114715957D01*
X111822340Y-114616686D01*
X111797080Y-114514664D01*
X111771819Y-114418934D01*
X111746559Y-114329496D01*
X111721300Y-114246350D01*
X111696040Y-114169496D01*
X111670779Y-114098934D01*
X111645520Y-114034664D01*
X111620260Y-113976686D01*
X111598664Y-113932498D01*
X111598110Y-113923561D01*
X111600895Y-113919097D01*
X112385924Y-113133087D01*
X112394193Y-113129656D01*
X112402468Y-113133078D01*
G37*
%TD.AperFunction*%
%TD*%
%TA.AperFunction,Conductor*%
%TO.N,Leg1 Coxa*%
G36*
X146197908Y-71559412D02*
G01*
X146204233Y-71565751D01*
X146204434Y-71566274D01*
X146270692Y-71751357D01*
X146270864Y-71751927D01*
X146313066Y-71922890D01*
X146313167Y-71923396D01*
X146336170Y-72074144D01*
X146336211Y-72074483D01*
X146348891Y-72210289D01*
X146360114Y-72336195D01*
X146378757Y-72457131D01*
X146378758Y-72457138D01*
X146399734Y-72529796D01*
X146413719Y-72578238D01*
X146473894Y-72704619D01*
X146473897Y-72704623D01*
X146568176Y-72841395D01*
X146698031Y-72985441D01*
X146701025Y-72993880D01*
X146697614Y-73001548D01*
X146536548Y-73162614D01*
X146528275Y-73166041D01*
X146520441Y-73163031D01*
X146376395Y-73033176D01*
X146239623Y-72938897D01*
X146239624Y-72938897D01*
X146239619Y-72938894D01*
X146113238Y-72878719D01*
X146064796Y-72864734D01*
X145992138Y-72843758D01*
X145992131Y-72843757D01*
X145871195Y-72825114D01*
X145745289Y-72813891D01*
X145609483Y-72801211D01*
X145609154Y-72801171D01*
X145458395Y-72778166D01*
X145457890Y-72778066D01*
X145286927Y-72735864D01*
X145286363Y-72735694D01*
X145199559Y-72704619D01*
X145101274Y-72669434D01*
X145094640Y-72663420D01*
X145094202Y-72654476D01*
X145094391Y-72653981D01*
X145412438Y-71883783D01*
X145418759Y-71877448D01*
X146188954Y-71559403D01*
X146197908Y-71559412D01*
G37*
%TD.AperFunction*%
%TD*%
%TA.AperFunction,Conductor*%
%TO.N,Leg1 Coxa*%
G36*
X183029537Y-120206968D02*
G01*
X183081665Y-120253961D01*
X183173583Y-120336823D01*
X183219468Y-120368452D01*
X183310359Y-120431105D01*
X183436740Y-120491280D01*
X183544853Y-120522492D01*
X183557839Y-120526241D01*
X183557840Y-120526241D01*
X183557843Y-120526242D01*
X183618315Y-120535564D01*
X183678784Y-120544886D01*
X183804689Y-120556108D01*
X183940522Y-120568791D01*
X183940796Y-120568824D01*
X184091601Y-120591834D01*
X184092072Y-120591928D01*
X184263062Y-120634138D01*
X184263602Y-120634301D01*
X184448705Y-120700566D01*
X184455339Y-120706580D01*
X184455777Y-120715524D01*
X184455576Y-120716047D01*
X184137542Y-121486215D01*
X184131217Y-121492554D01*
X184131194Y-121492563D01*
X183361026Y-121810597D01*
X183352071Y-121810588D01*
X183345746Y-121804249D01*
X183345545Y-121803726D01*
X183279280Y-121618623D01*
X183279117Y-121618083D01*
X183236907Y-121447093D01*
X183236813Y-121446622D01*
X183213803Y-121295817D01*
X183213770Y-121295543D01*
X183201087Y-121159710D01*
X183189865Y-121033808D01*
X183171221Y-120912864D01*
X183136259Y-120791761D01*
X183076084Y-120665380D01*
X183025385Y-120591831D01*
X182981802Y-120528604D01*
X182851948Y-120384559D01*
X182848954Y-120376120D01*
X182852364Y-120368453D01*
X183013432Y-120207385D01*
X183021704Y-120203959D01*
X183029537Y-120206968D01*
G37*
%TD.AperFunction*%
%TD*%
%TA.AperFunction,Conductor*%
%TO.N,Leg1 Femur*%
G36*
X183029557Y-115556967D02*
G01*
X183081685Y-115603960D01*
X183173603Y-115686822D01*
X183219488Y-115718451D01*
X183310379Y-115781104D01*
X183436760Y-115841279D01*
X183544873Y-115872491D01*
X183557859Y-115876240D01*
X183557860Y-115876240D01*
X183557863Y-115876241D01*
X183618335Y-115885563D01*
X183678804Y-115894885D01*
X183804709Y-115906107D01*
X183940542Y-115918790D01*
X183940816Y-115918823D01*
X184091621Y-115941833D01*
X184092092Y-115941927D01*
X184263082Y-115984137D01*
X184263622Y-115984300D01*
X184448725Y-116050565D01*
X184455359Y-116056579D01*
X184455797Y-116065523D01*
X184455596Y-116066046D01*
X184137562Y-116836214D01*
X184131237Y-116842553D01*
X184131214Y-116842562D01*
X183361046Y-117160596D01*
X183352091Y-117160587D01*
X183345766Y-117154248D01*
X183345565Y-117153725D01*
X183279300Y-116968622D01*
X183279137Y-116968082D01*
X183236927Y-116797092D01*
X183236833Y-116796621D01*
X183213823Y-116645816D01*
X183213790Y-116645542D01*
X183201107Y-116509709D01*
X183189885Y-116383807D01*
X183171241Y-116262863D01*
X183136279Y-116141760D01*
X183076104Y-116015379D01*
X183025405Y-115941830D01*
X182981822Y-115878603D01*
X182851968Y-115734558D01*
X182848974Y-115726119D01*
X182852384Y-115718452D01*
X183013452Y-115557384D01*
X183021724Y-115553958D01*
X183029557Y-115556967D01*
G37*
%TD.AperFunction*%
%TD*%
%TA.AperFunction,Conductor*%
%TO.N,Leg1 Femur*%
G36*
X148737908Y-71559412D02*
G01*
X148744233Y-71565751D01*
X148744434Y-71566274D01*
X148810692Y-71751357D01*
X148810864Y-71751927D01*
X148853066Y-71922890D01*
X148853167Y-71923396D01*
X148876170Y-72074144D01*
X148876211Y-72074483D01*
X148888891Y-72210289D01*
X148900114Y-72336195D01*
X148918757Y-72457131D01*
X148918758Y-72457138D01*
X148939734Y-72529796D01*
X148953719Y-72578238D01*
X149013894Y-72704619D01*
X149013897Y-72704623D01*
X149108176Y-72841395D01*
X149238031Y-72985441D01*
X149241025Y-72993880D01*
X149237614Y-73001548D01*
X149076548Y-73162614D01*
X149068275Y-73166041D01*
X149060441Y-73163031D01*
X148916395Y-73033176D01*
X148779623Y-72938897D01*
X148779624Y-72938897D01*
X148779619Y-72938894D01*
X148653238Y-72878719D01*
X148604796Y-72864734D01*
X148532138Y-72843758D01*
X148532131Y-72843757D01*
X148411195Y-72825114D01*
X148285289Y-72813891D01*
X148149483Y-72801211D01*
X148149154Y-72801171D01*
X147998395Y-72778166D01*
X147997890Y-72778066D01*
X147826927Y-72735864D01*
X147826363Y-72735694D01*
X147739559Y-72704619D01*
X147641274Y-72669434D01*
X147634640Y-72663420D01*
X147634202Y-72654476D01*
X147634391Y-72653981D01*
X147952438Y-71883783D01*
X147958759Y-71877448D01*
X148728954Y-71559403D01*
X148737908Y-71559412D01*
G37*
%TD.AperFunction*%
%TD*%
%TA.AperFunction,Conductor*%
%TO.N,Leg1 Tibia*%
G36*
X183029554Y-110906967D02*
G01*
X183081682Y-110953960D01*
X183173600Y-111036822D01*
X183219485Y-111068451D01*
X183310376Y-111131104D01*
X183436757Y-111191279D01*
X183544872Y-111222490D01*
X183557856Y-111226239D01*
X183557857Y-111226239D01*
X183557860Y-111226240D01*
X183618332Y-111235562D01*
X183678801Y-111244884D01*
X183804706Y-111256106D01*
X183940539Y-111268789D01*
X183940813Y-111268822D01*
X184091618Y-111291832D01*
X184092089Y-111291926D01*
X184263079Y-111334136D01*
X184263619Y-111334299D01*
X184448722Y-111400564D01*
X184455356Y-111406578D01*
X184455794Y-111415522D01*
X184455593Y-111416045D01*
X184137559Y-112186213D01*
X184131234Y-112192552D01*
X184131211Y-112192561D01*
X183361043Y-112510595D01*
X183352088Y-112510586D01*
X183345763Y-112504247D01*
X183345562Y-112503724D01*
X183279297Y-112318621D01*
X183279134Y-112318081D01*
X183236924Y-112147091D01*
X183236830Y-112146620D01*
X183213820Y-111995815D01*
X183213787Y-111995541D01*
X183201104Y-111859708D01*
X183189882Y-111733806D01*
X183171238Y-111612863D01*
X183136276Y-111491760D01*
X183076101Y-111365379D01*
X183009529Y-111268803D01*
X182981819Y-111228603D01*
X182851965Y-111084558D01*
X182848971Y-111076119D01*
X182852381Y-111068452D01*
X183013449Y-110907384D01*
X183021721Y-110903958D01*
X183029554Y-110906967D01*
G37*
%TD.AperFunction*%
%TD*%
%TA.AperFunction,Conductor*%
%TO.N,Leg1 Tibia*%
G36*
X151332619Y-71879989D02*
G01*
X151340888Y-71883423D01*
X151344308Y-71891699D01*
X151344289Y-71892360D01*
X151334415Y-72064167D01*
X151334345Y-72064793D01*
X151307659Y-72225095D01*
X151307564Y-72225553D01*
X151272206Y-72367015D01*
X151235696Y-72493991D01*
X151205630Y-72610717D01*
X151189551Y-72721646D01*
X151189551Y-72721648D01*
X151194997Y-72831244D01*
X151194998Y-72831250D01*
X151229507Y-72943964D01*
X151229508Y-72943966D01*
X151265066Y-73004116D01*
X151300625Y-73064268D01*
X151408716Y-73188377D01*
X151411565Y-73196866D01*
X151408166Y-73204334D01*
X151247360Y-73365140D01*
X151239087Y-73368567D01*
X151230839Y-73365165D01*
X151114975Y-73249997D01*
X151010644Y-73149178D01*
X150920121Y-73066845D01*
X150920122Y-73066846D01*
X150920120Y-73066845D01*
X150837424Y-72998925D01*
X150756545Y-72941324D01*
X150720752Y-72919710D01*
X150671504Y-72889970D01*
X150671503Y-72889970D01*
X150671496Y-72889966D01*
X150576283Y-72840767D01*
X150464912Y-72789644D01*
X150331389Y-72732515D01*
X150305247Y-72721646D01*
X150180495Y-72669778D01*
X150174172Y-72663438D01*
X150174172Y-72654511D01*
X150491303Y-71886532D01*
X150497628Y-71880194D01*
X150502124Y-71879299D01*
X151332619Y-71879989D01*
G37*
%TD.AperFunction*%
%TD*%
%TA.AperFunction,Conductor*%
%TO.N,+BATT*%
G36*
X139342039Y-123567765D02*
G01*
X139342517Y-123567964D01*
X139348844Y-123574302D01*
X139348835Y-123583256D01*
X139348596Y-123583794D01*
X139247771Y-123795819D01*
X139247473Y-123796368D01*
X139138404Y-123974036D01*
X139138089Y-123974498D01*
X139029215Y-124118891D01*
X139028986Y-124119175D01*
X138923567Y-124242197D01*
X138825008Y-124355593D01*
X138736800Y-124471053D01*
X138736795Y-124471060D01*
X138662326Y-124600388D01*
X138662322Y-124600396D01*
X138604949Y-124755447D01*
X138604948Y-124755448D01*
X138568049Y-124948041D01*
X138568048Y-124948047D01*
X138555597Y-125178930D01*
X138551730Y-125187007D01*
X138543914Y-125190000D01*
X138316086Y-125190000D01*
X138307813Y-125186573D01*
X138304403Y-125178930D01*
X138291950Y-124948047D01*
X138291949Y-124948041D01*
X138255050Y-124755448D01*
X138255049Y-124755447D01*
X138197675Y-124600396D01*
X138197671Y-124600388D01*
X138123203Y-124471060D01*
X138123198Y-124471053D01*
X138034991Y-124355593D01*
X137936431Y-124242197D01*
X137831012Y-124119175D01*
X137830783Y-124118891D01*
X137721909Y-123974498D01*
X137721600Y-123974045D01*
X137612521Y-123796364D01*
X137612224Y-123795816D01*
X137511403Y-123583794D01*
X137511402Y-123583792D01*
X137510945Y-123574850D01*
X137516945Y-123568203D01*
X137517468Y-123567970D01*
X138425514Y-123190862D01*
X138434464Y-123190854D01*
X139342039Y-123567765D01*
G37*
%TD.AperFunction*%
%TD*%
%TA.AperFunction,Conductor*%
%TO.N,Leg2 Coxa*%
G36*
X153041526Y-71882293D02*
G01*
X153808764Y-72200497D01*
X153815093Y-72206831D01*
X153815089Y-72215786D01*
X153814775Y-72216479D01*
X153744871Y-72358235D01*
X153744552Y-72358800D01*
X153658856Y-72492804D01*
X153658619Y-72493148D01*
X153569791Y-72612366D01*
X153485297Y-72720432D01*
X153412704Y-72820906D01*
X153359436Y-72917550D01*
X153359435Y-72917551D01*
X153337048Y-72999113D01*
X153332940Y-73014080D01*
X153340648Y-73114241D01*
X153389995Y-73221771D01*
X153389996Y-73221772D01*
X153481612Y-73332206D01*
X153484257Y-73340761D01*
X153480880Y-73347949D01*
X153320058Y-73508771D01*
X153311785Y-73512198D01*
X153303512Y-73508771D01*
X153303372Y-73508629D01*
X153183367Y-73384474D01*
X153082096Y-73271160D01*
X153001079Y-73172395D01*
X152933564Y-73083329D01*
X152872800Y-72999113D01*
X152812037Y-72914897D01*
X152744522Y-72825832D01*
X152663505Y-72727067D01*
X152562234Y-72613753D01*
X152441943Y-72489301D01*
X152438658Y-72480971D01*
X152442072Y-72472908D01*
X153028762Y-71884836D01*
X153037030Y-71881400D01*
X153041526Y-71882293D01*
G37*
%TD.AperFunction*%
%TD*%
%TA.AperFunction,Conductor*%
%TO.N,Leg2 Coxa*%
G36*
X183044558Y-104966967D02*
G01*
X183096686Y-105013960D01*
X183188604Y-105096822D01*
X183234489Y-105128451D01*
X183325380Y-105191104D01*
X183451761Y-105251279D01*
X183559874Y-105282491D01*
X183572860Y-105286240D01*
X183572861Y-105286240D01*
X183572864Y-105286241D01*
X183633336Y-105295563D01*
X183693805Y-105304885D01*
X183819710Y-105316107D01*
X183955543Y-105328790D01*
X183955817Y-105328823D01*
X184106622Y-105351833D01*
X184107093Y-105351927D01*
X184278083Y-105394137D01*
X184278623Y-105394300D01*
X184463726Y-105460565D01*
X184470360Y-105466579D01*
X184470798Y-105475523D01*
X184470597Y-105476046D01*
X184152563Y-106246214D01*
X184146238Y-106252553D01*
X184146215Y-106252562D01*
X183376047Y-106570596D01*
X183367092Y-106570587D01*
X183360767Y-106564248D01*
X183360566Y-106563725D01*
X183294301Y-106378622D01*
X183294138Y-106378082D01*
X183251928Y-106207092D01*
X183251834Y-106206621D01*
X183228824Y-106055816D01*
X183228791Y-106055542D01*
X183216108Y-105919709D01*
X183204886Y-105793807D01*
X183186242Y-105672863D01*
X183151280Y-105551760D01*
X183091105Y-105425379D01*
X183040406Y-105351830D01*
X182996823Y-105288603D01*
X182866969Y-105144558D01*
X182863975Y-105136119D01*
X182867385Y-105128452D01*
X183028453Y-104967384D01*
X183036725Y-104963958D01*
X183044558Y-104966967D01*
G37*
%TD.AperFunction*%
%TD*%
%TA.AperFunction,Conductor*%
%TO.N,Leg2 Femur*%
G36*
X156357908Y-71559412D02*
G01*
X156364233Y-71565751D01*
X156364434Y-71566274D01*
X156430692Y-71751357D01*
X156430864Y-71751927D01*
X156473066Y-71922890D01*
X156473167Y-71923396D01*
X156496170Y-72074144D01*
X156496211Y-72074483D01*
X156508891Y-72210289D01*
X156520114Y-72336195D01*
X156538757Y-72457131D01*
X156538758Y-72457138D01*
X156559734Y-72529796D01*
X156573719Y-72578238D01*
X156633894Y-72704619D01*
X156633897Y-72704623D01*
X156728176Y-72841395D01*
X156858031Y-72985441D01*
X156861025Y-72993880D01*
X156857614Y-73001548D01*
X156696548Y-73162614D01*
X156688275Y-73166041D01*
X156680441Y-73163031D01*
X156536395Y-73033176D01*
X156399623Y-72938897D01*
X156399624Y-72938897D01*
X156399619Y-72938894D01*
X156273238Y-72878719D01*
X156224796Y-72864734D01*
X156152138Y-72843758D01*
X156152131Y-72843757D01*
X156031195Y-72825114D01*
X155905289Y-72813891D01*
X155769483Y-72801211D01*
X155769154Y-72801171D01*
X155618395Y-72778166D01*
X155617890Y-72778066D01*
X155446927Y-72735864D01*
X155446363Y-72735694D01*
X155359559Y-72704619D01*
X155261274Y-72669434D01*
X155254640Y-72663420D01*
X155254202Y-72654476D01*
X155254391Y-72653981D01*
X155572438Y-71883783D01*
X155578759Y-71877448D01*
X156348954Y-71559403D01*
X156357908Y-71559412D01*
G37*
%TD.AperFunction*%
%TD*%
%TA.AperFunction,Conductor*%
%TO.N,Leg2 Femur*%
G36*
X183044557Y-100316967D02*
G01*
X183096685Y-100363960D01*
X183188603Y-100446822D01*
X183234488Y-100478451D01*
X183325379Y-100541104D01*
X183451760Y-100601279D01*
X183559873Y-100632491D01*
X183572859Y-100636240D01*
X183572860Y-100636240D01*
X183572863Y-100636241D01*
X183633335Y-100645563D01*
X183693804Y-100654885D01*
X183819709Y-100666107D01*
X183955542Y-100678790D01*
X183955816Y-100678823D01*
X184106621Y-100701833D01*
X184107092Y-100701927D01*
X184278082Y-100744137D01*
X184278622Y-100744300D01*
X184463725Y-100810565D01*
X184470359Y-100816579D01*
X184470797Y-100825523D01*
X184470596Y-100826046D01*
X184152562Y-101596214D01*
X184146237Y-101602553D01*
X184146214Y-101602562D01*
X183376046Y-101920596D01*
X183367091Y-101920587D01*
X183360766Y-101914248D01*
X183360565Y-101913725D01*
X183294300Y-101728622D01*
X183294137Y-101728082D01*
X183251927Y-101557092D01*
X183251833Y-101556621D01*
X183228823Y-101405816D01*
X183228790Y-101405542D01*
X183216107Y-101269709D01*
X183204885Y-101143807D01*
X183186241Y-101022863D01*
X183151279Y-100901760D01*
X183091104Y-100775379D01*
X183040405Y-100701830D01*
X182996822Y-100638603D01*
X182866968Y-100494558D01*
X182863974Y-100486119D01*
X182867384Y-100478452D01*
X183028452Y-100317384D01*
X183036724Y-100313958D01*
X183044557Y-100316967D01*
G37*
%TD.AperFunction*%
%TD*%
%TA.AperFunction,Conductor*%
%TO.N,Leg2 Tibia*%
G36*
X183044558Y-95666967D02*
G01*
X183096686Y-95713960D01*
X183188604Y-95796822D01*
X183234489Y-95828451D01*
X183325380Y-95891104D01*
X183451761Y-95951279D01*
X183559874Y-95982491D01*
X183572860Y-95986240D01*
X183572861Y-95986240D01*
X183572864Y-95986241D01*
X183633336Y-95995563D01*
X183693805Y-96004885D01*
X183819710Y-96016107D01*
X183955543Y-96028790D01*
X183955817Y-96028823D01*
X184106622Y-96051833D01*
X184107093Y-96051927D01*
X184278083Y-96094137D01*
X184278623Y-96094300D01*
X184463726Y-96160565D01*
X184470360Y-96166579D01*
X184470798Y-96175523D01*
X184470597Y-96176046D01*
X184152563Y-96946214D01*
X184146238Y-96952553D01*
X184146215Y-96952562D01*
X183376047Y-97270596D01*
X183367092Y-97270587D01*
X183360767Y-97264248D01*
X183360566Y-97263725D01*
X183294301Y-97078622D01*
X183294138Y-97078082D01*
X183251928Y-96907092D01*
X183251834Y-96906621D01*
X183228824Y-96755816D01*
X183228791Y-96755542D01*
X183216108Y-96619709D01*
X183204886Y-96493807D01*
X183186242Y-96372863D01*
X183151280Y-96251760D01*
X183091105Y-96125379D01*
X183040406Y-96051830D01*
X182996823Y-95988603D01*
X182866969Y-95844558D01*
X182863975Y-95836119D01*
X182867385Y-95828452D01*
X183028453Y-95667384D01*
X183036725Y-95663958D01*
X183044558Y-95666967D01*
G37*
%TD.AperFunction*%
%TD*%
%TA.AperFunction,Conductor*%
%TO.N,Leg2 Tibia*%
G36*
X158897908Y-71559412D02*
G01*
X158904233Y-71565751D01*
X158904434Y-71566274D01*
X158970692Y-71751357D01*
X158970864Y-71751927D01*
X159013066Y-71922890D01*
X159013167Y-71923396D01*
X159036170Y-72074144D01*
X159036211Y-72074483D01*
X159048891Y-72210289D01*
X159060114Y-72336195D01*
X159078757Y-72457131D01*
X159078758Y-72457138D01*
X159099734Y-72529796D01*
X159113719Y-72578238D01*
X159173894Y-72704619D01*
X159173897Y-72704623D01*
X159268176Y-72841395D01*
X159398031Y-72985441D01*
X159401025Y-72993880D01*
X159397614Y-73001548D01*
X159236548Y-73162614D01*
X159228275Y-73166041D01*
X159220441Y-73163031D01*
X159076395Y-73033176D01*
X158939623Y-72938897D01*
X158939624Y-72938897D01*
X158939619Y-72938894D01*
X158813238Y-72878719D01*
X158764796Y-72864734D01*
X158692138Y-72843758D01*
X158692131Y-72843757D01*
X158571195Y-72825114D01*
X158445289Y-72813891D01*
X158309483Y-72801211D01*
X158309154Y-72801171D01*
X158158395Y-72778166D01*
X158157890Y-72778066D01*
X157986927Y-72735864D01*
X157986363Y-72735694D01*
X157899559Y-72704619D01*
X157801274Y-72669434D01*
X157794640Y-72663420D01*
X157794202Y-72654476D01*
X157794391Y-72653981D01*
X158112438Y-71883783D01*
X158118759Y-71877448D01*
X158888954Y-71559403D01*
X158897908Y-71559412D01*
G37*
%TD.AperFunction*%
%TD*%
%TA.AperFunction,Conductor*%
%TO.N,Leg3 Coxa*%
G36*
X183044549Y-89726977D02*
G01*
X183096677Y-89773970D01*
X183188595Y-89856832D01*
X183234480Y-89888461D01*
X183325371Y-89951114D01*
X183451752Y-90011289D01*
X183559865Y-90042501D01*
X183572851Y-90046250D01*
X183572852Y-90046250D01*
X183572855Y-90046251D01*
X183633327Y-90055573D01*
X183693796Y-90064895D01*
X183819701Y-90076117D01*
X183955534Y-90088800D01*
X183955808Y-90088833D01*
X184106613Y-90111843D01*
X184107084Y-90111937D01*
X184278074Y-90154147D01*
X184278614Y-90154310D01*
X184463717Y-90220575D01*
X184470351Y-90226589D01*
X184470789Y-90235533D01*
X184470588Y-90236056D01*
X184152554Y-91006224D01*
X184146229Y-91012563D01*
X184146206Y-91012572D01*
X183376038Y-91330606D01*
X183367083Y-91330597D01*
X183360758Y-91324258D01*
X183360557Y-91323735D01*
X183294292Y-91138632D01*
X183294129Y-91138092D01*
X183251919Y-90967102D01*
X183251825Y-90966631D01*
X183228815Y-90815826D01*
X183228782Y-90815552D01*
X183216099Y-90679719D01*
X183204877Y-90553817D01*
X183186233Y-90432873D01*
X183151271Y-90311770D01*
X183091096Y-90185389D01*
X183040397Y-90111840D01*
X182996814Y-90048613D01*
X182866960Y-89904568D01*
X182863966Y-89896129D01*
X182867376Y-89888462D01*
X183028444Y-89727394D01*
X183036716Y-89723968D01*
X183044549Y-89726977D01*
G37*
%TD.AperFunction*%
%TD*%
%TA.AperFunction,Conductor*%
%TO.N,Leg3 Coxa*%
G36*
X161437908Y-71559412D02*
G01*
X161444233Y-71565751D01*
X161444434Y-71566274D01*
X161510692Y-71751357D01*
X161510864Y-71751927D01*
X161553066Y-71922890D01*
X161553167Y-71923396D01*
X161576170Y-72074144D01*
X161576211Y-72074483D01*
X161588891Y-72210289D01*
X161600114Y-72336195D01*
X161618757Y-72457131D01*
X161618758Y-72457138D01*
X161639734Y-72529796D01*
X161653719Y-72578238D01*
X161713894Y-72704619D01*
X161713897Y-72704623D01*
X161808176Y-72841395D01*
X161938031Y-72985441D01*
X161941025Y-72993880D01*
X161937614Y-73001548D01*
X161776548Y-73162614D01*
X161768275Y-73166041D01*
X161760441Y-73163031D01*
X161616395Y-73033176D01*
X161479623Y-72938897D01*
X161479624Y-72938897D01*
X161479619Y-72938894D01*
X161353238Y-72878719D01*
X161304796Y-72864734D01*
X161232138Y-72843758D01*
X161232131Y-72843757D01*
X161111195Y-72825114D01*
X160985289Y-72813891D01*
X160849483Y-72801211D01*
X160849154Y-72801171D01*
X160698395Y-72778166D01*
X160697890Y-72778066D01*
X160526927Y-72735864D01*
X160526363Y-72735694D01*
X160439559Y-72704619D01*
X160341274Y-72669434D01*
X160334640Y-72663420D01*
X160334202Y-72654476D01*
X160334391Y-72653981D01*
X160652438Y-71883783D01*
X160658759Y-71877448D01*
X161428954Y-71559403D01*
X161437908Y-71559412D01*
G37*
%TD.AperFunction*%
%TD*%
%TA.AperFunction,Conductor*%
%TO.N,Leg3 Femur*%
G36*
X183044557Y-85076967D02*
G01*
X183096685Y-85123960D01*
X183188603Y-85206822D01*
X183234488Y-85238451D01*
X183325379Y-85301104D01*
X183451760Y-85361279D01*
X183559873Y-85392491D01*
X183572859Y-85396240D01*
X183572860Y-85396240D01*
X183572863Y-85396241D01*
X183633335Y-85405563D01*
X183693804Y-85414885D01*
X183819709Y-85426107D01*
X183955542Y-85438790D01*
X183955816Y-85438823D01*
X184106621Y-85461833D01*
X184107092Y-85461927D01*
X184278082Y-85504137D01*
X184278622Y-85504300D01*
X184463725Y-85570565D01*
X184470359Y-85576579D01*
X184470797Y-85585523D01*
X184470596Y-85586046D01*
X184152562Y-86356214D01*
X184146237Y-86362553D01*
X184146214Y-86362562D01*
X183376046Y-86680596D01*
X183367091Y-86680587D01*
X183360766Y-86674248D01*
X183360565Y-86673725D01*
X183294300Y-86488622D01*
X183294137Y-86488082D01*
X183251927Y-86317092D01*
X183251833Y-86316621D01*
X183228823Y-86165816D01*
X183228790Y-86165542D01*
X183216107Y-86029709D01*
X183204885Y-85903807D01*
X183186241Y-85782863D01*
X183151279Y-85661760D01*
X183091104Y-85535379D01*
X183040405Y-85461830D01*
X182996822Y-85398603D01*
X182866968Y-85254558D01*
X182863974Y-85246119D01*
X182867384Y-85238452D01*
X183028452Y-85077384D01*
X183036724Y-85073958D01*
X183044557Y-85076967D01*
G37*
%TD.AperFunction*%
%TD*%
%TA.AperFunction,Conductor*%
%TO.N,Leg3 Femur*%
G36*
X163977908Y-71559412D02*
G01*
X163984233Y-71565751D01*
X163984434Y-71566274D01*
X164050692Y-71751357D01*
X164050864Y-71751927D01*
X164093066Y-71922890D01*
X164093167Y-71923396D01*
X164116170Y-72074143D01*
X164116211Y-72074482D01*
X164128891Y-72210289D01*
X164140114Y-72336194D01*
X164158757Y-72457130D01*
X164158758Y-72457137D01*
X164179734Y-72529795D01*
X164193719Y-72578237D01*
X164253894Y-72704619D01*
X164253897Y-72704623D01*
X164348176Y-72841394D01*
X164478031Y-72985440D01*
X164481025Y-72993879D01*
X164477614Y-73001547D01*
X164316548Y-73162613D01*
X164308275Y-73166040D01*
X164300441Y-73163030D01*
X164156395Y-73033175D01*
X164019623Y-72938897D01*
X164019624Y-72938897D01*
X164019619Y-72938894D01*
X163893238Y-72878718D01*
X163844796Y-72864733D01*
X163772138Y-72843757D01*
X163772131Y-72843756D01*
X163651195Y-72825113D01*
X163525289Y-72813891D01*
X163389482Y-72801210D01*
X163389154Y-72801170D01*
X163238395Y-72778166D01*
X163237890Y-72778066D01*
X163066927Y-72735864D01*
X163066363Y-72735694D01*
X162979559Y-72704619D01*
X162881274Y-72669434D01*
X162874640Y-72663420D01*
X162874202Y-72654476D01*
X162874391Y-72653981D01*
X163192438Y-71883783D01*
X163198759Y-71877448D01*
X163968954Y-71559403D01*
X163977908Y-71559412D01*
G37*
%TD.AperFunction*%
%TD*%
%TA.AperFunction,Conductor*%
%TO.N,Leg3 Tibia*%
G36*
X166517908Y-71559412D02*
G01*
X166524233Y-71565751D01*
X166524434Y-71566274D01*
X166590692Y-71751357D01*
X166590864Y-71751927D01*
X166633066Y-71922890D01*
X166633167Y-71923396D01*
X166656170Y-72074144D01*
X166656211Y-72074483D01*
X166668891Y-72210289D01*
X166680114Y-72336195D01*
X166698757Y-72457131D01*
X166698758Y-72457138D01*
X166719734Y-72529796D01*
X166733719Y-72578238D01*
X166793894Y-72704619D01*
X166793897Y-72704623D01*
X166888176Y-72841395D01*
X167018031Y-72985441D01*
X167021025Y-72993880D01*
X167017614Y-73001548D01*
X166856548Y-73162614D01*
X166848275Y-73166041D01*
X166840441Y-73163031D01*
X166696395Y-73033176D01*
X166559623Y-72938897D01*
X166559624Y-72938897D01*
X166559619Y-72938894D01*
X166433238Y-72878719D01*
X166384796Y-72864734D01*
X166312138Y-72843758D01*
X166312131Y-72843757D01*
X166191195Y-72825114D01*
X166065289Y-72813891D01*
X165929483Y-72801211D01*
X165929154Y-72801171D01*
X165778395Y-72778166D01*
X165777890Y-72778066D01*
X165606927Y-72735864D01*
X165606363Y-72735694D01*
X165519559Y-72704619D01*
X165421274Y-72669434D01*
X165414640Y-72663420D01*
X165414202Y-72654476D01*
X165414391Y-72653981D01*
X165732438Y-71883783D01*
X165738759Y-71877448D01*
X166508954Y-71559403D01*
X166517908Y-71559412D01*
G37*
%TD.AperFunction*%
%TD*%
%TA.AperFunction,Conductor*%
%TO.N,Leg3 Tibia*%
G36*
X183829209Y-80935535D02*
G01*
X183829436Y-80936047D01*
X184149142Y-81705522D01*
X184149151Y-81714477D01*
X184149142Y-81714500D01*
X183829436Y-82483974D01*
X183823097Y-82490299D01*
X183814142Y-82490290D01*
X183813630Y-82490062D01*
X183635903Y-82406038D01*
X183635379Y-82405757D01*
X183484660Y-82314718D01*
X183484219Y-82314423D01*
X183361358Y-82224092D01*
X183361089Y-82223882D01*
X183256095Y-82136822D01*
X183159134Y-82055731D01*
X183112799Y-82021773D01*
X183060437Y-81983398D01*
X183060429Y-81983393D01*
X182950074Y-81922482D01*
X182818163Y-81875668D01*
X182818157Y-81875667D01*
X182654777Y-81845620D01*
X182654764Y-81845618D01*
X182461103Y-81835585D01*
X182453018Y-81831735D01*
X182450008Y-81823901D01*
X182450008Y-81596120D01*
X182453435Y-81587847D01*
X182461102Y-81584436D01*
X182501313Y-81582352D01*
X182654764Y-81574402D01*
X182654768Y-81574401D01*
X182654775Y-81574401D01*
X182818161Y-81544353D01*
X182950076Y-81497538D01*
X183060430Y-81436627D01*
X183159134Y-81364290D01*
X183256095Y-81283199D01*
X183361101Y-81196128D01*
X183361358Y-81195928D01*
X183484219Y-81105596D01*
X183484652Y-81105306D01*
X183635386Y-81014257D01*
X183635895Y-81013985D01*
X183813632Y-80929957D01*
X183822574Y-80929521D01*
X183829209Y-80935535D01*
G37*
%TD.AperFunction*%
%TD*%
%TA.AperFunction,Conductor*%
%TO.N,Leg4 Coxa*%
G36*
X103991547Y-110702385D02*
G01*
X104152613Y-110863451D01*
X104156040Y-110871724D01*
X104153030Y-110879558D01*
X104023175Y-111023602D01*
X103928897Y-111160374D01*
X103928894Y-111160379D01*
X103868718Y-111286760D01*
X103868718Y-111286761D01*
X103833757Y-111407859D01*
X103833756Y-111407866D01*
X103815113Y-111528803D01*
X103803891Y-111654709D01*
X103791210Y-111790516D01*
X103791169Y-111790854D01*
X103768167Y-111941602D01*
X103768065Y-111942112D01*
X103756847Y-111987562D01*
X103725864Y-112113071D01*
X103725692Y-112113641D01*
X103659434Y-112298725D01*
X103653420Y-112305359D01*
X103644476Y-112305797D01*
X103643953Y-112305596D01*
X102873785Y-111987562D01*
X102867447Y-111981238D01*
X102549403Y-111211045D01*
X102549412Y-111202091D01*
X102555751Y-111195766D01*
X102556258Y-111195571D01*
X102741381Y-111129298D01*
X102741910Y-111129138D01*
X102912910Y-111086926D01*
X102913373Y-111086834D01*
X103064185Y-111063822D01*
X103064451Y-111063790D01*
X103200289Y-111051107D01*
X103326194Y-111039884D01*
X103378023Y-111031893D01*
X103447134Y-111021240D01*
X103568237Y-110986279D01*
X103694619Y-110926104D01*
X103831397Y-110831819D01*
X103975441Y-110701967D01*
X103983879Y-110698974D01*
X103991547Y-110702385D01*
G37*
%TD.AperFunction*%
%TD*%
%TA.AperFunction,Conductor*%
%TO.N,Leg4 Coxa*%
G36*
X122677162Y-85423427D02*
G01*
X122680573Y-85431095D01*
X122690606Y-85624755D01*
X122690608Y-85624768D01*
X122720655Y-85788148D01*
X122720656Y-85788154D01*
X122767470Y-85920066D01*
X122828381Y-86030421D01*
X122828386Y-86030429D01*
X122866762Y-86082791D01*
X122900719Y-86129125D01*
X122981810Y-86226087D01*
X123068871Y-86331080D01*
X123069081Y-86331349D01*
X123159412Y-86454211D01*
X123159707Y-86454652D01*
X123250746Y-86605371D01*
X123251027Y-86605895D01*
X123335051Y-86783622D01*
X123335489Y-86792566D01*
X123329475Y-86799200D01*
X123328963Y-86799428D01*
X122559489Y-87119133D01*
X122550534Y-87119142D01*
X122550511Y-87119133D01*
X121781036Y-86799428D01*
X121774711Y-86793089D01*
X121774720Y-86784134D01*
X121774928Y-86783663D01*
X121858975Y-86605883D01*
X121859251Y-86605371D01*
X121950295Y-86454644D01*
X121950585Y-86454211D01*
X122040917Y-86331350D01*
X122041117Y-86331093D01*
X122128188Y-86226087D01*
X122209279Y-86129126D01*
X122281616Y-86030423D01*
X122342527Y-85920069D01*
X122389342Y-85788153D01*
X122419390Y-85624767D01*
X122429425Y-85431094D01*
X122433275Y-85423010D01*
X122441106Y-85420000D01*
X122668889Y-85420000D01*
X122677162Y-85423427D01*
G37*
%TD.AperFunction*%
%TD*%
%TA.AperFunction,Conductor*%
%TO.N,Leg4 Femur*%
G36*
X103991547Y-115352385D02*
G01*
X104152613Y-115513451D01*
X104156040Y-115521724D01*
X104153030Y-115529558D01*
X104023175Y-115673603D01*
X103928896Y-115810374D01*
X103928893Y-115810379D01*
X103868718Y-115936760D01*
X103868718Y-115936761D01*
X103833757Y-116057859D01*
X103833756Y-116057866D01*
X103815113Y-116178804D01*
X103803890Y-116304709D01*
X103791210Y-116440515D01*
X103791169Y-116440854D01*
X103768166Y-116591602D01*
X103768064Y-116592112D01*
X103756846Y-116637562D01*
X103725863Y-116763071D01*
X103725691Y-116763641D01*
X103659433Y-116948725D01*
X103653419Y-116955359D01*
X103644475Y-116955797D01*
X103643952Y-116955596D01*
X102873784Y-116637562D01*
X102867446Y-116631238D01*
X102549402Y-115861045D01*
X102549411Y-115852091D01*
X102555750Y-115845766D01*
X102556257Y-115845571D01*
X102741380Y-115779298D01*
X102741909Y-115779138D01*
X102912909Y-115736926D01*
X102913372Y-115736834D01*
X103064185Y-115713822D01*
X103064451Y-115713790D01*
X103200288Y-115701107D01*
X103326194Y-115689885D01*
X103378023Y-115681894D01*
X103447134Y-115671241D01*
X103568237Y-115636279D01*
X103694618Y-115576104D01*
X103831397Y-115481820D01*
X103975441Y-115351967D01*
X103983879Y-115348974D01*
X103991547Y-115352385D01*
G37*
%TD.AperFunction*%
%TD*%
%TA.AperFunction,Conductor*%
%TO.N,Leg4 Femur*%
G36*
X116056548Y-85837385D02*
G01*
X116217614Y-85998451D01*
X116221041Y-86006724D01*
X116218031Y-86014558D01*
X116088176Y-86158603D01*
X115993897Y-86295374D01*
X115993894Y-86295379D01*
X115933719Y-86421760D01*
X115933719Y-86421761D01*
X115898758Y-86542859D01*
X115898757Y-86542866D01*
X115880114Y-86663804D01*
X115868891Y-86789709D01*
X115856211Y-86925515D01*
X115856170Y-86925854D01*
X115833167Y-87076602D01*
X115833065Y-87077112D01*
X115821847Y-87122562D01*
X115790864Y-87248071D01*
X115790692Y-87248641D01*
X115724434Y-87433725D01*
X115718420Y-87440359D01*
X115709476Y-87440797D01*
X115708953Y-87440596D01*
X114938785Y-87122562D01*
X114932447Y-87116238D01*
X114614403Y-86346045D01*
X114614412Y-86337091D01*
X114620751Y-86330766D01*
X114621258Y-86330571D01*
X114806381Y-86264298D01*
X114806910Y-86264138D01*
X114977910Y-86221926D01*
X114978373Y-86221834D01*
X115129186Y-86198822D01*
X115129452Y-86198790D01*
X115265289Y-86186107D01*
X115391195Y-86174885D01*
X115443024Y-86166894D01*
X115512135Y-86156241D01*
X115633238Y-86121279D01*
X115759619Y-86061104D01*
X115896398Y-85966820D01*
X116040442Y-85836967D01*
X116048880Y-85833974D01*
X116056548Y-85837385D01*
G37*
%TD.AperFunction*%
%TD*%
%TA.AperFunction,Conductor*%
%TO.N,Leg4 Tibia*%
G36*
X134481031Y-71559397D02*
G01*
X135251215Y-71877438D01*
X135257552Y-71883761D01*
X135257562Y-71883785D01*
X135575596Y-72653953D01*
X135575587Y-72662908D01*
X135569248Y-72669233D01*
X135568725Y-72669434D01*
X135383641Y-72735692D01*
X135383071Y-72735864D01*
X135307082Y-72754622D01*
X135212112Y-72778065D01*
X135211602Y-72778167D01*
X135147495Y-72787949D01*
X135060848Y-72801170D01*
X135060515Y-72801211D01*
X134924709Y-72813891D01*
X134798804Y-72825114D01*
X134677866Y-72843757D01*
X134677859Y-72843758D01*
X134580980Y-72871726D01*
X134556760Y-72878719D01*
X134430379Y-72938894D01*
X134430376Y-72938896D01*
X134430374Y-72938897D01*
X134293603Y-73033176D01*
X134149558Y-73163031D01*
X134141119Y-73166025D01*
X134133451Y-73162614D01*
X133972385Y-73001548D01*
X133968958Y-72993275D01*
X133971967Y-72985442D01*
X134101820Y-72841398D01*
X134196104Y-72704619D01*
X134256279Y-72578238D01*
X134291241Y-72457135D01*
X134309885Y-72336192D01*
X134321107Y-72210289D01*
X134333790Y-72074452D01*
X134333822Y-72074186D01*
X134356834Y-71923373D01*
X134356926Y-71922910D01*
X134399138Y-71751910D01*
X134399298Y-71751381D01*
X134465565Y-71566273D01*
X134471579Y-71559639D01*
X134480523Y-71559202D01*
X134481031Y-71559397D01*
G37*
%TD.AperFunction*%
%TD*%
%TA.AperFunction,Conductor*%
%TO.N,Leg4 Tibia*%
G36*
X104125779Y-120203252D02*
G01*
X104286580Y-120364053D01*
X104290007Y-120372326D01*
X104286781Y-120380393D01*
X104164228Y-120509133D01*
X104164228Y-120509132D01*
X104064570Y-120628281D01*
X104064570Y-120628282D01*
X103989674Y-120735175D01*
X103989674Y-120735176D01*
X103933555Y-120835401D01*
X103890210Y-120934565D01*
X103853646Y-121038257D01*
X103817868Y-121152079D01*
X103776880Y-121281625D01*
X103724689Y-121432493D01*
X103659635Y-121599167D01*
X103653435Y-121605628D01*
X103644482Y-121605812D01*
X103644270Y-121605727D01*
X102876533Y-121288696D01*
X102870194Y-121282371D01*
X102869299Y-121277874D01*
X102869989Y-120447050D01*
X102873423Y-120438783D01*
X102881699Y-120435363D01*
X102882021Y-120435367D01*
X103047054Y-120440414D01*
X103047351Y-120440432D01*
X103200620Y-120453204D01*
X103334816Y-120468143D01*
X103454326Y-120480027D01*
X103474882Y-120480706D01*
X103563719Y-120483643D01*
X103667523Y-120473782D01*
X103770292Y-120445232D01*
X103876575Y-120392784D01*
X103990920Y-120311226D01*
X104109620Y-120202881D01*
X104118039Y-120199837D01*
X104125779Y-120203252D01*
G37*
%TD.AperFunction*%
%TD*%
%TA.AperFunction,Conductor*%
%TO.N,Leg5 Coxa*%
G36*
X103991547Y-95462386D02*
G01*
X104152613Y-95623452D01*
X104156040Y-95631725D01*
X104153030Y-95639559D01*
X104023175Y-95783604D01*
X103950313Y-95889307D01*
X103928894Y-95920380D01*
X103868718Y-96046761D01*
X103868718Y-96046762D01*
X103833757Y-96167860D01*
X103833756Y-96167867D01*
X103815113Y-96288805D01*
X103803891Y-96414710D01*
X103791210Y-96550517D01*
X103791169Y-96550855D01*
X103768167Y-96701603D01*
X103768065Y-96702113D01*
X103756847Y-96747563D01*
X103725864Y-96873072D01*
X103725692Y-96873642D01*
X103659434Y-97058726D01*
X103653420Y-97065360D01*
X103644476Y-97065798D01*
X103643953Y-97065597D01*
X102873785Y-96747563D01*
X102867447Y-96741239D01*
X102549403Y-95971046D01*
X102549412Y-95962092D01*
X102555751Y-95955767D01*
X102556258Y-95955572D01*
X102741381Y-95889299D01*
X102741910Y-95889139D01*
X102912910Y-95846927D01*
X102913373Y-95846835D01*
X103064185Y-95823823D01*
X103064451Y-95823791D01*
X103200289Y-95811108D01*
X103326194Y-95799886D01*
X103378023Y-95791895D01*
X103447134Y-95781242D01*
X103568237Y-95746280D01*
X103694619Y-95686105D01*
X103831397Y-95591821D01*
X103975441Y-95461968D01*
X103983879Y-95458975D01*
X103991547Y-95462386D01*
G37*
%TD.AperFunction*%
%TD*%
%TA.AperFunction,Conductor*%
%TO.N,Leg5 Coxa*%
G36*
X124321031Y-71559397D02*
G01*
X125091215Y-71877438D01*
X125097552Y-71883761D01*
X125097562Y-71883785D01*
X125415596Y-72653953D01*
X125415587Y-72662908D01*
X125409248Y-72669233D01*
X125408725Y-72669434D01*
X125223641Y-72735692D01*
X125223071Y-72735864D01*
X125147082Y-72754622D01*
X125052112Y-72778065D01*
X125051602Y-72778167D01*
X124987495Y-72787949D01*
X124900848Y-72801170D01*
X124900515Y-72801211D01*
X124764709Y-72813891D01*
X124638804Y-72825114D01*
X124517866Y-72843757D01*
X124517859Y-72843758D01*
X124420980Y-72871726D01*
X124396760Y-72878719D01*
X124270379Y-72938894D01*
X124270376Y-72938896D01*
X124270374Y-72938897D01*
X124133603Y-73033176D01*
X123989558Y-73163031D01*
X123981119Y-73166025D01*
X123973451Y-73162614D01*
X123812385Y-73001548D01*
X123808958Y-72993275D01*
X123811967Y-72985442D01*
X123941820Y-72841398D01*
X124036104Y-72704619D01*
X124096279Y-72578238D01*
X124131241Y-72457135D01*
X124149885Y-72336192D01*
X124161107Y-72210289D01*
X124173790Y-72074452D01*
X124173822Y-72074186D01*
X124196834Y-71923373D01*
X124196926Y-71922910D01*
X124239138Y-71751910D01*
X124239298Y-71751381D01*
X124305565Y-71566273D01*
X124311579Y-71559639D01*
X124320523Y-71559202D01*
X124321031Y-71559397D01*
G37*
%TD.AperFunction*%
%TD*%
%TA.AperFunction,Conductor*%
%TO.N,Leg5 Femur*%
G36*
X103991549Y-100112385D02*
G01*
X104152615Y-100273451D01*
X104156042Y-100281724D01*
X104153032Y-100289558D01*
X104023177Y-100433603D01*
X103928898Y-100570374D01*
X103928895Y-100570379D01*
X103868720Y-100696760D01*
X103868720Y-100696761D01*
X103833759Y-100817859D01*
X103833758Y-100817866D01*
X103815115Y-100938804D01*
X103803892Y-101064709D01*
X103791212Y-101200515D01*
X103791171Y-101200854D01*
X103768168Y-101351602D01*
X103768066Y-101352112D01*
X103756848Y-101397562D01*
X103725865Y-101523071D01*
X103725693Y-101523641D01*
X103659435Y-101708725D01*
X103653421Y-101715359D01*
X103644477Y-101715797D01*
X103643954Y-101715596D01*
X102873786Y-101397562D01*
X102867448Y-101391238D01*
X102549404Y-100621045D01*
X102549413Y-100612091D01*
X102555752Y-100605766D01*
X102556259Y-100605571D01*
X102741382Y-100539298D01*
X102741911Y-100539138D01*
X102912911Y-100496926D01*
X102913374Y-100496834D01*
X103064187Y-100473822D01*
X103064453Y-100473790D01*
X103200290Y-100461107D01*
X103326196Y-100449885D01*
X103378025Y-100441894D01*
X103447136Y-100431241D01*
X103568239Y-100396279D01*
X103694620Y-100336104D01*
X103831399Y-100241820D01*
X103975443Y-100111967D01*
X103983881Y-100108974D01*
X103991549Y-100112385D01*
G37*
%TD.AperFunction*%
%TD*%
%TA.AperFunction,Conductor*%
%TO.N,Leg5 Femur*%
G36*
X131941031Y-71559397D02*
G01*
X132711215Y-71877438D01*
X132717552Y-71883761D01*
X132717562Y-71883785D01*
X133035596Y-72653953D01*
X133035587Y-72662908D01*
X133029248Y-72669233D01*
X133028725Y-72669434D01*
X132843641Y-72735692D01*
X132843071Y-72735864D01*
X132767082Y-72754622D01*
X132672112Y-72778065D01*
X132671602Y-72778167D01*
X132607495Y-72787949D01*
X132520848Y-72801170D01*
X132520515Y-72801211D01*
X132384709Y-72813891D01*
X132258804Y-72825114D01*
X132137866Y-72843757D01*
X132137859Y-72843758D01*
X132040980Y-72871726D01*
X132016760Y-72878719D01*
X131890379Y-72938894D01*
X131890376Y-72938896D01*
X131890374Y-72938897D01*
X131753603Y-73033176D01*
X131609558Y-73163031D01*
X131601119Y-73166025D01*
X131593451Y-73162614D01*
X131432385Y-73001548D01*
X131428958Y-72993275D01*
X131431967Y-72985442D01*
X131561820Y-72841398D01*
X131656104Y-72704619D01*
X131716279Y-72578238D01*
X131751241Y-72457135D01*
X131769885Y-72336192D01*
X131781107Y-72210289D01*
X131793790Y-72074452D01*
X131793822Y-72074186D01*
X131816834Y-71923373D01*
X131816926Y-71922910D01*
X131859138Y-71751910D01*
X131859298Y-71751381D01*
X131925565Y-71566273D01*
X131931579Y-71559639D01*
X131940523Y-71559202D01*
X131941031Y-71559397D01*
G37*
%TD.AperFunction*%
%TD*%
%TA.AperFunction,Conductor*%
%TO.N,Leg5 Tibia*%
G36*
X103991547Y-104762386D02*
G01*
X104152613Y-104923452D01*
X104156040Y-104931725D01*
X104153030Y-104939559D01*
X104023175Y-105083604D01*
X103950313Y-105189307D01*
X103928894Y-105220380D01*
X103868718Y-105346761D01*
X103868718Y-105346762D01*
X103833757Y-105467860D01*
X103833756Y-105467867D01*
X103815113Y-105588805D01*
X103803891Y-105714710D01*
X103791210Y-105850517D01*
X103791169Y-105850855D01*
X103768167Y-106001603D01*
X103768065Y-106002113D01*
X103756847Y-106047563D01*
X103725864Y-106173072D01*
X103725692Y-106173642D01*
X103659434Y-106358726D01*
X103653420Y-106365360D01*
X103644476Y-106365798D01*
X103643953Y-106365597D01*
X102873785Y-106047563D01*
X102867447Y-106041239D01*
X102549403Y-105271046D01*
X102549412Y-105262092D01*
X102555751Y-105255767D01*
X102556258Y-105255572D01*
X102741381Y-105189299D01*
X102741910Y-105189139D01*
X102912910Y-105146927D01*
X102913373Y-105146835D01*
X103064185Y-105123823D01*
X103064451Y-105123791D01*
X103200289Y-105111108D01*
X103326194Y-105099886D01*
X103378023Y-105091895D01*
X103447134Y-105081242D01*
X103568237Y-105046280D01*
X103694619Y-104986105D01*
X103831397Y-104891821D01*
X103975441Y-104761968D01*
X103983879Y-104758975D01*
X103991547Y-104762386D01*
G37*
%TD.AperFunction*%
%TD*%
%TA.AperFunction,Conductor*%
%TO.N,Leg5 Tibia*%
G36*
X125217164Y-85423427D02*
G01*
X125220575Y-85431095D01*
X125230607Y-85624756D01*
X125230609Y-85624769D01*
X125260656Y-85788149D01*
X125260657Y-85788155D01*
X125307471Y-85920066D01*
X125368382Y-86030421D01*
X125368387Y-86030429D01*
X125406762Y-86082791D01*
X125440720Y-86129126D01*
X125521811Y-86226087D01*
X125608871Y-86331081D01*
X125609081Y-86331350D01*
X125699412Y-86454211D01*
X125699707Y-86454652D01*
X125790746Y-86605371D01*
X125791027Y-86605895D01*
X125875051Y-86783622D01*
X125875489Y-86792566D01*
X125869475Y-86799200D01*
X125868963Y-86799428D01*
X125099489Y-87119134D01*
X125090534Y-87119143D01*
X125090511Y-87119134D01*
X124321036Y-86799428D01*
X124314711Y-86793089D01*
X124314720Y-86784134D01*
X124314928Y-86783663D01*
X124398975Y-86605883D01*
X124399251Y-86605371D01*
X124490295Y-86454644D01*
X124490585Y-86454211D01*
X124580917Y-86331350D01*
X124581117Y-86331093D01*
X124668188Y-86226087D01*
X124749279Y-86129126D01*
X124821616Y-86030422D01*
X124882527Y-85920068D01*
X124929342Y-85788153D01*
X124959390Y-85624767D01*
X124969425Y-85431094D01*
X124973275Y-85423010D01*
X124981109Y-85420000D01*
X125208891Y-85420000D01*
X125217164Y-85423427D01*
G37*
%TD.AperFunction*%
%TD*%
%TA.AperFunction,Conductor*%
%TO.N,Leg6 Coxa*%
G36*
X144309557Y-85836967D02*
G01*
X144361685Y-85883960D01*
X144453603Y-85966822D01*
X144499488Y-85998451D01*
X144590379Y-86061104D01*
X144716760Y-86121279D01*
X144824873Y-86152491D01*
X144837859Y-86156240D01*
X144837860Y-86156240D01*
X144837863Y-86156241D01*
X144898335Y-86165563D01*
X144958804Y-86174885D01*
X145084709Y-86186107D01*
X145220542Y-86198790D01*
X145220816Y-86198823D01*
X145371621Y-86221833D01*
X145372092Y-86221927D01*
X145543082Y-86264137D01*
X145543622Y-86264300D01*
X145728725Y-86330565D01*
X145735359Y-86336579D01*
X145735797Y-86345523D01*
X145735596Y-86346046D01*
X145417562Y-87116214D01*
X145411237Y-87122553D01*
X145411214Y-87122562D01*
X144641046Y-87440596D01*
X144632091Y-87440587D01*
X144625766Y-87434248D01*
X144625565Y-87433725D01*
X144559300Y-87248622D01*
X144559137Y-87248082D01*
X144516927Y-87077092D01*
X144516833Y-87076621D01*
X144493823Y-86925816D01*
X144493790Y-86925542D01*
X144481107Y-86789709D01*
X144469885Y-86663807D01*
X144451241Y-86542863D01*
X144416279Y-86421760D01*
X144356104Y-86295379D01*
X144305405Y-86221830D01*
X144261822Y-86158603D01*
X144131968Y-86014558D01*
X144128974Y-86006119D01*
X144132384Y-85998452D01*
X144293452Y-85837384D01*
X144301724Y-85833958D01*
X144309557Y-85836967D01*
G37*
%TD.AperFunction*%
%TD*%
%TA.AperFunction,Conductor*%
%TO.N,Leg6 Coxa*%
G36*
X102992165Y-80013427D02*
G01*
X102995576Y-80021095D01*
X103005608Y-80214756D01*
X103005610Y-80214769D01*
X103035657Y-80378149D01*
X103035658Y-80378155D01*
X103082472Y-80510066D01*
X103143383Y-80620421D01*
X103143388Y-80620429D01*
X103181763Y-80672791D01*
X103215721Y-80719126D01*
X103296812Y-80816087D01*
X103383872Y-80921081D01*
X103384082Y-80921350D01*
X103474413Y-81044211D01*
X103474708Y-81044652D01*
X103565747Y-81195371D01*
X103566028Y-81195895D01*
X103650052Y-81373622D01*
X103650490Y-81382566D01*
X103644476Y-81389200D01*
X103643964Y-81389428D01*
X102874490Y-81709134D01*
X102865535Y-81709143D01*
X102865512Y-81709134D01*
X102096037Y-81389428D01*
X102089712Y-81383089D01*
X102089721Y-81374134D01*
X102089929Y-81373663D01*
X102173976Y-81195883D01*
X102174252Y-81195371D01*
X102265296Y-81044644D01*
X102265586Y-81044211D01*
X102355918Y-80921350D01*
X102356118Y-80921093D01*
X102443189Y-80816087D01*
X102524280Y-80719126D01*
X102596617Y-80620422D01*
X102657528Y-80510068D01*
X102704343Y-80378153D01*
X102734391Y-80214767D01*
X102744426Y-80021094D01*
X102748276Y-80013010D01*
X102756110Y-80010000D01*
X102983892Y-80010000D01*
X102992165Y-80013427D01*
G37*
%TD.AperFunction*%
%TD*%
%TA.AperFunction,Conductor*%
%TO.N,Leg6 Femur*%
G36*
X103991548Y-85077385D02*
G01*
X104152614Y-85238451D01*
X104156041Y-85246724D01*
X104153031Y-85254558D01*
X104023176Y-85398603D01*
X103928897Y-85535374D01*
X103928894Y-85535379D01*
X103868719Y-85661760D01*
X103868719Y-85661761D01*
X103833758Y-85782859D01*
X103833757Y-85782866D01*
X103815114Y-85903804D01*
X103803891Y-86029709D01*
X103791211Y-86165515D01*
X103791170Y-86165854D01*
X103768167Y-86316602D01*
X103768065Y-86317112D01*
X103756847Y-86362562D01*
X103725864Y-86488071D01*
X103725692Y-86488641D01*
X103659434Y-86673725D01*
X103653420Y-86680359D01*
X103644476Y-86680797D01*
X103643953Y-86680596D01*
X102873785Y-86362562D01*
X102867447Y-86356238D01*
X102549403Y-85586045D01*
X102549412Y-85577091D01*
X102555751Y-85570766D01*
X102556258Y-85570571D01*
X102741381Y-85504298D01*
X102741910Y-85504138D01*
X102912910Y-85461926D01*
X102913373Y-85461834D01*
X103064186Y-85438822D01*
X103064452Y-85438790D01*
X103200289Y-85426107D01*
X103326195Y-85414885D01*
X103378024Y-85406894D01*
X103447135Y-85396241D01*
X103568238Y-85361279D01*
X103694619Y-85301104D01*
X103831398Y-85206820D01*
X103975442Y-85076967D01*
X103983880Y-85073974D01*
X103991548Y-85077385D01*
G37*
%TD.AperFunction*%
%TD*%
%TA.AperFunction,Conductor*%
%TO.N,Leg6 Femur*%
G36*
X143816073Y-85763081D02*
G01*
X143819500Y-85771354D01*
X143819500Y-85794496D01*
X143818793Y-85843681D01*
X143818771Y-85844107D01*
X143815735Y-85878802D01*
X143817739Y-85886282D01*
X143818136Y-85889477D01*
X143817340Y-85945018D01*
X143810120Y-86097496D01*
X143799480Y-86225309D01*
X143786560Y-86336678D01*
X143758440Y-86542974D01*
X143745520Y-86654343D01*
X143734880Y-86782156D01*
X143727660Y-86934635D01*
X143725165Y-87108481D01*
X143721620Y-87116704D01*
X143713480Y-87120013D01*
X142882831Y-87120990D01*
X142874554Y-87117573D01*
X142872006Y-87113763D01*
X142554481Y-86346213D01*
X142554485Y-86337258D01*
X142560819Y-86330929D01*
X142561505Y-86330670D01*
X142709478Y-86280049D01*
X142710038Y-86279891D01*
X142863412Y-86245097D01*
X142863731Y-86245035D01*
X143008686Y-86222341D01*
X143142575Y-86204125D01*
X143262739Y-86182737D01*
X143366672Y-86150505D01*
X143451870Y-86099754D01*
X143515828Y-86022811D01*
X143556039Y-85912002D01*
X143569026Y-85770286D01*
X143573193Y-85762360D01*
X143580677Y-85759654D01*
X143807800Y-85759654D01*
X143816073Y-85763081D01*
G37*
%TD.AperFunction*%
%TD*%
%TA.AperFunction,Conductor*%
%TO.N,Leg6 Tibia*%
G36*
X122561237Y-71884836D02*
G01*
X123147892Y-72472873D01*
X123151309Y-72481149D01*
X123147987Y-72489302D01*
X123026284Y-72614149D01*
X122922692Y-72726837D01*
X122838723Y-72824211D01*
X122767837Y-72911376D01*
X122703492Y-72993436D01*
X122639147Y-73075495D01*
X122568261Y-73162660D01*
X122484293Y-73260034D01*
X122380701Y-73372723D01*
X122259216Y-73497346D01*
X122250987Y-73500878D01*
X122242671Y-73497557D01*
X122242565Y-73497452D01*
X122081724Y-73336611D01*
X122078297Y-73328338D01*
X122081008Y-73320849D01*
X122171685Y-73212082D01*
X122221958Y-73105745D01*
X122232039Y-73006437D01*
X122208982Y-72910554D01*
X122159839Y-72814490D01*
X122091664Y-72714640D01*
X122011510Y-72607400D01*
X121926538Y-72489314D01*
X121926325Y-72488996D01*
X121843636Y-72356583D01*
X121843346Y-72356061D01*
X121775159Y-72216455D01*
X121774608Y-72207519D01*
X121780538Y-72200809D01*
X121781161Y-72200528D01*
X122548473Y-71882292D01*
X122557428Y-71882289D01*
X122561237Y-71884836D01*
G37*
%TD.AperFunction*%
%TD*%
%TA.AperFunction,Conductor*%
%TO.N,Leg6 Tibia*%
G36*
X103991549Y-89727385D02*
G01*
X104152615Y-89888451D01*
X104156042Y-89896724D01*
X104153032Y-89904558D01*
X104023177Y-90048603D01*
X103928898Y-90185374D01*
X103928895Y-90185379D01*
X103868720Y-90311760D01*
X103868720Y-90311761D01*
X103833759Y-90432859D01*
X103833758Y-90432866D01*
X103815115Y-90553804D01*
X103803892Y-90679709D01*
X103791212Y-90815515D01*
X103791171Y-90815854D01*
X103768168Y-90966602D01*
X103768066Y-90967112D01*
X103756848Y-91012562D01*
X103725865Y-91138071D01*
X103725693Y-91138641D01*
X103659435Y-91323725D01*
X103653421Y-91330359D01*
X103644477Y-91330797D01*
X103643954Y-91330596D01*
X102873786Y-91012562D01*
X102867448Y-91006238D01*
X102549404Y-90236045D01*
X102549413Y-90227091D01*
X102555752Y-90220766D01*
X102556259Y-90220571D01*
X102741382Y-90154298D01*
X102741911Y-90154138D01*
X102912911Y-90111926D01*
X102913374Y-90111834D01*
X103064187Y-90088822D01*
X103064453Y-90088790D01*
X103200290Y-90076107D01*
X103326196Y-90064885D01*
X103378025Y-90056894D01*
X103447136Y-90046241D01*
X103568239Y-90011279D01*
X103694620Y-89951104D01*
X103831399Y-89856820D01*
X103975443Y-89726967D01*
X103983881Y-89723974D01*
X103991549Y-89727385D01*
G37*
%TD.AperFunction*%
%TD*%
%TA.AperFunction,Conductor*%
%TO.N,Battery Voltage Divider*%
G36*
X143131796Y-114656945D02*
G01*
X143132035Y-114657482D01*
X143509136Y-115565513D01*
X143509145Y-115574467D01*
X143509136Y-115574487D01*
X143132035Y-116482517D01*
X143125697Y-116488844D01*
X143116743Y-116488835D01*
X143116206Y-116488596D01*
X142904181Y-116387773D01*
X142903632Y-116387475D01*
X142725962Y-116278404D01*
X142725500Y-116278089D01*
X142581107Y-116169215D01*
X142580823Y-116168986D01*
X142457801Y-116063567D01*
X142344405Y-115965008D01*
X142228945Y-115876800D01*
X142228938Y-115876795D01*
X142099609Y-115802326D01*
X142099601Y-115802322D01*
X141944550Y-115744949D01*
X141944549Y-115744948D01*
X141751957Y-115708049D01*
X141751951Y-115708048D01*
X141521070Y-115695597D01*
X141512993Y-115691730D01*
X141510000Y-115683914D01*
X141510000Y-115456085D01*
X141513427Y-115447812D01*
X141521067Y-115444403D01*
X141751955Y-115431950D01*
X141944547Y-115395051D01*
X142099602Y-115337675D01*
X142099609Y-115337671D01*
X142228938Y-115263203D01*
X142228940Y-115263200D01*
X142228946Y-115263198D01*
X142297221Y-115211037D01*
X142344405Y-115174991D01*
X142457801Y-115076431D01*
X142580833Y-114971003D01*
X142581093Y-114970793D01*
X142725515Y-114861898D01*
X142725943Y-114861606D01*
X142903641Y-114752516D01*
X142904166Y-114752231D01*
X143116207Y-114651402D01*
X143125149Y-114650945D01*
X143131796Y-114656945D01*
G37*
%TD.AperFunction*%
%TD*%
%TA.AperFunction,Conductor*%
%TO.N,Battery Voltage Divider*%
G36*
X138823256Y-114651164D02*
G01*
X138823791Y-114651402D01*
X139035823Y-114752227D01*
X139036364Y-114752521D01*
X139214045Y-114861600D01*
X139214492Y-114861905D01*
X139337125Y-114954371D01*
X139358891Y-114970783D01*
X139359175Y-114971012D01*
X139482197Y-115076431D01*
X139595593Y-115174991D01*
X139711053Y-115263198D01*
X139711060Y-115263203D01*
X139840388Y-115337671D01*
X139840396Y-115337675D01*
X139995451Y-115395051D01*
X140188044Y-115431950D01*
X140418932Y-115444403D01*
X140427007Y-115448269D01*
X140430000Y-115456085D01*
X140430000Y-115683914D01*
X140426573Y-115692187D01*
X140418930Y-115695597D01*
X140188047Y-115708048D01*
X140188041Y-115708049D01*
X139995448Y-115744948D01*
X139995447Y-115744949D01*
X139840396Y-115802322D01*
X139840388Y-115802326D01*
X139711060Y-115876795D01*
X139711053Y-115876800D01*
X139595593Y-115965008D01*
X139482197Y-116063567D01*
X139359175Y-116168986D01*
X139358891Y-116169215D01*
X139214498Y-116278089D01*
X139214036Y-116278404D01*
X139036368Y-116387473D01*
X139035819Y-116387771D01*
X138823794Y-116488596D01*
X138814850Y-116489054D01*
X138808203Y-116483055D01*
X138807964Y-116482517D01*
X138593045Y-115965008D01*
X138430862Y-115574485D01*
X138430854Y-115565535D01*
X138807964Y-114657481D01*
X138814302Y-114651155D01*
X138823256Y-114651164D01*
G37*
%TD.AperFunction*%
%TD*%
%TA.AperFunction,Conductor*%
%TO.N,+BATT*%
G36*
X138552182Y-124772417D02*
G01*
X138555592Y-124780066D01*
X138567155Y-124996446D01*
X138567157Y-124996455D01*
X138601928Y-125187483D01*
X138638107Y-125293852D01*
X138656756Y-125348680D01*
X138729089Y-125486651D01*
X138816367Y-125607993D01*
X138916027Y-125719306D01*
X138916026Y-125719306D01*
X139025547Y-125827228D01*
X139142340Y-125938328D01*
X139263762Y-126059124D01*
X139263982Y-126059356D01*
X139379448Y-126187516D01*
X139382440Y-126195956D01*
X139378587Y-126204039D01*
X139378282Y-126204305D01*
X138437526Y-126994677D01*
X138428987Y-126997375D01*
X138422474Y-126994677D01*
X137481717Y-126204305D01*
X137477587Y-126196360D01*
X137480285Y-126187821D01*
X137480531Y-126187538D01*
X137596041Y-126059329D01*
X137596227Y-126059132D01*
X137717659Y-125938328D01*
X137834451Y-125827228D01*
X137943961Y-125719317D01*
X137943962Y-125719315D01*
X137943972Y-125719306D01*
X137994834Y-125662496D01*
X138043633Y-125607992D01*
X138130912Y-125486647D01*
X138203243Y-125348679D01*
X138258071Y-125187483D01*
X138292842Y-124996455D01*
X138292842Y-124996450D01*
X138292843Y-124996446D01*
X138304408Y-124780066D01*
X138308271Y-124771987D01*
X138316091Y-124768990D01*
X138543909Y-124768990D01*
X138552182Y-124772417D01*
G37*
%TD.AperFunction*%
%TD*%
%TA.AperFunction,Conductor*%
%TO.N,+BATT*%
G36*
X138552182Y-124772417D02*
G01*
X138555592Y-124780066D01*
X138567155Y-124996446D01*
X138567157Y-124996455D01*
X138601928Y-125187483D01*
X138638107Y-125293852D01*
X138656756Y-125348680D01*
X138729089Y-125486651D01*
X138816367Y-125607993D01*
X138916027Y-125719306D01*
X138916026Y-125719306D01*
X139025547Y-125827228D01*
X139142340Y-125938328D01*
X139263762Y-126059124D01*
X139263982Y-126059356D01*
X139379448Y-126187516D01*
X139382440Y-126195956D01*
X139378587Y-126204039D01*
X139378282Y-126204305D01*
X138437526Y-126994677D01*
X138428987Y-126997375D01*
X138422474Y-126994677D01*
X137481717Y-126204305D01*
X137477587Y-126196360D01*
X137480285Y-126187821D01*
X137480531Y-126187538D01*
X137596041Y-126059329D01*
X137596227Y-126059132D01*
X137717659Y-125938328D01*
X137834451Y-125827228D01*
X137943961Y-125719317D01*
X137943962Y-125719315D01*
X137943972Y-125719306D01*
X137994834Y-125662496D01*
X138043633Y-125607992D01*
X138130912Y-125486647D01*
X138203243Y-125348679D01*
X138258071Y-125187483D01*
X138292842Y-124996455D01*
X138292842Y-124996450D01*
X138292843Y-124996446D01*
X138304408Y-124780066D01*
X138308271Y-124771987D01*
X138316091Y-124768990D01*
X138543909Y-124768990D01*
X138552182Y-124772417D01*
G37*
%TD.AperFunction*%
%TD*%
%TA.AperFunction,Conductor*%
%TO.N,+BATT*%
G36*
X159246868Y-127947417D02*
G01*
X159250290Y-127955391D01*
X159255684Y-128166855D01*
X159272434Y-128363363D01*
X159299792Y-128537333D01*
X159337303Y-128692587D01*
X159383299Y-128829348D01*
X159384511Y-128832951D01*
X159440954Y-128962229D01*
X159473568Y-129023243D01*
X159506183Y-129084258D01*
X159579731Y-129202845D01*
X159579730Y-129202845D01*
X159661162Y-129321837D01*
X159743200Y-129435601D01*
X159745259Y-129444315D01*
X159740614Y-129451890D01*
X158756904Y-130170953D01*
X158748203Y-130173068D01*
X158743096Y-130170953D01*
X157759385Y-129451890D01*
X157754728Y-129444241D01*
X157756799Y-129435601D01*
X157838837Y-129321837D01*
X157920269Y-129202845D01*
X157920268Y-129202845D01*
X157993816Y-129084258D01*
X158026430Y-129023243D01*
X158059044Y-128962229D01*
X158115488Y-128832951D01*
X158116699Y-128829348D01*
X158162696Y-128692587D01*
X158200207Y-128537333D01*
X158227565Y-128363363D01*
X158244315Y-128166855D01*
X158249709Y-127955391D01*
X158253345Y-127947209D01*
X158261405Y-127943990D01*
X159238595Y-127943990D01*
X159246868Y-127947417D01*
G37*
%TD.AperFunction*%
%TD*%
%TA.AperFunction,Conductor*%
%TO.N,+BATT*%
G36*
X159246868Y-127947417D02*
G01*
X159250290Y-127955391D01*
X159255684Y-128166855D01*
X159272434Y-128363363D01*
X159299792Y-128537333D01*
X159337303Y-128692587D01*
X159383299Y-128829348D01*
X159384511Y-128832951D01*
X159440954Y-128962229D01*
X159473568Y-129023243D01*
X159506183Y-129084258D01*
X159579731Y-129202845D01*
X159579730Y-129202845D01*
X159661162Y-129321837D01*
X159743200Y-129435601D01*
X159745259Y-129444315D01*
X159740614Y-129451890D01*
X158756904Y-130170953D01*
X158748203Y-130173068D01*
X158743096Y-130170953D01*
X157759385Y-129451890D01*
X157754728Y-129444241D01*
X157756799Y-129435601D01*
X157838837Y-129321837D01*
X157920269Y-129202845D01*
X157920268Y-129202845D01*
X157993816Y-129084258D01*
X158026430Y-129023243D01*
X158059044Y-128962229D01*
X158115488Y-128832951D01*
X158116699Y-128829348D01*
X158162696Y-128692587D01*
X158200207Y-128537333D01*
X158227565Y-128363363D01*
X158244315Y-128166855D01*
X158249709Y-127955391D01*
X158253345Y-127947209D01*
X158261405Y-127943990D01*
X159238595Y-127943990D01*
X159246868Y-127947417D01*
G37*
%TD.AperFunction*%
%TD*%
%TA.AperFunction,Conductor*%
%TO.N,+BATT*%
G36*
X159247171Y-126696655D02*
G01*
X159250582Y-126704315D01*
X159259991Y-126883546D01*
X159287747Y-127062441D01*
X159287749Y-127062448D01*
X159329937Y-127228346D01*
X159383241Y-127379749D01*
X159444327Y-127515097D01*
X159509861Y-127632834D01*
X159509860Y-127632834D01*
X159576527Y-127731443D01*
X159640985Y-127809364D01*
X159640987Y-127809366D01*
X159640988Y-127809367D01*
X159699922Y-127865075D01*
X159699924Y-127865076D01*
X159741552Y-127891633D01*
X159746683Y-127898972D01*
X159745973Y-127906198D01*
X158760714Y-130151583D01*
X158754252Y-130157782D01*
X158745299Y-130157596D01*
X158739286Y-130151583D01*
X157754026Y-127906197D01*
X157753840Y-127897244D01*
X157758447Y-127891633D01*
X157800077Y-127865075D01*
X157859011Y-127809367D01*
X157859012Y-127809365D01*
X157859017Y-127809361D01*
X157923466Y-127731448D01*
X157923473Y-127731440D01*
X157964410Y-127670887D01*
X157990138Y-127632834D01*
X157990137Y-127632834D01*
X158055676Y-127515088D01*
X158116758Y-127379749D01*
X158170062Y-127228346D01*
X158212249Y-127062448D01*
X158212251Y-127062441D01*
X158212252Y-127062438D01*
X158240008Y-126883549D01*
X158249418Y-126704315D01*
X158253274Y-126696232D01*
X158261102Y-126693228D01*
X159238898Y-126693228D01*
X159247171Y-126696655D01*
G37*
%TD.AperFunction*%
%TD*%
%TA.AperFunction,Conductor*%
%TO.N,+BATT*%
G36*
X160339583Y-126834198D02*
G01*
X160339694Y-126834308D01*
X162090691Y-128585305D01*
X162094118Y-128593578D01*
X162090691Y-128601851D01*
X162090580Y-128601961D01*
X161746358Y-128937141D01*
X161722032Y-128960828D01*
X161340066Y-129315910D01*
X161163246Y-129474082D01*
X160964422Y-129651937D01*
X160606343Y-129961913D01*
X160277074Y-130238840D01*
X159987857Y-130475720D01*
X159749938Y-130665554D01*
X159574559Y-130801347D01*
X159474144Y-130875231D01*
X159471605Y-130876650D01*
X159463585Y-130879901D01*
X159454631Y-130879833D01*
X159450917Y-130877331D01*
X158047668Y-129474082D01*
X158044241Y-129465809D01*
X158045098Y-129461414D01*
X158048349Y-129453393D01*
X158049768Y-129450854D01*
X158123652Y-129350439D01*
X158259444Y-129175061D01*
X158449279Y-128937141D01*
X158686158Y-128647924D01*
X158963085Y-128318655D01*
X159273061Y-127960576D01*
X159609089Y-127584932D01*
X159964171Y-127202967D01*
X160323038Y-126834419D01*
X160331265Y-126830882D01*
X160339583Y-126834198D01*
G37*
%TD.AperFunction*%
%TD*%
%TA.AperFunction,Conductor*%
%TO.N,+BATT*%
G36*
X157176851Y-126834308D02*
G01*
X157176961Y-126834419D01*
X157535828Y-127202967D01*
X157890910Y-127584932D01*
X158226937Y-127960576D01*
X158536913Y-128318655D01*
X158813840Y-128647924D01*
X159050720Y-128937141D01*
X159240554Y-129175061D01*
X159376347Y-129350439D01*
X159450230Y-129450854D01*
X159451649Y-129453392D01*
X159454901Y-129461413D01*
X159454833Y-129470368D01*
X159452331Y-129474082D01*
X158750707Y-130175707D01*
X158049082Y-130877331D01*
X158040809Y-130880758D01*
X158036414Y-130879901D01*
X158033687Y-130878796D01*
X158028392Y-130876649D01*
X158025854Y-130875230D01*
X157925439Y-130801347D01*
X157750061Y-130665554D01*
X157512141Y-130475720D01*
X157222924Y-130238840D01*
X156893655Y-129961913D01*
X156535576Y-129651937D01*
X156159932Y-129315910D01*
X155777967Y-128960828D01*
X155409419Y-128601961D01*
X155405882Y-128593734D01*
X155409198Y-128585416D01*
X157160306Y-126834307D01*
X157168578Y-126830881D01*
X157176851Y-126834308D01*
G37*
%TD.AperFunction*%
%TD*%
M02*
