%TF.GenerationSoftware,KiCad,Pcbnew,7.0.8*%
%TF.CreationDate,2025-03-22T19:36:19-04:00*%
%TF.ProjectId,Hexapod PCB KiCad Project,48657861-706f-4642-9050-4342204b6943,rev?*%
%TF.SameCoordinates,Original*%
%TF.FileFunction,Soldermask,Bot*%
%TF.FilePolarity,Negative*%
%FSLAX46Y46*%
G04 Gerber Fmt 4.6, Leading zero omitted, Abs format (unit mm)*
G04 Created by KiCad (PCBNEW 7.0.8) date 2025-03-22 19:36:19*
%MOMM*%
%LPD*%
G01*
G04 APERTURE LIST*
G04 Aperture macros list*
%AMRoundRect*
0 Rectangle with rounded corners*
0 $1 Rounding radius*
0 $2 $3 $4 $5 $6 $7 $8 $9 X,Y pos of 4 corners*
0 Add a 4 corners polygon primitive as box body*
4,1,4,$2,$3,$4,$5,$6,$7,$8,$9,$2,$3,0*
0 Add four circle primitives for the rounded corners*
1,1,$1+$1,$2,$3*
1,1,$1+$1,$4,$5*
1,1,$1+$1,$6,$7*
1,1,$1+$1,$8,$9*
0 Add four rect primitives between the rounded corners*
20,1,$1+$1,$2,$3,$4,$5,0*
20,1,$1+$1,$4,$5,$6,$7,0*
20,1,$1+$1,$6,$7,$8,$9,0*
20,1,$1+$1,$8,$9,$2,$3,0*%
G04 Aperture macros list end*
%ADD10O,1.600000X1.600000*%
%ADD11C,1.600000*%
%ADD12R,1.800000X1.800000*%
%ADD13C,1.800000*%
%ADD14R,1.700000X1.700000*%
%ADD15O,1.700000X1.700000*%
%ADD16C,3.200000*%
%ADD17C,1.904000*%
%ADD18O,2.000000X2.000000*%
%ADD19R,3.000000X3.000000*%
%ADD20C,3.000000*%
%ADD21RoundRect,0.102000X-2.000000X-2.000000X2.000000X-2.000000X2.000000X2.000000X-2.000000X2.000000X0*%
%ADD22C,4.204000*%
%ADD23C,1.700000*%
%ADD24C,1.200000*%
%ADD25R,1.200000X1.200000*%
%ADD26R,1.600000X1.600000*%
%ADD27C,2.000000*%
%ADD28R,2.000000X2.000000*%
G04 APERTURE END LIST*
D10*
%TO.C,R3*%
X154940000Y-123190000D03*
D11*
X154940000Y-115570000D03*
%TD*%
D12*
%TO.C,D2*%
X146050000Y-64770000D03*
D13*
X146050000Y-67310000D03*
%TD*%
D14*
%TO.C,B2*%
X152400000Y-64770000D03*
D15*
X152400000Y-67310000D03*
%TD*%
D16*
%TO.C,H3*%
X167640000Y-137202000D03*
%TD*%
%TO.C,H2*%
X119640000Y-66040000D03*
%TD*%
%TO.C,H4*%
X167640000Y-66039999D03*
%TD*%
D14*
%TO.C,B4*%
X161290000Y-64770000D03*
D15*
X161290000Y-67310000D03*
%TD*%
D17*
%TO.C,U4*%
X137034000Y-94007000D03*
X137034000Y-96547000D03*
X137034000Y-99087000D03*
X137034000Y-101627000D03*
X137034000Y-104167000D03*
X137034000Y-106707000D03*
X137034000Y-109247000D03*
X137034000Y-111787000D03*
%TD*%
D18*
%TO.C,R2*%
X143510000Y-115570000D03*
X143510000Y-123190000D03*
%TD*%
D19*
%TO.C,C4*%
X113030000Y-127080000D03*
D20*
X113030000Y-132080000D03*
%TD*%
D21*
%TO.C,T1*%
X128270000Y-132212500D03*
D22*
X135890000Y-132212500D03*
%TD*%
D16*
%TO.C,H1*%
X119640001Y-137202000D03*
%TD*%
D23*
%TO.C,B1*%
X125095000Y-66040000D03*
D15*
X127635000Y-66040000D03*
X130175000Y-66040000D03*
X132715000Y-66040000D03*
X135255000Y-66040000D03*
X137795000Y-66040000D03*
X140335000Y-66040000D03*
%TD*%
D22*
%TO.C,T2*%
X151130000Y-132212500D03*
X158750000Y-132212500D03*
%TD*%
D24*
%TO.C,C2*%
X110097600Y-119380001D03*
D25*
X112097600Y-119380001D03*
%TD*%
D26*
%TO.C,C1*%
X112395000Y-113125000D03*
D11*
X110395000Y-113125000D03*
%TD*%
D27*
%TO.C,R1*%
X138430000Y-123190000D03*
D18*
X138430000Y-115570000D03*
%TD*%
%TO.C,D1*%
X148590000Y-120650000D03*
D28*
X148590000Y-115570000D03*
%TD*%
D14*
%TO.C,B3*%
X156845000Y-64765000D03*
D15*
X156845000Y-67305000D03*
%TD*%
D20*
%TO.C,C3*%
X173990000Y-132080000D03*
D19*
X173990000Y-127080000D03*
%TD*%
D14*
%TO.C,U3*%
X117565000Y-119680000D03*
D23*
X117565000Y-117140000D03*
X120105000Y-119680000D03*
X120105000Y-117140000D03*
X122645000Y-119680000D03*
X122645000Y-117140000D03*
X125185000Y-119680000D03*
X125185000Y-117140000D03*
%TD*%
D17*
%TO.C,U1*%
X170815000Y-84580000D03*
X173355000Y-87120000D03*
X127635000Y-74420000D03*
X156845000Y-74930000D03*
X159385000Y-74930000D03*
X160385000Y-80670000D03*
X158385000Y-80670000D03*
X158385000Y-84670000D03*
X160385000Y-84670000D03*
X127635000Y-82040000D03*
X127635000Y-84580000D03*
X160385000Y-82670000D03*
X158385000Y-82670000D03*
X127635000Y-79500000D03*
X170815000Y-87120000D03*
X137795000Y-87120000D03*
X173355000Y-71880000D03*
X164465000Y-74930000D03*
X161925000Y-74930000D03*
X135255000Y-87120000D03*
X132715000Y-87120000D03*
X130175000Y-87120000D03*
X127635000Y-87120000D03*
X125095000Y-87120000D03*
X122555000Y-87120000D03*
X120015000Y-87120000D03*
X117475000Y-87120000D03*
X114935000Y-87120000D03*
X114935000Y-71880000D03*
X117475000Y-71880000D03*
X120015000Y-71880000D03*
X122555000Y-71880000D03*
X125095000Y-71880000D03*
X127635000Y-71880000D03*
X130175000Y-71880000D03*
X132715000Y-71880000D03*
X135255000Y-71880000D03*
X165735000Y-87120000D03*
X163195000Y-87120000D03*
X160655000Y-87120000D03*
X158115000Y-87120000D03*
X155575000Y-87120000D03*
X153035000Y-87120000D03*
X150495000Y-87120000D03*
X147955000Y-87120000D03*
X145415000Y-87120000D03*
X142875000Y-87120000D03*
X140335000Y-87120000D03*
X140335000Y-71880000D03*
X142875000Y-71880000D03*
X145415000Y-71880000D03*
X147955000Y-71880000D03*
X150495000Y-71880000D03*
X153035000Y-71880000D03*
X155575000Y-71880000D03*
X167005000Y-74930000D03*
X158115000Y-71880000D03*
X160655000Y-71880000D03*
X127635000Y-76960000D03*
X168275000Y-87120000D03*
X137795000Y-71880000D03*
X163195000Y-71880000D03*
X165735000Y-71880000D03*
X168275000Y-71880000D03*
X170815000Y-71880000D03*
%TD*%
D14*
%TO.C,Cox2*%
X97790000Y-96745001D03*
D15*
X100330000Y-96745001D03*
X102870000Y-96745001D03*
%TD*%
D14*
%TO.C,Cox6*%
X189214980Y-121490001D03*
D15*
X186674980Y-121490001D03*
X184134980Y-121490001D03*
%TD*%
D14*
%TO.C,Tib2*%
X97790000Y-106045001D03*
D15*
X100330000Y-106045001D03*
X102870000Y-106045001D03*
%TD*%
D14*
%TO.C,FS4*%
X175900000Y-91235000D03*
D15*
X173360000Y-91235000D03*
%TD*%
D14*
%TO.C,Cox5*%
X189230001Y-106250000D03*
D15*
X186690001Y-106250000D03*
X184150001Y-106250000D03*
%TD*%
D14*
%TO.C,Tib1*%
X97790001Y-91010000D03*
D15*
X100330001Y-91010000D03*
X102870001Y-91010000D03*
%TD*%
D14*
%TO.C,Fem4*%
X189230000Y-86360000D03*
D15*
X186690000Y-86360000D03*
X184150000Y-86360000D03*
%TD*%
D14*
%TO.C,Fem3*%
X97789999Y-116635000D03*
D15*
X100329999Y-116635000D03*
X102869999Y-116635000D03*
%TD*%
D14*
%TO.C,Tib6*%
X189214997Y-112189999D03*
D15*
X186674997Y-112189999D03*
X184134997Y-112189999D03*
%TD*%
D14*
%TO.C,Fem5*%
X189230000Y-101600000D03*
D15*
X186690000Y-101600000D03*
X184150000Y-101600000D03*
%TD*%
D14*
%TO.C,Cox1*%
X97790001Y-81710000D03*
D15*
X100330001Y-81710000D03*
X102870001Y-81710000D03*
%TD*%
D14*
%TO.C,FS2*%
X110495000Y-95250000D03*
D15*
X113035000Y-95250000D03*
%TD*%
D14*
%TO.C,FS5*%
X175900001Y-95885000D03*
D15*
X173360001Y-95885000D03*
%TD*%
D14*
%TO.C,Cox4*%
X189229992Y-91010010D03*
D15*
X186689992Y-91010010D03*
X184149992Y-91010010D03*
%TD*%
D14*
%TO.C,Fem2*%
X97790001Y-101395000D03*
D15*
X100330001Y-101395000D03*
X102870001Y-101395000D03*
%TD*%
D14*
%TO.C,Tib5*%
X189230001Y-96950000D03*
D15*
X186690001Y-96950000D03*
X184150001Y-96950000D03*
%TD*%
D14*
%TO.C,Fem1*%
X97790000Y-86360000D03*
D15*
X100330000Y-86360000D03*
X102870000Y-86360000D03*
%TD*%
D14*
%TO.C,Cox3*%
X97790000Y-111985000D03*
D15*
X100330000Y-111985000D03*
X102870000Y-111985000D03*
%TD*%
D14*
%TO.C,FS1*%
X110490000Y-90805000D03*
D15*
X113030000Y-90805000D03*
%TD*%
D14*
%TO.C,Tib3*%
X97790000Y-121285000D03*
D15*
X100330000Y-121285000D03*
X102870000Y-121285000D03*
%TD*%
D14*
%TO.C,FS3*%
X110490000Y-99695000D03*
D15*
X113030000Y-99695000D03*
%TD*%
%TO.C,FS6*%
X173360000Y-100535000D03*
D14*
X175900000Y-100535000D03*
%TD*%
%TO.C,Fem6*%
X189215000Y-116840000D03*
D15*
X186675000Y-116840000D03*
X184135000Y-116840000D03*
%TD*%
D14*
%TO.C,Tib4*%
X189230008Y-81710011D03*
D15*
X186690008Y-81710011D03*
X184150008Y-81710011D03*
%TD*%
M02*
