%TF.GenerationSoftware,KiCad,Pcbnew,7.0.8*%
%TF.CreationDate,2025-03-22T19:36:18-04:00*%
%TF.ProjectId,Hexapod PCB KiCad Project,48657861-706f-4642-9050-4342204b6943,rev?*%
%TF.SameCoordinates,Original*%
%TF.FileFunction,Copper,L3,Inr*%
%TF.FilePolarity,Positive*%
%FSLAX46Y46*%
G04 Gerber Fmt 4.6, Leading zero omitted, Abs format (unit mm)*
G04 Created by KiCad (PCBNEW 7.0.8) date 2025-03-22 19:36:18*
%MOMM*%
%LPD*%
G01*
G04 APERTURE LIST*
%TA.AperFunction,ComponentPad*%
%ADD10O,1.600000X1.600000*%
%TD*%
%TA.AperFunction,ComponentPad*%
%ADD11C,1.600000*%
%TD*%
%TA.AperFunction,ComponentPad*%
%ADD12R,1.800000X1.800000*%
%TD*%
%TA.AperFunction,ComponentPad*%
%ADD13C,1.800000*%
%TD*%
%TA.AperFunction,ComponentPad*%
%ADD14R,1.700000X1.700000*%
%TD*%
%TA.AperFunction,ComponentPad*%
%ADD15O,1.700000X1.700000*%
%TD*%
%TA.AperFunction,ComponentPad*%
%ADD16C,1.700000*%
%TD*%
%TA.AperFunction,ComponentPad*%
%ADD17O,2.000000X2.000000*%
%TD*%
%TA.AperFunction,ComponentPad*%
%ADD18R,3.000000X3.000000*%
%TD*%
%TA.AperFunction,ComponentPad*%
%ADD19C,3.000000*%
%TD*%
%TA.AperFunction,ComponentPad*%
%ADD20R,4.000000X4.000000*%
%TD*%
%TA.AperFunction,ComponentPad*%
%ADD21C,4.000000*%
%TD*%
%TA.AperFunction,ComponentPad*%
%ADD22C,1.200000*%
%TD*%
%TA.AperFunction,ComponentPad*%
%ADD23R,1.200000X1.200000*%
%TD*%
%TA.AperFunction,ComponentPad*%
%ADD24R,1.600000X1.600000*%
%TD*%
%TA.AperFunction,ComponentPad*%
%ADD25C,2.000000*%
%TD*%
%TA.AperFunction,ComponentPad*%
%ADD26R,2.000000X2.000000*%
%TD*%
%TA.AperFunction,ViaPad*%
%ADD27C,0.800000*%
%TD*%
%TA.AperFunction,Conductor*%
%ADD28C,0.750000*%
%TD*%
%TA.AperFunction,Conductor*%
%ADD29C,0.250000*%
%TD*%
G04 APERTURE END LIST*
D10*
%TO.N,+3.3V*%
%TO.C,R3*%
X154940000Y-123190000D03*
D11*
%TO.N,Net-(D2-A)*%
X154940000Y-115570000D03*
%TD*%
D12*
%TO.N,GND*%
%TO.C,D2*%
X146050000Y-64770000D03*
D13*
%TO.N,Net-(D2-A)*%
X146050000Y-67310000D03*
%TD*%
D14*
%TO.N,GND*%
%TO.C,B2*%
X152400000Y-64770000D03*
D15*
X152400000Y-67310000D03*
%TD*%
D14*
%TO.N,Teensy VIN*%
%TO.C,B4*%
X161290000Y-64770000D03*
D15*
X161290000Y-67310000D03*
%TD*%
D16*
%TO.N,+3.3V*%
%TO.C,U4*%
X137034000Y-94007000D03*
%TO.N,GND*%
X137034000Y-96547000D03*
%TO.N,Gyro SCL*%
X137034000Y-99087000D03*
%TO.N,Gyro SDA*%
X137034000Y-101627000D03*
%TO.N,unconnected-(U4-XDA-Pad5)*%
X137034000Y-104167000D03*
%TO.N,unconnected-(U4-XCL-Pad6)*%
X137034000Y-106707000D03*
%TO.N,unconnected-(U4-ADO-Pad7)*%
X137034000Y-109247000D03*
%TO.N,unconnected-(U4-INT-Pad8)*%
X137034000Y-111787000D03*
%TD*%
D17*
%TO.N,Battery Voltage Divider*%
%TO.C,R2*%
X143510000Y-115570000D03*
%TO.N,GND*%
X143510000Y-123190000D03*
%TD*%
D18*
%TO.N,+BATT*%
%TO.C,C4*%
X113030000Y-127080000D03*
D19*
%TO.N,GND*%
X113030000Y-132080000D03*
%TD*%
D20*
%TO.N,GND*%
%TO.C,T1*%
X128270000Y-132212500D03*
D21*
%TO.N,Net-(T1-Pad2)*%
X135890000Y-132212500D03*
%TD*%
D16*
%TO.N,B1*%
%TO.C,B1*%
X125095000Y-66040000D03*
D15*
%TO.N,B2*%
X127635000Y-66040000D03*
%TO.N,B3*%
X130175000Y-66040000D03*
%TO.N,B4*%
X132715000Y-66040000D03*
%TO.N,B5*%
X135255000Y-66040000D03*
%TO.N,B6*%
X137795000Y-66040000D03*
%TO.N,B7*%
X140335000Y-66040000D03*
%TD*%
D21*
%TO.N,Net-(T1-Pad2)*%
%TO.C,T2*%
X151130000Y-132212500D03*
%TO.N,+BATT*%
X158750000Y-132212500D03*
%TD*%
D22*
%TO.N,GND*%
%TO.C,C2*%
X110097600Y-119380001D03*
D23*
%TO.N,+3.3V*%
X112097600Y-119380001D03*
%TD*%
D24*
%TO.N,+3.3V*%
%TO.C,C1*%
X112395000Y-113125000D03*
D11*
%TO.N,GND*%
X110395000Y-113125000D03*
%TD*%
D25*
%TO.N,+BATT*%
%TO.C,R1*%
X138430000Y-123190000D03*
D17*
%TO.N,Battery Voltage Divider*%
X138430000Y-115570000D03*
%TD*%
%TO.N,GND*%
%TO.C,D1*%
X148590000Y-120650000D03*
D26*
%TO.N,Battery Voltage Divider*%
X148590000Y-115570000D03*
%TD*%
D14*
%TO.N,+3.3V*%
%TO.C,B3*%
X156845000Y-64765000D03*
D15*
X156845000Y-67305000D03*
%TD*%
D19*
%TO.N,GND*%
%TO.C,C3*%
X173990000Y-132080000D03*
D18*
%TO.N,+BATT*%
X173990000Y-127080000D03*
%TD*%
D14*
%TO.N,GND*%
%TO.C,U3*%
X117565000Y-119680000D03*
D16*
%TO.N,+3.3V*%
X117565000Y-117140000D03*
%TO.N,CE*%
X120105000Y-119680000D03*
%TO.N,CSN*%
X120105000Y-117140000D03*
%TO.N,SCK*%
X122645000Y-119680000D03*
%TO.N,MOSI*%
X122645000Y-117140000D03*
%TO.N,MISO*%
X125185000Y-119680000D03*
%TO.N,unconnected-(U3-IRQ-Pad8)*%
X125185000Y-117140000D03*
%TD*%
%TO.N,unconnected-(U1-PadVUSB)*%
%TO.C,U1*%
X170815000Y-84580000D03*
%TO.N,Teensy VIN*%
X173355000Y-87120000D03*
%TO.N,unconnected-(U1-PadVBAT)*%
X127635000Y-74420000D03*
%TO.N,Net-(U1-USB_GND-PadUSB_GND1)*%
X156845000Y-74930000D03*
X159385000Y-74930000D03*
%TO.N,unconnected-(U1-PadT-)*%
X160385000Y-80670000D03*
%TO.N,unconnected-(U1-PadT+)*%
X158385000Y-80670000D03*
%TO.N,unconnected-(U1-PadR-)*%
X158385000Y-84670000D03*
%TO.N,unconnected-(U1-PadR+)*%
X160385000Y-84670000D03*
%TO.N,unconnected-(U1-PadPROGRAM)*%
X127635000Y-82040000D03*
%TO.N,unconnected-(U1-PadON{slash}OFF)*%
X127635000Y-84580000D03*
%TO.N,unconnected-(U1-PadLED)*%
X160385000Y-82670000D03*
%TO.N,GND*%
X158385000Y-82670000D03*
X127635000Y-79500000D03*
X170815000Y-87120000D03*
X137795000Y-87120000D03*
X173355000Y-71880000D03*
%TO.N,unconnected-(U1-PadD-)*%
X164465000Y-74930000D03*
%TO.N,unconnected-(U1-PadD+)*%
X161925000Y-74930000D03*
%TO.N,B5*%
X135255000Y-87120000D03*
%TO.N,B4*%
X132715000Y-87120000D03*
%TO.N,B3*%
X130175000Y-87120000D03*
%TO.N,FS3*%
X127635000Y-87120000D03*
%TO.N,Leg5 Tibia*%
X125095000Y-87120000D03*
%TO.N,Leg4 Coxa*%
X122555000Y-87120000D03*
%TO.N,FS2*%
X120015000Y-87120000D03*
%TO.N,FS1*%
X117475000Y-87120000D03*
%TO.N,Leg4 Femur*%
X114935000Y-87120000D03*
%TO.N,unconnected-(U1-OUT1B-Pad32)*%
X114935000Y-71880000D03*
%TO.N,B1*%
X117475000Y-71880000D03*
%TO.N,B2*%
X120015000Y-71880000D03*
%TO.N,Leg6 Tibia*%
X122555000Y-71880000D03*
%TO.N,Leg5 Coxa*%
X125095000Y-71880000D03*
%TO.N,CSN*%
X127635000Y-71880000D03*
%TO.N,CE*%
X130175000Y-71880000D03*
%TO.N,Leg5 Femur*%
X132715000Y-71880000D03*
%TO.N,Leg4 Tibia*%
X135255000Y-71880000D03*
%TO.N,FS4*%
X165735000Y-87120000D03*
%TO.N,FS5*%
X163195000Y-87120000D03*
%TO.N,FS6*%
X160655000Y-87120000D03*
%TO.N,B7*%
X158115000Y-87120000D03*
%TO.N,Gyro SCL*%
X155575000Y-87120000D03*
%TO.N,Gyro SDA*%
X153035000Y-87120000D03*
%TO.N,B6*%
X150495000Y-87120000D03*
%TO.N,Battery Voltage Divider*%
X147955000Y-87120000D03*
%TO.N,Leg6 Coxa*%
X145415000Y-87120000D03*
%TO.N,Leg6 Femur*%
X142875000Y-87120000D03*
%TO.N,SCK*%
X140335000Y-87120000D03*
%TO.N,MISO*%
X140335000Y-71880000D03*
%TO.N,MOSI*%
X142875000Y-71880000D03*
%TO.N,Leg1 Coxa*%
X145415000Y-71880000D03*
%TO.N,Leg1 Femur*%
X147955000Y-71880000D03*
%TO.N,Leg1 Tibia*%
X150495000Y-71880000D03*
%TO.N,Leg2 Coxa*%
X153035000Y-71880000D03*
%TO.N,Leg2 Femur*%
X155575000Y-71880000D03*
%TO.N,+5V*%
X167005000Y-74930000D03*
%TO.N,Leg2 Tibia*%
X158115000Y-71880000D03*
%TO.N,Leg3 Coxa*%
X160655000Y-71880000D03*
%TO.N,+3.3V*%
X127635000Y-76960000D03*
X168275000Y-87120000D03*
X137795000Y-71880000D03*
%TO.N,Leg3 Femur*%
X163195000Y-71880000D03*
%TO.N,Leg3 Tibia*%
X165735000Y-71880000D03*
%TO.N,unconnected-(U1-TX1-Pad1)*%
X168275000Y-71880000D03*
%TO.N,unconnected-(U1-RX1-Pad0)*%
X170815000Y-71880000D03*
%TD*%
D14*
%TO.N,GND*%
%TO.C,Cox2*%
X97790000Y-96745001D03*
D15*
%TO.N,+BATT*%
X100330000Y-96745001D03*
%TO.N,Leg5 Coxa*%
X102870000Y-96745001D03*
%TD*%
D14*
%TO.N,GND*%
%TO.C,Cox6*%
X189214980Y-121490001D03*
D15*
%TO.N,+BATT*%
X186674980Y-121490001D03*
%TO.N,Leg1 Coxa*%
X184134980Y-121490001D03*
%TD*%
D14*
%TO.N,GND*%
%TO.C,Tib2*%
X97790000Y-106045001D03*
D15*
%TO.N,+BATT*%
X100330000Y-106045001D03*
%TO.N,Leg5 Tibia*%
X102870000Y-106045001D03*
%TD*%
D14*
%TO.N,GND*%
%TO.C,FS4*%
X175900000Y-91235000D03*
D15*
%TO.N,FS4*%
X173360000Y-91235000D03*
%TD*%
D14*
%TO.N,GND*%
%TO.C,Cox5*%
X189230001Y-106250000D03*
D15*
%TO.N,+BATT*%
X186690001Y-106250000D03*
%TO.N,Leg2 Coxa*%
X184150001Y-106250000D03*
%TD*%
D14*
%TO.N,GND*%
%TO.C,Tib1*%
X97790001Y-91010000D03*
D15*
%TO.N,+BATT*%
X100330001Y-91010000D03*
%TO.N,Leg6 Tibia*%
X102870001Y-91010000D03*
%TD*%
D14*
%TO.N,GND*%
%TO.C,Fem4*%
X189230000Y-86360000D03*
D15*
%TO.N,+BATT*%
X186690000Y-86360000D03*
%TO.N,Leg3 Femur*%
X184150000Y-86360000D03*
%TD*%
D14*
%TO.N,GND*%
%TO.C,Fem3*%
X97789999Y-116635000D03*
D15*
%TO.N,+BATT*%
X100329999Y-116635000D03*
%TO.N,Leg4 Femur*%
X102869999Y-116635000D03*
%TD*%
D14*
%TO.N,GND*%
%TO.C,Tib6*%
X189214997Y-112189999D03*
D15*
%TO.N,+BATT*%
X186674997Y-112189999D03*
%TO.N,Leg1 Tibia*%
X184134997Y-112189999D03*
%TD*%
D14*
%TO.N,GND*%
%TO.C,Fem5*%
X189230000Y-101600000D03*
D15*
%TO.N,+BATT*%
X186690000Y-101600000D03*
%TO.N,Leg2 Femur*%
X184150000Y-101600000D03*
%TD*%
D14*
%TO.N,GND*%
%TO.C,Cox1*%
X97790001Y-81710000D03*
D15*
%TO.N,+BATT*%
X100330001Y-81710000D03*
%TO.N,Leg6 Coxa*%
X102870001Y-81710000D03*
%TD*%
D14*
%TO.N,GND*%
%TO.C,FS2*%
X110495000Y-95250000D03*
D15*
%TO.N,FS2*%
X113035000Y-95250000D03*
%TD*%
D14*
%TO.N,GND*%
%TO.C,FS5*%
X175900001Y-95885000D03*
D15*
%TO.N,FS5*%
X173360001Y-95885000D03*
%TD*%
D14*
%TO.N,GND*%
%TO.C,Cox4*%
X189229992Y-91010010D03*
D15*
%TO.N,+BATT*%
X186689992Y-91010010D03*
%TO.N,Leg3 Coxa*%
X184149992Y-91010010D03*
%TD*%
D14*
%TO.N,GND*%
%TO.C,Fem2*%
X97790001Y-101395000D03*
D15*
%TO.N,+BATT*%
X100330001Y-101395000D03*
%TO.N,Leg5 Femur*%
X102870001Y-101395000D03*
%TD*%
D14*
%TO.N,GND*%
%TO.C,Tib5*%
X189230001Y-96950000D03*
D15*
%TO.N,+BATT*%
X186690001Y-96950000D03*
%TO.N,Leg2 Tibia*%
X184150001Y-96950000D03*
%TD*%
D14*
%TO.N,GND*%
%TO.C,Fem1*%
X97790000Y-86360000D03*
D15*
%TO.N,+BATT*%
X100330000Y-86360000D03*
%TO.N,Leg6 Femur*%
X102870000Y-86360000D03*
%TD*%
D14*
%TO.N,GND*%
%TO.C,Cox3*%
X97790000Y-111985000D03*
D15*
%TO.N,+BATT*%
X100330000Y-111985000D03*
%TO.N,Leg4 Coxa*%
X102870000Y-111985000D03*
%TD*%
D14*
%TO.N,GND*%
%TO.C,FS1*%
X110490000Y-90805000D03*
D15*
%TO.N,FS1*%
X113030000Y-90805000D03*
%TD*%
D14*
%TO.N,GND*%
%TO.C,Tib3*%
X97790000Y-121285000D03*
D15*
%TO.N,+BATT*%
X100330000Y-121285000D03*
%TO.N,Leg4 Tibia*%
X102870000Y-121285000D03*
%TD*%
D14*
%TO.N,GND*%
%TO.C,FS3*%
X110490000Y-99695000D03*
D15*
%TO.N,FS3*%
X113030000Y-99695000D03*
%TD*%
%TO.N,FS6*%
%TO.C,FS6*%
X173360000Y-100535000D03*
D14*
%TO.N,GND*%
X175900000Y-100535000D03*
%TD*%
%TO.N,GND*%
%TO.C,Fem6*%
X189215000Y-116840000D03*
D15*
%TO.N,+BATT*%
X186675000Y-116840000D03*
%TO.N,Leg1 Femur*%
X184135000Y-116840000D03*
%TD*%
D14*
%TO.N,GND*%
%TO.C,Tib4*%
X189230008Y-81710011D03*
D15*
%TO.N,+BATT*%
X186690008Y-81710011D03*
%TO.N,Leg3 Tibia*%
X184150008Y-81710011D03*
%TD*%
D27*
%TO.N,GND*%
X156856159Y-94964401D03*
X156926000Y-106680000D03*
X156881354Y-91613488D03*
X156845000Y-110490000D03*
%TD*%
D28*
%TO.N,+3.3V*%
X156845000Y-67305000D02*
X156845000Y-64765000D01*
X156845000Y-67940000D02*
X156845000Y-67305000D01*
X175260000Y-69850000D02*
X158755000Y-69850000D01*
X176530000Y-71120000D02*
X175260000Y-69850000D01*
X176530000Y-74295000D02*
X176530000Y-71120000D01*
X168275000Y-82550000D02*
X176530000Y-74295000D01*
X168275000Y-87120000D02*
X168275000Y-82550000D01*
X158755000Y-69850000D02*
X156845000Y-67940000D01*
D29*
%TO.N,B7*%
X146685000Y-70485000D02*
X146685000Y-75690000D01*
X142240000Y-66040000D02*
X146685000Y-70485000D01*
X146685000Y-75690000D02*
X158115000Y-87120000D01*
X140335000Y-66040000D02*
X142240000Y-66040000D01*
%TO.N,Net-(U1-USB_GND-PadUSB_GND1)*%
X156845000Y-74930000D02*
X159385000Y-74930000D01*
%TO.N,MOSI*%
X131149232Y-90465768D02*
X133985000Y-87630000D01*
X139065000Y-73660000D02*
X139065000Y-71443330D01*
X133985000Y-87630000D02*
X133985000Y-78740000D01*
X141681374Y-70686374D02*
X142875000Y-71880000D01*
X139821956Y-70686374D02*
X141681374Y-70686374D01*
X131149232Y-108635768D02*
X131149232Y-90465768D01*
X139065000Y-71443330D02*
X139821956Y-70686374D01*
X133985000Y-78740000D02*
X139065000Y-73660000D01*
X122645000Y-117139999D02*
X131149232Y-108635768D01*
%TO.N,MISO*%
X127000000Y-113421396D02*
X131599232Y-108822164D01*
X136525000Y-76897500D02*
X140335000Y-73087500D01*
X131599232Y-108822164D02*
X131599232Y-92555768D01*
X140335000Y-73087500D02*
X140335000Y-71879999D01*
X125185000Y-119680000D02*
X127000000Y-117865000D01*
X127000000Y-117865000D02*
X127000000Y-113421396D01*
X131599232Y-92555768D02*
X136525000Y-87630000D01*
X136525000Y-87630000D02*
X136525000Y-76897500D01*
%TO.N,SCK*%
X122645000Y-119680001D02*
X123847919Y-120882919D01*
X132049232Y-109008560D02*
X132049232Y-92742164D01*
X139045010Y-88409990D02*
X140335000Y-87120000D01*
X127450000Y-119565000D02*
X127450000Y-113607792D01*
X123847919Y-120882919D02*
X126132081Y-120882919D01*
X127450000Y-113607792D02*
X132049232Y-109008560D01*
X126132081Y-120882919D02*
X127450000Y-119565000D01*
X136381406Y-88409990D02*
X139045010Y-88409990D01*
X132049232Y-92742164D02*
X136381406Y-88409990D01*
%TO.N,Gyro SDA*%
X153035000Y-87120000D02*
X138528000Y-101627000D01*
X138528000Y-101627000D02*
X137034000Y-101627000D01*
%TO.N,Gyro SCL*%
X152400000Y-85725000D02*
X151765000Y-86360000D01*
X155575000Y-87120000D02*
X154180000Y-85725000D01*
X154180000Y-85725000D02*
X152400000Y-85725000D01*
X151765000Y-86360000D02*
X151765000Y-87753604D01*
X151765000Y-87753604D02*
X140431604Y-99087000D01*
X140431604Y-99087000D02*
X137034000Y-99087000D01*
%TO.N,CE*%
X123578603Y-115570000D02*
X130699232Y-108449371D01*
X131445000Y-73150000D02*
X130175001Y-71880000D01*
X120105000Y-119680000D02*
X121392951Y-118392048D01*
X130699232Y-89027060D02*
X131445000Y-88281292D01*
X131445000Y-88281292D02*
X131445000Y-73150000D01*
X122311396Y-115570000D02*
X123578603Y-115570000D01*
X130699232Y-108449371D02*
X130699232Y-89027060D01*
X121392951Y-118392048D02*
X121392952Y-116488444D01*
X121392952Y-116488444D02*
X122311396Y-115570000D01*
%TO.N,CSN*%
X130249233Y-108262976D02*
X130249232Y-89213456D01*
X123577209Y-114935000D02*
X130249233Y-108262976D01*
X120105000Y-117140000D02*
X122310000Y-114935000D01*
X128891279Y-73136279D02*
X127635000Y-71880000D01*
X128891279Y-87855503D02*
X128891279Y-73136279D01*
X130249232Y-89213456D02*
X128891279Y-87855503D01*
X122310000Y-114935000D02*
X123577209Y-114935000D01*
D28*
%TO.N,Teensy VIN*%
X178435000Y-82040000D02*
X173355000Y-87120000D01*
X178435000Y-71120000D02*
X178435000Y-82040000D01*
X161290000Y-67310000D02*
X162560000Y-68580000D01*
X161290000Y-67310000D02*
X161290000Y-64770000D01*
X175895000Y-68580000D02*
X178435000Y-71120000D01*
X162560000Y-68580000D02*
X175895000Y-68580000D01*
D29*
%TO.N,B1*%
X117985000Y-71880000D02*
X117475000Y-71880000D01*
X125095000Y-66040000D02*
X123825000Y-66040000D01*
X123825000Y-66040000D02*
X117985000Y-71880000D01*
%TO.N,B2*%
X123825000Y-67945000D02*
X125730000Y-67945000D01*
X125730000Y-67945000D02*
X127635000Y-66040000D01*
X120015000Y-71755000D02*
X123825000Y-67945000D01*
X120015000Y-71880000D02*
X120015000Y-71755000D01*
%TO.N,B3*%
X128905000Y-68580000D02*
X130175000Y-67310000D01*
X130175000Y-67310000D02*
X130175000Y-66040000D01*
X130175000Y-73660000D02*
X128905000Y-72390000D01*
X130175000Y-87120000D02*
X130175000Y-73660000D01*
X128905000Y-72390000D02*
X128905000Y-68580000D01*
%TO.N,B4*%
X133985000Y-76198603D02*
X132715000Y-77468603D01*
X133985000Y-67310000D02*
X133985000Y-76198603D01*
X132715000Y-77468603D02*
X132715000Y-87120000D01*
X132715000Y-66040000D02*
X133985000Y-67310000D01*
%TO.N,B6*%
X144145000Y-80770000D02*
X150495000Y-87120000D01*
X140335000Y-68580000D02*
X142240000Y-68580000D01*
X137795000Y-66040000D02*
X140335000Y-68580000D01*
X144145000Y-70485000D02*
X144145000Y-80770000D01*
X142240000Y-68580000D02*
X144145000Y-70485000D01*
%TD*%
%TA.AperFunction,Conductor*%
%TO.N,B7*%
G36*
X157009557Y-85836967D02*
G01*
X157061685Y-85883960D01*
X157153603Y-85966822D01*
X157199488Y-85998451D01*
X157290379Y-86061104D01*
X157416760Y-86121279D01*
X157524873Y-86152491D01*
X157537859Y-86156240D01*
X157537860Y-86156240D01*
X157537863Y-86156241D01*
X157598335Y-86165563D01*
X157658804Y-86174885D01*
X157784709Y-86186107D01*
X157920542Y-86198790D01*
X157920816Y-86198823D01*
X158071621Y-86221833D01*
X158072092Y-86221927D01*
X158243082Y-86264137D01*
X158243622Y-86264300D01*
X158428725Y-86330565D01*
X158435359Y-86336579D01*
X158435797Y-86345523D01*
X158435596Y-86346046D01*
X158117562Y-87116214D01*
X158111237Y-87122553D01*
X158111214Y-87122562D01*
X157341046Y-87440596D01*
X157332091Y-87440587D01*
X157325766Y-87434248D01*
X157325565Y-87433725D01*
X157259300Y-87248622D01*
X157259137Y-87248082D01*
X157216927Y-87077092D01*
X157216833Y-87076621D01*
X157193823Y-86925816D01*
X157193790Y-86925542D01*
X157181107Y-86789709D01*
X157169885Y-86663807D01*
X157151241Y-86542863D01*
X157116279Y-86421760D01*
X157056104Y-86295379D01*
X157005405Y-86221830D01*
X156961822Y-86158603D01*
X156831968Y-86014558D01*
X156828974Y-86006119D01*
X156832384Y-85998452D01*
X156993452Y-85837384D01*
X157001724Y-85833958D01*
X157009557Y-85836967D01*
G37*
%TD.AperFunction*%
%TD*%
%TA.AperFunction,Conductor*%
%TO.N,B7*%
G36*
X140670865Y-65259720D02*
G01*
X140671377Y-65259948D01*
X140849102Y-65343970D01*
X140849626Y-65344251D01*
X141000345Y-65435290D01*
X141000786Y-65435585D01*
X141123648Y-65525917D01*
X141123917Y-65526127D01*
X141228911Y-65613188D01*
X141325873Y-65694279D01*
X141378849Y-65733104D01*
X141424568Y-65766611D01*
X141424576Y-65766616D01*
X141534931Y-65827527D01*
X141666846Y-65874342D01*
X141830232Y-65904390D01*
X141830237Y-65904390D01*
X141830242Y-65904391D01*
X141986460Y-65912484D01*
X142023905Y-65914425D01*
X142031990Y-65918275D01*
X142035000Y-65926109D01*
X142035000Y-66153890D01*
X142031573Y-66162163D01*
X142023905Y-66165574D01*
X141830242Y-66175607D01*
X141830229Y-66175609D01*
X141666849Y-66205656D01*
X141666843Y-66205657D01*
X141534932Y-66252471D01*
X141424576Y-66313382D01*
X141424568Y-66313387D01*
X141360345Y-66360455D01*
X141325873Y-66385720D01*
X141228911Y-66466811D01*
X141123917Y-66553871D01*
X141123648Y-66554081D01*
X141000786Y-66644412D01*
X141000345Y-66644707D01*
X140849626Y-66735746D01*
X140849102Y-66736027D01*
X140671377Y-66820051D01*
X140662433Y-66820489D01*
X140655799Y-66814475D01*
X140655571Y-66813963D01*
X140623136Y-66735899D01*
X140335864Y-66044488D01*
X140335856Y-66035534D01*
X140335865Y-66035511D01*
X140390344Y-65904390D01*
X140655572Y-65266034D01*
X140661910Y-65259711D01*
X140670865Y-65259720D01*
G37*
%TD.AperFunction*%
%TD*%
%TA.AperFunction,Conductor*%
%TO.N,+3.3V*%
G36*
X157682898Y-67304989D02*
G01*
X157691166Y-67308423D01*
X157694586Y-67316699D01*
X157694579Y-67317096D01*
X157689343Y-67467645D01*
X157689319Y-67468002D01*
X157675736Y-67609029D01*
X157659274Y-67732741D01*
X157645029Y-67843081D01*
X157642595Y-67878495D01*
X157638082Y-67944160D01*
X157638081Y-67944178D01*
X157643507Y-68040133D01*
X157643509Y-68040140D01*
X157666389Y-68135104D01*
X157666390Y-68135107D01*
X157666391Y-68135109D01*
X157711801Y-68233187D01*
X157784819Y-68338507D01*
X157784827Y-68338516D01*
X157883057Y-68446950D01*
X157886072Y-68455382D01*
X157882659Y-68463078D01*
X157368449Y-68977288D01*
X157360176Y-68980715D01*
X157351931Y-68977317D01*
X157210362Y-68836721D01*
X157085998Y-68715151D01*
X156980743Y-68614012D01*
X156888227Y-68526494D01*
X156802081Y-68445787D01*
X156715934Y-68365079D01*
X156623418Y-68277562D01*
X156518163Y-68176423D01*
X156393800Y-68054853D01*
X156282356Y-67944174D01*
X156252278Y-67914303D01*
X156248824Y-67906042D01*
X156252220Y-67897759D01*
X156840860Y-67307733D01*
X156849128Y-67304297D01*
X157682898Y-67304989D01*
G37*
%TD.AperFunction*%
%TD*%
%TA.AperFunction,Conductor*%
%TO.N,+3.3V*%
G36*
X156007792Y-64612824D02*
G01*
X156840226Y-64763138D01*
X156847757Y-64767979D01*
X157311844Y-65437809D01*
X157427614Y-65604902D01*
X157429509Y-65613654D01*
X157424660Y-65621182D01*
X157424184Y-65621495D01*
X157349649Y-65667937D01*
X157264682Y-65728003D01*
X157179721Y-65795192D01*
X157094761Y-65869503D01*
X157009805Y-65950937D01*
X156924843Y-66039500D01*
X156839882Y-66135187D01*
X156754921Y-66238000D01*
X156669960Y-66347937D01*
X156588504Y-66460172D01*
X156580871Y-66464855D01*
X156579035Y-66465000D01*
X155847984Y-66465000D01*
X155839711Y-66461573D01*
X155836284Y-66453300D01*
X155836347Y-66452086D01*
X155850999Y-66311613D01*
X155866999Y-66151102D01*
X155882999Y-65983466D01*
X155898999Y-65808705D01*
X155915000Y-65626820D01*
X155931000Y-65437809D01*
X155947000Y-65241673D01*
X155963000Y-65038412D01*
X155979000Y-64828026D01*
X155994046Y-64623481D01*
X155998070Y-64615481D01*
X156006572Y-64612671D01*
X156007792Y-64612824D01*
G37*
%TD.AperFunction*%
%TD*%
%TA.AperFunction,Conductor*%
%TO.N,+3.3V*%
G36*
X156582512Y-65908209D02*
G01*
X156585898Y-65915505D01*
X156597893Y-66058676D01*
X156634674Y-66173577D01*
X156692482Y-66257937D01*
X156692484Y-66257938D01*
X156692485Y-66257940D01*
X156768467Y-66320222D01*
X156768471Y-66320224D01*
X156859750Y-66368877D01*
X156859755Y-66368879D01*
X156859766Y-66368885D01*
X156963526Y-66412386D01*
X157076725Y-66459118D01*
X157077056Y-66459267D01*
X157196702Y-66517595D01*
X157197276Y-66517916D01*
X157320293Y-66596062D01*
X157321644Y-66597064D01*
X157355051Y-66625771D01*
X157436478Y-66695741D01*
X157440520Y-66703732D01*
X157437727Y-66712240D01*
X157437133Y-66712881D01*
X156848434Y-67302560D01*
X156840164Y-67305994D01*
X156840140Y-67305994D01*
X156006415Y-67305013D01*
X155998146Y-67301576D01*
X155994732Y-67293589D01*
X155990520Y-67113586D01*
X155978360Y-66956433D01*
X155960440Y-66824977D01*
X155938680Y-66710651D01*
X155915000Y-66604890D01*
X155891320Y-66499130D01*
X155869588Y-66384950D01*
X155869541Y-66384667D01*
X155851661Y-66253502D01*
X155851626Y-66253172D01*
X155839490Y-66096334D01*
X155839476Y-66096043D01*
X155838601Y-66058676D01*
X155835280Y-65916755D01*
X155838513Y-65908405D01*
X155846703Y-65904785D01*
X155846977Y-65904782D01*
X156574239Y-65904782D01*
X156582512Y-65908209D01*
G37*
%TD.AperFunction*%
%TD*%
%TA.AperFunction,Conductor*%
%TO.N,+3.3V*%
G36*
X168646816Y-85423427D02*
G01*
X168650240Y-85431455D01*
X168654076Y-85614903D01*
X168666317Y-85774793D01*
X168686742Y-85908025D01*
X168715363Y-86022912D01*
X168715366Y-86022922D01*
X168752204Y-86127823D01*
X168752208Y-86127834D01*
X168781388Y-86194687D01*
X168797286Y-86231112D01*
X168850616Y-86341094D01*
X168912216Y-86466126D01*
X168982104Y-86614553D01*
X169055566Y-86783816D01*
X169055716Y-86792769D01*
X169049491Y-86799207D01*
X169049322Y-86799279D01*
X168279489Y-87119134D01*
X168270534Y-87119143D01*
X168270511Y-87119134D01*
X167500677Y-86799279D01*
X167494352Y-86792940D01*
X167494361Y-86783985D01*
X167494381Y-86783936D01*
X167567895Y-86614553D01*
X167637783Y-86466126D01*
X167699383Y-86341094D01*
X167752713Y-86231111D01*
X167797790Y-86127834D01*
X167834632Y-86022920D01*
X167863257Y-85908023D01*
X167883681Y-85774800D01*
X167895923Y-85614907D01*
X167899760Y-85431454D01*
X167903359Y-85423256D01*
X167911457Y-85420000D01*
X168638543Y-85420000D01*
X168646816Y-85423427D01*
G37*
%TD.AperFunction*%
%TD*%
%TA.AperFunction,Conductor*%
%TO.N,Net-(U1-USB_GND-PadUSB_GND1)*%
G36*
X157180865Y-74149720D02*
G01*
X157181377Y-74149948D01*
X157359102Y-74233970D01*
X157359626Y-74234251D01*
X157510345Y-74325290D01*
X157510786Y-74325585D01*
X157633648Y-74415917D01*
X157633917Y-74416127D01*
X157738911Y-74503188D01*
X157835873Y-74584279D01*
X157888849Y-74623104D01*
X157934568Y-74656611D01*
X157934576Y-74656616D01*
X158044931Y-74717527D01*
X158176846Y-74764342D01*
X158340232Y-74794390D01*
X158340237Y-74794390D01*
X158340242Y-74794391D01*
X158496460Y-74802484D01*
X158533905Y-74804425D01*
X158541990Y-74808275D01*
X158545000Y-74816109D01*
X158545000Y-75043890D01*
X158541573Y-75052163D01*
X158533905Y-75055574D01*
X158340242Y-75065607D01*
X158340229Y-75065609D01*
X158176849Y-75095656D01*
X158176843Y-75095657D01*
X158044932Y-75142471D01*
X157934576Y-75203382D01*
X157934568Y-75203387D01*
X157870345Y-75250455D01*
X157835873Y-75275720D01*
X157738911Y-75356811D01*
X157633917Y-75443871D01*
X157633648Y-75444081D01*
X157510786Y-75534412D01*
X157510345Y-75534707D01*
X157359626Y-75625746D01*
X157359102Y-75626027D01*
X157181377Y-75710051D01*
X157172433Y-75710489D01*
X157165799Y-75704475D01*
X157165571Y-75703963D01*
X157133136Y-75625899D01*
X156845864Y-74934488D01*
X156845856Y-74925534D01*
X156845865Y-74925511D01*
X156900344Y-74794390D01*
X157165572Y-74156034D01*
X157171910Y-74149711D01*
X157180865Y-74149720D01*
G37*
%TD.AperFunction*%
%TD*%
%TA.AperFunction,Conductor*%
%TO.N,Net-(U1-USB_GND-PadUSB_GND1)*%
G36*
X159064201Y-74155524D02*
G01*
X159064428Y-74156036D01*
X159384134Y-74925511D01*
X159384143Y-74934466D01*
X159384134Y-74934489D01*
X159064428Y-75703963D01*
X159058089Y-75710288D01*
X159049134Y-75710279D01*
X159048622Y-75710051D01*
X158870895Y-75626027D01*
X158870371Y-75625746D01*
X158719652Y-75534707D01*
X158719211Y-75534412D01*
X158596350Y-75444081D01*
X158596081Y-75443871D01*
X158491087Y-75356811D01*
X158394126Y-75275720D01*
X158347791Y-75241762D01*
X158295429Y-75203387D01*
X158295421Y-75203382D01*
X158185066Y-75142471D01*
X158053155Y-75095657D01*
X158053149Y-75095656D01*
X157889769Y-75065609D01*
X157889756Y-75065607D01*
X157696095Y-75055574D01*
X157688010Y-75051724D01*
X157685000Y-75043890D01*
X157685000Y-74816109D01*
X157688427Y-74807836D01*
X157696094Y-74804425D01*
X157736305Y-74802341D01*
X157889756Y-74794391D01*
X157889760Y-74794390D01*
X157889767Y-74794390D01*
X158053153Y-74764342D01*
X158185068Y-74717527D01*
X158295422Y-74656616D01*
X158394126Y-74584279D01*
X158491087Y-74503188D01*
X158596093Y-74416117D01*
X158596350Y-74415917D01*
X158719211Y-74325585D01*
X158719644Y-74325295D01*
X158870378Y-74234246D01*
X158870887Y-74233974D01*
X159048624Y-74149946D01*
X159057566Y-74149510D01*
X159064201Y-74155524D01*
G37*
%TD.AperFunction*%
%TD*%
%TA.AperFunction,Conductor*%
%TO.N,MOSI*%
G36*
X141681411Y-70561732D02*
G01*
X141888802Y-70567925D01*
X141889229Y-70567953D01*
X142067715Y-70587033D01*
X142068247Y-70587116D01*
X142215678Y-70617879D01*
X142216312Y-70618050D01*
X142342477Y-70659675D01*
X142343049Y-70659898D01*
X142403261Y-70687045D01*
X142457791Y-70711631D01*
X142458162Y-70711815D01*
X142571350Y-70772970D01*
X142692563Y-70842711D01*
X142831323Y-70920124D01*
X142997337Y-71004397D01*
X143041989Y-71024265D01*
X143189879Y-71090073D01*
X143196042Y-71096566D01*
X143195934Y-71105227D01*
X142877853Y-71875511D01*
X142871528Y-71881850D01*
X142871512Y-71881856D01*
X142101713Y-72200311D01*
X142092758Y-72200307D01*
X142086429Y-72193973D01*
X142086019Y-72192815D01*
X142030199Y-72003855D01*
X142029783Y-72001757D01*
X142017051Y-71880000D01*
X142008940Y-71802432D01*
X142008911Y-71801684D01*
X142013645Y-71607811D01*
X142013670Y-71607401D01*
X142031065Y-71424091D01*
X142048073Y-71256128D01*
X142048145Y-71253106D01*
X142051599Y-71108339D01*
X142048178Y-71090071D01*
X142028570Y-70985348D01*
X141965912Y-70891777D01*
X141850551Y-70832243D01*
X141679776Y-70812567D01*
X141671949Y-70808216D01*
X141669415Y-70800944D01*
X141669415Y-70573428D01*
X141672842Y-70565155D01*
X141681115Y-70561728D01*
X141681411Y-70561732D01*
G37*
%TD.AperFunction*%
%TD*%
%TA.AperFunction,Conductor*%
%TO.N,MOSI*%
G36*
X123766547Y-115857385D02*
G01*
X123927613Y-116018451D01*
X123931040Y-116026724D01*
X123928030Y-116034558D01*
X123798175Y-116178602D01*
X123703897Y-116315374D01*
X123703894Y-116315379D01*
X123643718Y-116441760D01*
X123643718Y-116441761D01*
X123608757Y-116562859D01*
X123608756Y-116562866D01*
X123590113Y-116683803D01*
X123578891Y-116809709D01*
X123566210Y-116945516D01*
X123566169Y-116945854D01*
X123543167Y-117096602D01*
X123543065Y-117097112D01*
X123531847Y-117142562D01*
X123500864Y-117268071D01*
X123500692Y-117268641D01*
X123434434Y-117453725D01*
X123428420Y-117460359D01*
X123419476Y-117460797D01*
X123418953Y-117460596D01*
X122648785Y-117142562D01*
X122642447Y-117136238D01*
X122324403Y-116366045D01*
X122324412Y-116357091D01*
X122330751Y-116350766D01*
X122331258Y-116350571D01*
X122516381Y-116284298D01*
X122516910Y-116284138D01*
X122687910Y-116241926D01*
X122688373Y-116241834D01*
X122839185Y-116218822D01*
X122839451Y-116218790D01*
X122975289Y-116206107D01*
X123101194Y-116194884D01*
X123153023Y-116186893D01*
X123222134Y-116176240D01*
X123343237Y-116141279D01*
X123469619Y-116081104D01*
X123606397Y-115986819D01*
X123750441Y-115856967D01*
X123758879Y-115853974D01*
X123766547Y-115857385D01*
G37*
%TD.AperFunction*%
%TD*%
%TA.AperFunction,Conductor*%
%TO.N,MISO*%
G36*
X140341237Y-71884836D02*
G01*
X140927948Y-72472929D01*
X140931365Y-72481205D01*
X140928099Y-72489300D01*
X140808641Y-72613541D01*
X140749126Y-72681309D01*
X140708792Y-72727237D01*
X140708785Y-72727244D01*
X140708783Y-72727248D01*
X140629585Y-72826849D01*
X140564145Y-72917068D01*
X140505589Y-73002589D01*
X140447032Y-73088110D01*
X140381593Y-73178329D01*
X140302474Y-73277829D01*
X140302290Y-73278048D01*
X140202611Y-73391551D01*
X140202432Y-73391745D01*
X140083408Y-73515536D01*
X140075204Y-73519125D01*
X140066865Y-73515861D01*
X140066701Y-73515700D01*
X139905889Y-73354888D01*
X139902462Y-73346615D01*
X139905145Y-73339160D01*
X139997359Y-73227685D01*
X140046154Y-73119420D01*
X140046154Y-73119416D01*
X140046155Y-73119415D01*
X140052417Y-73018745D01*
X140052417Y-73018743D01*
X140023819Y-72921828D01*
X140023815Y-72921820D01*
X139968037Y-72824865D01*
X139968027Y-72824849D01*
X139892723Y-72723999D01*
X139805566Y-72615437D01*
X139714354Y-72495509D01*
X139714116Y-72495172D01*
X139626565Y-72360180D01*
X139626236Y-72359603D01*
X139555261Y-72216491D01*
X139554656Y-72207557D01*
X139560545Y-72200811D01*
X139561235Y-72200497D01*
X140328473Y-71882292D01*
X140337428Y-71882289D01*
X140341237Y-71884836D01*
G37*
%TD.AperFunction*%
%TD*%
%TA.AperFunction,Conductor*%
%TO.N,MISO*%
G36*
X126306548Y-118397385D02*
G01*
X126467614Y-118558451D01*
X126471041Y-118566724D01*
X126468031Y-118574558D01*
X126338176Y-118718603D01*
X126243897Y-118855374D01*
X126243894Y-118855379D01*
X126183719Y-118981760D01*
X126183719Y-118981761D01*
X126148758Y-119102859D01*
X126148757Y-119102866D01*
X126130114Y-119223804D01*
X126118891Y-119349709D01*
X126106211Y-119485515D01*
X126106170Y-119485854D01*
X126083167Y-119636602D01*
X126083065Y-119637112D01*
X126071847Y-119682562D01*
X126040864Y-119808071D01*
X126040692Y-119808641D01*
X125974434Y-119993725D01*
X125968420Y-120000359D01*
X125959476Y-120000797D01*
X125958953Y-120000596D01*
X125188785Y-119682562D01*
X125182447Y-119676238D01*
X124864403Y-118906045D01*
X124864412Y-118897091D01*
X124870751Y-118890766D01*
X124871258Y-118890571D01*
X125056381Y-118824298D01*
X125056910Y-118824138D01*
X125227910Y-118781926D01*
X125228373Y-118781834D01*
X125379186Y-118758822D01*
X125379452Y-118758790D01*
X125515289Y-118746107D01*
X125641195Y-118734885D01*
X125693024Y-118726894D01*
X125762135Y-118716241D01*
X125883238Y-118681279D01*
X126009619Y-118621104D01*
X126146398Y-118526820D01*
X126290442Y-118396967D01*
X126298880Y-118393974D01*
X126306548Y-118397385D01*
G37*
%TD.AperFunction*%
%TD*%
%TA.AperFunction,Conductor*%
%TO.N,SCK*%
G36*
X123427908Y-119359412D02*
G01*
X123434233Y-119365751D01*
X123434434Y-119366274D01*
X123500692Y-119551357D01*
X123500864Y-119551927D01*
X123543066Y-119722890D01*
X123543167Y-119723396D01*
X123566170Y-119874144D01*
X123566211Y-119874483D01*
X123578891Y-120010289D01*
X123590114Y-120136195D01*
X123608757Y-120257131D01*
X123608758Y-120257138D01*
X123629734Y-120329796D01*
X123643719Y-120378238D01*
X123703894Y-120504619D01*
X123703897Y-120504623D01*
X123798176Y-120641395D01*
X123928031Y-120785441D01*
X123931025Y-120793880D01*
X123927614Y-120801548D01*
X123766548Y-120962614D01*
X123758275Y-120966041D01*
X123750441Y-120963031D01*
X123606395Y-120833176D01*
X123469623Y-120738897D01*
X123469624Y-120738897D01*
X123469619Y-120738894D01*
X123343238Y-120678719D01*
X123294796Y-120664734D01*
X123222138Y-120643758D01*
X123222131Y-120643757D01*
X123101195Y-120625114D01*
X122975289Y-120613891D01*
X122839483Y-120601211D01*
X122839154Y-120601171D01*
X122688395Y-120578166D01*
X122687890Y-120578066D01*
X122516927Y-120535864D01*
X122516363Y-120535694D01*
X122429559Y-120504619D01*
X122331274Y-120469434D01*
X122324640Y-120463420D01*
X122324202Y-120454476D01*
X122324391Y-120453981D01*
X122642438Y-119683783D01*
X122648759Y-119677448D01*
X123418954Y-119359403D01*
X123427908Y-119359412D01*
G37*
%TD.AperFunction*%
%TD*%
%TA.AperFunction,Conductor*%
%TO.N,SCK*%
G36*
X139561031Y-86799397D02*
G01*
X140331215Y-87117438D01*
X140337552Y-87123761D01*
X140337562Y-87123785D01*
X140655596Y-87893953D01*
X140655587Y-87902908D01*
X140649248Y-87909233D01*
X140648725Y-87909434D01*
X140463641Y-87975692D01*
X140463071Y-87975864D01*
X140387082Y-87994622D01*
X140292112Y-88018065D01*
X140291602Y-88018167D01*
X140227495Y-88027949D01*
X140140848Y-88041170D01*
X140140515Y-88041211D01*
X140004709Y-88053891D01*
X139878804Y-88065114D01*
X139757866Y-88083757D01*
X139757859Y-88083758D01*
X139660980Y-88111726D01*
X139636760Y-88118719D01*
X139510379Y-88178894D01*
X139510376Y-88178896D01*
X139510374Y-88178897D01*
X139373603Y-88273176D01*
X139229558Y-88403031D01*
X139221119Y-88406025D01*
X139213451Y-88402614D01*
X139052385Y-88241548D01*
X139048958Y-88233275D01*
X139051967Y-88225442D01*
X139181820Y-88081398D01*
X139276104Y-87944619D01*
X139336279Y-87818238D01*
X139371241Y-87697135D01*
X139389885Y-87576192D01*
X139401107Y-87450289D01*
X139413790Y-87314452D01*
X139413822Y-87314186D01*
X139436834Y-87163373D01*
X139436926Y-87162910D01*
X139479138Y-86991910D01*
X139479298Y-86991381D01*
X139545565Y-86806273D01*
X139551579Y-86799639D01*
X139560523Y-86799202D01*
X139561031Y-86799397D01*
G37*
%TD.AperFunction*%
%TD*%
%TA.AperFunction,Conductor*%
%TO.N,Gyro SDA*%
G36*
X152261031Y-86799397D02*
G01*
X153031215Y-87117438D01*
X153037552Y-87123761D01*
X153037562Y-87123785D01*
X153355596Y-87893953D01*
X153355587Y-87902908D01*
X153349248Y-87909233D01*
X153348725Y-87909434D01*
X153163641Y-87975692D01*
X153163071Y-87975864D01*
X153091033Y-87993647D01*
X152992112Y-88018065D01*
X152991602Y-88018167D01*
X152927495Y-88027949D01*
X152840848Y-88041170D01*
X152840515Y-88041211D01*
X152704709Y-88053891D01*
X152578804Y-88065114D01*
X152457866Y-88083757D01*
X152457859Y-88083758D01*
X152360980Y-88111726D01*
X152336760Y-88118719D01*
X152210379Y-88178894D01*
X152210376Y-88178896D01*
X152210374Y-88178897D01*
X152073603Y-88273176D01*
X151929558Y-88403031D01*
X151921119Y-88406025D01*
X151913451Y-88402614D01*
X151753156Y-88242319D01*
X151749729Y-88234046D01*
X151753155Y-88225774D01*
X151984959Y-87993970D01*
X151985294Y-87993663D01*
X152018194Y-87966059D01*
X152039666Y-87928866D01*
X152039925Y-87928460D01*
X152064554Y-87893288D01*
X152067919Y-87880723D01*
X152069085Y-87877910D01*
X152075588Y-87866649D01*
X152075631Y-87866410D01*
X152077825Y-87853957D01*
X152083046Y-87824347D01*
X152083147Y-87823893D01*
X152094263Y-87782411D01*
X152090521Y-87739641D01*
X152090500Y-87739146D01*
X152090500Y-87569554D01*
X152090523Y-87569034D01*
X152101107Y-87450289D01*
X152113790Y-87314452D01*
X152113822Y-87314186D01*
X152136834Y-87163373D01*
X152136926Y-87162910D01*
X152179138Y-86991910D01*
X152179298Y-86991381D01*
X152245565Y-86806273D01*
X152251579Y-86799639D01*
X152260523Y-86799202D01*
X152261031Y-86799397D01*
G37*
%TD.AperFunction*%
%TD*%
%TA.AperFunction,Conductor*%
%TO.N,Gyro SDA*%
G36*
X137369657Y-100847221D02*
G01*
X137370616Y-100847670D01*
X137468003Y-100898948D01*
X137530844Y-100932036D01*
X137532413Y-100933029D01*
X137605820Y-100988084D01*
X137679355Y-101043235D01*
X137679839Y-101043643D01*
X137807998Y-101163915D01*
X137808213Y-101164128D01*
X137922207Y-101283726D01*
X138026913Y-101391997D01*
X138026919Y-101392002D01*
X138127246Y-101478293D01*
X138127248Y-101478294D01*
X138228232Y-101532077D01*
X138287483Y-101538038D01*
X138334880Y-101542807D01*
X138334881Y-101542806D01*
X138334884Y-101542807D01*
X138452225Y-101499944D01*
X138577096Y-101399524D01*
X138585687Y-101397012D01*
X138592698Y-101400371D01*
X138753679Y-101561352D01*
X138757106Y-101569625D01*
X138753679Y-101577898D01*
X138753581Y-101577995D01*
X138602597Y-101725448D01*
X138466688Y-101849345D01*
X138466456Y-101849545D01*
X138346945Y-101947544D01*
X138346616Y-101947795D01*
X138236239Y-102025927D01*
X138235840Y-102026186D01*
X138127359Y-102090440D01*
X138126973Y-102090649D01*
X138013124Y-102147000D01*
X138012841Y-102147131D01*
X137886287Y-102201566D01*
X137739895Y-102259977D01*
X137566622Y-102328241D01*
X137370031Y-102407939D01*
X137361076Y-102407871D01*
X137354830Y-102401585D01*
X137225640Y-102090649D01*
X137035154Y-101632188D01*
X137035146Y-101623239D01*
X137354369Y-100853544D01*
X137360702Y-100847217D01*
X137369657Y-100847221D01*
G37*
%TD.AperFunction*%
%TD*%
%TA.AperFunction,Conductor*%
%TO.N,Gyro SCL*%
G36*
X154469557Y-85836967D02*
G01*
X154521685Y-85883960D01*
X154613603Y-85966822D01*
X154659488Y-85998451D01*
X154750379Y-86061104D01*
X154876760Y-86121279D01*
X154984873Y-86152491D01*
X154997859Y-86156240D01*
X154997860Y-86156240D01*
X154997863Y-86156241D01*
X155058335Y-86165563D01*
X155118804Y-86174885D01*
X155244709Y-86186107D01*
X155380542Y-86198790D01*
X155380816Y-86198823D01*
X155531621Y-86221833D01*
X155532092Y-86221927D01*
X155703082Y-86264137D01*
X155703622Y-86264300D01*
X155888725Y-86330565D01*
X155895359Y-86336579D01*
X155895797Y-86345523D01*
X155895596Y-86346046D01*
X155577562Y-87116214D01*
X155571237Y-87122553D01*
X155571214Y-87122562D01*
X154801046Y-87440596D01*
X154792091Y-87440587D01*
X154785766Y-87434248D01*
X154785565Y-87433725D01*
X154719300Y-87248622D01*
X154719137Y-87248082D01*
X154676927Y-87077092D01*
X154676833Y-87076621D01*
X154653823Y-86925816D01*
X154653790Y-86925542D01*
X154641107Y-86789709D01*
X154629885Y-86663807D01*
X154611241Y-86542863D01*
X154576279Y-86421760D01*
X154516104Y-86295379D01*
X154465405Y-86221830D01*
X154421822Y-86158603D01*
X154291968Y-86014558D01*
X154288974Y-86006119D01*
X154292384Y-85998452D01*
X154453452Y-85837384D01*
X154461724Y-85833958D01*
X154469557Y-85836967D01*
G37*
%TD.AperFunction*%
%TD*%
%TA.AperFunction,Conductor*%
%TO.N,Gyro SCL*%
G36*
X137369865Y-98306720D02*
G01*
X137370377Y-98306948D01*
X137548102Y-98390970D01*
X137548626Y-98391251D01*
X137699345Y-98482290D01*
X137699786Y-98482585D01*
X137822648Y-98572917D01*
X137822917Y-98573127D01*
X137927911Y-98660188D01*
X138024873Y-98741279D01*
X138077849Y-98780104D01*
X138123568Y-98813611D01*
X138123576Y-98813616D01*
X138233931Y-98874527D01*
X138365846Y-98921342D01*
X138529232Y-98951390D01*
X138529237Y-98951390D01*
X138529242Y-98951391D01*
X138685460Y-98959484D01*
X138722905Y-98961425D01*
X138730990Y-98965275D01*
X138734000Y-98973109D01*
X138734000Y-99200890D01*
X138730573Y-99209163D01*
X138722905Y-99212574D01*
X138529242Y-99222607D01*
X138529229Y-99222609D01*
X138365849Y-99252656D01*
X138365843Y-99252657D01*
X138233932Y-99299471D01*
X138123576Y-99360382D01*
X138123568Y-99360387D01*
X138059345Y-99407455D01*
X138024873Y-99432720D01*
X137927911Y-99513811D01*
X137822917Y-99600871D01*
X137822648Y-99601081D01*
X137699786Y-99691412D01*
X137699345Y-99691707D01*
X137548626Y-99782746D01*
X137548102Y-99783027D01*
X137370377Y-99867051D01*
X137361433Y-99867489D01*
X137354799Y-99861475D01*
X137354571Y-99860963D01*
X137322136Y-99782899D01*
X137034864Y-99091488D01*
X137034856Y-99082534D01*
X137034865Y-99082511D01*
X137089344Y-98951390D01*
X137354572Y-98313034D01*
X137360910Y-98306711D01*
X137369865Y-98306720D01*
G37*
%TD.AperFunction*%
%TD*%
%TA.AperFunction,Conductor*%
%TO.N,CE*%
G36*
X130957908Y-71559412D02*
G01*
X130964233Y-71565751D01*
X130964434Y-71566274D01*
X131030692Y-71751357D01*
X131030864Y-71751927D01*
X131073066Y-71922890D01*
X131073167Y-71923396D01*
X131096170Y-72074144D01*
X131096211Y-72074483D01*
X131108891Y-72210289D01*
X131120114Y-72336195D01*
X131138757Y-72457131D01*
X131138758Y-72457138D01*
X131159734Y-72529796D01*
X131173719Y-72578238D01*
X131233894Y-72704619D01*
X131233897Y-72704623D01*
X131328176Y-72841395D01*
X131458031Y-72985441D01*
X131461025Y-72993880D01*
X131457614Y-73001548D01*
X131296548Y-73162614D01*
X131288275Y-73166041D01*
X131280441Y-73163031D01*
X131136395Y-73033176D01*
X130999623Y-72938897D01*
X130999624Y-72938897D01*
X130999619Y-72938894D01*
X130873238Y-72878719D01*
X130824796Y-72864734D01*
X130752138Y-72843758D01*
X130752131Y-72843757D01*
X130631195Y-72825114D01*
X130505289Y-72813891D01*
X130369483Y-72801211D01*
X130369154Y-72801171D01*
X130218395Y-72778166D01*
X130217890Y-72778066D01*
X130046927Y-72735864D01*
X130046363Y-72735694D01*
X129959559Y-72704619D01*
X129861274Y-72669434D01*
X129854640Y-72663420D01*
X129854202Y-72654476D01*
X129854391Y-72653981D01*
X130172438Y-71883783D01*
X130178759Y-71877448D01*
X130948954Y-71559403D01*
X130957908Y-71559412D01*
G37*
%TD.AperFunction*%
%TD*%
%TA.AperFunction,Conductor*%
%TO.N,CE*%
G36*
X121226547Y-118397385D02*
G01*
X121387613Y-118558451D01*
X121391040Y-118566724D01*
X121388030Y-118574558D01*
X121258175Y-118718603D01*
X121185313Y-118824306D01*
X121163894Y-118855379D01*
X121103719Y-118981760D01*
X121103719Y-118981761D01*
X121068757Y-119102859D01*
X121068755Y-119102868D01*
X121050114Y-119223804D01*
X121038891Y-119349709D01*
X121026211Y-119485515D01*
X121026170Y-119485854D01*
X121003167Y-119636602D01*
X121003065Y-119637112D01*
X120991847Y-119682562D01*
X120960864Y-119808071D01*
X120960692Y-119808641D01*
X120894434Y-119993725D01*
X120888420Y-120000359D01*
X120879476Y-120000797D01*
X120878953Y-120000596D01*
X120108785Y-119682562D01*
X120102447Y-119676238D01*
X119784403Y-118906045D01*
X119784412Y-118897091D01*
X119790751Y-118890766D01*
X119791258Y-118890571D01*
X119976381Y-118824298D01*
X119976910Y-118824138D01*
X120147910Y-118781926D01*
X120148373Y-118781834D01*
X120299186Y-118758822D01*
X120299452Y-118758790D01*
X120435289Y-118746107D01*
X120561194Y-118734885D01*
X120613024Y-118726894D01*
X120682135Y-118716241D01*
X120803238Y-118681279D01*
X120929619Y-118621104D01*
X121066397Y-118526820D01*
X121210441Y-118396967D01*
X121218879Y-118393974D01*
X121226547Y-118397385D01*
G37*
%TD.AperFunction*%
%TD*%
%TA.AperFunction,Conductor*%
%TO.N,CSN*%
G36*
X121226548Y-115857385D02*
G01*
X121386843Y-116017680D01*
X121390270Y-116025953D01*
X121386843Y-116034226D01*
X121173025Y-116248044D01*
X121172648Y-116248388D01*
X121139760Y-116275986D01*
X121139754Y-116275992D01*
X121118294Y-116313163D01*
X121118020Y-116313593D01*
X121093400Y-116348755D01*
X121093397Y-116348762D01*
X121090033Y-116361316D01*
X121088865Y-116364136D01*
X121082364Y-116375399D01*
X121074910Y-116417668D01*
X121074799Y-116418166D01*
X121063687Y-116459637D01*
X121063687Y-116459640D01*
X121066043Y-116486563D01*
X121067429Y-116502413D01*
X121067451Y-116502907D01*
X121067451Y-116570446D01*
X121067314Y-116572229D01*
X121050114Y-116683804D01*
X121038891Y-116809709D01*
X121026211Y-116945515D01*
X121026170Y-116945854D01*
X121003167Y-117096602D01*
X121003065Y-117097112D01*
X120991847Y-117142562D01*
X120960864Y-117268071D01*
X120960692Y-117268641D01*
X120894434Y-117453725D01*
X120888420Y-117460359D01*
X120879476Y-117460797D01*
X120878953Y-117460596D01*
X120108785Y-117142562D01*
X120102447Y-117136238D01*
X119784403Y-116366045D01*
X119784412Y-116357091D01*
X119790751Y-116350766D01*
X119791258Y-116350571D01*
X119976381Y-116284298D01*
X119976910Y-116284138D01*
X120147910Y-116241926D01*
X120148373Y-116241834D01*
X120299186Y-116218822D01*
X120299452Y-116218790D01*
X120435289Y-116206107D01*
X120561195Y-116194885D01*
X120613024Y-116186894D01*
X120682135Y-116176241D01*
X120803238Y-116141279D01*
X120929619Y-116081104D01*
X121066398Y-115986820D01*
X121210442Y-115856967D01*
X121218880Y-115853974D01*
X121226548Y-115857385D01*
G37*
%TD.AperFunction*%
%TD*%
%TA.AperFunction,Conductor*%
%TO.N,CSN*%
G36*
X128417908Y-71559412D02*
G01*
X128424233Y-71565751D01*
X128424434Y-71566274D01*
X128490692Y-71751357D01*
X128490864Y-71751927D01*
X128533066Y-71922890D01*
X128533167Y-71923396D01*
X128556170Y-72074144D01*
X128556211Y-72074483D01*
X128568891Y-72210289D01*
X128579477Y-72329045D01*
X128579500Y-72329565D01*
X128579500Y-72375535D01*
X128579478Y-72376029D01*
X128578143Y-72391289D01*
X128575735Y-72418803D01*
X128575735Y-72418805D01*
X128586847Y-72460275D01*
X128586958Y-72460774D01*
X128594412Y-72503044D01*
X128594413Y-72503048D01*
X128600911Y-72514302D01*
X128602080Y-72517123D01*
X128605446Y-72529684D01*
X128605447Y-72529685D01*
X128628586Y-72562732D01*
X128630242Y-72566196D01*
X128633719Y-72578238D01*
X128693894Y-72704619D01*
X128693897Y-72704623D01*
X128788176Y-72841395D01*
X128918031Y-72985441D01*
X128921025Y-72993880D01*
X128917614Y-73001548D01*
X128756548Y-73162614D01*
X128748275Y-73166041D01*
X128740441Y-73163031D01*
X128596395Y-73033176D01*
X128459623Y-72938897D01*
X128459624Y-72938897D01*
X128459619Y-72938894D01*
X128333238Y-72878719D01*
X128284796Y-72864734D01*
X128212138Y-72843758D01*
X128212131Y-72843757D01*
X128091195Y-72825114D01*
X127965289Y-72813891D01*
X127829483Y-72801211D01*
X127829154Y-72801171D01*
X127678395Y-72778166D01*
X127677890Y-72778066D01*
X127506927Y-72735864D01*
X127506363Y-72735694D01*
X127419559Y-72704619D01*
X127321274Y-72669434D01*
X127314640Y-72663420D01*
X127314202Y-72654476D01*
X127314391Y-72653981D01*
X127632438Y-71883783D01*
X127638759Y-71877448D01*
X128408954Y-71559403D01*
X128417908Y-71559412D01*
G37*
%TD.AperFunction*%
%TD*%
%TA.AperFunction,Conductor*%
%TO.N,Teensy VIN*%
G36*
X174300017Y-85660855D02*
G01*
X174814144Y-86174982D01*
X174817571Y-86183255D01*
X174814315Y-86191353D01*
X174687305Y-86323789D01*
X174677945Y-86334702D01*
X174582902Y-86445504D01*
X174555885Y-86482304D01*
X174503147Y-86554138D01*
X174503142Y-86554146D01*
X174442141Y-86655628D01*
X174442138Y-86655633D01*
X174442138Y-86655634D01*
X174394003Y-86755871D01*
X174394001Y-86755877D01*
X174352850Y-86860773D01*
X174312790Y-86976252D01*
X174267937Y-87108222D01*
X174212402Y-87262593D01*
X174144661Y-87434225D01*
X174138436Y-87440663D01*
X174129483Y-87440813D01*
X174129312Y-87440744D01*
X173358785Y-87122562D01*
X173352447Y-87116238D01*
X173034255Y-86345686D01*
X173034264Y-86336732D01*
X173040603Y-86330407D01*
X173040698Y-86330368D01*
X173212405Y-86262597D01*
X173366777Y-86207061D01*
X173498746Y-86162208D01*
X173614226Y-86122148D01*
X173719128Y-86080995D01*
X173819365Y-86032861D01*
X173920850Y-85971857D01*
X174029495Y-85892096D01*
X174029499Y-85892092D01*
X174029499Y-85892093D01*
X174151209Y-85787694D01*
X174165216Y-85774260D01*
X174283647Y-85660683D01*
X174291989Y-85657431D01*
X174300017Y-85660855D01*
G37*
%TD.AperFunction*%
%TD*%
%TA.AperFunction,Conductor*%
%TO.N,Teensy VIN*%
G36*
X162073267Y-66989264D02*
G01*
X162079592Y-66995603D01*
X162079661Y-66995774D01*
X162147402Y-67167405D01*
X162202937Y-67321777D01*
X162247790Y-67453746D01*
X162287850Y-67569226D01*
X162329003Y-67674128D01*
X162377138Y-67774365D01*
X162377140Y-67774369D01*
X162377141Y-67774370D01*
X162438142Y-67875852D01*
X162438147Y-67875860D01*
X162482636Y-67936458D01*
X162517902Y-67984495D01*
X162517905Y-67984499D01*
X162622305Y-68106209D01*
X162749315Y-68238646D01*
X162752568Y-68246989D01*
X162749144Y-68255017D01*
X162235017Y-68769144D01*
X162226744Y-68772571D01*
X162218646Y-68769315D01*
X162086209Y-68642305D01*
X161964499Y-68537905D01*
X161964495Y-68537902D01*
X161916458Y-68502636D01*
X161855860Y-68458147D01*
X161855852Y-68458142D01*
X161754370Y-68397141D01*
X161754369Y-68397140D01*
X161754365Y-68397138D01*
X161654128Y-68349003D01*
X161549226Y-68307850D01*
X161433746Y-68267790D01*
X161301777Y-68222937D01*
X161147405Y-68167402D01*
X160975774Y-68099661D01*
X160969336Y-68093436D01*
X160969186Y-68084483D01*
X160969230Y-68084372D01*
X161287438Y-67313783D01*
X161293759Y-67307448D01*
X162064313Y-66989255D01*
X162073267Y-66989264D01*
G37*
%TD.AperFunction*%
%TD*%
%TA.AperFunction,Conductor*%
%TO.N,Teensy VIN*%
G36*
X161298266Y-64777276D02*
G01*
X162132172Y-65612163D01*
X162135594Y-65620437D01*
X162132602Y-65628244D01*
X162092502Y-65672935D01*
X162044997Y-65733002D01*
X162044998Y-65733001D01*
X161997497Y-65800191D01*
X161997497Y-65800192D01*
X161950000Y-65874499D01*
X161902500Y-65955937D01*
X161854999Y-66044500D01*
X161807499Y-66140187D01*
X161759999Y-66242999D01*
X161712499Y-66352937D01*
X161667961Y-66462699D01*
X161661675Y-66469077D01*
X161657120Y-66470000D01*
X160922879Y-66470000D01*
X160914606Y-66466573D01*
X160912038Y-66462699D01*
X160867500Y-66352937D01*
X160820000Y-66242999D01*
X160772500Y-66140187D01*
X160725000Y-66044501D01*
X160725000Y-66044500D01*
X160677500Y-65955937D01*
X160629999Y-65874499D01*
X160582499Y-65800187D01*
X160535001Y-65733001D01*
X160535002Y-65733002D01*
X160487497Y-65672935D01*
X160447397Y-65628244D01*
X160444422Y-65619797D01*
X160447825Y-65612165D01*
X161281723Y-64777286D01*
X161289993Y-64773855D01*
X161298266Y-64777276D01*
G37*
%TD.AperFunction*%
%TD*%
%TA.AperFunction,Conductor*%
%TO.N,Teensy VIN*%
G36*
X161661816Y-65613427D02*
G01*
X161665240Y-65621455D01*
X161669076Y-65804903D01*
X161681317Y-65964793D01*
X161701742Y-66098025D01*
X161730363Y-66212912D01*
X161730366Y-66212922D01*
X161767204Y-66317823D01*
X161767208Y-66317834D01*
X161796388Y-66384687D01*
X161812286Y-66421112D01*
X161865616Y-66531094D01*
X161927216Y-66656126D01*
X161997104Y-66804553D01*
X162070566Y-66973816D01*
X162070716Y-66982769D01*
X162064491Y-66989207D01*
X162064322Y-66989279D01*
X161294489Y-67309134D01*
X161285534Y-67309143D01*
X161285511Y-67309134D01*
X160515677Y-66989279D01*
X160509352Y-66982940D01*
X160509361Y-66973985D01*
X160509381Y-66973936D01*
X160582895Y-66804553D01*
X160652783Y-66656126D01*
X160714383Y-66531094D01*
X160767713Y-66421111D01*
X160812790Y-66317834D01*
X160849632Y-66212920D01*
X160878257Y-66098023D01*
X160898681Y-65964800D01*
X160910923Y-65804907D01*
X160914760Y-65621454D01*
X160918359Y-65613256D01*
X160926457Y-65610000D01*
X161653543Y-65610000D01*
X161661816Y-65613427D01*
G37*
%TD.AperFunction*%
%TD*%
%TA.AperFunction,Conductor*%
%TO.N,B1*%
G36*
X124502014Y-65446995D02*
G01*
X125090162Y-66033761D01*
X125093599Y-66042030D01*
X125092706Y-66046526D01*
X124774541Y-66813670D01*
X124768207Y-66819999D01*
X124759252Y-66819995D01*
X124758475Y-66819640D01*
X124611730Y-66745804D01*
X124611096Y-66745433D01*
X124473511Y-66652982D01*
X124473117Y-66652693D01*
X124351369Y-66555204D01*
X124241529Y-66461005D01*
X124139732Y-66378542D01*
X124041918Y-66316105D01*
X124041915Y-66316103D01*
X123983740Y-66295826D01*
X123944029Y-66281985D01*
X123944028Y-66281985D01*
X123842006Y-66284474D01*
X123731793Y-66331864D01*
X123617530Y-66425710D01*
X123608962Y-66428313D01*
X123601831Y-66424942D01*
X123441052Y-66264163D01*
X123437625Y-66255890D01*
X123441052Y-66247617D01*
X123441224Y-66247448D01*
X123564422Y-66130643D01*
X123564687Y-66130408D01*
X123679163Y-66034484D01*
X123679449Y-66034258D01*
X123781029Y-65960016D01*
X123781245Y-65959867D01*
X123874352Y-65900001D01*
X123963257Y-65847312D01*
X124052161Y-65794623D01*
X124145374Y-65734688D01*
X124247201Y-65660266D01*
X124247202Y-65660266D01*
X124361963Y-65564102D01*
X124361964Y-65564102D01*
X124416813Y-65512098D01*
X124485703Y-65446786D01*
X124494063Y-65443582D01*
X124502014Y-65446995D01*
G37*
%TD.AperFunction*%
%TD*%
%TA.AperFunction,Conductor*%
%TO.N,B1*%
G36*
X118789017Y-70914754D02*
G01*
X118949818Y-71075555D01*
X118953245Y-71083828D01*
X118949890Y-71092029D01*
X118831828Y-71212163D01*
X118730395Y-71321144D01*
X118649136Y-71416628D01*
X118649135Y-71416628D01*
X118583461Y-71504558D01*
X118583461Y-71504559D01*
X118528814Y-71590829D01*
X118528813Y-71590830D01*
X118480581Y-71681415D01*
X118434199Y-71782215D01*
X118385079Y-71899175D01*
X118328639Y-72038220D01*
X118264742Y-72194416D01*
X118258438Y-72200776D01*
X118249483Y-72200815D01*
X118249447Y-72200800D01*
X117481533Y-71883696D01*
X117475194Y-71877371D01*
X117474299Y-71872874D01*
X117474989Y-71042281D01*
X117478423Y-71034013D01*
X117486699Y-71030593D01*
X117487264Y-71030606D01*
X117549087Y-71033666D01*
X117658195Y-71039066D01*
X117658707Y-71039114D01*
X117818040Y-71061710D01*
X117818388Y-71061771D01*
X117958777Y-71091099D01*
X118084599Y-71120291D01*
X118200174Y-71142441D01*
X118288022Y-71149027D01*
X118309982Y-71150674D01*
X118309982Y-71150673D01*
X118309984Y-71150674D01*
X118356723Y-71145266D01*
X118418507Y-71138119D01*
X118418507Y-71138118D01*
X118418513Y-71138118D01*
X118530244Y-71097900D01*
X118649659Y-71023144D01*
X118773001Y-70914255D01*
X118781471Y-70911350D01*
X118789017Y-70914754D01*
G37*
%TD.AperFunction*%
%TD*%
%TA.AperFunction,Conductor*%
%TO.N,B2*%
G36*
X126861031Y-65719397D02*
G01*
X127631215Y-66037438D01*
X127637552Y-66043761D01*
X127637562Y-66043785D01*
X127955596Y-66813953D01*
X127955587Y-66822908D01*
X127949248Y-66829233D01*
X127948725Y-66829434D01*
X127763641Y-66895692D01*
X127763071Y-66895864D01*
X127687082Y-66914622D01*
X127592112Y-66938065D01*
X127591602Y-66938167D01*
X127527495Y-66947949D01*
X127440848Y-66961170D01*
X127440515Y-66961211D01*
X127304709Y-66973891D01*
X127178804Y-66985114D01*
X127057866Y-67003757D01*
X127057859Y-67003758D01*
X126960980Y-67031726D01*
X126936760Y-67038719D01*
X126810379Y-67098894D01*
X126810376Y-67098896D01*
X126810374Y-67098897D01*
X126673603Y-67193176D01*
X126529558Y-67323031D01*
X126521119Y-67326025D01*
X126513451Y-67322614D01*
X126352385Y-67161548D01*
X126348958Y-67153275D01*
X126351967Y-67145442D01*
X126481820Y-67001398D01*
X126576104Y-66864619D01*
X126636279Y-66738238D01*
X126671241Y-66617135D01*
X126689885Y-66496192D01*
X126701107Y-66370289D01*
X126713790Y-66234452D01*
X126713822Y-66234186D01*
X126736834Y-66083373D01*
X126736926Y-66082910D01*
X126779138Y-65911910D01*
X126779298Y-65911381D01*
X126845565Y-65726273D01*
X126851579Y-65719639D01*
X126860523Y-65719202D01*
X126861031Y-65719397D01*
G37*
%TD.AperFunction*%
%TD*%
%TA.AperFunction,Conductor*%
%TO.N,B2*%
G36*
X121061691Y-70547392D02*
G01*
X121222766Y-70708467D01*
X121226193Y-70716740D01*
X121223267Y-70724480D01*
X121093338Y-70871758D01*
X121003835Y-71012792D01*
X121003833Y-71012796D01*
X120951993Y-71144214D01*
X120927773Y-71270909D01*
X120921135Y-71397763D01*
X120922039Y-71529653D01*
X120920449Y-71671230D01*
X120920425Y-71671690D01*
X120906347Y-71827757D01*
X120906248Y-71828424D01*
X120869691Y-72004033D01*
X120869493Y-72004750D01*
X120804347Y-72193544D01*
X120798409Y-72200247D01*
X120789471Y-72200788D01*
X120788830Y-72200545D01*
X120018784Y-71882561D01*
X120012447Y-71876238D01*
X119694356Y-71105931D01*
X119694365Y-71096978D01*
X119700704Y-71090653D01*
X119701083Y-71090505D01*
X119878976Y-71024808D01*
X119879361Y-71024683D01*
X120042676Y-70978777D01*
X120042995Y-70978699D01*
X120185957Y-70948908D01*
X120313797Y-70927479D01*
X120431598Y-70906666D01*
X120431601Y-70906665D01*
X120431601Y-70906666D01*
X120488104Y-70892675D01*
X120544610Y-70878685D01*
X120658083Y-70835756D01*
X120777267Y-70770097D01*
X120907409Y-70673926D01*
X121045504Y-70547048D01*
X121053913Y-70543975D01*
X121061691Y-70547392D01*
G37*
%TD.AperFunction*%
%TD*%
%TA.AperFunction,Conductor*%
%TO.N,B3*%
G36*
X130181237Y-66044836D02*
G01*
X130496471Y-66360813D01*
X130768004Y-66632985D01*
X130771421Y-66641262D01*
X130768212Y-66649298D01*
X130650896Y-66773035D01*
X130650896Y-66773036D01*
X130554733Y-66887796D01*
X130554733Y-66887797D01*
X130480310Y-66989624D01*
X130420375Y-67082837D01*
X130367686Y-67171742D01*
X130314997Y-67260646D01*
X130255158Y-67353710D01*
X130254960Y-67353998D01*
X130180754Y-67455528D01*
X130180514Y-67455834D01*
X130084589Y-67570311D01*
X130084350Y-67570579D01*
X129967600Y-67693724D01*
X129959421Y-67697370D01*
X129951059Y-67694165D01*
X129950836Y-67693947D01*
X129790057Y-67533168D01*
X129786630Y-67524895D01*
X129789289Y-67517469D01*
X129839910Y-67455834D01*
X129883136Y-67403204D01*
X129930525Y-67292991D01*
X129933014Y-67190969D01*
X129898894Y-67093080D01*
X129836456Y-66995266D01*
X129753993Y-66893469D01*
X129659794Y-66783630D01*
X129562302Y-66661878D01*
X129562015Y-66661487D01*
X129469564Y-66523902D01*
X129469193Y-66523268D01*
X129395359Y-66376524D01*
X129394702Y-66367593D01*
X129400552Y-66360813D01*
X129401309Y-66360466D01*
X130168473Y-66042292D01*
X130177428Y-66042289D01*
X130181237Y-66044836D01*
G37*
%TD.AperFunction*%
%TD*%
%TA.AperFunction,Conductor*%
%TO.N,B3*%
G36*
X130297164Y-85423427D02*
G01*
X130300575Y-85431095D01*
X130310607Y-85624756D01*
X130310609Y-85624769D01*
X130340656Y-85788149D01*
X130340657Y-85788155D01*
X130387471Y-85920066D01*
X130448382Y-86030421D01*
X130448387Y-86030429D01*
X130486762Y-86082791D01*
X130520720Y-86129126D01*
X130601811Y-86226087D01*
X130688871Y-86331081D01*
X130689081Y-86331350D01*
X130779412Y-86454211D01*
X130779707Y-86454652D01*
X130870746Y-86605371D01*
X130871027Y-86605895D01*
X130955051Y-86783622D01*
X130955489Y-86792566D01*
X130949475Y-86799200D01*
X130948963Y-86799428D01*
X130179489Y-87119134D01*
X130170534Y-87119143D01*
X130170511Y-87119134D01*
X129401036Y-86799428D01*
X129394711Y-86793089D01*
X129394720Y-86784134D01*
X129394928Y-86783663D01*
X129478975Y-86605883D01*
X129479251Y-86605371D01*
X129570295Y-86454644D01*
X129570585Y-86454211D01*
X129660917Y-86331350D01*
X129661117Y-86331093D01*
X129748188Y-86226087D01*
X129829279Y-86129126D01*
X129901616Y-86030422D01*
X129962527Y-85920068D01*
X130009342Y-85788153D01*
X130039390Y-85624767D01*
X130049425Y-85431094D01*
X130053275Y-85423010D01*
X130061109Y-85420000D01*
X130288891Y-85420000D01*
X130297164Y-85423427D01*
G37*
%TD.AperFunction*%
%TD*%
%TA.AperFunction,Conductor*%
%TO.N,B4*%
G36*
X132837164Y-85423427D02*
G01*
X132840575Y-85431095D01*
X132850607Y-85624756D01*
X132850609Y-85624769D01*
X132880656Y-85788149D01*
X132880657Y-85788155D01*
X132927471Y-85920066D01*
X132988382Y-86030421D01*
X132988387Y-86030429D01*
X133026762Y-86082791D01*
X133060720Y-86129126D01*
X133141811Y-86226087D01*
X133228871Y-86331081D01*
X133229081Y-86331350D01*
X133319412Y-86454211D01*
X133319707Y-86454652D01*
X133410746Y-86605371D01*
X133411027Y-86605895D01*
X133495051Y-86783622D01*
X133495489Y-86792566D01*
X133489475Y-86799200D01*
X133488963Y-86799428D01*
X132719489Y-87119134D01*
X132710534Y-87119143D01*
X132710511Y-87119134D01*
X131941036Y-86799428D01*
X131934711Y-86793089D01*
X131934720Y-86784134D01*
X131934928Y-86783663D01*
X132018975Y-86605883D01*
X132019251Y-86605371D01*
X132110295Y-86454644D01*
X132110585Y-86454211D01*
X132200917Y-86331350D01*
X132201117Y-86331093D01*
X132288188Y-86226087D01*
X132369279Y-86129126D01*
X132441616Y-86030422D01*
X132502527Y-85920068D01*
X132549342Y-85788153D01*
X132579390Y-85624767D01*
X132589425Y-85431094D01*
X132593275Y-85423010D01*
X132601109Y-85420000D01*
X132828891Y-85420000D01*
X132837164Y-85423427D01*
G37*
%TD.AperFunction*%
%TD*%
%TA.AperFunction,Conductor*%
%TO.N,B4*%
G36*
X133497908Y-65719412D02*
G01*
X133504233Y-65725751D01*
X133504434Y-65726274D01*
X133570692Y-65911357D01*
X133570864Y-65911927D01*
X133613066Y-66082890D01*
X133613167Y-66083396D01*
X133636170Y-66234144D01*
X133636211Y-66234483D01*
X133648891Y-66370289D01*
X133660114Y-66496195D01*
X133678757Y-66617131D01*
X133678758Y-66617138D01*
X133699734Y-66689796D01*
X133713719Y-66738238D01*
X133773894Y-66864619D01*
X133773897Y-66864623D01*
X133868176Y-67001395D01*
X133998031Y-67145441D01*
X134001025Y-67153880D01*
X133997614Y-67161548D01*
X133836548Y-67322614D01*
X133828275Y-67326041D01*
X133820441Y-67323031D01*
X133676395Y-67193176D01*
X133539623Y-67098897D01*
X133539624Y-67098897D01*
X133539619Y-67098894D01*
X133413238Y-67038719D01*
X133364796Y-67024734D01*
X133292138Y-67003758D01*
X133292131Y-67003757D01*
X133171195Y-66985114D01*
X133045289Y-66973891D01*
X132909483Y-66961211D01*
X132909154Y-66961171D01*
X132758395Y-66938166D01*
X132757890Y-66938066D01*
X132586927Y-66895864D01*
X132586363Y-66895694D01*
X132499559Y-66864619D01*
X132401274Y-66829434D01*
X132394640Y-66823420D01*
X132394202Y-66814476D01*
X132394391Y-66813981D01*
X132712438Y-66043783D01*
X132718759Y-66037448D01*
X133488954Y-65719403D01*
X133497908Y-65719412D01*
G37*
%TD.AperFunction*%
%TD*%
%TA.AperFunction,Conductor*%
%TO.N,B6*%
G36*
X149389557Y-85836967D02*
G01*
X149441685Y-85883960D01*
X149533603Y-85966822D01*
X149579488Y-85998451D01*
X149670379Y-86061104D01*
X149796760Y-86121279D01*
X149904873Y-86152491D01*
X149917859Y-86156240D01*
X149917860Y-86156240D01*
X149917863Y-86156241D01*
X149978335Y-86165563D01*
X150038804Y-86174885D01*
X150164709Y-86186107D01*
X150300542Y-86198790D01*
X150300816Y-86198823D01*
X150451621Y-86221833D01*
X150452092Y-86221927D01*
X150623082Y-86264137D01*
X150623622Y-86264300D01*
X150808725Y-86330565D01*
X150815359Y-86336579D01*
X150815797Y-86345523D01*
X150815596Y-86346046D01*
X150497562Y-87116214D01*
X150491237Y-87122553D01*
X150491214Y-87122562D01*
X149721046Y-87440596D01*
X149712091Y-87440587D01*
X149705766Y-87434248D01*
X149705565Y-87433725D01*
X149639300Y-87248622D01*
X149639137Y-87248082D01*
X149596927Y-87077092D01*
X149596833Y-87076621D01*
X149573823Y-86925816D01*
X149573790Y-86925542D01*
X149561107Y-86789709D01*
X149549885Y-86663807D01*
X149531241Y-86542863D01*
X149496279Y-86421760D01*
X149436104Y-86295379D01*
X149385405Y-86221830D01*
X149341822Y-86158603D01*
X149211968Y-86014558D01*
X149208974Y-86006119D01*
X149212384Y-85998452D01*
X149373452Y-85837384D01*
X149381724Y-85833958D01*
X149389557Y-85836967D01*
G37*
%TD.AperFunction*%
%TD*%
%TA.AperFunction,Conductor*%
%TO.N,B6*%
G36*
X138577908Y-65719412D02*
G01*
X138584233Y-65725751D01*
X138584434Y-65726274D01*
X138650692Y-65911357D01*
X138650864Y-65911927D01*
X138693066Y-66082890D01*
X138693167Y-66083396D01*
X138716170Y-66234144D01*
X138716211Y-66234483D01*
X138728891Y-66370289D01*
X138740114Y-66496195D01*
X138758757Y-66617131D01*
X138758758Y-66617138D01*
X138779734Y-66689796D01*
X138793719Y-66738238D01*
X138853894Y-66864619D01*
X138853897Y-66864623D01*
X138948176Y-67001395D01*
X139078031Y-67145441D01*
X139081025Y-67153880D01*
X139077614Y-67161548D01*
X138916548Y-67322614D01*
X138908275Y-67326041D01*
X138900441Y-67323031D01*
X138756395Y-67193176D01*
X138619623Y-67098897D01*
X138619624Y-67098897D01*
X138619619Y-67098894D01*
X138493238Y-67038719D01*
X138444796Y-67024734D01*
X138372138Y-67003758D01*
X138372131Y-67003757D01*
X138251195Y-66985114D01*
X138125289Y-66973891D01*
X137989483Y-66961211D01*
X137989154Y-66961171D01*
X137838395Y-66938166D01*
X137837890Y-66938066D01*
X137666927Y-66895864D01*
X137666363Y-66895694D01*
X137579559Y-66864619D01*
X137481274Y-66829434D01*
X137474640Y-66823420D01*
X137474202Y-66814476D01*
X137474391Y-66813981D01*
X137792438Y-66043783D01*
X137798759Y-66037448D01*
X138568954Y-65719403D01*
X138577908Y-65719412D01*
G37*
%TD.AperFunction*%
%TD*%
M02*
